<?xml version="1.0" encoding="UTF-8"?>
<!DOCTYPE svg PUBLIC "-//W3C//DTD SVG 1.1//EN" "http://www.w3.org/Graphics/SVG/1.1/DTD/svg11.dtd">
<!--Generated by Origin-->
<svg xmlns="http://www.w3.org/2000/svg" xmlns:xlink="http://www.w3.org/1999/xlink" xmlns:olab="http://www.originlab.com/namespaces/olab" viewBox="96,66 3214,2250" width="10.720000in" height="7.500000in">
	<defs>
		<mask id="Cp_1">
			<rect x="494" y="72" width="2810" height="2059" fill="white"/>
		</mask>
	</defs>
	<g mask="url(#Cp_1)">
		<rect x="96" y="66" width="3214" height="2250" visibility="hidden" fill="none" opacity="0"/>
		<path d="M 568,579 L 568,579 595,578 622,576 649,574 677,573 704,571 731,570 758,568 785,567 812,565 839,564 867,562 894,561 921,560 948,558 975,557 1002,556 1029,555 1057,553 1084,552 1111,551 1138,550 1165,549 1192,548 1220,547 1247,546 1274,545 1301,545 1328,544 1355,543 1382,542 1410,542 1437,541 1464,541 1491,540 1518,540 1545,539 1572,539 1600,538 1627,538 1654,538 1681,537 1708,537 1735,537 1762,537 1790,536 1817,536 1844,536 1871,536 1898,536 1925,535 1953,535 1980,535 2007,535 2034,535 2061,535 2088,535 2115,535 2143,534 2170,534 2197,534 2224,534 2251,534 2278,534 2305,534 2333,534 2360,534 2387,534 2414,534 2441,534 2468,534 2496,534 2523,534 2550,534 2577,533 2604,533 2631,533 2658,533 2686,534 2713,534 2740,534 2767,534 2794,534 2821,534 2848,534 2876,534 2903,534 2930,534 2957,533 2984,533 3011,533 3038,533 3066,532 3093,532 3120,532 3147,532 3174,531 3201,531 3229,531 3256,531 3256,579 Z M 568,579 L 568,512 595,512 622,512 649,511 677,511 704,511 731,511 758,511 785,510 812,510 839,510 867,509 894,509 921,508 948,508 975,507 1002,507 1029,506 1057,506 1084,505 1111,504 1138,503 1165,502 1192,502 1220,501 1247,500 1274,499 1301,498 1328,496 1355,495 1382,494 1410,493 1437,491 1464,490 1491,489 1518,487 1545,486 1572,484 1600,483 1627,481 1654,479 1681,478 1708,476 1735,474 1762,473 1790,471 1817,469 1844,467 1871,466 1898,464 1925,462 1953,460 1980,458 2007,456 2034,454 2061,452 2088,450 2115,449 2143,447 2170,445 2197,443 2224,441 2251,439 2278,437 2305,436 2333,435 2360,434 2387,433 2414,432 2441,431 2468,430 2496,429 2523,428 2550,427 2577,426 2604,425 2631,424 2658,423 2686,422 2713,422 2740,421 2767,420 2794,419 2821,419 2848,418 2876,417 2903,416 2930,415 2957,414 2984,414 3011,413 3038,412 3066,411 3093,411 3120,410 3147,409 3174,408 3201,408 3229,407 3256,406 3256,579 Z" fill="#FDC1C1" fill-rule="evenodd" stroke="none" olab:comment=""/>
		<polyline points="568,579 595,578 622,576 649,574 677,573 704,571 731,570 758,568 785,567 812,565 839,564 867,562 894,561 921,560 948,558 975,557 1002,556 1029,555 1057,553 1084,552 1111,551 1138,550 1165,549 1192,548 1220,547 1247,546 1274,545 1301,545 1328,544 1355,543 1382,542 1410,542 1437,541 1464,541 1491,540 1518,540 1545,539 1572,539 1600,538 1627,538 1654,538 1681,537 1708,537 1735,537 1762,537 1790,536 1817,536 1844,536 1871,536 1898,536 1925,535 1953,535 1980,535 2007,535 2034,535 2061,535 2088,535 2115,535 2143,534 2170,534 2197,534 2224,534 2251,534 2278,534 2305,534 2333,534 2360,534 2387,534 2414,534 2441,534 2468,534 2496,534 2523,534 2550,534 2577,533 2604,533 2631,533 2658,533 2686,534 2713,534 2740,534 2767,534 2794,534 2821,534 2848,534 2876,534 2903,534 2930,534 2957,533 2984,533 3011,533 3038,533 3066,532 3093,532 3120,532 3147,532 3174,531 3201,531 3229,531 3256,531" style="stroke: #FDC1C1;stroke-width: 2;stroke-linecap:round;stroke-linejoin:round" fill="none" olab:comment=""/>
		<polyline points="568,546 595,545 622,544 649,543 677,542 704,541 731,540 758,539 785,539 812,538 839,537 867,536 894,535 921,534 948,533 975,532 1002,531 1029,530 1057,529 1084,529 1111,528 1138,527 1165,526 1192,525 1220,524 1247,523 1274,522 1301,521 1328,520 1355,519 1382,518 1410,517 1437,516 1464,515 1491,514 1518,513 1545,512 1572,511 1600,510 1627,510 1654,509 1681,508 1708,507 1735,506 1762,505 1790,504 1817,503 1844,502 1871,501 1898,500 1925,499 1953,498 1980,497 2007,496 2034,495 2061,494 2088,493 2115,492 2143,491 2170,490 2197,488 2224,487 2251,486 2278,486 2305,485 2333,485 2360,484 2387,484 2414,483 2441,483 2468,482 2496,481 2523,481 2550,480 2577,480 2604,479 2631,479 2658,478 2686,478 2713,478 2740,477 2767,477 2794,476 2821,476 2848,476 2876,475 2903,475 2930,475 2957,474 2984,473 3011,473 3038,472 3066,472 3093,471 3120,471 3147,470 3174,470 3201,469 3229,469 3256,468" style="stroke: #F14040;stroke-width: 14;stroke-linecap:round;stroke-linejoin:round" fill="none" olab:comment=""/>
		<polyline points="568,512 595,512 622,512 649,511 677,511 704,511 731,511 758,511 785,510 812,510 839,510 867,509 894,509 921,508 948,508 975,507 1002,507 1029,506 1057,506 1084,505 1111,504 1138,503 1165,502 1192,502 1220,501 1247,500 1274,499 1301,498 1328,496 1355,495 1382,494 1410,493 1437,491 1464,490 1491,489 1518,487 1545,486 1572,484 1600,483 1627,481 1654,479 1681,478 1708,476 1735,474 1762,473 1790,471 1817,469 1844,467 1871,466 1898,464 1925,462 1953,460 1980,458 2007,456 2034,454 2061,452 2088,450 2115,449 2143,447 2170,445 2197,443 2224,441 2251,439 2278,437 2305,436 2333,435 2360,434 2387,433 2414,432 2441,431 2468,430 2496,429 2523,428 2550,427 2577,426 2604,425 2631,424 2658,423 2686,422 2713,422 2740,421 2767,420 2794,419 2821,419 2848,418 2876,417 2903,416 2930,415 2957,414 2984,414 3011,413 3038,412 3066,411 3093,411 3120,410 3147,409 3174,408 3201,408 3229,407 3256,406" style="stroke: #FDC1C1;stroke-width: 2;stroke-linecap:round;stroke-linejoin:round" fill="none" olab:comment=""/>
	</g>
	<polyline points="494,2130 3303,2130" style="stroke: black;stroke-width: 14;stroke-linecap:square;stroke-linejoin:round" fill="none" olab:comment=""/>
	<polyline points="864,2130 864,2111" style="stroke: black;stroke-width: 14;stroke-linecap:butt;stroke-linejoin:round" fill="none" olab:comment=""/>
	<polyline points="1159,2130 1159,2111" style="stroke: black;stroke-width: 14;stroke-linecap:butt;stroke-linejoin:round" fill="none" olab:comment=""/>
	<polyline points="1455,2130 1455,2111" style="stroke: black;stroke-width: 14;stroke-linecap:butt;stroke-linejoin:round" fill="none" olab:comment=""/>
	<polyline points="2046,2130 2046,2111" style="stroke: black;stroke-width: 14;stroke-linecap:butt;stroke-linejoin:round" fill="none" olab:comment=""/>
	<polyline points="2342,2130 2342,2111" style="stroke: black;stroke-width: 14;stroke-linecap:butt;stroke-linejoin:round" fill="none" olab:comment=""/>
	<polyline points="2638,2130 2638,2111" style="stroke: black;stroke-width: 14;stroke-linecap:butt;stroke-linejoin:round" fill="none" olab:comment=""/>
	<polyline points="3229,2130 3229,2111" style="stroke: black;stroke-width: 14;stroke-linecap:butt;stroke-linejoin:round" fill="none" olab:comment=""/>
	<polyline points="568,2130 568,2092" style="stroke: black;stroke-width: 14;stroke-linecap:butt;stroke-linejoin:round" fill="none" olab:comment=""/>
	<polyline points="1751,2130 1751,2092" style="stroke: black;stroke-width: 14;stroke-linecap:butt;stroke-linejoin:round" fill="none" olab:comment=""/>
	<polyline points="2933,2130 2933,2092" style="stroke: black;stroke-width: 14;stroke-linecap:butt;stroke-linejoin:round" fill="none" olab:comment=""/>
	<polyline points="494,72 3303,72" style="stroke: black;stroke-width: 14;stroke-linecap:square;stroke-linejoin:round" fill="none" olab:comment=""/>
	<polyline points="864,72 864,91" style="stroke: black;stroke-width: 14;stroke-linecap:butt;stroke-linejoin:round" fill="none" olab:comment=""/>
	<polyline points="1159,72 1159,91" style="stroke: black;stroke-width: 14;stroke-linecap:butt;stroke-linejoin:round" fill="none" olab:comment=""/>
	<polyline points="1455,72 1455,91" style="stroke: black;stroke-width: 14;stroke-linecap:butt;stroke-linejoin:round" fill="none" olab:comment=""/>
	<polyline points="2046,72 2046,91" style="stroke: black;stroke-width: 14;stroke-linecap:butt;stroke-linejoin:round" fill="none" olab:comment=""/>
	<polyline points="2342,72 2342,91" style="stroke: black;stroke-width: 14;stroke-linecap:butt;stroke-linejoin:round" fill="none" olab:comment=""/>
	<polyline points="2638,72 2638,91" style="stroke: black;stroke-width: 14;stroke-linecap:butt;stroke-linejoin:round" fill="none" olab:comment=""/>
	<polyline points="3229,72 3229,91" style="stroke: black;stroke-width: 14;stroke-linecap:butt;stroke-linejoin:round" fill="none" olab:comment=""/>
	<polyline points="568,72 568,110" style="stroke: black;stroke-width: 14;stroke-linecap:butt;stroke-linejoin:round" fill="none" olab:comment=""/>
	<polyline points="1751,72 1751,110" style="stroke: black;stroke-width: 14;stroke-linecap:butt;stroke-linejoin:round" fill="none" olab:comment=""/>
	<polyline points="2933,72 2933,110" style="stroke: black;stroke-width: 14;stroke-linecap:butt;stroke-linejoin:round" fill="none" olab:comment=""/>
	<polyline points="494,2130 494,72" style="stroke: black;stroke-width: 14;stroke-linecap:square;stroke-linejoin:round" fill="none" olab:comment=""/>
	<polyline points="494,1873 513,1873" style="stroke: black;stroke-width: 14;stroke-linecap:butt;stroke-linejoin:round" fill="none" olab:comment=""/>
	<polyline points="494,1616 513,1616" style="stroke: black;stroke-width: 14;stroke-linecap:butt;stroke-linejoin:round" fill="none" olab:comment=""/>
	<polyline points="494,1101 513,1101" style="stroke: black;stroke-width: 14;stroke-linecap:butt;stroke-linejoin:round" fill="none" olab:comment=""/>
	<polyline points="494,844 513,844" style="stroke: black;stroke-width: 14;stroke-linecap:butt;stroke-linejoin:round" fill="none" olab:comment=""/>
	<polyline points="494,329 513,329" style="stroke: black;stroke-width: 14;stroke-linecap:butt;stroke-linejoin:round" fill="none" olab:comment=""/>
	<polyline points="494,72 513,72" style="stroke: black;stroke-width: 14;stroke-linecap:butt;stroke-linejoin:round" fill="none" olab:comment=""/>
	<polyline points="494,2130 532,2130" style="stroke: black;stroke-width: 14;stroke-linecap:butt;stroke-linejoin:round" fill="none" olab:comment=""/>
	<polyline points="494,1358 532,1358" style="stroke: black;stroke-width: 14;stroke-linecap:butt;stroke-linejoin:round" fill="none" olab:comment=""/>
	<polyline points="494,587 532,587" style="stroke: black;stroke-width: 14;stroke-linecap:butt;stroke-linejoin:round" fill="none" olab:comment=""/>
	<polyline points="3303,2130 3303,72" style="stroke: black;stroke-width: 14;stroke-linecap:square;stroke-linejoin:round" fill="none" olab:comment=""/>
	<polyline points="3303,1873 3284,1873" style="stroke: black;stroke-width: 14;stroke-linecap:butt;stroke-linejoin:round" fill="none" olab:comment=""/>
	<polyline points="3303,1616 3284,1616" style="stroke: black;stroke-width: 14;stroke-linecap:butt;stroke-linejoin:round" fill="none" olab:comment=""/>
	<polyline points="3303,1101 3284,1101" style="stroke: black;stroke-width: 14;stroke-linecap:butt;stroke-linejoin:round" fill="none" olab:comment=""/>
	<polyline points="3303,844 3284,844" style="stroke: black;stroke-width: 14;stroke-linecap:butt;stroke-linejoin:round" fill="none" olab:comment=""/>
	<polyline points="3303,329 3284,329" style="stroke: black;stroke-width: 14;stroke-linecap:butt;stroke-linejoin:round" fill="none" olab:comment=""/>
	<polyline points="3303,72 3284,72" style="stroke: black;stroke-width: 14;stroke-linecap:butt;stroke-linejoin:round" fill="none" olab:comment=""/>
	<polyline points="3303,2130 3265,2130" style="stroke: black;stroke-width: 14;stroke-linecap:butt;stroke-linejoin:round" fill="none" olab:comment=""/>
	<polyline points="3303,1358 3265,1358" style="stroke: black;stroke-width: 14;stroke-linecap:butt;stroke-linejoin:round" fill="none" olab:comment=""/>
	<polyline points="3303,587 3265,587" style="stroke: black;stroke-width: 14;stroke-linecap:butt;stroke-linejoin:round" fill="none" olab:comment=""/>
	<text x="534" dominant-baseline="auto" y="2275" fill="black" font-family="Times New Roman,'MS PGothic',SimSun" font-size="137" font-weight="400" olab:comment="">
		<tspan x="534" style="font-kerning:none">0</tspan>
	</text>
	<text x="1648" dominant-baseline="auto" y="2275" fill="black" font-family="Times New Roman,'MS PGothic',SimSun" font-size="137" font-weight="400" olab:comment="">
		<tspan x="1648" style="font-kerning:none">400</tspan>
	</text>
	<text x="2830" dominant-baseline="auto" y="2275" fill="black" font-family="Times New Roman,'MS PGothic',SimSun" font-size="137" font-weight="400" olab:comment="">
		<tspan x="2830" style="font-kerning:none">800</tspan>
	</text>
	<text x="281" dominant-baseline="auto" y="2170" fill="black" font-family="Times New Roman,'MS PGothic',SimSun" font-size="137" font-weight="400" olab:comment="">
		<tspan x="281" style="font-kerning:none">0.0</tspan>
	</text>
	<text x="281" dominant-baseline="auto" y="1398" fill="black" font-family="Times New Roman,'MS PGothic',SimSun" font-size="137" font-weight="400" olab:comment="">
		<tspan x="281" style="font-kerning:none">0.3</tspan>
	</text>
	<text x="281" dominant-baseline="auto" y="627" fill="black" font-family="Times New Roman,'MS PGothic',SimSun" font-size="137" font-weight="400" olab:comment="">
		<tspan x="281" style="font-kerning:none">0.6</tspan>
	</text>
	<text x="0" dominant-baseline="auto" y="0" fill="black" font-family="Arial,'MS PGothic',SimSun" font-size="137" font-weight="400" transform="matrix(-1.83697e-16 -1 0.999999 -1.83697e-16 231 1295)" olab:comment="">
		<tspan x="0" style="font-kerning:none">BIO13</tspan>
	</text>
</svg>

