<?xml version="1.0" encoding="UTF-8"?>
<!DOCTYPE svg PUBLIC "-//W3C//DTD SVG 1.1//EN" "http://www.w3.org/Graphics/SVG/1.1/DTD/svg11.dtd">
<!--Generated by Origin-->
<svg xmlns="http://www.w3.org/2000/svg" xmlns:xlink="http://www.w3.org/1999/xlink" xmlns:olab="http://www.originlab.com/namespaces/olab" viewBox="96,66 3286,2250" width="10.720000in" height="7.500000in">
	<defs>
		<mask id="Cp_1">
			<rect x="494" y="72" width="2810" height="2059" fill="white"/>
		</mask>
	</defs>
	<g mask="url(#Cp_1)">
		<rect x="96" y="66" width="3286" height="2250" visibility="hidden" fill="none" opacity="0"/>
		<path d="M 561,566 L 561,566 588,565 615,564 641,563 668,563 695,562 722,561 749,561 776,560 802,559 829,558 856,558 883,557 910,557 937,556 963,555 990,555 1017,554 1044,554 1071,553 1098,553 1124,552 1151,552 1178,552 1205,551 1232,551 1259,550 1285,550 1312,550 1339,550 1366,549 1393,549 1420,549 1446,549 1473,549 1500,548 1527,548 1554,548 1581,548 1607,548 1634,548 1661,548 1688,548 1715,548 1742,548 1768,548 1795,548 1822,548 1849,548 1876,548 1903,549 1929,549 1956,549 1983,549 2010,549 2037,549 2064,550 2090,550 2117,550 2144,550 2171,550 2198,551 2225,551 2251,551 2278,552 2305,552 2332,552 2359,552 2386,553 2412,553 2439,553 2466,554 2493,554 2520,554 2547,555 2573,555 2600,556 2627,556 2654,556 2681,557 2708,557 2734,558 2761,558 2788,558 2815,559 2842,559 2869,559 2895,560 2922,560 2949,560 2976,561 3003,561 3030,561 3056,562 3083,562 3110,563 3137,563 3164,564 3191,564 3217,564 3217,566 Z M 561,566 L 561,508 588,508 615,508 641,508 668,508 695,507 722,507 749,507 776,507 802,507 829,507 856,507 883,507 910,507 937,507 963,507 990,506 1017,506 1044,506 1071,506 1098,505 1124,505 1151,505 1178,505 1205,504 1232,504 1259,504 1285,503 1312,503 1339,502 1366,502 1393,502 1420,501 1446,501 1473,500 1500,500 1527,499 1554,498 1581,498 1607,497 1634,497 1661,496 1688,495 1715,495 1742,494 1768,493 1795,493 1822,492 1849,491 1876,491 1903,490 1929,489 1956,488 1983,488 2010,487 2037,486 2064,485 2090,485 2117,484 2144,483 2171,482 2198,481 2225,480 2251,480 2278,479 2305,478 2332,477 2359,476 2386,475 2412,475 2439,474 2466,473 2493,472 2520,471 2547,470 2573,469 2600,468 2627,467 2654,467 2681,466 2708,465 2734,464 2761,463 2788,463 2815,462 2842,461 2869,461 2895,460 2922,460 2949,459 2976,458 3003,458 3030,457 3056,456 3083,456 3110,455 3137,454 3164,454 3191,453 3217,453 3217,566 Z" fill="#FDC1C1" fill-rule="evenodd" stroke="none" olab:comment=""/>
		<polyline points="561,566 588,565 615,564 641,563 668,563 695,562 722,561 749,561 776,560 802,559 829,558 856,558 883,557 910,557 937,556 963,555 990,555 1017,554 1044,554 1071,553 1098,553 1124,552 1151,552 1178,552 1205,551 1232,551 1259,550 1285,550 1312,550 1339,550 1366,549 1393,549 1420,549 1446,549 1473,549 1500,548 1527,548 1554,548 1581,548 1607,548 1634,548 1661,548 1688,548 1715,548 1742,548 1768,548 1795,548 1822,548 1849,548 1876,548 1903,549 1929,549 1956,549 1983,549 2010,549 2037,549 2064,550 2090,550 2117,550 2144,550 2171,550 2198,551 2225,551 2251,551 2278,552 2305,552 2332,552 2359,552 2386,553 2412,553 2439,553 2466,554 2493,554 2520,554 2547,555 2573,555 2600,556 2627,556 2654,556 2681,557 2708,557 2734,558 2761,558 2788,558 2815,559 2842,559 2869,559 2895,560 2922,560 2949,560 2976,561 3003,561 3030,561 3056,562 3083,562 3110,563 3137,563 3164,564 3191,564 3217,564" style="stroke: #FDC1C1;stroke-width: 2;stroke-linecap:round;stroke-linejoin:round" fill="none" olab:comment=""/>
		<polyline points="561,537 588,536 615,536 641,535 668,535 695,535 722,534 749,534 776,534 802,533 829,533 856,532 883,532 910,532 937,531 963,531 990,531 1017,530 1044,530 1071,529 1098,529 1124,529 1151,528 1178,528 1205,528 1232,527 1259,527 1285,527 1312,526 1339,526 1366,526 1393,525 1420,525 1446,525 1473,524 1500,524 1527,524 1554,523 1581,523 1607,523 1634,522 1661,522 1688,522 1715,521 1742,521 1768,521 1795,520 1822,520 1849,520 1876,520 1903,519 1929,519 1956,519 1983,518 2010,518 2037,518 2064,517 2090,517 2117,517 2144,517 2171,516 2198,516 2225,516 2251,515 2278,515 2305,515 2332,515 2359,514 2386,514 2412,514 2439,514 2466,513 2493,513 2520,513 2547,513 2573,512 2600,512 2627,512 2654,512 2681,511 2708,511 2734,511 2761,511 2788,510 2815,510 2842,510 2869,510 2895,510 2922,510 2949,510 2976,510 3003,509 3030,509 3056,509 3083,509 3110,509 3137,509 3164,509 3191,509 3217,509" style="stroke: #F14040;stroke-width: 14;stroke-linecap:round;stroke-linejoin:round" fill="none" olab:comment=""/>
		<polyline points="561,508 588,508 615,508 641,508 668,508 695,507 722,507 749,507 776,507 802,507 829,507 856,507 883,507 910,507 937,507 963,507 990,506 1017,506 1044,506 1071,506 1098,505 1124,505 1151,505 1178,505 1205,504 1232,504 1259,504 1285,503 1312,503 1339,502 1366,502 1393,502 1420,501 1446,501 1473,500 1500,500 1527,499 1554,498 1581,498 1607,497 1634,497 1661,496 1688,495 1715,495 1742,494 1768,493 1795,493 1822,492 1849,491 1876,491 1903,490 1929,489 1956,488 1983,488 2010,487 2037,486 2064,485 2090,485 2117,484 2144,483 2171,482 2198,481 2225,480 2251,480 2278,479 2305,478 2332,477 2359,476 2386,475 2412,475 2439,474 2466,473 2493,472 2520,471 2547,470 2573,469 2600,468 2627,467 2654,467 2681,466 2708,465 2734,464 2761,463 2788,463 2815,462 2842,461 2869,461 2895,460 2922,460 2949,459 2976,458 3003,458 3030,457 3056,456 3083,456 3110,455 3137,454 3164,454 3191,453 3217,453" style="stroke: #FDC1C1;stroke-width: 2;stroke-linecap:round;stroke-linejoin:round" fill="none" olab:comment=""/>
	</g>
	<polyline points="494,2130 3303,2130" style="stroke: black;stroke-width: 14;stroke-linecap:square;stroke-linejoin:round" fill="none" olab:comment=""/>
	<polyline points="895,2130 895,2111" style="stroke: black;stroke-width: 14;stroke-linecap:butt;stroke-linejoin:round" fill="none" olab:comment=""/>
	<polyline points="1230,2130 1230,2111" style="stroke: black;stroke-width: 14;stroke-linecap:butt;stroke-linejoin:round" fill="none" olab:comment=""/>
	<polyline points="1564,2130 1564,2111" style="stroke: black;stroke-width: 14;stroke-linecap:butt;stroke-linejoin:round" fill="none" olab:comment=""/>
	<polyline points="2233,2130 2233,2111" style="stroke: black;stroke-width: 14;stroke-linecap:butt;stroke-linejoin:round" fill="none" olab:comment=""/>
	<polyline points="2567,2130 2567,2111" style="stroke: black;stroke-width: 14;stroke-linecap:butt;stroke-linejoin:round" fill="none" olab:comment=""/>
	<polyline points="2902,2130 2902,2111" style="stroke: black;stroke-width: 14;stroke-linecap:butt;stroke-linejoin:round" fill="none" olab:comment=""/>
	<polyline points="561,2130 561,2092" style="stroke: black;stroke-width: 14;stroke-linecap:butt;stroke-linejoin:round" fill="none" olab:comment=""/>
	<polyline points="1899,2130 1899,2092" style="stroke: black;stroke-width: 14;stroke-linecap:butt;stroke-linejoin:round" fill="none" olab:comment=""/>
	<polyline points="3236,2130 3236,2092" style="stroke: black;stroke-width: 14;stroke-linecap:butt;stroke-linejoin:round" fill="none" olab:comment=""/>
	<polyline points="494,72 3303,72" style="stroke: black;stroke-width: 14;stroke-linecap:square;stroke-linejoin:round" fill="none" olab:comment=""/>
	<polyline points="895,72 895,91" style="stroke: black;stroke-width: 14;stroke-linecap:butt;stroke-linejoin:round" fill="none" olab:comment=""/>
	<polyline points="1230,72 1230,91" style="stroke: black;stroke-width: 14;stroke-linecap:butt;stroke-linejoin:round" fill="none" olab:comment=""/>
	<polyline points="1564,72 1564,91" style="stroke: black;stroke-width: 14;stroke-linecap:butt;stroke-linejoin:round" fill="none" olab:comment=""/>
	<polyline points="2233,72 2233,91" style="stroke: black;stroke-width: 14;stroke-linecap:butt;stroke-linejoin:round" fill="none" olab:comment=""/>
	<polyline points="2567,72 2567,91" style="stroke: black;stroke-width: 14;stroke-linecap:butt;stroke-linejoin:round" fill="none" olab:comment=""/>
	<polyline points="2902,72 2902,91" style="stroke: black;stroke-width: 14;stroke-linecap:butt;stroke-linejoin:round" fill="none" olab:comment=""/>
	<polyline points="561,72 561,110" style="stroke: black;stroke-width: 14;stroke-linecap:butt;stroke-linejoin:round" fill="none" olab:comment=""/>
	<polyline points="1899,72 1899,110" style="stroke: black;stroke-width: 14;stroke-linecap:butt;stroke-linejoin:round" fill="none" olab:comment=""/>
	<polyline points="3236,72 3236,110" style="stroke: black;stroke-width: 14;stroke-linecap:butt;stroke-linejoin:round" fill="none" olab:comment=""/>
	<polyline points="494,2130 494,72" style="stroke: black;stroke-width: 14;stroke-linecap:square;stroke-linejoin:round" fill="none" olab:comment=""/>
	<polyline points="494,1873 513,1873" style="stroke: black;stroke-width: 14;stroke-linecap:butt;stroke-linejoin:round" fill="none" olab:comment=""/>
	<polyline points="494,1616 513,1616" style="stroke: black;stroke-width: 14;stroke-linecap:butt;stroke-linejoin:round" fill="none" olab:comment=""/>
	<polyline points="494,1101 513,1101" style="stroke: black;stroke-width: 14;stroke-linecap:butt;stroke-linejoin:round" fill="none" olab:comment=""/>
	<polyline points="494,844 513,844" style="stroke: black;stroke-width: 14;stroke-linecap:butt;stroke-linejoin:round" fill="none" olab:comment=""/>
	<polyline points="494,329 513,329" style="stroke: black;stroke-width: 14;stroke-linecap:butt;stroke-linejoin:round" fill="none" olab:comment=""/>
	<polyline points="494,72 513,72" style="stroke: black;stroke-width: 14;stroke-linecap:butt;stroke-linejoin:round" fill="none" olab:comment=""/>
	<polyline points="494,2130 532,2130" style="stroke: black;stroke-width: 14;stroke-linecap:butt;stroke-linejoin:round" fill="none" olab:comment=""/>
	<polyline points="494,1358 532,1358" style="stroke: black;stroke-width: 14;stroke-linecap:butt;stroke-linejoin:round" fill="none" olab:comment=""/>
	<polyline points="494,587 532,587" style="stroke: black;stroke-width: 14;stroke-linecap:butt;stroke-linejoin:round" fill="none" olab:comment=""/>
	<polyline points="3303,2130 3303,72" style="stroke: black;stroke-width: 14;stroke-linecap:square;stroke-linejoin:round" fill="none" olab:comment=""/>
	<polyline points="3303,1873 3284,1873" style="stroke: black;stroke-width: 14;stroke-linecap:butt;stroke-linejoin:round" fill="none" olab:comment=""/>
	<polyline points="3303,1616 3284,1616" style="stroke: black;stroke-width: 14;stroke-linecap:butt;stroke-linejoin:round" fill="none" olab:comment=""/>
	<polyline points="3303,1101 3284,1101" style="stroke: black;stroke-width: 14;stroke-linecap:butt;stroke-linejoin:round" fill="none" olab:comment=""/>
	<polyline points="3303,844 3284,844" style="stroke: black;stroke-width: 14;stroke-linecap:butt;stroke-linejoin:round" fill="none" olab:comment=""/>
	<polyline points="3303,329 3284,329" style="stroke: black;stroke-width: 14;stroke-linecap:butt;stroke-linejoin:round" fill="none" olab:comment=""/>
	<polyline points="3303,72 3284,72" style="stroke: black;stroke-width: 14;stroke-linecap:butt;stroke-linejoin:round" fill="none" olab:comment=""/>
	<polyline points="3303,2130 3265,2130" style="stroke: black;stroke-width: 14;stroke-linecap:butt;stroke-linejoin:round" fill="none" olab:comment=""/>
	<polyline points="3303,1358 3265,1358" style="stroke: black;stroke-width: 14;stroke-linecap:butt;stroke-linejoin:round" fill="none" olab:comment=""/>
	<polyline points="3303,587 3265,587" style="stroke: black;stroke-width: 14;stroke-linecap:butt;stroke-linejoin:round" fill="none" olab:comment=""/>
	<text x="527" dominant-baseline="auto" y="2275" fill="black" font-family="Times New Roman,'MS PGothic',SimSun" font-size="137" font-weight="400" olab:comment="">
		<tspan x="527" style="font-kerning:none">0</tspan>
	</text>
	<text x="1761" dominant-baseline="auto" y="2275" fill="black" font-family="Times New Roman,'MS PGothic',SimSun" font-size="137" font-weight="400" olab:comment="">
		<tspan x="1761" style="font-kerning:none">2000</tspan>
	</text>
	<text x="3098" dominant-baseline="auto" y="2275" fill="black" font-family="Times New Roman,'MS PGothic',SimSun" font-size="137" font-weight="400" olab:comment="">
		<tspan x="3098" style="font-kerning:none">4000</tspan>
	</text>
	<text x="281" dominant-baseline="auto" y="2170" fill="black" font-family="Times New Roman,'MS PGothic',SimSun" font-size="137" font-weight="400" olab:comment="">
		<tspan x="281" style="font-kerning:none">0.0</tspan>
	</text>
	<text x="281" dominant-baseline="auto" y="1398" fill="black" font-family="Times New Roman,'MS PGothic',SimSun" font-size="137" font-weight="400" olab:comment="">
		<tspan x="281" style="font-kerning:none">0.3</tspan>
	</text>
	<text x="281" dominant-baseline="auto" y="627" fill="black" font-family="Times New Roman,'MS PGothic',SimSun" font-size="137" font-weight="400" olab:comment="">
		<tspan x="281" style="font-kerning:none">0.6</tspan>
	</text>
	<text x="0" dominant-baseline="auto" y="0" fill="black" font-family="Arial,'MS PGothic',SimSun" font-size="137" font-weight="400" transform="matrix(-1.83697e-16 -1 0.999999 -1.83697e-16 231 1295)" olab:comment="">
		<tspan x="0" style="font-kerning:none">BIO12</tspan>
	</text>
</svg>

