<?xml version="1.0" encoding="UTF-8"?>
<!DOCTYPE svg PUBLIC "-//W3C//DTD SVG 1.1//EN" "http://www.w3.org/Graphics/SVG/1.1/DTD/svg11.dtd">
<!--Generated by Origin-->
<svg xmlns="http://www.w3.org/2000/svg" xmlns:xlink="http://www.w3.org/1999/xlink" xmlns:olab="http://www.originlab.com/namespaces/olab" viewBox="96,66 3214,2250" width="10.720000in" height="7.500000in">
	<defs>
		<mask id="Cp_1">
			<rect x="494" y="72" width="2810" height="2059" fill="white"/>
		</mask>
	</defs>
	<g mask="url(#Cp_1)">
		<rect x="96" y="66" width="3214" height="2250" visibility="hidden" fill="none" opacity="0"/>
		<path d="M 554,1141 L 554,1141 581,1120 608,1100 634,1079 661,1059 688,1038 715,1016 742,994 769,971 796,948 823,925 850,902 877,879 904,855 930,832 957,808 984,784 1011,761 1038,737 1065,714 1092,691 1119,669 1146,646 1173,625 1199,603 1226,583 1253,565 1280,557 1307,555 1334,554 1361,553 1388,552 1415,552 1442,551 1468,550 1495,549 1522,549 1549,548 1576,548 1603,547 1630,547 1657,546 1684,546 1711,545 1738,545 1764,545 1791,544 1818,544 1845,544 1872,543 1899,543 1926,543 1953,543 1980,543 2007,542 2033,542 2060,542 2087,542 2114,542 2141,542 2168,542 2195,542 2222,542 2249,542 2276,541 2302,541 2329,541 2356,541 2383,541 2410,541 2437,541 2464,541 2491,541 2518,541 2545,541 2572,541 2598,541 2625,541 2652,541 2679,541 2706,542 2733,542 2760,542 2787,542 2814,542 2841,542 2867,542 2894,542 2921,542 2948,542 2975,542 3002,542 3029,542 3056,542 3083,542 3110,543 3136,543 3163,543 3190,543 3217,543 3217,1141 Z M 554,1141 L 554,899 581,886 608,873 634,859 661,846 688,832 715,818 742,804 769,789 796,775 823,760 850,745 877,730 904,715 930,700 957,684 984,668 1011,652 1038,636 1065,619 1092,602 1119,584 1146,569 1173,554 1199,542 1226,528 1253,515 1280,509 1307,508 1334,507 1361,507 1388,506 1415,505 1442,504 1468,503 1495,502 1522,501 1549,500 1576,499 1603,498 1630,497 1657,495 1684,494 1711,493 1738,492 1764,490 1791,489 1818,487 1845,486 1872,485 1899,483 1926,482 1953,480 1980,479 2007,477 2033,476 2060,474 2087,473 2114,471 2141,470 2168,468 2195,466 2222,465 2249,463 2276,462 2302,460 2329,458 2356,457 2383,455 2410,453 2437,452 2464,450 2491,448 2518,447 2545,445 2572,443 2598,442 2625,440 2652,438 2679,436 2706,435 2733,433 2760,431 2787,430 2814,428 2841,426 2867,424 2894,423 2921,421 2948,419 2975,418 3002,416 3029,415 3056,413 3083,412 3110,410 3136,409 3163,407 3190,406 3217,404 3217,1141 Z" fill="#FDC1C1" fill-rule="evenodd" stroke="none" olab:comment=""/>
		<polyline points="554,1141 581,1120 608,1100 634,1079 661,1059 688,1038 715,1016 742,994 769,971 796,948 823,925 850,902 877,879 904,855 930,832 957,808 984,784 1011,761 1038,737 1065,714 1092,691 1119,669 1146,646 1173,625 1199,603 1226,583 1253,565 1280,557 1307,555 1334,554 1361,553 1388,552 1415,552 1442,551 1468,550 1495,549 1522,549 1549,548 1576,548 1603,547 1630,547 1657,546 1684,546 1711,545 1738,545 1764,545 1791,544 1818,544 1845,544 1872,543 1899,543 1926,543 1953,543 1980,543 2007,542 2033,542 2060,542 2087,542 2114,542 2141,542 2168,542 2195,542 2222,542 2249,542 2276,541 2302,541 2329,541 2356,541 2383,541 2410,541 2437,541 2464,541 2491,541 2518,541 2545,541 2572,541 2598,541 2625,541 2652,541 2679,541 2706,542 2733,542 2760,542 2787,542 2814,542 2841,542 2867,542 2894,542 2921,542 2948,542 2975,542 3002,542 3029,542 3056,542 3083,542 3110,543 3136,543 3163,543 3190,543 3217,543" style="stroke: #FDC1C1;stroke-width: 2;stroke-linecap:round;stroke-linejoin:round" fill="none" olab:comment=""/>
		<polyline points="554,1020 581,1003 608,986 634,969 661,952 688,935 715,917 742,899 769,880 796,862 823,843 850,824 877,804 904,785 930,766 957,746 984,726 1011,707 1038,687 1065,667 1092,647 1119,626 1146,607 1173,590 1199,573 1226,556 1253,540 1280,533 1307,532 1334,531 1361,530 1388,529 1415,528 1442,527 1468,527 1495,526 1522,525 1549,524 1576,523 1603,522 1630,522 1657,521 1684,520 1711,519 1738,518 1764,517 1791,517 1818,516 1845,515 1872,514 1899,513 1926,512 1953,512 1980,511 2007,510 2033,509 2060,508 2087,507 2114,507 2141,506 2168,505 2195,504 2222,503 2249,502 2276,502 2302,501 2329,500 2356,499 2383,498 2410,497 2437,497 2464,496 2491,495 2518,494 2545,493 2572,492 2598,492 2625,491 2652,490 2679,489 2706,488 2733,487 2760,486 2787,486 2814,485 2841,484 2867,483 2894,482 2921,481 2948,481 2975,480 3002,479 3029,478 3056,478 3083,477 3110,476 3136,476 3163,475 3190,474 3217,474" style="stroke: #F14040;stroke-width: 14;stroke-linecap:round;stroke-linejoin:round" fill="none" olab:comment=""/>
		<polyline points="554,899 581,886 608,873 634,859 661,846 688,832 715,818 742,804 769,789 796,775 823,760 850,745 877,730 904,715 930,700 957,684 984,668 1011,652 1038,636 1065,619 1092,602 1119,584 1146,569 1173,554 1199,542 1226,528 1253,515 1280,509 1307,508 1334,507 1361,507 1388,506 1415,505 1442,504 1468,503 1495,502 1522,501 1549,500 1576,499 1603,498 1630,497 1657,495 1684,494 1711,493 1738,492 1764,490 1791,489 1818,487 1845,486 1872,485 1899,483 1926,482 1953,480 1980,479 2007,477 2033,476 2060,474 2087,473 2114,471 2141,470 2168,468 2195,466 2222,465 2249,463 2276,462 2302,460 2329,458 2356,457 2383,455 2410,453 2437,452 2464,450 2491,448 2518,447 2545,445 2572,443 2598,442 2625,440 2652,438 2679,436 2706,435 2733,433 2760,431 2787,430 2814,428 2841,426 2867,424 2894,423 2921,421 2948,419 2975,418 3002,416 3029,415 3056,413 3083,412 3110,410 3136,409 3163,407 3190,406 3217,404" style="stroke: #FDC1C1;stroke-width: 2;stroke-linecap:round;stroke-linejoin:round" fill="none" olab:comment=""/>
	</g>
	<polyline points="494,2130 3303,2130" style="stroke: black;stroke-width: 14;stroke-linecap:square;stroke-linejoin:round" fill="none" olab:comment=""/>
	<polyline points="673,2130 673,2111" style="stroke: black;stroke-width: 14;stroke-linecap:butt;stroke-linejoin:round" fill="none" olab:comment=""/>
	<polyline points="793,2130 793,2111" style="stroke: black;stroke-width: 14;stroke-linecap:butt;stroke-linejoin:round" fill="none" olab:comment=""/>
	<polyline points="912,2130 912,2111" style="stroke: black;stroke-width: 14;stroke-linecap:butt;stroke-linejoin:round" fill="none" olab:comment=""/>
	<polyline points="1032,2130 1032,2111" style="stroke: black;stroke-width: 14;stroke-linecap:butt;stroke-linejoin:round" fill="none" olab:comment=""/>
	<polyline points="1151,2130 1151,2111" style="stroke: black;stroke-width: 14;stroke-linecap:butt;stroke-linejoin:round" fill="none" olab:comment=""/>
	<polyline points="1390,2130 1390,2111" style="stroke: black;stroke-width: 14;stroke-linecap:butt;stroke-linejoin:round" fill="none" olab:comment=""/>
	<polyline points="1510,2130 1510,2111" style="stroke: black;stroke-width: 14;stroke-linecap:butt;stroke-linejoin:round" fill="none" olab:comment=""/>
	<polyline points="1630,2130 1630,2111" style="stroke: black;stroke-width: 14;stroke-linecap:butt;stroke-linejoin:round" fill="none" olab:comment=""/>
	<polyline points="1749,2130 1749,2111" style="stroke: black;stroke-width: 14;stroke-linecap:butt;stroke-linejoin:round" fill="none" olab:comment=""/>
	<polyline points="1869,2130 1869,2111" style="stroke: black;stroke-width: 14;stroke-linecap:butt;stroke-linejoin:round" fill="none" olab:comment=""/>
	<polyline points="2108,2130 2108,2111" style="stroke: black;stroke-width: 14;stroke-linecap:butt;stroke-linejoin:round" fill="none" olab:comment=""/>
	<polyline points="2227,2130 2227,2111" style="stroke: black;stroke-width: 14;stroke-linecap:butt;stroke-linejoin:round" fill="none" olab:comment=""/>
	<polyline points="2347,2130 2347,2111" style="stroke: black;stroke-width: 14;stroke-linecap:butt;stroke-linejoin:round" fill="none" olab:comment=""/>
	<polyline points="2466,2130 2466,2111" style="stroke: black;stroke-width: 14;stroke-linecap:butt;stroke-linejoin:round" fill="none" olab:comment=""/>
	<polyline points="2586,2130 2586,2111" style="stroke: black;stroke-width: 14;stroke-linecap:butt;stroke-linejoin:round" fill="none" olab:comment=""/>
	<polyline points="2825,2130 2825,2111" style="stroke: black;stroke-width: 14;stroke-linecap:butt;stroke-linejoin:round" fill="none" olab:comment=""/>
	<polyline points="2944,2130 2944,2111" style="stroke: black;stroke-width: 14;stroke-linecap:butt;stroke-linejoin:round" fill="none" olab:comment=""/>
	<polyline points="3064,2130 3064,2111" style="stroke: black;stroke-width: 14;stroke-linecap:butt;stroke-linejoin:round" fill="none" olab:comment=""/>
	<polyline points="3183,2130 3183,2111" style="stroke: black;stroke-width: 14;stroke-linecap:butt;stroke-linejoin:round" fill="none" olab:comment=""/>
	<polyline points="3303,2130 3303,2111" style="stroke: black;stroke-width: 14;stroke-linecap:butt;stroke-linejoin:round" fill="none" olab:comment=""/>
	<polyline points="554,2130 554,2092" style="stroke: black;stroke-width: 14;stroke-linecap:butt;stroke-linejoin:round" fill="none" olab:comment=""/>
	<polyline points="1271,2130 1271,2092" style="stroke: black;stroke-width: 14;stroke-linecap:butt;stroke-linejoin:round" fill="none" olab:comment=""/>
	<polyline points="1988,2130 1988,2092" style="stroke: black;stroke-width: 14;stroke-linecap:butt;stroke-linejoin:round" fill="none" olab:comment=""/>
	<polyline points="2705,2130 2705,2092" style="stroke: black;stroke-width: 14;stroke-linecap:butt;stroke-linejoin:round" fill="none" olab:comment=""/>
	<polyline points="494,72 3303,72" style="stroke: black;stroke-width: 14;stroke-linecap:square;stroke-linejoin:round" fill="none" olab:comment=""/>
	<polyline points="673,72 673,91" style="stroke: black;stroke-width: 14;stroke-linecap:butt;stroke-linejoin:round" fill="none" olab:comment=""/>
	<polyline points="793,72 793,91" style="stroke: black;stroke-width: 14;stroke-linecap:butt;stroke-linejoin:round" fill="none" olab:comment=""/>
	<polyline points="912,72 912,91" style="stroke: black;stroke-width: 14;stroke-linecap:butt;stroke-linejoin:round" fill="none" olab:comment=""/>
	<polyline points="1032,72 1032,91" style="stroke: black;stroke-width: 14;stroke-linecap:butt;stroke-linejoin:round" fill="none" olab:comment=""/>
	<polyline points="1151,72 1151,91" style="stroke: black;stroke-width: 14;stroke-linecap:butt;stroke-linejoin:round" fill="none" olab:comment=""/>
	<polyline points="1390,72 1390,91" style="stroke: black;stroke-width: 14;stroke-linecap:butt;stroke-linejoin:round" fill="none" olab:comment=""/>
	<polyline points="1510,72 1510,91" style="stroke: black;stroke-width: 14;stroke-linecap:butt;stroke-linejoin:round" fill="none" olab:comment=""/>
	<polyline points="1630,72 1630,91" style="stroke: black;stroke-width: 14;stroke-linecap:butt;stroke-linejoin:round" fill="none" olab:comment=""/>
	<polyline points="1749,72 1749,91" style="stroke: black;stroke-width: 14;stroke-linecap:butt;stroke-linejoin:round" fill="none" olab:comment=""/>
	<polyline points="1869,72 1869,91" style="stroke: black;stroke-width: 14;stroke-linecap:butt;stroke-linejoin:round" fill="none" olab:comment=""/>
	<polyline points="2108,72 2108,91" style="stroke: black;stroke-width: 14;stroke-linecap:butt;stroke-linejoin:round" fill="none" olab:comment=""/>
	<polyline points="2227,72 2227,91" style="stroke: black;stroke-width: 14;stroke-linecap:butt;stroke-linejoin:round" fill="none" olab:comment=""/>
	<polyline points="2347,72 2347,91" style="stroke: black;stroke-width: 14;stroke-linecap:butt;stroke-linejoin:round" fill="none" olab:comment=""/>
	<polyline points="2466,72 2466,91" style="stroke: black;stroke-width: 14;stroke-linecap:butt;stroke-linejoin:round" fill="none" olab:comment=""/>
	<polyline points="2586,72 2586,91" style="stroke: black;stroke-width: 14;stroke-linecap:butt;stroke-linejoin:round" fill="none" olab:comment=""/>
	<polyline points="2825,72 2825,91" style="stroke: black;stroke-width: 14;stroke-linecap:butt;stroke-linejoin:round" fill="none" olab:comment=""/>
	<polyline points="2944,72 2944,91" style="stroke: black;stroke-width: 14;stroke-linecap:butt;stroke-linejoin:round" fill="none" olab:comment=""/>
	<polyline points="3064,72 3064,91" style="stroke: black;stroke-width: 14;stroke-linecap:butt;stroke-linejoin:round" fill="none" olab:comment=""/>
	<polyline points="3183,72 3183,91" style="stroke: black;stroke-width: 14;stroke-linecap:butt;stroke-linejoin:round" fill="none" olab:comment=""/>
	<polyline points="3303,72 3303,91" style="stroke: black;stroke-width: 14;stroke-linecap:butt;stroke-linejoin:round" fill="none" olab:comment=""/>
	<polyline points="554,72 554,110" style="stroke: black;stroke-width: 14;stroke-linecap:butt;stroke-linejoin:round" fill="none" olab:comment=""/>
	<polyline points="1271,72 1271,110" style="stroke: black;stroke-width: 14;stroke-linecap:butt;stroke-linejoin:round" fill="none" olab:comment=""/>
	<polyline points="1988,72 1988,110" style="stroke: black;stroke-width: 14;stroke-linecap:butt;stroke-linejoin:round" fill="none" olab:comment=""/>
	<polyline points="2705,72 2705,110" style="stroke: black;stroke-width: 14;stroke-linecap:butt;stroke-linejoin:round" fill="none" olab:comment=""/>
	<polyline points="494,2130 494,72" style="stroke: black;stroke-width: 14;stroke-linecap:square;stroke-linejoin:round" fill="none" olab:comment=""/>
	<polyline points="494,1873 513,1873" style="stroke: black;stroke-width: 14;stroke-linecap:butt;stroke-linejoin:round" fill="none" olab:comment=""/>
	<polyline points="494,1616 513,1616" style="stroke: black;stroke-width: 14;stroke-linecap:butt;stroke-linejoin:round" fill="none" olab:comment=""/>
	<polyline points="494,1101 513,1101" style="stroke: black;stroke-width: 14;stroke-linecap:butt;stroke-linejoin:round" fill="none" olab:comment=""/>
	<polyline points="494,844 513,844" style="stroke: black;stroke-width: 14;stroke-linecap:butt;stroke-linejoin:round" fill="none" olab:comment=""/>
	<polyline points="494,329 513,329" style="stroke: black;stroke-width: 14;stroke-linecap:butt;stroke-linejoin:round" fill="none" olab:comment=""/>
	<polyline points="494,72 513,72" style="stroke: black;stroke-width: 14;stroke-linecap:butt;stroke-linejoin:round" fill="none" olab:comment=""/>
	<polyline points="494,2130 532,2130" style="stroke: black;stroke-width: 14;stroke-linecap:butt;stroke-linejoin:round" fill="none" olab:comment=""/>
	<polyline points="494,1358 532,1358" style="stroke: black;stroke-width: 14;stroke-linecap:butt;stroke-linejoin:round" fill="none" olab:comment=""/>
	<polyline points="494,587 532,587" style="stroke: black;stroke-width: 14;stroke-linecap:butt;stroke-linejoin:round" fill="none" olab:comment=""/>
	<polyline points="3303,2130 3303,72" style="stroke: black;stroke-width: 14;stroke-linecap:square;stroke-linejoin:round" fill="none" olab:comment=""/>
	<polyline points="3303,1873 3284,1873" style="stroke: black;stroke-width: 14;stroke-linecap:butt;stroke-linejoin:round" fill="none" olab:comment=""/>
	<polyline points="3303,1616 3284,1616" style="stroke: black;stroke-width: 14;stroke-linecap:butt;stroke-linejoin:round" fill="none" olab:comment=""/>
	<polyline points="3303,1101 3284,1101" style="stroke: black;stroke-width: 14;stroke-linecap:butt;stroke-linejoin:round" fill="none" olab:comment=""/>
	<polyline points="3303,844 3284,844" style="stroke: black;stroke-width: 14;stroke-linecap:butt;stroke-linejoin:round" fill="none" olab:comment=""/>
	<polyline points="3303,329 3284,329" style="stroke: black;stroke-width: 14;stroke-linecap:butt;stroke-linejoin:round" fill="none" olab:comment=""/>
	<polyline points="3303,72 3284,72" style="stroke: black;stroke-width: 14;stroke-linecap:butt;stroke-linejoin:round" fill="none" olab:comment=""/>
	<polyline points="3303,2130 3265,2130" style="stroke: black;stroke-width: 14;stroke-linecap:butt;stroke-linejoin:round" fill="none" olab:comment=""/>
	<polyline points="3303,1358 3265,1358" style="stroke: black;stroke-width: 14;stroke-linecap:butt;stroke-linejoin:round" fill="none" olab:comment=""/>
	<polyline points="3303,587 3265,587" style="stroke: black;stroke-width: 14;stroke-linecap:butt;stroke-linejoin:round" fill="none" olab:comment=""/>
	<text x="520" dominant-baseline="auto" y="2275" fill="black" font-family="Times New Roman,'MS PGothic',SimSun" font-size="137" font-weight="400" olab:comment="">
		<tspan x="520" style="font-kerning:none">0</tspan>
	</text>
	<text x="1202" dominant-baseline="auto" y="2275" fill="black" font-family="Times New Roman,'MS PGothic',SimSun" font-size="137" font-weight="400" olab:comment="">
		<tspan x="1202" style="font-kerning:none">60</tspan>
	</text>
	<text x="1885" dominant-baseline="auto" y="2275" fill="black" font-family="Times New Roman,'MS PGothic',SimSun" font-size="137" font-weight="400" olab:comment="">
		<tspan x="1885" style="font-kerning:none">120</tspan>
	</text>
	<text x="2602" dominant-baseline="auto" y="2275" fill="black" font-family="Times New Roman,'MS PGothic',SimSun" font-size="137" font-weight="400" olab:comment="">
		<tspan x="2602" style="font-kerning:none">180</tspan>
	</text>
	<text x="281" dominant-baseline="auto" y="2170" fill="black" font-family="Times New Roman,'MS PGothic',SimSun" font-size="137" font-weight="400" olab:comment="">
		<tspan x="281" style="font-kerning:none">0.0</tspan>
	</text>
	<text x="281" dominant-baseline="auto" y="1398" fill="black" font-family="Times New Roman,'MS PGothic',SimSun" font-size="137" font-weight="400" olab:comment="">
		<tspan x="281" style="font-kerning:none">0.3</tspan>
	</text>
	<text x="281" dominant-baseline="auto" y="627" fill="black" font-family="Times New Roman,'MS PGothic',SimSun" font-size="137" font-weight="400" olab:comment="">
		<tspan x="281" style="font-kerning:none">0.6</tspan>
	</text>
	<text x="0" dominant-baseline="auto" y="0" fill="black" font-family="Arial,'MS PGothic',SimSun" font-size="137" font-weight="400" transform="matrix(-1.83697e-16 -1 0.999999 -1.83697e-16 231 1295)" olab:comment="">
		<tspan x="0" style="font-kerning:none">BIO15</tspan>
	</text>
</svg>

