<?xml version="1.0" encoding="UTF-8"?>
<!DOCTYPE svg PUBLIC "-//W3C//DTD SVG 1.1//EN" "http://www.w3.org/Graphics/SVG/1.1/DTD/svg11.dtd">
<!--Generated by Origin-->
<svg xmlns="http://www.w3.org/2000/svg" xmlns:xlink="http://www.w3.org/1999/xlink" xmlns:olab="http://www.originlab.com/namespaces/olab" viewBox="96,66 3214,2250" width="10.720000in" height="7.500000in">
	<defs>
		<mask id="Cp_1">
			<rect x="494" y="72" width="2810" height="2059" fill="white"/>
		</mask>
	</defs>
	<g mask="url(#Cp_1)">
		<rect x="96" y="66" width="3214" height="2250" visibility="hidden" fill="none" opacity="0"/>
		<path d="M 553,2122 L 553,2122 580,2119 607,2114 635,2108 662,2099 690,2086 717,2068 744,2043 772,2008 799,1960 827,1894 854,1807 882,1691 909,1543 936,1359 964,1141 991,891 1019,687 1046,527 1073,505 1101,516 1128,527 1156,539 1183,551 1211,562 1238,574 1265,587 1293,599 1320,611 1348,623 1375,636 1402,648 1430,661 1457,673 1485,686 1512,698 1540,711 1567,724 1594,736 1622,747 1649,757 1677,766 1704,767 1731,766 1759,766 1786,765 1814,764 1841,764 1868,763 1896,762 1923,762 1951,761 1978,760 2006,760 2033,759 2060,759 2088,759 2115,759 2143,759 2170,759 2197,759 2225,759 2252,759 2280,759 2307,759 2335,759 2362,759 2389,759 2417,759 2444,759 2472,759 2499,759 2526,759 2554,759 2581,759 2609,759 2636,759 2664,759 2691,759 2718,759 2746,759 2773,759 2801,759 2828,759 2855,759 2883,759 2910,759 2938,759 2965,759 2993,760 3020,760 3047,760 3075,760 3102,760 3130,760 3157,760 3184,760 3212,760 3239,760 3267,760 3267,2122 Z M 553,2122 L 553,2118 580,2113 607,2107 635,2099 662,2087 690,2071 717,2049 744,2019 772,1979 799,1924 827,1852 854,1756 882,1632 909,1473 936,1277 964,1042 991,774 1019,597 1046,479 1073,458 1101,469 1128,479 1156,490 1183,500 1211,510 1238,521 1265,530 1293,540 1320,550 1348,559 1375,569 1402,578 1430,588 1457,597 1485,606 1512,615 1540,624 1567,634 1594,643 1622,651 1649,658 1677,664 1704,666 1731,666 1759,666 1786,666 1814,666 1841,666 1868,666 1896,666 1923,666 1951,666 1978,666 2006,666 2033,666 2060,666 2088,666 2115,666 2143,666 2170,666 2197,666 2225,666 2252,666 2280,666 2307,666 2335,666 2362,666 2389,666 2417,666 2444,666 2472,666 2499,666 2526,666 2554,666 2581,666 2609,666 2636,666 2664,666 2691,666 2718,666 2746,666 2773,666 2801,666 2828,666 2855,666 2883,666 2910,666 2938,666 2965,666 2993,666 3020,666 3047,666 3075,666 3102,666 3130,666 3157,666 3184,666 3212,666 3239,666 3267,666 3267,2122 Z" fill="#FDC1C1" fill-rule="evenodd" stroke="none" olab:comment=""/>
		<polyline points="553,2122 580,2119 607,2114 635,2108 662,2099 690,2086 717,2068 744,2043 772,2008 799,1960 827,1894 854,1807 882,1691 909,1543 936,1359 964,1141 991,891 1019,687 1046,527 1073,505 1101,516 1128,527 1156,539 1183,551 1211,562 1238,574 1265,587 1293,599 1320,611 1348,623 1375,636 1402,648 1430,661 1457,673 1485,686 1512,698 1540,711 1567,724 1594,736 1622,747 1649,757 1677,766 1704,767 1731,766 1759,766 1786,765 1814,764 1841,764 1868,763 1896,762 1923,762 1951,761 1978,760 2006,760 2033,759 2060,759 2088,759 2115,759 2143,759 2170,759 2197,759 2225,759 2252,759 2280,759 2307,759 2335,759 2362,759 2389,759 2417,759 2444,759 2472,759 2499,759 2526,759 2554,759 2581,759 2609,759 2636,759 2664,759 2691,759 2718,759 2746,759 2773,759 2801,759 2828,759 2855,759 2883,759 2910,759 2938,759 2965,759 2993,760 3020,760 3047,760 3075,760 3102,760 3130,760 3157,760 3184,760 3212,760 3239,760 3267,760" style="stroke: #FDC1C1;stroke-width: 2;stroke-linecap:round;stroke-linejoin:round" fill="none" olab:comment=""/>
		<polyline points="553,2120 580,2116 607,2111 635,2103 662,2093 690,2078 717,2058 744,2031 772,1993 799,1942 827,1873 854,1781 882,1661 909,1508 936,1318 964,1091 991,833 1019,642 1046,503 1073,481 1101,492 1128,503 1156,514 1183,525 1211,536 1238,547 1265,559 1293,570 1320,581 1348,591 1375,602 1402,613 1430,624 1457,635 1485,646 1512,657 1540,668 1567,679 1594,689 1622,699 1649,707 1677,715 1704,716 1731,716 1759,716 1786,716 1814,715 1841,715 1868,715 1896,714 1923,714 1951,714 1978,713 2006,713 2033,713 2060,712 2088,712 2115,712 2143,712 2170,712 2197,712 2225,712 2252,713 2280,713 2307,713 2335,713 2362,713 2389,713 2417,713 2444,713 2472,713 2499,713 2526,713 2554,713 2581,713 2609,713 2636,713 2664,713 2691,713 2718,713 2746,713 2773,713 2801,713 2828,713 2855,713 2883,713 2910,713 2938,713 2965,713 2993,713 3020,713 3047,713 3075,713 3102,713 3130,713 3157,713 3184,713 3212,713 3239,713 3267,713" style="stroke: #F14040;stroke-width: 14;stroke-linecap:round;stroke-linejoin:round" fill="none" olab:comment=""/>
		<polyline points="553,2118 580,2113 607,2107 635,2099 662,2087 690,2071 717,2049 744,2019 772,1979 799,1924 827,1852 854,1756 882,1632 909,1473 936,1277 964,1042 991,774 1019,597 1046,479 1073,458 1101,469 1128,479 1156,490 1183,500 1211,510 1238,521 1265,530 1293,540 1320,550 1348,559 1375,569 1402,578 1430,588 1457,597 1485,606 1512,615 1540,624 1567,634 1594,643 1622,651 1649,658 1677,664 1704,666 1731,666 1759,666 1786,666 1814,666 1841,666 1868,666 1896,666 1923,666 1951,666 1978,666 2006,666 2033,666 2060,666 2088,666 2115,666 2143,666 2170,666 2197,666 2225,666 2252,666 2280,666 2307,666 2335,666 2362,666 2389,666 2417,666 2444,666 2472,666 2499,666 2526,666 2554,666 2581,666 2609,666 2636,666 2664,666 2691,666 2718,666 2746,666 2773,666 2801,666 2828,666 2855,666 2883,666 2910,666 2938,666 2965,666 2993,666 3020,666 3047,666 3075,666 3102,666 3130,666 3157,666 3184,666 3212,666 3239,666 3267,666" style="stroke: #FDC1C1;stroke-width: 2;stroke-linecap:round;stroke-linejoin:round" fill="none" olab:comment=""/>
	</g>
	<polyline points="494,2130 3303,2130" style="stroke: black;stroke-width: 14;stroke-linecap:square;stroke-linejoin:round" fill="none" olab:comment=""/>
	<polyline points="670,2130 670,2111" style="stroke: black;stroke-width: 14;stroke-linecap:butt;stroke-linejoin:round" fill="none" olab:comment=""/>
	<polyline points="787,2130 787,2111" style="stroke: black;stroke-width: 14;stroke-linecap:butt;stroke-linejoin:round" fill="none" olab:comment=""/>
	<polyline points="904,2130 904,2111" style="stroke: black;stroke-width: 14;stroke-linecap:butt;stroke-linejoin:round" fill="none" olab:comment=""/>
	<polyline points="1021,2130 1021,2111" style="stroke: black;stroke-width: 14;stroke-linecap:butt;stroke-linejoin:round" fill="none" olab:comment=""/>
	<polyline points="1138,2130 1138,2111" style="stroke: black;stroke-width: 14;stroke-linecap:butt;stroke-linejoin:round" fill="none" olab:comment=""/>
	<polyline points="1372,2130 1372,2111" style="stroke: black;stroke-width: 14;stroke-linecap:butt;stroke-linejoin:round" fill="none" olab:comment=""/>
	<polyline points="1489,2130 1489,2111" style="stroke: black;stroke-width: 14;stroke-linecap:butt;stroke-linejoin:round" fill="none" olab:comment=""/>
	<polyline points="1606,2130 1606,2111" style="stroke: black;stroke-width: 14;stroke-linecap:butt;stroke-linejoin:round" fill="none" olab:comment=""/>
	<polyline points="1723,2130 1723,2111" style="stroke: black;stroke-width: 14;stroke-linecap:butt;stroke-linejoin:round" fill="none" olab:comment=""/>
	<polyline points="1840,2130 1840,2111" style="stroke: black;stroke-width: 14;stroke-linecap:butt;stroke-linejoin:round" fill="none" olab:comment=""/>
	<polyline points="2074,2130 2074,2111" style="stroke: black;stroke-width: 14;stroke-linecap:butt;stroke-linejoin:round" fill="none" olab:comment=""/>
	<polyline points="2191,2130 2191,2111" style="stroke: black;stroke-width: 14;stroke-linecap:butt;stroke-linejoin:round" fill="none" olab:comment=""/>
	<polyline points="2308,2130 2308,2111" style="stroke: black;stroke-width: 14;stroke-linecap:butt;stroke-linejoin:round" fill="none" olab:comment=""/>
	<polyline points="2425,2130 2425,2111" style="stroke: black;stroke-width: 14;stroke-linecap:butt;stroke-linejoin:round" fill="none" olab:comment=""/>
	<polyline points="2542,2130 2542,2111" style="stroke: black;stroke-width: 14;stroke-linecap:butt;stroke-linejoin:round" fill="none" olab:comment=""/>
	<polyline points="2776,2130 2776,2111" style="stroke: black;stroke-width: 14;stroke-linecap:butt;stroke-linejoin:round" fill="none" olab:comment=""/>
	<polyline points="2893,2130 2893,2111" style="stroke: black;stroke-width: 14;stroke-linecap:butt;stroke-linejoin:round" fill="none" olab:comment=""/>
	<polyline points="3010,2130 3010,2111" style="stroke: black;stroke-width: 14;stroke-linecap:butt;stroke-linejoin:round" fill="none" olab:comment=""/>
	<polyline points="3127,2130 3127,2111" style="stroke: black;stroke-width: 14;stroke-linecap:butt;stroke-linejoin:round" fill="none" olab:comment=""/>
	<polyline points="3244,2130 3244,2111" style="stroke: black;stroke-width: 14;stroke-linecap:butt;stroke-linejoin:round" fill="none" olab:comment=""/>
	<polyline points="553,2130 553,2092" style="stroke: black;stroke-width: 14;stroke-linecap:butt;stroke-linejoin:round" fill="none" olab:comment=""/>
	<polyline points="1255,2130 1255,2092" style="stroke: black;stroke-width: 14;stroke-linecap:butt;stroke-linejoin:round" fill="none" olab:comment=""/>
	<polyline points="1957,2130 1957,2092" style="stroke: black;stroke-width: 14;stroke-linecap:butt;stroke-linejoin:round" fill="none" olab:comment=""/>
	<polyline points="2659,2130 2659,2092" style="stroke: black;stroke-width: 14;stroke-linecap:butt;stroke-linejoin:round" fill="none" olab:comment=""/>
	<polyline points="494,72 3303,72" style="stroke: black;stroke-width: 14;stroke-linecap:square;stroke-linejoin:round" fill="none" olab:comment=""/>
	<polyline points="670,72 670,91" style="stroke: black;stroke-width: 14;stroke-linecap:butt;stroke-linejoin:round" fill="none" olab:comment=""/>
	<polyline points="787,72 787,91" style="stroke: black;stroke-width: 14;stroke-linecap:butt;stroke-linejoin:round" fill="none" olab:comment=""/>
	<polyline points="904,72 904,91" style="stroke: black;stroke-width: 14;stroke-linecap:butt;stroke-linejoin:round" fill="none" olab:comment=""/>
	<polyline points="1021,72 1021,91" style="stroke: black;stroke-width: 14;stroke-linecap:butt;stroke-linejoin:round" fill="none" olab:comment=""/>
	<polyline points="1138,72 1138,91" style="stroke: black;stroke-width: 14;stroke-linecap:butt;stroke-linejoin:round" fill="none" olab:comment=""/>
	<polyline points="1372,72 1372,91" style="stroke: black;stroke-width: 14;stroke-linecap:butt;stroke-linejoin:round" fill="none" olab:comment=""/>
	<polyline points="1489,72 1489,91" style="stroke: black;stroke-width: 14;stroke-linecap:butt;stroke-linejoin:round" fill="none" olab:comment=""/>
	<polyline points="1606,72 1606,91" style="stroke: black;stroke-width: 14;stroke-linecap:butt;stroke-linejoin:round" fill="none" olab:comment=""/>
	<polyline points="1723,72 1723,91" style="stroke: black;stroke-width: 14;stroke-linecap:butt;stroke-linejoin:round" fill="none" olab:comment=""/>
	<polyline points="1840,72 1840,91" style="stroke: black;stroke-width: 14;stroke-linecap:butt;stroke-linejoin:round" fill="none" olab:comment=""/>
	<polyline points="2074,72 2074,91" style="stroke: black;stroke-width: 14;stroke-linecap:butt;stroke-linejoin:round" fill="none" olab:comment=""/>
	<polyline points="2191,72 2191,91" style="stroke: black;stroke-width: 14;stroke-linecap:butt;stroke-linejoin:round" fill="none" olab:comment=""/>
	<polyline points="2308,72 2308,91" style="stroke: black;stroke-width: 14;stroke-linecap:butt;stroke-linejoin:round" fill="none" olab:comment=""/>
	<polyline points="2425,72 2425,91" style="stroke: black;stroke-width: 14;stroke-linecap:butt;stroke-linejoin:round" fill="none" olab:comment=""/>
	<polyline points="2542,72 2542,91" style="stroke: black;stroke-width: 14;stroke-linecap:butt;stroke-linejoin:round" fill="none" olab:comment=""/>
	<polyline points="2776,72 2776,91" style="stroke: black;stroke-width: 14;stroke-linecap:butt;stroke-linejoin:round" fill="none" olab:comment=""/>
	<polyline points="2893,72 2893,91" style="stroke: black;stroke-width: 14;stroke-linecap:butt;stroke-linejoin:round" fill="none" olab:comment=""/>
	<polyline points="3010,72 3010,91" style="stroke: black;stroke-width: 14;stroke-linecap:butt;stroke-linejoin:round" fill="none" olab:comment=""/>
	<polyline points="3127,72 3127,91" style="stroke: black;stroke-width: 14;stroke-linecap:butt;stroke-linejoin:round" fill="none" olab:comment=""/>
	<polyline points="3244,72 3244,91" style="stroke: black;stroke-width: 14;stroke-linecap:butt;stroke-linejoin:round" fill="none" olab:comment=""/>
	<polyline points="553,72 553,110" style="stroke: black;stroke-width: 14;stroke-linecap:butt;stroke-linejoin:round" fill="none" olab:comment=""/>
	<polyline points="1255,72 1255,110" style="stroke: black;stroke-width: 14;stroke-linecap:butt;stroke-linejoin:round" fill="none" olab:comment=""/>
	<polyline points="1957,72 1957,110" style="stroke: black;stroke-width: 14;stroke-linecap:butt;stroke-linejoin:round" fill="none" olab:comment=""/>
	<polyline points="2659,72 2659,110" style="stroke: black;stroke-width: 14;stroke-linecap:butt;stroke-linejoin:round" fill="none" olab:comment=""/>
	<polyline points="494,2130 494,72" style="stroke: black;stroke-width: 14;stroke-linecap:square;stroke-linejoin:round" fill="none" olab:comment=""/>
	<polyline points="494,1873 513,1873" style="stroke: black;stroke-width: 14;stroke-linecap:butt;stroke-linejoin:round" fill="none" olab:comment=""/>
	<polyline points="494,1616 513,1616" style="stroke: black;stroke-width: 14;stroke-linecap:butt;stroke-linejoin:round" fill="none" olab:comment=""/>
	<polyline points="494,1101 513,1101" style="stroke: black;stroke-width: 14;stroke-linecap:butt;stroke-linejoin:round" fill="none" olab:comment=""/>
	<polyline points="494,844 513,844" style="stroke: black;stroke-width: 14;stroke-linecap:butt;stroke-linejoin:round" fill="none" olab:comment=""/>
	<polyline points="494,329 513,329" style="stroke: black;stroke-width: 14;stroke-linecap:butt;stroke-linejoin:round" fill="none" olab:comment=""/>
	<polyline points="494,72 513,72" style="stroke: black;stroke-width: 14;stroke-linecap:butt;stroke-linejoin:round" fill="none" olab:comment=""/>
	<polyline points="494,2130 532,2130" style="stroke: black;stroke-width: 14;stroke-linecap:butt;stroke-linejoin:round" fill="none" olab:comment=""/>
	<polyline points="494,1358 532,1358" style="stroke: black;stroke-width: 14;stroke-linecap:butt;stroke-linejoin:round" fill="none" olab:comment=""/>
	<polyline points="494,587 532,587" style="stroke: black;stroke-width: 14;stroke-linecap:butt;stroke-linejoin:round" fill="none" olab:comment=""/>
	<polyline points="3303,2130 3303,72" style="stroke: black;stroke-width: 14;stroke-linecap:square;stroke-linejoin:round" fill="none" olab:comment=""/>
	<polyline points="3303,1873 3284,1873" style="stroke: black;stroke-width: 14;stroke-linecap:butt;stroke-linejoin:round" fill="none" olab:comment=""/>
	<polyline points="3303,1616 3284,1616" style="stroke: black;stroke-width: 14;stroke-linecap:butt;stroke-linejoin:round" fill="none" olab:comment=""/>
	<polyline points="3303,1101 3284,1101" style="stroke: black;stroke-width: 14;stroke-linecap:butt;stroke-linejoin:round" fill="none" olab:comment=""/>
	<polyline points="3303,844 3284,844" style="stroke: black;stroke-width: 14;stroke-linecap:butt;stroke-linejoin:round" fill="none" olab:comment=""/>
	<polyline points="3303,329 3284,329" style="stroke: black;stroke-width: 14;stroke-linecap:butt;stroke-linejoin:round" fill="none" olab:comment=""/>
	<polyline points="3303,72 3284,72" style="stroke: black;stroke-width: 14;stroke-linecap:butt;stroke-linejoin:round" fill="none" olab:comment=""/>
	<polyline points="3303,2130 3265,2130" style="stroke: black;stroke-width: 14;stroke-linecap:butt;stroke-linejoin:round" fill="none" olab:comment=""/>
	<polyline points="3303,1358 3265,1358" style="stroke: black;stroke-width: 14;stroke-linecap:butt;stroke-linejoin:round" fill="none" olab:comment=""/>
	<polyline points="3303,587 3265,587" style="stroke: black;stroke-width: 14;stroke-linecap:butt;stroke-linejoin:round" fill="none" olab:comment=""/>
	<text x="519" dominant-baseline="auto" y="2275" fill="black" font-family="Times New Roman,'MS PGothic',SimSun" font-size="137" font-weight="400" olab:comment="">
		<tspan x="519" style="font-kerning:none">0</tspan>
	</text>
	<text x="1152" dominant-baseline="auto" y="2275" fill="black" font-family="Times New Roman,'MS PGothic',SimSun" font-size="137" font-weight="400" olab:comment="">
		<tspan x="1152" style="font-kerning:none">600</tspan>
	</text>
	<text x="1819" dominant-baseline="auto" y="2275" fill="black" font-family="Times New Roman,'MS PGothic',SimSun" font-size="137" font-weight="400" olab:comment="">
		<tspan x="1819" style="font-kerning:none">1200</tspan>
	</text>
	<text x="2521" dominant-baseline="auto" y="2275" fill="black" font-family="Times New Roman,'MS PGothic',SimSun" font-size="137" font-weight="400" olab:comment="">
		<tspan x="2521" style="font-kerning:none">1800</tspan>
	</text>
	<text x="281" dominant-baseline="auto" y="2170" fill="black" font-family="Times New Roman,'MS PGothic',SimSun" font-size="137" font-weight="400" olab:comment="">
		<tspan x="281" style="font-kerning:none">0.0</tspan>
	</text>
	<text x="281" dominant-baseline="auto" y="1398" fill="black" font-family="Times New Roman,'MS PGothic',SimSun" font-size="137" font-weight="400" olab:comment="">
		<tspan x="281" style="font-kerning:none">0.3</tspan>
	</text>
	<text x="281" dominant-baseline="auto" y="627" fill="black" font-family="Times New Roman,'MS PGothic',SimSun" font-size="137" font-weight="400" olab:comment="">
		<tspan x="281" style="font-kerning:none">0.6</tspan>
	</text>
	<text x="0" dominant-baseline="auto" y="0" fill="black" font-family="Arial,'MS PGothic',SimSun" font-size="137" font-weight="400" transform="matrix(-1.83697e-16 -1 0.999999 -1.83697e-16 231 1295)" olab:comment="">
		<tspan x="0" style="font-kerning:none">BIO18</tspan>
	</text>
</svg>

