<?xml version="1.0" encoding="UTF-8"?>
<!DOCTYPE svg PUBLIC "-//W3C//DTD SVG 1.1//EN" "http://www.w3.org/Graphics/SVG/1.1/DTD/svg11.dtd">
<!--Generated by Origin-->
<svg xmlns="http://www.w3.org/2000/svg" xmlns:xlink="http://www.w3.org/1999/xlink" xmlns:olab="http://www.originlab.com/namespaces/olab" viewBox="96,66 3214,2250" width="10.720000in" height="7.500000in">
	<defs>
		<mask id="Cp_1">
			<rect x="494" y="72" width="2810" height="2059" fill="white"/>
		</mask>
	</defs>
	<g mask="url(#Cp_1)">
		<rect x="96" y="66" width="3214" height="2250" visibility="hidden" fill="none" opacity="0"/>
		<path d="M 608,677 L 608,677 634,615 660,570 686,568 712,567 738,566 764,566 790,565 816,564 841,564 867,563 893,563 919,562 945,561 971,561 997,560 1023,560 1049,559 1075,559 1101,558 1126,557 1152,557 1178,556 1204,556 1230,555 1256,555 1282,554 1308,554 1334,553 1360,553 1386,553 1411,552 1437,552 1463,551 1489,551 1515,550 1541,550 1567,550 1593,549 1619,549 1645,549 1670,548 1696,548 1722,548 1748,548 1774,547 1800,547 1826,547 1852,547 1878,546 1904,546 1930,546 1955,546 1981,547 2007,548 2033,549 2059,550 2085,552 2111,553 2137,555 2163,557 2189,558 2215,560 2240,562 2266,564 2292,566 2318,568 2344,570 2370,572 2396,574 2422,576 2448,578 2474,580 2500,582 2525,584 2551,586 2577,589 2603,591 2629,593 2655,595 2681,597 2707,600 2733,602 2759,604 2784,606 2810,608 2836,611 2862,613 2888,614 2914,614 2940,614 2966,614 2992,614 3018,614 3044,614 3069,614 3095,614 3121,614 3147,614 3173,614 3173,677 Z M 608,677 L 608,528 634,523 660,506 686,505 712,503 738,503 764,503 790,503 816,503 841,503 867,503 893,503 919,504 945,504 971,504 997,504 1023,504 1049,504 1075,504 1101,504 1126,504 1152,504 1178,504 1204,504 1230,504 1256,504 1282,504 1308,504 1334,504 1360,504 1386,504 1411,504 1437,504 1463,504 1489,504 1515,504 1541,504 1567,503 1593,503 1619,503 1645,503 1670,503 1696,503 1722,502 1748,502 1774,502 1800,502 1826,501 1852,501 1878,501 1904,501 1930,500 1955,500 1981,500 2007,500 2033,501 2059,501 2085,500 2111,500 2137,500 2163,500 2189,499 2215,499 2240,498 2266,498 2292,497 2318,496 2344,495 2370,495 2396,494 2422,493 2448,492 2474,491 2500,490 2525,490 2551,489 2577,488 2603,487 2629,486 2655,485 2681,484 2707,483 2733,482 2759,481 2784,480 2810,479 2836,478 2862,477 2888,477 2914,476 2940,476 2966,475 2992,475 3018,474 3044,474 3069,473 3095,473 3121,472 3147,472 3173,471 3173,677 Z" fill="#FDC1C1" fill-rule="evenodd" stroke="none" olab:comment=""/>
		<polyline points="608,677 634,615 660,570 686,568 712,567 738,566 764,566 790,565 816,564 841,564 867,563 893,563 919,562 945,561 971,561 997,560 1023,560 1049,559 1075,559 1101,558 1126,557 1152,557 1178,556 1204,556 1230,555 1256,555 1282,554 1308,554 1334,553 1360,553 1386,553 1411,552 1437,552 1463,551 1489,551 1515,550 1541,550 1567,550 1593,549 1619,549 1645,549 1670,548 1696,548 1722,548 1748,548 1774,547 1800,547 1826,547 1852,547 1878,546 1904,546 1930,546 1955,546 1981,547 2007,548 2033,549 2059,550 2085,552 2111,553 2137,555 2163,557 2189,558 2215,560 2240,562 2266,564 2292,566 2318,568 2344,570 2370,572 2396,574 2422,576 2448,578 2474,580 2500,582 2525,584 2551,586 2577,589 2603,591 2629,593 2655,595 2681,597 2707,600 2733,602 2759,604 2784,606 2810,608 2836,611 2862,613 2888,614 2914,614 2940,614 2966,614 2992,614 3018,614 3044,614 3069,614 3095,614 3121,614 3147,614 3173,614" style="stroke: #FDC1C1;stroke-width: 2;stroke-linecap:round;stroke-linejoin:round" fill="none" olab:comment=""/>
		<polyline points="608,602 634,569 660,538 686,536 712,535 738,535 764,534 790,534 816,534 841,534 867,533 893,533 919,533 945,533 971,532 997,532 1023,532 1049,532 1075,531 1101,531 1126,531 1152,531 1178,530 1204,530 1230,530 1256,530 1282,529 1308,529 1334,529 1360,529 1386,528 1411,528 1437,528 1463,528 1489,527 1515,527 1541,527 1567,527 1593,526 1619,526 1645,526 1670,526 1696,525 1722,525 1748,525 1774,525 1800,524 1826,524 1852,524 1878,524 1904,523 1930,523 1955,523 1981,524 2007,524 2033,525 2059,526 2085,526 2111,527 2137,527 2163,528 2189,529 2215,529 2240,530 2266,531 2292,531 2318,532 2344,533 2370,533 2396,534 2422,534 2448,535 2474,536 2500,536 2525,537 2551,538 2577,538 2603,539 2629,539 2655,540 2681,541 2707,541 2733,542 2759,542 2784,543 2810,544 2836,544 2862,545 2888,545 2914,545 2940,545 2966,545 2992,544 3018,544 3044,544 3069,544 3095,543 3121,543 3147,543 3173,543" style="stroke: #F14040;stroke-width: 14;stroke-linecap:round;stroke-linejoin:round" fill="none" olab:comment=""/>
		<polyline points="608,528 634,523 660,506 686,505 712,503 738,503 764,503 790,503 816,503 841,503 867,503 893,503 919,504 945,504 971,504 997,504 1023,504 1049,504 1075,504 1101,504 1126,504 1152,504 1178,504 1204,504 1230,504 1256,504 1282,504 1308,504 1334,504 1360,504 1386,504 1411,504 1437,504 1463,504 1489,504 1515,504 1541,504 1567,503 1593,503 1619,503 1645,503 1670,503 1696,503 1722,502 1748,502 1774,502 1800,502 1826,501 1852,501 1878,501 1904,501 1930,500 1955,500 1981,500 2007,500 2033,501 2059,501 2085,500 2111,500 2137,500 2163,500 2189,499 2215,499 2240,498 2266,498 2292,497 2318,496 2344,495 2370,495 2396,494 2422,493 2448,492 2474,491 2500,490 2525,490 2551,489 2577,488 2603,487 2629,486 2655,485 2681,484 2707,483 2733,482 2759,481 2784,480 2810,479 2836,478 2862,477 2888,477 2914,476 2940,476 2966,475 2992,475 3018,474 3044,474 3069,473 3095,473 3121,472 3147,472 3173,471" style="stroke: #FDC1C1;stroke-width: 2;stroke-linecap:round;stroke-linejoin:round" fill="none" olab:comment=""/>
	</g>
	<polyline points="494,2130 3303,2130" style="stroke: black;stroke-width: 14;stroke-linecap:square;stroke-linejoin:round" fill="none" olab:comment=""/>
	<polyline points="494,2130 494,2111" style="stroke: black;stroke-width: 14;stroke-linecap:butt;stroke-linejoin:round" fill="none" olab:comment=""/>
	<polyline points="869,2130 869,2111" style="stroke: black;stroke-width: 14;stroke-linecap:butt;stroke-linejoin:round" fill="none" olab:comment=""/>
	<polyline points="1056,2130 1056,2111" style="stroke: black;stroke-width: 14;stroke-linecap:butt;stroke-linejoin:round" fill="none" olab:comment=""/>
	<polyline points="1243,2130 1243,2111" style="stroke: black;stroke-width: 14;stroke-linecap:butt;stroke-linejoin:round" fill="none" olab:comment=""/>
	<polyline points="1430,2130 1430,2111" style="stroke: black;stroke-width: 14;stroke-linecap:butt;stroke-linejoin:round" fill="none" olab:comment=""/>
	<polyline points="1805,2130 1805,2111" style="stroke: black;stroke-width: 14;stroke-linecap:butt;stroke-linejoin:round" fill="none" olab:comment=""/>
	<polyline points="1992,2130 1992,2111" style="stroke: black;stroke-width: 14;stroke-linecap:butt;stroke-linejoin:round" fill="none" olab:comment=""/>
	<polyline points="2179,2130 2179,2111" style="stroke: black;stroke-width: 14;stroke-linecap:butt;stroke-linejoin:round" fill="none" olab:comment=""/>
	<polyline points="2367,2130 2367,2111" style="stroke: black;stroke-width: 14;stroke-linecap:butt;stroke-linejoin:round" fill="none" olab:comment=""/>
	<polyline points="2741,2130 2741,2111" style="stroke: black;stroke-width: 14;stroke-linecap:butt;stroke-linejoin:round" fill="none" olab:comment=""/>
	<polyline points="2928,2130 2928,2111" style="stroke: black;stroke-width: 14;stroke-linecap:butt;stroke-linejoin:round" fill="none" olab:comment=""/>
	<polyline points="3116,2130 3116,2111" style="stroke: black;stroke-width: 14;stroke-linecap:butt;stroke-linejoin:round" fill="none" olab:comment=""/>
	<polyline points="3303,2130 3303,2111" style="stroke: black;stroke-width: 14;stroke-linecap:butt;stroke-linejoin:round" fill="none" olab:comment=""/>
	<polyline points="681,2130 681,2092" style="stroke: black;stroke-width: 14;stroke-linecap:butt;stroke-linejoin:round" fill="none" olab:comment=""/>
	<polyline points="1618,2130 1618,2092" style="stroke: black;stroke-width: 14;stroke-linecap:butt;stroke-linejoin:round" fill="none" olab:comment=""/>
	<polyline points="2554,2130 2554,2092" style="stroke: black;stroke-width: 14;stroke-linecap:butt;stroke-linejoin:round" fill="none" olab:comment=""/>
	<polyline points="494,72 3303,72" style="stroke: black;stroke-width: 14;stroke-linecap:square;stroke-linejoin:round" fill="none" olab:comment=""/>
	<polyline points="494,72 494,91" style="stroke: black;stroke-width: 14;stroke-linecap:butt;stroke-linejoin:round" fill="none" olab:comment=""/>
	<polyline points="869,72 869,91" style="stroke: black;stroke-width: 14;stroke-linecap:butt;stroke-linejoin:round" fill="none" olab:comment=""/>
	<polyline points="1056,72 1056,91" style="stroke: black;stroke-width: 14;stroke-linecap:butt;stroke-linejoin:round" fill="none" olab:comment=""/>
	<polyline points="1243,72 1243,91" style="stroke: black;stroke-width: 14;stroke-linecap:butt;stroke-linejoin:round" fill="none" olab:comment=""/>
	<polyline points="1430,72 1430,91" style="stroke: black;stroke-width: 14;stroke-linecap:butt;stroke-linejoin:round" fill="none" olab:comment=""/>
	<polyline points="1805,72 1805,91" style="stroke: black;stroke-width: 14;stroke-linecap:butt;stroke-linejoin:round" fill="none" olab:comment=""/>
	<polyline points="1992,72 1992,91" style="stroke: black;stroke-width: 14;stroke-linecap:butt;stroke-linejoin:round" fill="none" olab:comment=""/>
	<polyline points="2179,72 2179,91" style="stroke: black;stroke-width: 14;stroke-linecap:butt;stroke-linejoin:round" fill="none" olab:comment=""/>
	<polyline points="2367,72 2367,91" style="stroke: black;stroke-width: 14;stroke-linecap:butt;stroke-linejoin:round" fill="none" olab:comment=""/>
	<polyline points="2741,72 2741,91" style="stroke: black;stroke-width: 14;stroke-linecap:butt;stroke-linejoin:round" fill="none" olab:comment=""/>
	<polyline points="2928,72 2928,91" style="stroke: black;stroke-width: 14;stroke-linecap:butt;stroke-linejoin:round" fill="none" olab:comment=""/>
	<polyline points="3116,72 3116,91" style="stroke: black;stroke-width: 14;stroke-linecap:butt;stroke-linejoin:round" fill="none" olab:comment=""/>
	<polyline points="3303,72 3303,91" style="stroke: black;stroke-width: 14;stroke-linecap:butt;stroke-linejoin:round" fill="none" olab:comment=""/>
	<polyline points="681,72 681,110" style="stroke: black;stroke-width: 14;stroke-linecap:butt;stroke-linejoin:round" fill="none" olab:comment=""/>
	<polyline points="1618,72 1618,110" style="stroke: black;stroke-width: 14;stroke-linecap:butt;stroke-linejoin:round" fill="none" olab:comment=""/>
	<polyline points="2554,72 2554,110" style="stroke: black;stroke-width: 14;stroke-linecap:butt;stroke-linejoin:round" fill="none" olab:comment=""/>
	<polyline points="494,2130 494,72" style="stroke: black;stroke-width: 14;stroke-linecap:square;stroke-linejoin:round" fill="none" olab:comment=""/>
	<polyline points="494,1873 513,1873" style="stroke: black;stroke-width: 14;stroke-linecap:butt;stroke-linejoin:round" fill="none" olab:comment=""/>
	<polyline points="494,1616 513,1616" style="stroke: black;stroke-width: 14;stroke-linecap:butt;stroke-linejoin:round" fill="none" olab:comment=""/>
	<polyline points="494,1101 513,1101" style="stroke: black;stroke-width: 14;stroke-linecap:butt;stroke-linejoin:round" fill="none" olab:comment=""/>
	<polyline points="494,844 513,844" style="stroke: black;stroke-width: 14;stroke-linecap:butt;stroke-linejoin:round" fill="none" olab:comment=""/>
	<polyline points="494,329 513,329" style="stroke: black;stroke-width: 14;stroke-linecap:butt;stroke-linejoin:round" fill="none" olab:comment=""/>
	<polyline points="494,72 513,72" style="stroke: black;stroke-width: 14;stroke-linecap:butt;stroke-linejoin:round" fill="none" olab:comment=""/>
	<polyline points="494,2130 532,2130" style="stroke: black;stroke-width: 14;stroke-linecap:butt;stroke-linejoin:round" fill="none" olab:comment=""/>
	<polyline points="494,1358 532,1358" style="stroke: black;stroke-width: 14;stroke-linecap:butt;stroke-linejoin:round" fill="none" olab:comment=""/>
	<polyline points="494,587 532,587" style="stroke: black;stroke-width: 14;stroke-linecap:butt;stroke-linejoin:round" fill="none" olab:comment=""/>
	<polyline points="3303,2130 3303,72" style="stroke: black;stroke-width: 14;stroke-linecap:square;stroke-linejoin:round" fill="none" olab:comment=""/>
	<polyline points="3303,1873 3284,1873" style="stroke: black;stroke-width: 14;stroke-linecap:butt;stroke-linejoin:round" fill="none" olab:comment=""/>
	<polyline points="3303,1616 3284,1616" style="stroke: black;stroke-width: 14;stroke-linecap:butt;stroke-linejoin:round" fill="none" olab:comment=""/>
	<polyline points="3303,1101 3284,1101" style="stroke: black;stroke-width: 14;stroke-linecap:butt;stroke-linejoin:round" fill="none" olab:comment=""/>
	<polyline points="3303,844 3284,844" style="stroke: black;stroke-width: 14;stroke-linecap:butt;stroke-linejoin:round" fill="none" olab:comment=""/>
	<polyline points="3303,329 3284,329" style="stroke: black;stroke-width: 14;stroke-linecap:butt;stroke-linejoin:round" fill="none" olab:comment=""/>
	<polyline points="3303,72 3284,72" style="stroke: black;stroke-width: 14;stroke-linecap:butt;stroke-linejoin:round" fill="none" olab:comment=""/>
	<polyline points="3303,2130 3265,2130" style="stroke: black;stroke-width: 14;stroke-linecap:butt;stroke-linejoin:round" fill="none" olab:comment=""/>
	<polyline points="3303,1358 3265,1358" style="stroke: black;stroke-width: 14;stroke-linecap:butt;stroke-linejoin:round" fill="none" olab:comment=""/>
	<polyline points="3303,587 3265,587" style="stroke: black;stroke-width: 14;stroke-linecap:butt;stroke-linejoin:round" fill="none" olab:comment=""/>
	<text x="647" dominant-baseline="auto" y="2275" fill="black" font-family="Times New Roman,'MS PGothic',SimSun" font-size="137" font-weight="400" olab:comment="">
		<tspan x="647" style="font-kerning:none">5</tspan>
	</text>
	<text x="1549" dominant-baseline="auto" y="2275" fill="black" font-family="Times New Roman,'MS PGothic',SimSun" font-size="137" font-weight="400" olab:comment="">
		<tspan x="1549" style="font-kerning:none">10</tspan>
	</text>
	<text x="2485" dominant-baseline="auto" y="2275" fill="black" font-family="Times New Roman,'MS PGothic',SimSun" font-size="137" font-weight="400" olab:comment="">
		<tspan x="2485" style="font-kerning:none">15</tspan>
	</text>
	<text x="281" dominant-baseline="auto" y="2170" fill="black" font-family="Times New Roman,'MS PGothic',SimSun" font-size="137" font-weight="400" olab:comment="">
		<tspan x="281" style="font-kerning:none">0.0</tspan>
	</text>
	<text x="281" dominant-baseline="auto" y="1398" fill="black" font-family="Times New Roman,'MS PGothic',SimSun" font-size="137" font-weight="400" olab:comment="">
		<tspan x="281" style="font-kerning:none">0.3</tspan>
	</text>
	<text x="281" dominant-baseline="auto" y="627" fill="black" font-family="Times New Roman,'MS PGothic',SimSun" font-size="137" font-weight="400" olab:comment="">
		<tspan x="281" style="font-kerning:none">0.6</tspan>
	</text>
	<text x="0" dominant-baseline="auto" y="0" fill="black" font-family="Arial,'MS PGothic',SimSun" font-size="137" font-weight="400" transform="matrix(-1.83697e-16 -1 0.999999 -1.83697e-16 231 1257)" olab:comment="">
		<tspan x="0" style="font-kerning:none">BIO2</tspan>
	</text>
</svg>

