<?xml version="1.0" encoding="UTF-8"?>
<!DOCTYPE svg PUBLIC "-//W3C//DTD SVG 1.1//EN" "http://www.w3.org/Graphics/SVG/1.1/DTD/svg11.dtd">
<!--Generated by Origin-->
<svg xmlns="http://www.w3.org/2000/svg" xmlns:xlink="http://www.w3.org/1999/xlink" xmlns:olab="http://www.originlab.com/namespaces/olab" viewBox="96,66 3215,2250" width="10.720000in" height="7.500000in">
	<defs>
		<mask id="Cp_1">
			<rect x="494" y="72" width="2811" height="2059" fill="white"/>
		</mask>
	</defs>
	<g mask="url(#Cp_1)">
		<rect x="96" y="66" width="3215" height="2250" visibility="hidden" fill="none" opacity="0"/>
		<path d="M 559,1775 L 559,437 586,438 613,440 639,443 666,446 693,449 719,452 746,456 773,459 799,462 826,465 853,468 880,471 906,475 933,478 960,481 986,485 1013,488 1040,491 1066,495 1093,499 1120,502 1146,506 1173,510 1200,514 1226,518 1253,522 1280,527 1306,531 1333,536 1360,541 1386,546 1413,551 1440,557 1466,562 1493,568 1520,573 1547,579 1573,585 1600,591 1627,597 1653,603 1680,609 1707,615 1733,621 1760,627 1787,634 1813,640 1840,646 1867,652 1893,659 1920,669 1947,684 1973,701 2000,719 2027,737 2053,756 2080,775 2107,793 2134,812 2160,831 2187,851 2214,870 2240,890 2267,910 2294,930 2320,950 2347,970 2374,990 2400,1010 2427,1030 2454,1052 2480,1081 2507,1113 2534,1145 2560,1177 2587,1209 2614,1241 2640,1272 2667,1303 2694,1333 2720,1363 2747,1392 2774,1420 2801,1448 2827,1475 2854,1502 2881,1528 2907,1553 2934,1577 2961,1601 2987,1624 3014,1646 3041,1668 3067,1688 3094,1709 3121,1727 3147,1745 3174,1762 3201,1775 3201,1775 Z M 559,1775 L 559,320 586,324 613,329 639,335 666,342 693,348 719,355 746,361 773,368 799,374 826,381 853,387 880,393 906,400 933,406 960,412 986,418 1013,425 1040,431 1066,437 1093,443 1120,448 1146,454 1173,460 1200,465 1226,471 1253,476 1280,481 1306,486 1333,491 1360,495 1386,500 1413,504 1440,508 1466,512 1493,516 1520,520 1547,524 1573,527 1600,531 1627,534 1653,538 1680,541 1707,545 1733,548 1760,551 1787,554 1813,557 1840,560 1867,564 1893,567 1920,574 1947,585 1973,597 2000,610 2027,622 2053,633 2080,644 2107,656 2134,666 2160,677 2187,688 2214,700 2240,712 2267,725 2294,737 2320,749 2347,761 2374,773 2400,785 2427,797 2454,812 2480,835 2507,860 2534,887 2560,913 2587,939 2614,963 2640,987 2667,1010 2694,1033 2720,1055 2747,1076 2774,1097 2801,1117 2827,1136 2854,1156 2881,1174 2907,1193 2934,1210 2961,1228 2987,1245 3014,1261 3041,1277 3067,1293 3094,1309 3121,1323 3147,1337 3174,1350 3201,1359 3201,1775 Z" fill="#FDC1C1" fill-rule="evenodd" stroke="none" olab:comment=""/>
		<polyline points="559,437 586,438 613,440 639,443 666,446 693,449 719,452 746,456 773,459 799,462 826,465 853,468 880,471 906,475 933,478 960,481 986,485 1013,488 1040,491 1066,495 1093,499 1120,502 1146,506 1173,510 1200,514 1226,518 1253,522 1280,527 1306,531 1333,536 1360,541 1386,546 1413,551 1440,557 1466,562 1493,568 1520,573 1547,579 1573,585 1600,591 1627,597 1653,603 1680,609 1707,615 1733,621 1760,627 1787,634 1813,640 1840,646 1867,652 1893,659 1920,669 1947,684 1973,701 2000,719 2027,737 2053,756 2080,775 2107,793 2134,812 2160,831 2187,851 2214,870 2240,890 2267,910 2294,930 2320,950 2347,970 2374,990 2400,1010 2427,1030 2454,1052 2480,1081 2507,1113 2534,1145 2560,1177 2587,1209 2614,1241 2640,1272 2667,1303 2694,1333 2720,1363 2747,1392 2774,1420 2801,1448 2827,1475 2854,1502 2881,1528 2907,1553 2934,1577 2961,1601 2987,1624 3014,1646 3041,1668 3067,1688 3094,1709 3121,1727 3147,1745 3174,1762 3201,1775" style="stroke: #FDC1C1;stroke-width: 2;stroke-linecap:round;stroke-linejoin:round" fill="none" olab:comment=""/>
		<polyline points="559,378 586,381 613,385 639,389 666,394 693,399 719,404 746,408 773,413 799,418 826,423 853,428 880,432 906,437 933,442 960,447 986,451 1013,456 1040,461 1066,466 1093,471 1120,475 1146,480 1173,485 1200,490 1226,494 1253,499 1280,504 1306,509 1333,513 1360,518 1386,523 1413,528 1440,532 1466,537 1493,542 1520,547 1547,551 1573,556 1600,561 1627,566 1653,570 1680,575 1707,580 1733,584 1760,589 1787,594 1813,599 1840,603 1867,608 1893,613 1920,621 1947,634 1973,649 2000,664 2027,679 2053,694 2080,709 2107,724 2134,739 2160,754 2187,769 2214,785 2240,801 2267,817 2294,834 2320,850 2347,866 2374,882 2400,897 2427,914 2454,932 2480,958 2507,986 2534,1016 2560,1045 2587,1074 2614,1102 2640,1129 2667,1156 2694,1183 2720,1209 2747,1234 2774,1258 2801,1282 2827,1306 2854,1329 2881,1351 2907,1373 2934,1394 2961,1414 2987,1434 3014,1454 3041,1473 3067,1491 3094,1509 3121,1525 3147,1541 3174,1556 3201,1567" style="stroke: #F14040;stroke-width: 14;stroke-linecap:round;stroke-linejoin:round" fill="none" olab:comment=""/>
		<polyline points="559,320 586,324 613,329 639,335 666,342 693,348 719,355 746,361 773,368 799,374 826,381 853,387 880,393 906,400 933,406 960,412 986,418 1013,425 1040,431 1066,437 1093,443 1120,448 1146,454 1173,460 1200,465 1226,471 1253,476 1280,481 1306,486 1333,491 1360,495 1386,500 1413,504 1440,508 1466,512 1493,516 1520,520 1547,524 1573,527 1600,531 1627,534 1653,538 1680,541 1707,545 1733,548 1760,551 1787,554 1813,557 1840,560 1867,564 1893,567 1920,574 1947,585 1973,597 2000,610 2027,622 2053,633 2080,644 2107,656 2134,666 2160,677 2187,688 2214,700 2240,712 2267,725 2294,737 2320,749 2347,761 2374,773 2400,785 2427,797 2454,812 2480,835 2507,860 2534,887 2560,913 2587,939 2614,963 2640,987 2667,1010 2694,1033 2720,1055 2747,1076 2774,1097 2801,1117 2827,1136 2854,1156 2881,1174 2907,1193 2934,1210 2961,1228 2987,1245 3014,1261 3041,1277 3067,1293 3094,1309 3121,1323 3147,1337 3174,1350 3201,1359" style="stroke: #FDC1C1;stroke-width: 2;stroke-linecap:round;stroke-linejoin:round" fill="none" olab:comment=""/>
	</g>
	<polyline points="494,2130 3304,2130" style="stroke: black;stroke-width: 14;stroke-linecap:square;stroke-linejoin:round" fill="none" olab:comment=""/>
	<polyline points="494,2130 494,2111" style="stroke: black;stroke-width: 14;stroke-linecap:butt;stroke-linejoin:round" fill="none" olab:comment=""/>
	<polyline points="854,2130 854,2111" style="stroke: black;stroke-width: 14;stroke-linecap:butt;stroke-linejoin:round" fill="none" olab:comment=""/>
	<polyline points="1215,2130 1215,2111" style="stroke: black;stroke-width: 14;stroke-linecap:butt;stroke-linejoin:round" fill="none" olab:comment=""/>
	<polyline points="1935,2130 1935,2111" style="stroke: black;stroke-width: 14;stroke-linecap:butt;stroke-linejoin:round" fill="none" olab:comment=""/>
	<polyline points="2295,2130 2295,2111" style="stroke: black;stroke-width: 14;stroke-linecap:butt;stroke-linejoin:round" fill="none" olab:comment=""/>
	<polyline points="2656,2130 2656,2111" style="stroke: black;stroke-width: 14;stroke-linecap:butt;stroke-linejoin:round" fill="none" olab:comment=""/>
	<polyline points="1575,2130 1575,2092" style="stroke: black;stroke-width: 14;stroke-linecap:butt;stroke-linejoin:round" fill="none" olab:comment=""/>
	<polyline points="3016,2130 3016,2092" style="stroke: black;stroke-width: 14;stroke-linecap:butt;stroke-linejoin:round" fill="none" olab:comment=""/>
	<polyline points="494,72 3304,72" style="stroke: black;stroke-width: 14;stroke-linecap:square;stroke-linejoin:round" fill="none" olab:comment=""/>
	<polyline points="494,72 494,91" style="stroke: black;stroke-width: 14;stroke-linecap:butt;stroke-linejoin:round" fill="none" olab:comment=""/>
	<polyline points="854,72 854,91" style="stroke: black;stroke-width: 14;stroke-linecap:butt;stroke-linejoin:round" fill="none" olab:comment=""/>
	<polyline points="1215,72 1215,91" style="stroke: black;stroke-width: 14;stroke-linecap:butt;stroke-linejoin:round" fill="none" olab:comment=""/>
	<polyline points="1935,72 1935,91" style="stroke: black;stroke-width: 14;stroke-linecap:butt;stroke-linejoin:round" fill="none" olab:comment=""/>
	<polyline points="2295,72 2295,91" style="stroke: black;stroke-width: 14;stroke-linecap:butt;stroke-linejoin:round" fill="none" olab:comment=""/>
	<polyline points="2656,72 2656,91" style="stroke: black;stroke-width: 14;stroke-linecap:butt;stroke-linejoin:round" fill="none" olab:comment=""/>
	<polyline points="1575,72 1575,110" style="stroke: black;stroke-width: 14;stroke-linecap:butt;stroke-linejoin:round" fill="none" olab:comment=""/>
	<polyline points="3016,72 3016,110" style="stroke: black;stroke-width: 14;stroke-linecap:butt;stroke-linejoin:round" fill="none" olab:comment=""/>
	<polyline points="494,2130 494,72" style="stroke: black;stroke-width: 14;stroke-linecap:square;stroke-linejoin:round" fill="none" olab:comment=""/>
	<polyline points="494,1873 513,1873" style="stroke: black;stroke-width: 14;stroke-linecap:butt;stroke-linejoin:round" fill="none" olab:comment=""/>
	<polyline points="494,1616 513,1616" style="stroke: black;stroke-width: 14;stroke-linecap:butt;stroke-linejoin:round" fill="none" olab:comment=""/>
	<polyline points="494,1101 513,1101" style="stroke: black;stroke-width: 14;stroke-linecap:butt;stroke-linejoin:round" fill="none" olab:comment=""/>
	<polyline points="494,844 513,844" style="stroke: black;stroke-width: 14;stroke-linecap:butt;stroke-linejoin:round" fill="none" olab:comment=""/>
	<polyline points="494,329 513,329" style="stroke: black;stroke-width: 14;stroke-linecap:butt;stroke-linejoin:round" fill="none" olab:comment=""/>
	<polyline points="494,72 513,72" style="stroke: black;stroke-width: 14;stroke-linecap:butt;stroke-linejoin:round" fill="none" olab:comment=""/>
	<polyline points="494,2130 532,2130" style="stroke: black;stroke-width: 14;stroke-linecap:butt;stroke-linejoin:round" fill="none" olab:comment=""/>
	<polyline points="494,1358 532,1358" style="stroke: black;stroke-width: 14;stroke-linecap:butt;stroke-linejoin:round" fill="none" olab:comment=""/>
	<polyline points="494,587 532,587" style="stroke: black;stroke-width: 14;stroke-linecap:butt;stroke-linejoin:round" fill="none" olab:comment=""/>
	<polyline points="3304,2130 3304,72" style="stroke: black;stroke-width: 14;stroke-linecap:square;stroke-linejoin:round" fill="none" olab:comment=""/>
	<polyline points="3304,1873 3285,1873" style="stroke: black;stroke-width: 14;stroke-linecap:butt;stroke-linejoin:round" fill="none" olab:comment=""/>
	<polyline points="3304,1616 3285,1616" style="stroke: black;stroke-width: 14;stroke-linecap:butt;stroke-linejoin:round" fill="none" olab:comment=""/>
	<polyline points="3304,1101 3285,1101" style="stroke: black;stroke-width: 14;stroke-linecap:butt;stroke-linejoin:round" fill="none" olab:comment=""/>
	<polyline points="3304,844 3285,844" style="stroke: black;stroke-width: 14;stroke-linecap:butt;stroke-linejoin:round" fill="none" olab:comment=""/>
	<polyline points="3304,329 3285,329" style="stroke: black;stroke-width: 14;stroke-linecap:butt;stroke-linejoin:round" fill="none" olab:comment=""/>
	<polyline points="3304,72 3285,72" style="stroke: black;stroke-width: 14;stroke-linecap:butt;stroke-linejoin:round" fill="none" olab:comment=""/>
	<polyline points="3304,2130 3266,2130" style="stroke: black;stroke-width: 14;stroke-linecap:butt;stroke-linejoin:round" fill="none" olab:comment=""/>
	<polyline points="3304,1358 3266,1358" style="stroke: black;stroke-width: 14;stroke-linecap:butt;stroke-linejoin:round" fill="none" olab:comment=""/>
	<polyline points="3304,587 3266,587" style="stroke: black;stroke-width: 14;stroke-linecap:butt;stroke-linejoin:round" fill="none" olab:comment=""/>
	<text x="1506" dominant-baseline="auto" y="2275" fill="black" font-family="Times New Roman,'MS PGothic',SimSun" font-size="137" font-weight="400" olab:comment="">
		<tspan x="1506" style="font-kerning:none">40</tspan>
	</text>
	<text x="2947" dominant-baseline="auto" y="2275" fill="black" font-family="Times New Roman,'MS PGothic',SimSun" font-size="137" font-weight="400" olab:comment="">
		<tspan x="2947" style="font-kerning:none">80</tspan>
	</text>
	<text x="281" dominant-baseline="auto" y="2170" fill="black" font-family="Times New Roman,'MS PGothic',SimSun" font-size="137" font-weight="400" olab:comment="">
		<tspan x="281" style="font-kerning:none">0.0</tspan>
	</text>
	<text x="281" dominant-baseline="auto" y="1398" fill="black" font-family="Times New Roman,'MS PGothic',SimSun" font-size="137" font-weight="400" olab:comment="">
		<tspan x="281" style="font-kerning:none">0.3</tspan>
	</text>
	<text x="281" dominant-baseline="auto" y="627" fill="black" font-family="Times New Roman,'MS PGothic',SimSun" font-size="137" font-weight="400" olab:comment="">
		<tspan x="281" style="font-kerning:none">0.6</tspan>
	</text>
	<text x="0" dominant-baseline="auto" y="0" fill="black" font-family="Arial,'MS PGothic',SimSun" font-size="137" font-weight="400" transform="matrix(-1.83697e-16 -1 0.999999 -1.83697e-16 231 1257)" olab:comment="">
		<tspan x="0" style="font-kerning:none">BIO3</tspan>
	</text>
</svg>

