<?xml version="1.0" encoding="UTF-8"?>
<!DOCTYPE svg PUBLIC "-//W3C//DTD SVG 1.1//EN" "http://www.w3.org/Graphics/SVG/1.1/DTD/svg11.dtd">
<!--Generated by Origin-->
<svg xmlns="http://www.w3.org/2000/svg" xmlns:xlink="http://www.w3.org/1999/xlink" xmlns:olab="http://www.originlab.com/namespaces/olab" viewBox="96,66 3214,2250" width="10.720000in" height="7.500000in">
	<defs>
		<mask id="Cp_1">
			<rect x="494" y="72" width="2810" height="2059" fill="white"/>
		</mask>
	</defs>
	<g mask="url(#Cp_1)">
		<rect x="96" y="66" width="3214" height="2250" visibility="hidden" fill="none" opacity="0"/>
		<path d="M 543,1368 L 543,220 571,231 598,243 625,255 653,267 680,279 707,291 735,303 762,315 789,327 817,339 844,351 871,363 899,376 926,388 953,400 981,413 1008,425 1035,438 1063,450 1090,463 1117,476 1145,488 1172,501 1199,514 1227,527 1254,540 1281,554 1309,567 1336,580 1363,594 1391,608 1418,621 1445,635 1473,649 1500,663 1527,677 1555,691 1582,705 1609,720 1637,734 1664,748 1691,762 1719,776 1746,790 1773,805 1801,819 1828,833 1855,847 1883,861 1910,875 1937,889 1965,903 1992,917 2019,930 2047,944 2074,958 2101,971 2129,985 2156,998 2183,1012 2211,1025 2238,1038 2265,1051 2293,1064 2320,1077 2347,1090 2375,1103 2402,1116 2429,1128 2456,1141 2484,1153 2511,1166 2538,1178 2566,1190 2593,1202 2620,1213 2648,1224 2675,1234 2702,1245 2730,1255 2757,1262 2784,1268 2812,1275 2839,1281 2866,1287 2894,1294 2921,1300 2948,1306 2976,1313 3003,1319 3030,1325 3058,1331 3085,1337 3112,1343 3140,1349 3167,1354 3194,1359 3222,1364 3249,1368 3249,1368 Z M 543,1368 L 543,129 571,141 598,155 625,169 653,183 680,198 707,212 735,226 762,241 789,255 817,270 844,284 871,298 899,313 926,327 953,342 981,356 1008,371 1035,385 1063,399 1090,414 1117,428 1145,442 1172,456 1199,470 1227,484 1254,498 1281,512 1309,525 1336,539 1363,552 1391,566 1418,579 1445,592 1473,605 1500,617 1527,630 1555,643 1582,655 1609,668 1637,680 1664,693 1691,705 1719,717 1746,729 1773,741 1801,753 1828,765 1855,777 1883,789 1910,801 1937,812 1965,824 1992,836 2019,847 2047,859 2074,871 2101,882 2129,894 2156,905 2183,916 2211,928 2238,939 2265,950 2293,961 2320,972 2347,983 2375,994 2402,1005 2429,1016 2456,1027 2484,1038 2511,1048 2538,1059 2566,1070 2593,1080 2620,1090 2648,1099 2675,1109 2702,1118 2730,1127 2757,1134 2784,1141 2812,1147 2839,1154 2866,1160 2894,1166 2921,1173 2948,1179 2976,1186 3003,1192 3030,1198 3058,1204 3085,1211 3112,1217 3140,1223 3167,1228 3194,1233 3222,1238 3249,1242 3249,1368 Z" fill="#FDC1C1" fill-rule="evenodd" stroke="none" olab:comment=""/>
		<polyline points="543,220 571,231 598,243 625,255 653,267 680,279 707,291 735,303 762,315 789,327 817,339 844,351 871,363 899,376 926,388 953,400 981,413 1008,425 1035,438 1063,450 1090,463 1117,476 1145,488 1172,501 1199,514 1227,527 1254,540 1281,554 1309,567 1336,580 1363,594 1391,608 1418,621 1445,635 1473,649 1500,663 1527,677 1555,691 1582,705 1609,720 1637,734 1664,748 1691,762 1719,776 1746,790 1773,805 1801,819 1828,833 1855,847 1883,861 1910,875 1937,889 1965,903 1992,917 2019,930 2047,944 2074,958 2101,971 2129,985 2156,998 2183,1012 2211,1025 2238,1038 2265,1051 2293,1064 2320,1077 2347,1090 2375,1103 2402,1116 2429,1128 2456,1141 2484,1153 2511,1166 2538,1178 2566,1190 2593,1202 2620,1213 2648,1224 2675,1234 2702,1245 2730,1255 2757,1262 2784,1268 2812,1275 2839,1281 2866,1287 2894,1294 2921,1300 2948,1306 2976,1313 3003,1319 3030,1325 3058,1331 3085,1337 3112,1343 3140,1349 3167,1354 3194,1359 3222,1364 3249,1368" style="stroke: #FDC1C1;stroke-width: 14;stroke-linecap:round;stroke-linejoin:round" fill="none" olab:comment=""/>
		<polyline points="543,175 571,186 598,199 625,212 653,225 680,238 707,251 735,265 762,278 789,291 817,304 844,318 871,331 899,344 926,358 953,371 981,384 1008,398 1035,411 1063,425 1090,438 1117,452 1145,465 1172,479 1199,492 1227,506 1254,519 1281,533 1309,546 1336,560 1363,573 1391,587 1418,600 1445,614 1473,627 1500,640 1527,654 1555,667 1582,680 1609,694 1637,707 1664,720 1691,733 1719,747 1746,760 1773,773 1801,786 1828,799 1855,812 1883,825 1910,838 1937,851 1965,863 1992,876 2019,889 2047,902 2074,914 2101,927 2129,939 2156,952 2183,964 2211,976 2238,988 2265,1001 2293,1013 2320,1025 2347,1037 2375,1049 2402,1060 2429,1072 2456,1084 2484,1096 2511,1107 2538,1119 2566,1130 2593,1141 2620,1151 2648,1161 2675,1171 2702,1181 2730,1191 2757,1198 2784,1204 2812,1211 2839,1217 2866,1224 2894,1230 2921,1237 2948,1243 2976,1249 3003,1255 3030,1262 3058,1268 3085,1274 3112,1280 3140,1286 3167,1291 3194,1296 3222,1301 3249,1305" style="stroke: #F14040;stroke-width: 14;stroke-linecap:round;stroke-linejoin:round" fill="none" olab:comment=""/>
		<polyline points="543,129 571,141 598,155 625,169 653,183 680,198 707,212 735,226 762,241 789,255 817,270 844,284 871,298 899,313 926,327 953,342 981,356 1008,371 1035,385 1063,399 1090,414 1117,428 1145,442 1172,456 1199,470 1227,484 1254,498 1281,512 1309,525 1336,539 1363,552 1391,566 1418,579 1445,592 1473,605 1500,617 1527,630 1555,643 1582,655 1609,668 1637,680 1664,693 1691,705 1719,717 1746,729 1773,741 1801,753 1828,765 1855,777 1883,789 1910,801 1937,812 1965,824 1992,836 2019,847 2047,859 2074,871 2101,882 2129,894 2156,905 2183,916 2211,928 2238,939 2265,950 2293,961 2320,972 2347,983 2375,994 2402,1005 2429,1016 2456,1027 2484,1038 2511,1048 2538,1059 2566,1070 2593,1080 2620,1090 2648,1099 2675,1109 2702,1118 2730,1127 2757,1134 2784,1141 2812,1147 2839,1154 2866,1160 2894,1166 2921,1173 2948,1179 2976,1186 3003,1192 3030,1198 3058,1204 3085,1211 3112,1217 3140,1223 3167,1228 3194,1233 3222,1238 3249,1242" style="stroke: #FDC1C1;stroke-width: 14;stroke-linecap:round;stroke-linejoin:round" fill="none" olab:comment=""/>
	</g>
	<polyline points="494,2130 3303,2130" style="stroke: black;stroke-width: 14;stroke-linecap:square;stroke-linejoin:round" fill="none" olab:comment=""/>
	<polyline points="755,2130 755,2111" style="stroke: black;stroke-width: 14;stroke-linecap:butt;stroke-linejoin:round" fill="none" olab:comment=""/>
	<polyline points="1017,2130 1017,2111" style="stroke: black;stroke-width: 14;stroke-linecap:butt;stroke-linejoin:round" fill="none" olab:comment=""/>
	<polyline points="1278,2130 1278,2111" style="stroke: black;stroke-width: 14;stroke-linecap:butt;stroke-linejoin:round" fill="none" olab:comment=""/>
	<polyline points="1539,2130 1539,2111" style="stroke: black;stroke-width: 14;stroke-linecap:butt;stroke-linejoin:round" fill="none" olab:comment=""/>
	<polyline points="2062,2130 2062,2111" style="stroke: black;stroke-width: 14;stroke-linecap:butt;stroke-linejoin:round" fill="none" olab:comment=""/>
	<polyline points="2323,2130 2323,2111" style="stroke: black;stroke-width: 14;stroke-linecap:butt;stroke-linejoin:round" fill="none" olab:comment=""/>
	<polyline points="2584,2130 2584,2111" style="stroke: black;stroke-width: 14;stroke-linecap:butt;stroke-linejoin:round" fill="none" olab:comment=""/>
	<polyline points="2846,2130 2846,2111" style="stroke: black;stroke-width: 14;stroke-linecap:butt;stroke-linejoin:round" fill="none" olab:comment=""/>
	<polyline points="494,2130 494,2092" style="stroke: black;stroke-width: 14;stroke-linecap:butt;stroke-linejoin:round" fill="none" olab:comment=""/>
	<polyline points="1801,2130 1801,2092" style="stroke: black;stroke-width: 14;stroke-linecap:butt;stroke-linejoin:round" fill="none" olab:comment=""/>
	<polyline points="3107,2130 3107,2092" style="stroke: black;stroke-width: 14;stroke-linecap:butt;stroke-linejoin:round" fill="none" olab:comment=""/>
	<polyline points="494,72 3303,72" style="stroke: black;stroke-width: 14;stroke-linecap:square;stroke-linejoin:round" fill="none" olab:comment=""/>
	<polyline points="755,72 755,91" style="stroke: black;stroke-width: 14;stroke-linecap:butt;stroke-linejoin:round" fill="none" olab:comment=""/>
	<polyline points="1017,72 1017,91" style="stroke: black;stroke-width: 14;stroke-linecap:butt;stroke-linejoin:round" fill="none" olab:comment=""/>
	<polyline points="1278,72 1278,91" style="stroke: black;stroke-width: 14;stroke-linecap:butt;stroke-linejoin:round" fill="none" olab:comment=""/>
	<polyline points="1539,72 1539,91" style="stroke: black;stroke-width: 14;stroke-linecap:butt;stroke-linejoin:round" fill="none" olab:comment=""/>
	<polyline points="2062,72 2062,91" style="stroke: black;stroke-width: 14;stroke-linecap:butt;stroke-linejoin:round" fill="none" olab:comment=""/>
	<polyline points="2323,72 2323,91" style="stroke: black;stroke-width: 14;stroke-linecap:butt;stroke-linejoin:round" fill="none" olab:comment=""/>
	<polyline points="2584,72 2584,91" style="stroke: black;stroke-width: 14;stroke-linecap:butt;stroke-linejoin:round" fill="none" olab:comment=""/>
	<polyline points="2846,72 2846,91" style="stroke: black;stroke-width: 14;stroke-linecap:butt;stroke-linejoin:round" fill="none" olab:comment=""/>
	<polyline points="494,72 494,110" style="stroke: black;stroke-width: 14;stroke-linecap:butt;stroke-linejoin:round" fill="none" olab:comment=""/>
	<polyline points="1801,72 1801,110" style="stroke: black;stroke-width: 14;stroke-linecap:butt;stroke-linejoin:round" fill="none" olab:comment=""/>
	<polyline points="3107,72 3107,110" style="stroke: black;stroke-width: 14;stroke-linecap:butt;stroke-linejoin:round" fill="none" olab:comment=""/>
	<polyline points="494,2130 494,72" style="stroke: black;stroke-width: 14;stroke-linecap:square;stroke-linejoin:round" fill="none" olab:comment=""/>
	<polyline points="494,1888 513,1888" style="stroke: black;stroke-width: 14;stroke-linecap:butt;stroke-linejoin:round" fill="none" olab:comment=""/>
	<polyline points="494,1646 513,1646" style="stroke: black;stroke-width: 14;stroke-linecap:butt;stroke-linejoin:round" fill="none" olab:comment=""/>
	<polyline points="494,1162 513,1162" style="stroke: black;stroke-width: 14;stroke-linecap:butt;stroke-linejoin:round" fill="none" olab:comment=""/>
	<polyline points="494,919 513,919" style="stroke: black;stroke-width: 14;stroke-linecap:butt;stroke-linejoin:round" fill="none" olab:comment=""/>
	<polyline points="494,435 513,435" style="stroke: black;stroke-width: 14;stroke-linecap:butt;stroke-linejoin:round" fill="none" olab:comment=""/>
	<polyline points="494,193 513,193" style="stroke: black;stroke-width: 14;stroke-linecap:butt;stroke-linejoin:round" fill="none" olab:comment=""/>
	<polyline points="494,2130 532,2130" style="stroke: black;stroke-width: 14;stroke-linecap:butt;stroke-linejoin:round" fill="none" olab:comment=""/>
	<polyline points="494,1404 532,1404" style="stroke: black;stroke-width: 14;stroke-linecap:butt;stroke-linejoin:round" fill="none" olab:comment=""/>
	<polyline points="494,677 532,677" style="stroke: black;stroke-width: 14;stroke-linecap:butt;stroke-linejoin:round" fill="none" olab:comment=""/>
	<polyline points="3303,2130 3303,72" style="stroke: black;stroke-width: 14;stroke-linecap:square;stroke-linejoin:round" fill="none" olab:comment=""/>
	<polyline points="3303,1888 3284,1888" style="stroke: black;stroke-width: 14;stroke-linecap:butt;stroke-linejoin:round" fill="none" olab:comment=""/>
	<polyline points="3303,1646 3284,1646" style="stroke: black;stroke-width: 14;stroke-linecap:butt;stroke-linejoin:round" fill="none" olab:comment=""/>
	<polyline points="3303,1162 3284,1162" style="stroke: black;stroke-width: 14;stroke-linecap:butt;stroke-linejoin:round" fill="none" olab:comment=""/>
	<polyline points="3303,919 3284,919" style="stroke: black;stroke-width: 14;stroke-linecap:butt;stroke-linejoin:round" fill="none" olab:comment=""/>
	<polyline points="3303,435 3284,435" style="stroke: black;stroke-width: 14;stroke-linecap:butt;stroke-linejoin:round" fill="none" olab:comment=""/>
	<polyline points="3303,193 3284,193" style="stroke: black;stroke-width: 14;stroke-linecap:butt;stroke-linejoin:round" fill="none" olab:comment=""/>
	<polyline points="3303,2130 3265,2130" style="stroke: black;stroke-width: 14;stroke-linecap:butt;stroke-linejoin:round" fill="none" olab:comment=""/>
	<polyline points="3303,1404 3265,1404" style="stroke: black;stroke-width: 14;stroke-linecap:butt;stroke-linejoin:round" fill="none" olab:comment=""/>
	<polyline points="3303,677 3265,677" style="stroke: black;stroke-width: 14;stroke-linecap:butt;stroke-linejoin:round" fill="none" olab:comment=""/>
	<text x="460" dominant-baseline="auto" y="2275" fill="black" font-family="Times New Roman,'MS PGothic',SimSun" font-size="137" font-weight="400" olab:comment="">
		<tspan x="460" style="font-kerning:none">0</tspan>
	</text>
	<text x="1663" dominant-baseline="auto" y="2275" fill="black" font-family="Times New Roman,'MS PGothic',SimSun" font-size="137" font-weight="400" olab:comment="">
		<tspan x="1663" style="font-kerning:none">1000</tspan>
	</text>
	<text x="2969" dominant-baseline="auto" y="2275" fill="black" font-family="Times New Roman,'MS PGothic',SimSun" font-size="137" font-weight="400" olab:comment="">
		<tspan x="2969" style="font-kerning:none">2000</tspan>
	</text>
	<text x="281" dominant-baseline="auto" y="2170" fill="black" font-family="Times New Roman,'MS PGothic',SimSun" font-size="137" font-weight="400" olab:comment="">
		<tspan x="281" style="font-kerning:none">0.0</tspan>
	</text>
	<text x="281" dominant-baseline="auto" y="1444" fill="black" font-family="Times New Roman,'MS PGothic',SimSun" font-size="137" font-weight="400" olab:comment="">
		<tspan x="281" style="font-kerning:none">0.3</tspan>
	</text>
	<text x="281" dominant-baseline="auto" y="717" fill="black" font-family="Times New Roman,'MS PGothic',SimSun" font-size="137" font-weight="400" olab:comment="">
		<tspan x="281" style="font-kerning:none">0.6</tspan>
	</text>
	<text x="0" dominant-baseline="auto" y="0" fill="black" font-family="Arial,'MS PGothic',SimSun" font-size="137" font-weight="400" transform="matrix(-1.83697e-16 -1 0.999999 -1.83697e-16 231 1257)" olab:comment="">
		<tspan x="0" style="font-kerning:none">BIO4</tspan>
	</text>
</svg>

