<?xml version="1.0" encoding="UTF-8"?>
<!DOCTYPE svg PUBLIC "-//W3C//DTD SVG 1.1//EN" "http://www.w3.org/Graphics/SVG/1.1/DTD/svg11.dtd">
<!--Generated by Origin-->
<svg xmlns="http://www.w3.org/2000/svg" xmlns:xlink="http://www.w3.org/1999/xlink" xmlns:olab="http://www.originlab.com/namespaces/olab" viewBox="96,66 3214,2250" width="10.720000in" height="7.500000in">
	<defs>
		<mask id="Cp_1">
			<rect x="494" y="72" width="2810" height="2059" fill="white"/>
		</mask>
	</defs>
	<g mask="url(#Cp_1)">
		<rect x="96" y="66" width="3214" height="2250" visibility="hidden" fill="none" opacity="0"/>
		<path d="M 573,1466 L 573,555 600,550 627,543 653,537 680,531 707,525 734,519 760,513 787,508 814,503 840,498 867,499 894,499 921,500 947,502 974,504 1001,506 1027,508 1054,511 1081,513 1108,516 1134,519 1161,522 1188,525 1215,529 1241,533 1268,537 1295,541 1321,545 1348,550 1375,555 1402,559 1428,564 1455,569 1482,575 1508,580 1535,586 1562,591 1589,597 1615,603 1642,609 1669,615 1696,622 1722,628 1749,635 1776,642 1802,649 1829,657 1856,664 1883,672 1909,680 1936,688 1963,697 1989,705 2016,714 2043,723 2070,732 2096,742 2123,751 2150,761 2177,771 2203,781 2230,792 2257,803 2283,814 2310,826 2337,838 2364,851 2390,864 2417,878 2444,892 2470,907 2497,923 2524,939 2551,955 2577,972 2604,989 2631,1006 2658,1026 2684,1047 2711,1068 2738,1090 2764,1112 2791,1134 2818,1156 2845,1179 2871,1201 2898,1223 2925,1246 2951,1268 2978,1290 3005,1312 3032,1334 3058,1356 3085,1378 3112,1398 3138,1417 3165,1436 3192,1452 3219,1466 3219,1466 Z M 573,1466 L 573,296 600,290 627,285 653,280 680,274 707,269 734,264 760,259 787,254 814,250 840,245 867,247 894,251 921,255 947,261 974,266 1001,271 1027,277 1054,283 1081,289 1108,295 1134,302 1161,308 1188,315 1215,322 1241,329 1268,337 1295,344 1321,352 1348,360 1375,369 1402,377 1428,385 1455,394 1482,404 1508,413 1535,423 1562,432 1589,442 1615,452 1642,462 1669,472 1696,483 1722,494 1749,505 1776,516 1802,528 1829,539 1856,551 1883,564 1909,576 1936,589 1963,602 1989,615 2016,628 2043,641 2070,655 2096,669 2123,683 2150,697 2177,711 2203,726 2230,740 2257,755 2283,769 2310,784 2337,798 2364,812 2390,826 2417,840 2444,853 2470,866 2497,879 2524,892 2551,905 2577,917 2604,930 2631,943 2658,961 2684,981 2711,1002 2738,1022 2764,1042 2791,1061 2818,1081 2845,1100 2871,1120 2898,1139 2925,1158 2951,1177 2978,1196 3005,1214 3032,1233 3058,1252 3085,1270 3112,1288 3138,1304 3165,1321 3192,1335 3219,1348 3219,1466 Z" fill="#FDC1C1" fill-rule="evenodd" stroke="none" olab:comment=""/>
		<polyline points="573,555 600,550 627,543 653,537 680,531 707,525 734,519 760,513 787,508 814,503 840,498 867,499 894,499 921,500 947,502 974,504 1001,506 1027,508 1054,511 1081,513 1108,516 1134,519 1161,522 1188,525 1215,529 1241,533 1268,537 1295,541 1321,545 1348,550 1375,555 1402,559 1428,564 1455,569 1482,575 1508,580 1535,586 1562,591 1589,597 1615,603 1642,609 1669,615 1696,622 1722,628 1749,635 1776,642 1802,649 1829,657 1856,664 1883,672 1909,680 1936,688 1963,697 1989,705 2016,714 2043,723 2070,732 2096,742 2123,751 2150,761 2177,771 2203,781 2230,792 2257,803 2283,814 2310,826 2337,838 2364,851 2390,864 2417,878 2444,892 2470,907 2497,923 2524,939 2551,955 2577,972 2604,989 2631,1006 2658,1026 2684,1047 2711,1068 2738,1090 2764,1112 2791,1134 2818,1156 2845,1179 2871,1201 2898,1223 2925,1246 2951,1268 2978,1290 3005,1312 3032,1334 3058,1356 3085,1378 3112,1398 3138,1417 3165,1436 3192,1452 3219,1466" style="stroke: #FDC1C1;stroke-width: 2;stroke-linecap:round;stroke-linejoin:round" fill="none" olab:comment=""/>
		<polyline points="573,425 600,420 627,414 653,408 680,403 707,397 734,392 760,386 787,381 814,376 840,372 867,373 894,375 921,378 947,381 974,385 1001,389 1027,393 1054,397 1081,401 1108,406 1134,410 1161,415 1188,420 1215,426 1241,431 1268,437 1295,443 1321,449 1348,455 1375,462 1402,468 1428,475 1455,482 1482,489 1508,497 1535,504 1562,512 1589,520 1615,528 1642,536 1669,544 1696,552 1722,561 1749,570 1776,579 1802,588 1829,598 1856,608 1883,618 1909,628 1936,639 1963,649 1989,660 2016,671 2043,682 2070,694 2096,705 2123,717 2150,729 2177,741 2203,754 2230,766 2257,779 2283,792 2310,805 2337,818 2364,832 2390,845 2417,859 2444,873 2470,887 2497,901 2524,915 2551,930 2577,944 2604,959 2631,974 2658,993 2684,1014 2711,1035 2738,1056 2764,1077 2791,1098 2818,1119 2845,1139 2871,1160 2898,1181 2925,1202 2951,1222 2978,1243 3005,1263 3032,1284 3058,1304 3085,1324 3112,1343 3138,1361 3165,1378 3192,1394 3219,1407" style="stroke: #F14040;stroke-width: 14;stroke-linecap:round;stroke-linejoin:round" fill="none" olab:comment=""/>
		<polyline points="573,296 600,290 627,285 653,280 680,274 707,269 734,264 760,259 787,254 814,250 840,245 867,247 894,251 921,255 947,261 974,266 1001,271 1027,277 1054,283 1081,289 1108,295 1134,302 1161,308 1188,315 1215,322 1241,329 1268,337 1295,344 1321,352 1348,360 1375,369 1402,377 1428,385 1455,394 1482,404 1508,413 1535,423 1562,432 1589,442 1615,452 1642,462 1669,472 1696,483 1722,494 1749,505 1776,516 1802,528 1829,539 1856,551 1883,564 1909,576 1936,589 1963,602 1989,615 2016,628 2043,641 2070,655 2096,669 2123,683 2150,697 2177,711 2203,726 2230,740 2257,755 2283,769 2310,784 2337,798 2364,812 2390,826 2417,840 2444,853 2470,866 2497,879 2524,892 2551,905 2577,917 2604,930 2631,943 2658,961 2684,981 2711,1002 2738,1022 2764,1042 2791,1061 2818,1081 2845,1100 2871,1120 2898,1139 2925,1158 2951,1177 2978,1196 3005,1214 3032,1233 3058,1252 3085,1270 3112,1288 3138,1304 3165,1321 3192,1335 3219,1348" style="stroke: #FDC1C1;stroke-width: 2;stroke-linecap:round;stroke-linejoin:round" fill="none" olab:comment=""/>
	</g>
	<polyline points="494,2130 3303,2130" style="stroke: black;stroke-width: 14;stroke-linecap:square;stroke-linejoin:round" fill="none" olab:comment=""/>
	<polyline points="494,2130 494,2111" style="stroke: black;stroke-width: 14;stroke-linecap:butt;stroke-linejoin:round" fill="none" olab:comment=""/>
	<polyline points="674,2130 674,2111" style="stroke: black;stroke-width: 14;stroke-linecap:butt;stroke-linejoin:round" fill="none" olab:comment=""/>
	<polyline points="1034,2130 1034,2111" style="stroke: black;stroke-width: 14;stroke-linecap:butt;stroke-linejoin:round" fill="none" olab:comment=""/>
	<polyline points="1214,2130 1214,2111" style="stroke: black;stroke-width: 14;stroke-linecap:butt;stroke-linejoin:round" fill="none" olab:comment=""/>
	<polyline points="1394,2130 1394,2111" style="stroke: black;stroke-width: 14;stroke-linecap:butt;stroke-linejoin:round" fill="none" olab:comment=""/>
	<polyline points="1754,2130 1754,2111" style="stroke: black;stroke-width: 14;stroke-linecap:butt;stroke-linejoin:round" fill="none" olab:comment=""/>
	<polyline points="1935,2130 1935,2111" style="stroke: black;stroke-width: 14;stroke-linecap:butt;stroke-linejoin:round" fill="none" olab:comment=""/>
	<polyline points="2115,2130 2115,2111" style="stroke: black;stroke-width: 14;stroke-linecap:butt;stroke-linejoin:round" fill="none" olab:comment=""/>
	<polyline points="2475,2130 2475,2111" style="stroke: black;stroke-width: 14;stroke-linecap:butt;stroke-linejoin:round" fill="none" olab:comment=""/>
	<polyline points="2655,2130 2655,2111" style="stroke: black;stroke-width: 14;stroke-linecap:butt;stroke-linejoin:round" fill="none" olab:comment=""/>
	<polyline points="2835,2130 2835,2111" style="stroke: black;stroke-width: 14;stroke-linecap:butt;stroke-linejoin:round" fill="none" olab:comment=""/>
	<polyline points="3195,2130 3195,2111" style="stroke: black;stroke-width: 14;stroke-linecap:butt;stroke-linejoin:round" fill="none" olab:comment=""/>
	<polyline points="854,2130 854,2092" style="stroke: black;stroke-width: 14;stroke-linecap:butt;stroke-linejoin:round" fill="none" olab:comment=""/>
	<polyline points="1574,2130 1574,2092" style="stroke: black;stroke-width: 14;stroke-linecap:butt;stroke-linejoin:round" fill="none" olab:comment=""/>
	<polyline points="2295,2130 2295,2092" style="stroke: black;stroke-width: 14;stroke-linecap:butt;stroke-linejoin:round" fill="none" olab:comment=""/>
	<polyline points="3015,2130 3015,2092" style="stroke: black;stroke-width: 14;stroke-linecap:butt;stroke-linejoin:round" fill="none" olab:comment=""/>
	<polyline points="494,72 3303,72" style="stroke: black;stroke-width: 14;stroke-linecap:square;stroke-linejoin:round" fill="none" olab:comment=""/>
	<polyline points="494,72 494,91" style="stroke: black;stroke-width: 14;stroke-linecap:butt;stroke-linejoin:round" fill="none" olab:comment=""/>
	<polyline points="674,72 674,91" style="stroke: black;stroke-width: 14;stroke-linecap:butt;stroke-linejoin:round" fill="none" olab:comment=""/>
	<polyline points="1034,72 1034,91" style="stroke: black;stroke-width: 14;stroke-linecap:butt;stroke-linejoin:round" fill="none" olab:comment=""/>
	<polyline points="1214,72 1214,91" style="stroke: black;stroke-width: 14;stroke-linecap:butt;stroke-linejoin:round" fill="none" olab:comment=""/>
	<polyline points="1394,72 1394,91" style="stroke: black;stroke-width: 14;stroke-linecap:butt;stroke-linejoin:round" fill="none" olab:comment=""/>
	<polyline points="1754,72 1754,91" style="stroke: black;stroke-width: 14;stroke-linecap:butt;stroke-linejoin:round" fill="none" olab:comment=""/>
	<polyline points="1935,72 1935,91" style="stroke: black;stroke-width: 14;stroke-linecap:butt;stroke-linejoin:round" fill="none" olab:comment=""/>
	<polyline points="2115,72 2115,91" style="stroke: black;stroke-width: 14;stroke-linecap:butt;stroke-linejoin:round" fill="none" olab:comment=""/>
	<polyline points="2475,72 2475,91" style="stroke: black;stroke-width: 14;stroke-linecap:butt;stroke-linejoin:round" fill="none" olab:comment=""/>
	<polyline points="2655,72 2655,91" style="stroke: black;stroke-width: 14;stroke-linecap:butt;stroke-linejoin:round" fill="none" olab:comment=""/>
	<polyline points="2835,72 2835,91" style="stroke: black;stroke-width: 14;stroke-linecap:butt;stroke-linejoin:round" fill="none" olab:comment=""/>
	<polyline points="3195,72 3195,91" style="stroke: black;stroke-width: 14;stroke-linecap:butt;stroke-linejoin:round" fill="none" olab:comment=""/>
	<polyline points="854,72 854,110" style="stroke: black;stroke-width: 14;stroke-linecap:butt;stroke-linejoin:round" fill="none" olab:comment=""/>
	<polyline points="1574,72 1574,110" style="stroke: black;stroke-width: 14;stroke-linecap:butt;stroke-linejoin:round" fill="none" olab:comment=""/>
	<polyline points="2295,72 2295,110" style="stroke: black;stroke-width: 14;stroke-linecap:butt;stroke-linejoin:round" fill="none" olab:comment=""/>
	<polyline points="3015,72 3015,110" style="stroke: black;stroke-width: 14;stroke-linecap:butt;stroke-linejoin:round" fill="none" olab:comment=""/>
	<polyline points="494,2130 494,72" style="stroke: black;stroke-width: 14;stroke-linecap:square;stroke-linejoin:round" fill="none" olab:comment=""/>
	<polyline points="494,1924 513,1924" style="stroke: black;stroke-width: 14;stroke-linecap:butt;stroke-linejoin:round" fill="none" olab:comment=""/>
	<polyline points="494,1718 513,1718" style="stroke: black;stroke-width: 14;stroke-linecap:butt;stroke-linejoin:round" fill="none" olab:comment=""/>
	<polyline points="494,1307 513,1307" style="stroke: black;stroke-width: 14;stroke-linecap:butt;stroke-linejoin:round" fill="none" olab:comment=""/>
	<polyline points="494,1101 513,1101" style="stroke: black;stroke-width: 14;stroke-linecap:butt;stroke-linejoin:round" fill="none" olab:comment=""/>
	<polyline points="494,689 513,689" style="stroke: black;stroke-width: 14;stroke-linecap:butt;stroke-linejoin:round" fill="none" olab:comment=""/>
	<polyline points="494,484 513,484" style="stroke: black;stroke-width: 14;stroke-linecap:butt;stroke-linejoin:round" fill="none" olab:comment=""/>
	<polyline points="494,72 513,72" style="stroke: black;stroke-width: 14;stroke-linecap:butt;stroke-linejoin:round" fill="none" olab:comment=""/>
	<polyline points="494,2130 532,2130" style="stroke: black;stroke-width: 14;stroke-linecap:butt;stroke-linejoin:round" fill="none" olab:comment=""/>
	<polyline points="494,1513 532,1513" style="stroke: black;stroke-width: 14;stroke-linecap:butt;stroke-linejoin:round" fill="none" olab:comment=""/>
	<polyline points="494,895 532,895" style="stroke: black;stroke-width: 14;stroke-linecap:butt;stroke-linejoin:round" fill="none" olab:comment=""/>
	<polyline points="494,278 532,278" style="stroke: black;stroke-width: 14;stroke-linecap:butt;stroke-linejoin:round" fill="none" olab:comment=""/>
	<polyline points="3303,2130 3303,72" style="stroke: black;stroke-width: 14;stroke-linecap:square;stroke-linejoin:round" fill="none" olab:comment=""/>
	<polyline points="3303,1924 3284,1924" style="stroke: black;stroke-width: 14;stroke-linecap:butt;stroke-linejoin:round" fill="none" olab:comment=""/>
	<polyline points="3303,1718 3284,1718" style="stroke: black;stroke-width: 14;stroke-linecap:butt;stroke-linejoin:round" fill="none" olab:comment=""/>
	<polyline points="3303,1307 3284,1307" style="stroke: black;stroke-width: 14;stroke-linecap:butt;stroke-linejoin:round" fill="none" olab:comment=""/>
	<polyline points="3303,1101 3284,1101" style="stroke: black;stroke-width: 14;stroke-linecap:butt;stroke-linejoin:round" fill="none" olab:comment=""/>
	<polyline points="3303,689 3284,689" style="stroke: black;stroke-width: 14;stroke-linecap:butt;stroke-linejoin:round" fill="none" olab:comment=""/>
	<polyline points="3303,484 3284,484" style="stroke: black;stroke-width: 14;stroke-linecap:butt;stroke-linejoin:round" fill="none" olab:comment=""/>
	<polyline points="3303,72 3284,72" style="stroke: black;stroke-width: 14;stroke-linecap:butt;stroke-linejoin:round" fill="none" olab:comment=""/>
	<polyline points="3303,2130 3265,2130" style="stroke: black;stroke-width: 14;stroke-linecap:butt;stroke-linejoin:round" fill="none" olab:comment=""/>
	<polyline points="3303,1513 3265,1513" style="stroke: black;stroke-width: 14;stroke-linecap:butt;stroke-linejoin:round" fill="none" olab:comment=""/>
	<polyline points="3303,895 3265,895" style="stroke: black;stroke-width: 14;stroke-linecap:butt;stroke-linejoin:round" fill="none" olab:comment=""/>
	<polyline points="3303,278 3265,278" style="stroke: black;stroke-width: 14;stroke-linecap:butt;stroke-linejoin:round" fill="none" olab:comment=""/>
	<text x="747" dominant-baseline="auto" y="2275" fill="black" font-family="Times New Roman,'MS PGothic',SimSun" font-size="137" font-weight="400" olab:comment="">
		<tspan x="747" style="font-kerning:none">−20</tspan>
	</text>
	<text x="1540" dominant-baseline="auto" y="2275" fill="black" font-family="Times New Roman,'MS PGothic',SimSun" font-size="137" font-weight="400" olab:comment="">
		<tspan x="1540" style="font-kerning:none">0</tspan>
	</text>
	<text x="2226" dominant-baseline="auto" y="2275" fill="black" font-family="Times New Roman,'MS PGothic',SimSun" font-size="137" font-weight="400" olab:comment="">
		<tspan x="2226" style="font-kerning:none">20</tspan>
	</text>
	<text x="2946" dominant-baseline="auto" y="2275" fill="black" font-family="Times New Roman,'MS PGothic',SimSun" font-size="137" font-weight="400" olab:comment="">
		<tspan x="2946" style="font-kerning:none">40</tspan>
	</text>
	<text x="281" dominant-baseline="auto" y="2170" fill="black" font-family="Times New Roman,'MS PGothic',SimSun" font-size="137" font-weight="400" olab:comment="">
		<tspan x="281" style="font-kerning:none">0.0</tspan>
	</text>
	<text x="281" dominant-baseline="auto" y="1553" fill="black" font-family="Times New Roman,'MS PGothic',SimSun" font-size="137" font-weight="400" olab:comment="">
		<tspan x="281" style="font-kerning:none">0.3</tspan>
	</text>
	<text x="281" dominant-baseline="auto" y="935" fill="black" font-family="Times New Roman,'MS PGothic',SimSun" font-size="137" font-weight="400" olab:comment="">
		<tspan x="281" style="font-kerning:none">0.6</tspan>
	</text>
	<text x="281" dominant-baseline="auto" y="318" fill="black" font-family="Times New Roman,'MS PGothic',SimSun" font-size="137" font-weight="400" olab:comment="">
		<tspan x="281" style="font-kerning:none">0.9</tspan>
	</text>
	<text x="0" dominant-baseline="auto" y="0" fill="black" font-family="Arial,'MS PGothic',SimSun" font-size="137" font-weight="400" transform="matrix(-1.83697e-16 -1 0.999999 -1.83697e-16 231 1257)" olab:comment="">
		<tspan x="0" style="font-kerning:none">BIO5</tspan>
	</text>
</svg>

