<?xml version="1.0" encoding="UTF-8"?>
<!DOCTYPE svg PUBLIC "-//W3C//DTD SVG 1.1//EN" "http://www.w3.org/Graphics/SVG/1.1/DTD/svg11.dtd">
<!--Generated by Origin-->
<svg xmlns="http://www.w3.org/2000/svg" xmlns:xlink="http://www.w3.org/1999/xlink" xmlns:olab="http://www.originlab.com/namespaces/olab" viewBox="96,66 3214,2250" width="10.720000in" height="7.500000in">
	<defs>
		<mask id="Cp_1">
			<rect x="494" y="72" width="2810" height="2059" fill="white"/>
		</mask>
	</defs>
	<g mask="url(#Cp_1)">
		<rect x="96" y="66" width="3214" height="2250" visibility="hidden" fill="none" opacity="0"/>
		<path d="M 571,1985 L 571,1985 598,1979 625,1972 651,1964 678,1956 705,1948 732,1939 758,1930 785,1920 812,1910 839,1900 865,1889 892,1877 919,1866 946,1853 972,1840 999,1827 1026,1814 1053,1802 1079,1789 1106,1776 1133,1763 1160,1749 1186,1735 1213,1721 1240,1706 1267,1691 1294,1675 1320,1659 1347,1642 1374,1625 1401,1607 1427,1589 1454,1570 1481,1551 1508,1532 1534,1511 1561,1491 1588,1469 1615,1448 1641,1425 1668,1402 1695,1379 1722,1355 1748,1330 1775,1305 1802,1280 1829,1253 1855,1227 1882,1199 1909,1172 1936,1143 1962,1115 1989,1086 2016,1056 2043,1026 2070,996 2096,965 2123,934 2150,903 2177,871 2203,840 2230,808 2257,775 2284,743 2310,710 2337,678 2364,646 2391,613 2417,581 2444,549 2471,518 2498,487 2524,457 2551,427 2578,397 2605,368 2631,340 2658,311 2685,283 2712,255 2738,227 2765,200 2792,173 2819,148 2846,154 2872,164 2899,178 2926,211 2953,249 2979,301 3006,356 3033,413 3060,471 3086,529 3113,586 3140,644 3167,701 3193,757 3220,808 3220,1985 Z M 571,1985 L 571,1889 598,1880 625,1870 651,1859 678,1848 705,1837 732,1825 758,1813 785,1800 812,1787 839,1773 865,1759 892,1744 919,1729 946,1714 972,1697 999,1681 1026,1664 1053,1651 1079,1637 1106,1623 1133,1608 1160,1593 1186,1578 1213,1563 1240,1547 1267,1532 1294,1517 1320,1501 1347,1485 1374,1468 1401,1451 1427,1434 1454,1416 1481,1399 1508,1380 1534,1362 1561,1342 1588,1323 1615,1303 1641,1282 1668,1262 1695,1241 1722,1219 1748,1197 1775,1174 1802,1151 1829,1128 1855,1104 1882,1080 1909,1056 1936,1031 1962,1006 1989,981 2016,956 2043,930 2070,904 2096,877 2123,851 2150,824 2177,797 2203,770 2230,742 2257,714 2284,687 2310,658 2337,630 2364,601 2391,572 2417,543 2444,513 2471,483 2498,452 2524,421 2551,389 2578,357 2605,325 2631,293 2658,261 2685,228 2712,196 2738,164 2765,132 2792,101 2819,72 2846,77 2872,83 2899,92 2926,114 2953,134 2979,159 3006,181 3033,203 3060,223 3086,244 3113,265 3140,287 3167,310 3193,332 3220,353 3220,1985 Z" fill="#FDC1C1" fill-rule="evenodd" stroke="none" olab:comment=""/>
		<polyline points="571,1985 598,1979 625,1972 651,1964 678,1956 705,1948 732,1939 758,1930 785,1920 812,1910 839,1900 865,1889 892,1877 919,1866 946,1853 972,1840 999,1827 1026,1814 1053,1802 1079,1789 1106,1776 1133,1763 1160,1749 1186,1735 1213,1721 1240,1706 1267,1691 1294,1675 1320,1659 1347,1642 1374,1625 1401,1607 1427,1589 1454,1570 1481,1551 1508,1532 1534,1511 1561,1491 1588,1469 1615,1448 1641,1425 1668,1402 1695,1379 1722,1355 1748,1330 1775,1305 1802,1280 1829,1253 1855,1227 1882,1199 1909,1172 1936,1143 1962,1115 1989,1086 2016,1056 2043,1026 2070,996 2096,965 2123,934 2150,903 2177,871 2203,840 2230,808 2257,775 2284,743 2310,710 2337,678 2364,646 2391,613 2417,581 2444,549 2471,518 2498,487 2524,457 2551,427 2578,397 2605,368 2631,340 2658,311 2685,283 2712,255 2738,227 2765,200 2792,173 2819,148 2846,154 2872,164 2899,178 2926,211 2953,249 2979,301 3006,356 3033,413 3060,471 3086,529 3113,586 3140,644 3167,701 3193,757 3220,808" style="stroke: #FDC1C1;stroke-width: 2;stroke-linecap:round;stroke-linejoin:round" fill="none" olab:comment=""/>
		<polyline points="571,1937 598,1930 625,1921 651,1912 678,1902 705,1892 732,1882 758,1871 785,1860 812,1849 839,1836 865,1824 892,1811 919,1797 946,1783 972,1769 999,1754 1026,1739 1053,1726 1079,1713 1106,1700 1133,1686 1160,1671 1186,1657 1213,1642 1240,1627 1267,1611 1294,1596 1320,1580 1347,1563 1374,1546 1401,1529 1427,1512 1454,1493 1481,1475 1508,1456 1534,1437 1561,1416 1588,1396 1615,1375 1641,1354 1668,1332 1695,1310 1722,1287 1748,1264 1775,1240 1802,1215 1829,1191 1855,1165 1882,1140 1909,1114 1936,1087 1962,1061 1989,1033 2016,1006 2043,978 2070,950 2096,921 2123,893 2150,864 2177,834 2203,805 2230,775 2257,745 2284,715 2310,684 2337,654 2364,623 2391,593 2417,562 2444,531 2471,500 2498,470 2524,439 2551,408 2578,377 2605,347 2631,316 2658,286 2685,256 2712,226 2738,196 2765,166 2792,137 2819,110 2846,116 2872,124 2899,135 2926,163 2953,192 2979,230 3006,269 3033,308 3060,347 3086,386 3113,426 3140,466 3167,505 3193,544 3220,581" style="stroke: #F14040;stroke-width: 14;stroke-linecap:round;stroke-linejoin:round" fill="none" olab:comment=""/>
		<polyline points="571,1889 598,1880 625,1870 651,1859 678,1848 705,1837 732,1825 758,1813 785,1800 812,1787 839,1773 865,1759 892,1744 919,1729 946,1714 972,1697 999,1681 1026,1664 1053,1651 1079,1637 1106,1623 1133,1608 1160,1593 1186,1578 1213,1563 1240,1547 1267,1532 1294,1517 1320,1501 1347,1485 1374,1468 1401,1451 1427,1434 1454,1416 1481,1399 1508,1380 1534,1362 1561,1342 1588,1323 1615,1303 1641,1282 1668,1262 1695,1241 1722,1219 1748,1197 1775,1174 1802,1151 1829,1128 1855,1104 1882,1080 1909,1056 1936,1031 1962,1006 1989,981 2016,956 2043,930 2070,904 2096,877 2123,851 2150,824 2177,797 2203,770 2230,742 2257,714 2284,687 2310,658 2337,630 2364,601 2391,572 2417,543 2444,513 2471,483 2498,452 2524,421 2551,389 2578,357 2605,325 2631,293 2658,261 2685,228 2712,196 2738,164 2765,132 2792,101 2819,72 2846,77 2872,83 2899,92 2926,114 2953,134 2979,159 3006,181 3033,203 3060,223 3086,244 3113,265 3140,287 3167,310 3193,332 3220,353" style="stroke: #FDC1C1;stroke-width: 2;stroke-linecap:round;stroke-linejoin:round" fill="none" olab:comment=""/>
	</g>
	<polyline points="494,2130 3303,2130" style="stroke: black;stroke-width: 14;stroke-linecap:square;stroke-linejoin:round" fill="none" olab:comment=""/>
	<polyline points="494,2130 494,2111" style="stroke: black;stroke-width: 14;stroke-linecap:butt;stroke-linejoin:round" fill="none" olab:comment=""/>
	<polyline points="790,2130 790,2111" style="stroke: black;stroke-width: 14;stroke-linecap:butt;stroke-linejoin:round" fill="none" olab:comment=""/>
	<polyline points="1085,2130 1085,2111" style="stroke: black;stroke-width: 14;stroke-linecap:butt;stroke-linejoin:round" fill="none" olab:comment=""/>
	<polyline points="1677,2130 1677,2111" style="stroke: black;stroke-width: 14;stroke-linecap:butt;stroke-linejoin:round" fill="none" olab:comment=""/>
	<polyline points="1972,2130 1972,2111" style="stroke: black;stroke-width: 14;stroke-linecap:butt;stroke-linejoin:round" fill="none" olab:comment=""/>
	<polyline points="2268,2130 2268,2111" style="stroke: black;stroke-width: 14;stroke-linecap:butt;stroke-linejoin:round" fill="none" olab:comment=""/>
	<polyline points="2859,2130 2859,2111" style="stroke: black;stroke-width: 14;stroke-linecap:butt;stroke-linejoin:round" fill="none" olab:comment=""/>
	<polyline points="3155,2130 3155,2111" style="stroke: black;stroke-width: 14;stroke-linecap:butt;stroke-linejoin:round" fill="none" olab:comment=""/>
	<polyline points="1381,2130 1381,2092" style="stroke: black;stroke-width: 14;stroke-linecap:butt;stroke-linejoin:round" fill="none" olab:comment=""/>
	<polyline points="2564,2130 2564,2092" style="stroke: black;stroke-width: 14;stroke-linecap:butt;stroke-linejoin:round" fill="none" olab:comment=""/>
	<polyline points="494,72 3303,72" style="stroke: black;stroke-width: 14;stroke-linecap:square;stroke-linejoin:round" fill="none" olab:comment=""/>
	<polyline points="494,72 494,91" style="stroke: black;stroke-width: 14;stroke-linecap:butt;stroke-linejoin:round" fill="none" olab:comment=""/>
	<polyline points="790,72 790,91" style="stroke: black;stroke-width: 14;stroke-linecap:butt;stroke-linejoin:round" fill="none" olab:comment=""/>
	<polyline points="1085,72 1085,91" style="stroke: black;stroke-width: 14;stroke-linecap:butt;stroke-linejoin:round" fill="none" olab:comment=""/>
	<polyline points="1677,72 1677,91" style="stroke: black;stroke-width: 14;stroke-linecap:butt;stroke-linejoin:round" fill="none" olab:comment=""/>
	<polyline points="1972,72 1972,91" style="stroke: black;stroke-width: 14;stroke-linecap:butt;stroke-linejoin:round" fill="none" olab:comment=""/>
	<polyline points="2268,72 2268,91" style="stroke: black;stroke-width: 14;stroke-linecap:butt;stroke-linejoin:round" fill="none" olab:comment=""/>
	<polyline points="2859,72 2859,91" style="stroke: black;stroke-width: 14;stroke-linecap:butt;stroke-linejoin:round" fill="none" olab:comment=""/>
	<polyline points="3155,72 3155,91" style="stroke: black;stroke-width: 14;stroke-linecap:butt;stroke-linejoin:round" fill="none" olab:comment=""/>
	<polyline points="1381,72 1381,110" style="stroke: black;stroke-width: 14;stroke-linecap:butt;stroke-linejoin:round" fill="none" olab:comment=""/>
	<polyline points="2564,72 2564,110" style="stroke: black;stroke-width: 14;stroke-linecap:butt;stroke-linejoin:round" fill="none" olab:comment=""/>
	<polyline points="494,2130 494,72" style="stroke: black;stroke-width: 14;stroke-linecap:square;stroke-linejoin:round" fill="none" olab:comment=""/>
	<polyline points="494,1888 513,1888" style="stroke: black;stroke-width: 14;stroke-linecap:butt;stroke-linejoin:round" fill="none" olab:comment=""/>
	<polyline points="494,1646 513,1646" style="stroke: black;stroke-width: 14;stroke-linecap:butt;stroke-linejoin:round" fill="none" olab:comment=""/>
	<polyline points="494,1162 513,1162" style="stroke: black;stroke-width: 14;stroke-linecap:butt;stroke-linejoin:round" fill="none" olab:comment=""/>
	<polyline points="494,919 513,919" style="stroke: black;stroke-width: 14;stroke-linecap:butt;stroke-linejoin:round" fill="none" olab:comment=""/>
	<polyline points="494,435 513,435" style="stroke: black;stroke-width: 14;stroke-linecap:butt;stroke-linejoin:round" fill="none" olab:comment=""/>
	<polyline points="494,193 513,193" style="stroke: black;stroke-width: 14;stroke-linecap:butt;stroke-linejoin:round" fill="none" olab:comment=""/>
	<polyline points="494,2130 532,2130" style="stroke: black;stroke-width: 14;stroke-linecap:butt;stroke-linejoin:round" fill="none" olab:comment=""/>
	<polyline points="494,1404 532,1404" style="stroke: black;stroke-width: 14;stroke-linecap:butt;stroke-linejoin:round" fill="none" olab:comment=""/>
	<polyline points="494,677 532,677" style="stroke: black;stroke-width: 14;stroke-linecap:butt;stroke-linejoin:round" fill="none" olab:comment=""/>
	<polyline points="3303,2130 3303,72" style="stroke: black;stroke-width: 14;stroke-linecap:square;stroke-linejoin:round" fill="none" olab:comment=""/>
	<polyline points="3303,1888 3284,1888" style="stroke: black;stroke-width: 14;stroke-linecap:butt;stroke-linejoin:round" fill="none" olab:comment=""/>
	<polyline points="3303,1646 3284,1646" style="stroke: black;stroke-width: 14;stroke-linecap:butt;stroke-linejoin:round" fill="none" olab:comment=""/>
	<polyline points="3303,1162 3284,1162" style="stroke: black;stroke-width: 14;stroke-linecap:butt;stroke-linejoin:round" fill="none" olab:comment=""/>
	<polyline points="3303,919 3284,919" style="stroke: black;stroke-width: 14;stroke-linecap:butt;stroke-linejoin:round" fill="none" olab:comment=""/>
	<polyline points="3303,435 3284,435" style="stroke: black;stroke-width: 14;stroke-linecap:butt;stroke-linejoin:round" fill="none" olab:comment=""/>
	<polyline points="3303,193 3284,193" style="stroke: black;stroke-width: 14;stroke-linecap:butt;stroke-linejoin:round" fill="none" olab:comment=""/>
	<polyline points="3303,2130 3265,2130" style="stroke: black;stroke-width: 14;stroke-linecap:butt;stroke-linejoin:round" fill="none" olab:comment=""/>
	<polyline points="3303,1404 3265,1404" style="stroke: black;stroke-width: 14;stroke-linecap:butt;stroke-linejoin:round" fill="none" olab:comment=""/>
	<polyline points="3303,677 3265,677" style="stroke: black;stroke-width: 14;stroke-linecap:butt;stroke-linejoin:round" fill="none" olab:comment=""/>
	<text x="1274" dominant-baseline="auto" y="2275" fill="black" font-family="Times New Roman,'MS PGothic',SimSun" font-size="137" font-weight="400" olab:comment="">
		<tspan x="1274" style="font-kerning:none">−40</tspan>
	</text>
	<text x="2530" dominant-baseline="auto" y="2275" fill="black" font-family="Times New Roman,'MS PGothic',SimSun" font-size="137" font-weight="400" olab:comment="">
		<tspan x="2530" style="font-kerning:none">0</tspan>
	</text>
	<text x="281" dominant-baseline="auto" y="2170" fill="black" font-family="Times New Roman,'MS PGothic',SimSun" font-size="137" font-weight="400" olab:comment="">
		<tspan x="281" style="font-kerning:none">0.0</tspan>
	</text>
	<text x="281" dominant-baseline="auto" y="1444" fill="black" font-family="Times New Roman,'MS PGothic',SimSun" font-size="137" font-weight="400" olab:comment="">
		<tspan x="281" style="font-kerning:none">0.3</tspan>
	</text>
	<text x="281" dominant-baseline="auto" y="717" fill="black" font-family="Times New Roman,'MS PGothic',SimSun" font-size="137" font-weight="400" olab:comment="">
		<tspan x="281" style="font-kerning:none">0.6</tspan>
	</text>
	<text x="0" dominant-baseline="auto" y="0" fill="black" font-family="Arial,'MS PGothic',SimSun" font-size="137" font-weight="400" transform="matrix(-1.83697e-16 -1 0.999999 -1.83697e-16 231 1257)" olab:comment="">
		<tspan x="0" style="font-kerning:none">BIO6</tspan>
	</text>
</svg>

