<?xml version="1.0" encoding="UTF-8"?>
<!DOCTYPE svg PUBLIC "-//W3C//DTD SVG 1.1//EN" "http://www.w3.org/Graphics/SVG/1.1/DTD/svg11.dtd">
<!--Generated by Origin-->
<svg xmlns="http://www.w3.org/2000/svg" xmlns:xlink="http://www.w3.org/1999/xlink" xmlns:olab="http://www.originlab.com/namespaces/olab" viewBox="96,66 3214,2250" width="10.720000in" height="7.500000in">
	<defs>
		<mask id="Cp_1">
			<rect x="494" y="72" width="2810" height="2059" fill="white"/>
		</mask>
	</defs>
	<g mask="url(#Cp_1)">
		<rect x="96" y="66" width="3214" height="2250" visibility="hidden" fill="none" opacity="0"/>
		<path d="M 580,608 L 580,545 607,545 634,545 661,545 688,545 715,545 741,545 768,545 795,545 822,545 849,545 876,545 903,545 930,545 957,545 983,545 1010,545 1037,545 1064,545 1091,545 1118,545 1145,545 1172,545 1199,545 1225,545 1252,545 1279,545 1306,545 1333,545 1360,545 1387,545 1414,545 1441,545 1468,545 1494,545 1521,545 1548,545 1575,545 1602,545 1629,545 1656,545 1683,545 1710,545 1736,545 1763,545 1790,545 1817,545 1844,545 1871,545 1898,545 1925,545 1952,545 1978,545 2005,545 2032,545 2059,545 2086,545 2113,545 2140,545 2167,545 2194,545 2220,545 2247,545 2274,545 2301,545 2328,545 2355,545 2382,546 2409,546 2436,546 2462,547 2489,547 2516,548 2543,548 2570,549 2597,550 2624,551 2651,551 2678,552 2704,553 2731,554 2758,555 2785,556 2812,557 2839,559 2866,560 2893,561 2920,563 2946,564 2973,567 3000,571 3027,576 3054,580 3081,585 3108,591 3135,596 3162,601 3188,605 3215,607 3242,608 3242,608 Z M 580,608 L 580,486 607,486 634,486 661,486 688,486 715,486 741,486 768,486 795,486 822,486 849,486 876,486 903,486 930,486 957,486 983,486 1010,486 1037,486 1064,486 1091,486 1118,486 1145,486 1172,486 1199,486 1225,486 1252,486 1279,486 1306,486 1333,486 1360,486 1387,486 1414,486 1441,486 1468,486 1494,486 1521,486 1548,486 1575,486 1602,486 1629,486 1656,486 1683,486 1710,486 1736,486 1763,486 1790,486 1817,486 1844,486 1871,486 1898,486 1925,486 1952,486 1978,486 2005,486 2032,486 2059,486 2086,486 2113,486 2140,487 2167,488 2194,489 2220,490 2247,491 2274,493 2301,494 2328,495 2355,496 2382,497 2409,498 2436,499 2462,500 2489,501 2516,501 2543,502 2570,503 2597,503 2624,504 2651,504 2678,505 2704,505 2731,505 2758,505 2785,506 2812,506 2839,506 2866,506 2893,506 2920,506 2946,506 2973,506 3000,507 3027,508 3054,509 3081,509 3108,510 3135,510 3162,509 3188,509 3215,509 3242,509 3242,608 Z" fill="#FDC1C1" fill-rule="evenodd" stroke="none" olab:comment=""/>
		<polyline points="580,545 607,545 634,545 661,545 688,545 715,545 741,545 768,545 795,545 822,545 849,545 876,545 903,545 930,545 957,545 983,545 1010,545 1037,545 1064,545 1091,545 1118,545 1145,545 1172,545 1199,545 1225,545 1252,545 1279,545 1306,545 1333,545 1360,545 1387,545 1414,545 1441,545 1468,545 1494,545 1521,545 1548,545 1575,545 1602,545 1629,545 1656,545 1683,545 1710,545 1736,545 1763,545 1790,545 1817,545 1844,545 1871,545 1898,545 1925,545 1952,545 1978,545 2005,545 2032,545 2059,545 2086,545 2113,545 2140,545 2167,545 2194,545 2220,545 2247,545 2274,545 2301,545 2328,545 2355,545 2382,546 2409,546 2436,546 2462,547 2489,547 2516,548 2543,548 2570,549 2597,550 2624,551 2651,551 2678,552 2704,553 2731,554 2758,555 2785,556 2812,557 2839,559 2866,560 2893,561 2920,563 2946,564 2973,567 3000,571 3027,576 3054,580 3081,585 3108,591 3135,596 3162,601 3188,605 3215,607 3242,608" style="stroke: #FDC1C1;stroke-width: 2;stroke-linecap:round;stroke-linejoin:round" fill="none" olab:comment=""/>
		<polyline points="580,515 607,515 634,515 661,515 688,515 715,515 741,515 768,515 795,515 822,515 849,515 876,515 903,515 930,515 957,515 983,515 1010,515 1037,515 1064,515 1091,515 1118,515 1145,515 1172,515 1199,515 1225,515 1252,515 1279,515 1306,515 1333,515 1360,515 1387,515 1414,515 1441,515 1468,515 1494,515 1521,515 1548,515 1575,515 1602,515 1629,515 1656,515 1683,515 1710,515 1736,515 1763,515 1790,515 1817,515 1844,515 1871,515 1898,515 1925,515 1952,515 1978,515 2005,515 2032,515 2059,515 2086,515 2113,515 2140,516 2167,516 2194,517 2220,517 2247,518 2274,519 2301,519 2328,520 2355,521 2382,521 2409,522 2436,523 2462,523 2489,524 2516,525 2543,525 2570,526 2597,526 2624,527 2651,528 2678,528 2704,529 2731,530 2758,530 2785,531 2812,532 2839,532 2866,533 2893,533 2920,534 2946,535 2973,537 3000,539 3027,542 3054,545 3081,547 3108,550 3135,553 3162,555 3188,557 3215,558 3242,559" style="stroke: #F14040;stroke-width: 14;stroke-linecap:round;stroke-linejoin:round" fill="none" olab:comment=""/>
		<polyline points="580,486 607,486 634,486 661,486 688,486 715,486 741,486 768,486 795,486 822,486 849,486 876,486 903,486 930,486 957,486 983,486 1010,486 1037,486 1064,486 1091,486 1118,486 1145,486 1172,486 1199,486 1225,486 1252,486 1279,486 1306,486 1333,486 1360,486 1387,486 1414,486 1441,486 1468,486 1494,486 1521,486 1548,486 1575,486 1602,486 1629,486 1656,486 1683,486 1710,486 1736,486 1763,486 1790,486 1817,486 1844,486 1871,486 1898,486 1925,486 1952,486 1978,486 2005,486 2032,486 2059,486 2086,486 2113,486 2140,487 2167,488 2194,489 2220,490 2247,491 2274,493 2301,494 2328,495 2355,496 2382,497 2409,498 2436,499 2462,500 2489,501 2516,501 2543,502 2570,503 2597,503 2624,504 2651,504 2678,505 2704,505 2731,505 2758,505 2785,506 2812,506 2839,506 2866,506 2893,506 2920,506 2946,506 2973,506 3000,507 3027,508 3054,509 3081,509 3108,510 3135,510 3162,509 3188,509 3215,509 3242,509" style="stroke: #FDC1C1;stroke-width: 2;stroke-linecap:round;stroke-linejoin:round" fill="none" olab:comment=""/>
	</g>
	<polyline points="494,2130 3303,2130" style="stroke: black;stroke-width: 14;stroke-linecap:square;stroke-linejoin:round" fill="none" olab:comment=""/>
	<polyline points="494,2130 494,2111" style="stroke: black;stroke-width: 14;stroke-linecap:butt;stroke-linejoin:round" fill="none" olab:comment=""/>
	<polyline points="767,2130 767,2111" style="stroke: black;stroke-width: 14;stroke-linecap:butt;stroke-linejoin:round" fill="none" olab:comment=""/>
	<polyline points="903,2130 903,2111" style="stroke: black;stroke-width: 14;stroke-linecap:butt;stroke-linejoin:round" fill="none" olab:comment=""/>
	<polyline points="1039,2130 1039,2111" style="stroke: black;stroke-width: 14;stroke-linecap:butt;stroke-linejoin:round" fill="none" olab:comment=""/>
	<polyline points="1312,2130 1312,2111" style="stroke: black;stroke-width: 14;stroke-linecap:butt;stroke-linejoin:round" fill="none" olab:comment=""/>
	<polyline points="1449,2130 1449,2111" style="stroke: black;stroke-width: 14;stroke-linecap:butt;stroke-linejoin:round" fill="none" olab:comment=""/>
	<polyline points="1585,2130 1585,2111" style="stroke: black;stroke-width: 14;stroke-linecap:butt;stroke-linejoin:round" fill="none" olab:comment=""/>
	<polyline points="1858,2130 1858,2111" style="stroke: black;stroke-width: 14;stroke-linecap:butt;stroke-linejoin:round" fill="none" olab:comment=""/>
	<polyline points="1994,2130 1994,2111" style="stroke: black;stroke-width: 14;stroke-linecap:butt;stroke-linejoin:round" fill="none" olab:comment=""/>
	<polyline points="2130,2130 2130,2111" style="stroke: black;stroke-width: 14;stroke-linecap:butt;stroke-linejoin:round" fill="none" olab:comment=""/>
	<polyline points="2403,2130 2403,2111" style="stroke: black;stroke-width: 14;stroke-linecap:butt;stroke-linejoin:round" fill="none" olab:comment=""/>
	<polyline points="2539,2130 2539,2111" style="stroke: black;stroke-width: 14;stroke-linecap:butt;stroke-linejoin:round" fill="none" olab:comment=""/>
	<polyline points="2676,2130 2676,2111" style="stroke: black;stroke-width: 14;stroke-linecap:butt;stroke-linejoin:round" fill="none" olab:comment=""/>
	<polyline points="2948,2130 2948,2111" style="stroke: black;stroke-width: 14;stroke-linecap:butt;stroke-linejoin:round" fill="none" olab:comment=""/>
	<polyline points="3085,2130 3085,2111" style="stroke: black;stroke-width: 14;stroke-linecap:butt;stroke-linejoin:round" fill="none" olab:comment=""/>
	<polyline points="3221,2130 3221,2111" style="stroke: black;stroke-width: 14;stroke-linecap:butt;stroke-linejoin:round" fill="none" olab:comment=""/>
	<polyline points="630,2130 630,2092" style="stroke: black;stroke-width: 14;stroke-linecap:butt;stroke-linejoin:round" fill="none" olab:comment=""/>
	<polyline points="1176,2130 1176,2092" style="stroke: black;stroke-width: 14;stroke-linecap:butt;stroke-linejoin:round" fill="none" olab:comment=""/>
	<polyline points="1721,2130 1721,2092" style="stroke: black;stroke-width: 14;stroke-linecap:butt;stroke-linejoin:round" fill="none" olab:comment=""/>
	<polyline points="2267,2130 2267,2092" style="stroke: black;stroke-width: 14;stroke-linecap:butt;stroke-linejoin:round" fill="none" olab:comment=""/>
	<polyline points="2812,2130 2812,2092" style="stroke: black;stroke-width: 14;stroke-linecap:butt;stroke-linejoin:round" fill="none" olab:comment=""/>
	<polyline points="494,72 3303,72" style="stroke: black;stroke-width: 14;stroke-linecap:square;stroke-linejoin:round" fill="none" olab:comment=""/>
	<polyline points="494,72 494,91" style="stroke: black;stroke-width: 14;stroke-linecap:butt;stroke-linejoin:round" fill="none" olab:comment=""/>
	<polyline points="767,72 767,91" style="stroke: black;stroke-width: 14;stroke-linecap:butt;stroke-linejoin:round" fill="none" olab:comment=""/>
	<polyline points="903,72 903,91" style="stroke: black;stroke-width: 14;stroke-linecap:butt;stroke-linejoin:round" fill="none" olab:comment=""/>
	<polyline points="1039,72 1039,91" style="stroke: black;stroke-width: 14;stroke-linecap:butt;stroke-linejoin:round" fill="none" olab:comment=""/>
	<polyline points="1312,72 1312,91" style="stroke: black;stroke-width: 14;stroke-linecap:butt;stroke-linejoin:round" fill="none" olab:comment=""/>
	<polyline points="1449,72 1449,91" style="stroke: black;stroke-width: 14;stroke-linecap:butt;stroke-linejoin:round" fill="none" olab:comment=""/>
	<polyline points="1585,72 1585,91" style="stroke: black;stroke-width: 14;stroke-linecap:butt;stroke-linejoin:round" fill="none" olab:comment=""/>
	<polyline points="1858,72 1858,91" style="stroke: black;stroke-width: 14;stroke-linecap:butt;stroke-linejoin:round" fill="none" olab:comment=""/>
	<polyline points="1994,72 1994,91" style="stroke: black;stroke-width: 14;stroke-linecap:butt;stroke-linejoin:round" fill="none" olab:comment=""/>
	<polyline points="2130,72 2130,91" style="stroke: black;stroke-width: 14;stroke-linecap:butt;stroke-linejoin:round" fill="none" olab:comment=""/>
	<polyline points="2403,72 2403,91" style="stroke: black;stroke-width: 14;stroke-linecap:butt;stroke-linejoin:round" fill="none" olab:comment=""/>
	<polyline points="2539,72 2539,91" style="stroke: black;stroke-width: 14;stroke-linecap:butt;stroke-linejoin:round" fill="none" olab:comment=""/>
	<polyline points="2676,72 2676,91" style="stroke: black;stroke-width: 14;stroke-linecap:butt;stroke-linejoin:round" fill="none" olab:comment=""/>
	<polyline points="2948,72 2948,91" style="stroke: black;stroke-width: 14;stroke-linecap:butt;stroke-linejoin:round" fill="none" olab:comment=""/>
	<polyline points="3085,72 3085,91" style="stroke: black;stroke-width: 14;stroke-linecap:butt;stroke-linejoin:round" fill="none" olab:comment=""/>
	<polyline points="3221,72 3221,91" style="stroke: black;stroke-width: 14;stroke-linecap:butt;stroke-linejoin:round" fill="none" olab:comment=""/>
	<polyline points="630,72 630,110" style="stroke: black;stroke-width: 14;stroke-linecap:butt;stroke-linejoin:round" fill="none" olab:comment=""/>
	<polyline points="1176,72 1176,110" style="stroke: black;stroke-width: 14;stroke-linecap:butt;stroke-linejoin:round" fill="none" olab:comment=""/>
	<polyline points="1721,72 1721,110" style="stroke: black;stroke-width: 14;stroke-linecap:butt;stroke-linejoin:round" fill="none" olab:comment=""/>
	<polyline points="2267,72 2267,110" style="stroke: black;stroke-width: 14;stroke-linecap:butt;stroke-linejoin:round" fill="none" olab:comment=""/>
	<polyline points="2812,72 2812,110" style="stroke: black;stroke-width: 14;stroke-linecap:butt;stroke-linejoin:round" fill="none" olab:comment=""/>
	<polyline points="494,2130 494,72" style="stroke: black;stroke-width: 14;stroke-linecap:square;stroke-linejoin:round" fill="none" olab:comment=""/>
	<polyline points="494,1873 513,1873" style="stroke: black;stroke-width: 14;stroke-linecap:butt;stroke-linejoin:round" fill="none" olab:comment=""/>
	<polyline points="494,1616 513,1616" style="stroke: black;stroke-width: 14;stroke-linecap:butt;stroke-linejoin:round" fill="none" olab:comment=""/>
	<polyline points="494,1101 513,1101" style="stroke: black;stroke-width: 14;stroke-linecap:butt;stroke-linejoin:round" fill="none" olab:comment=""/>
	<polyline points="494,844 513,844" style="stroke: black;stroke-width: 14;stroke-linecap:butt;stroke-linejoin:round" fill="none" olab:comment=""/>
	<polyline points="494,329 513,329" style="stroke: black;stroke-width: 14;stroke-linecap:butt;stroke-linejoin:round" fill="none" olab:comment=""/>
	<polyline points="494,72 513,72" style="stroke: black;stroke-width: 14;stroke-linecap:butt;stroke-linejoin:round" fill="none" olab:comment=""/>
	<polyline points="494,2130 532,2130" style="stroke: black;stroke-width: 14;stroke-linecap:butt;stroke-linejoin:round" fill="none" olab:comment=""/>
	<polyline points="494,1358 532,1358" style="stroke: black;stroke-width: 14;stroke-linecap:butt;stroke-linejoin:round" fill="none" olab:comment=""/>
	<polyline points="494,587 532,587" style="stroke: black;stroke-width: 14;stroke-linecap:butt;stroke-linejoin:round" fill="none" olab:comment=""/>
	<polyline points="3303,2130 3303,72" style="stroke: black;stroke-width: 14;stroke-linecap:square;stroke-linejoin:round" fill="none" olab:comment=""/>
	<polyline points="3303,1873 3284,1873" style="stroke: black;stroke-width: 14;stroke-linecap:butt;stroke-linejoin:round" fill="none" olab:comment=""/>
	<polyline points="3303,1616 3284,1616" style="stroke: black;stroke-width: 14;stroke-linecap:butt;stroke-linejoin:round" fill="none" olab:comment=""/>
	<polyline points="3303,1101 3284,1101" style="stroke: black;stroke-width: 14;stroke-linecap:butt;stroke-linejoin:round" fill="none" olab:comment=""/>
	<polyline points="3303,844 3284,844" style="stroke: black;stroke-width: 14;stroke-linecap:butt;stroke-linejoin:round" fill="none" olab:comment=""/>
	<polyline points="3303,329 3284,329" style="stroke: black;stroke-width: 14;stroke-linecap:butt;stroke-linejoin:round" fill="none" olab:comment=""/>
	<polyline points="3303,72 3284,72" style="stroke: black;stroke-width: 14;stroke-linecap:butt;stroke-linejoin:round" fill="none" olab:comment=""/>
	<polyline points="3303,2130 3265,2130" style="stroke: black;stroke-width: 14;stroke-linecap:butt;stroke-linejoin:round" fill="none" olab:comment=""/>
	<polyline points="3303,1358 3265,1358" style="stroke: black;stroke-width: 14;stroke-linecap:butt;stroke-linejoin:round" fill="none" olab:comment=""/>
	<polyline points="3303,587 3265,587" style="stroke: black;stroke-width: 14;stroke-linecap:butt;stroke-linejoin:round" fill="none" olab:comment=""/>
	<text x="523" dominant-baseline="auto" y="2275" fill="black" font-family="Times New Roman,'MS PGothic',SimSun" font-size="137" font-weight="400" olab:comment="">
		<tspan x="523" style="font-kerning:none">−60</tspan>
	</text>
	<text x="1069" dominant-baseline="auto" y="2275" fill="black" font-family="Times New Roman,'MS PGothic',SimSun" font-size="137" font-weight="400" olab:comment="">
		<tspan x="1069" style="font-kerning:none">−40</tspan>
	</text>
	<text x="1614" dominant-baseline="auto" y="2275" fill="black" font-family="Times New Roman,'MS PGothic',SimSun" font-size="137" font-weight="400" olab:comment="">
		<tspan x="1614" style="font-kerning:none">−20</tspan>
	</text>
	<text x="2233" dominant-baseline="auto" y="2275" fill="black" font-family="Times New Roman,'MS PGothic',SimSun" font-size="137" font-weight="400" olab:comment="">
		<tspan x="2233" style="font-kerning:none">0</tspan>
	</text>
	<text x="2743" dominant-baseline="auto" y="2275" fill="black" font-family="Times New Roman,'MS PGothic',SimSun" font-size="137" font-weight="400" olab:comment="">
		<tspan x="2743" style="font-kerning:none">20</tspan>
	</text>
	<text x="281" dominant-baseline="auto" y="2170" fill="black" font-family="Times New Roman,'MS PGothic',SimSun" font-size="137" font-weight="400" olab:comment="">
		<tspan x="281" style="font-kerning:none">0.0</tspan>
	</text>
	<text x="281" dominant-baseline="auto" y="1398" fill="black" font-family="Times New Roman,'MS PGothic',SimSun" font-size="137" font-weight="400" olab:comment="">
		<tspan x="281" style="font-kerning:none">0.3</tspan>
	</text>
	<text x="281" dominant-baseline="auto" y="627" fill="black" font-family="Times New Roman,'MS PGothic',SimSun" font-size="137" font-weight="400" olab:comment="">
		<tspan x="281" style="font-kerning:none">0.6</tspan>
	</text>
	<text x="0" dominant-baseline="auto" y="0" fill="black" font-family="Arial,'MS PGothic',SimSun" font-size="137" font-weight="400" transform="matrix(-1.83697e-16 -1 0.999999 -1.83697e-16 231 1257)" olab:comment="">
		<tspan x="0" style="font-kerning:none">BIO8</tspan>
	</text>
</svg>

