<?xml version="1.0" encoding="UTF-8"?>
<!DOCTYPE svg PUBLIC "-//W3C//DTD SVG 1.1//EN" "http://www.w3.org/Graphics/SVG/1.1/DTD/svg11.dtd">
<!--Generated by Origin-->
<svg xmlns="http://www.w3.org/2000/svg" xmlns:xlink="http://www.w3.org/1999/xlink" xmlns:olab="http://www.originlab.com/namespaces/olab" viewBox="96,66 3214,2250" width="10.720000in" height="7.500000in">
	<defs>
		<mask id="Cp_1">
			<rect x="494" y="72" width="2810" height="2059" fill="white"/>
		</mask>
	</defs>
	<g mask="url(#Cp_1)">
		<rect x="96" y="66" width="3214" height="2250" visibility="hidden" fill="none" opacity="0"/>
		<path d="M 560,1651 L 560,1648 585,1648 611,1648 636,1648 662,1648 688,1648 713,1648 739,1648 765,1648 790,1648 816,1646 841,1646 867,1649 893,1651 918,1640 944,1631 970,1613 995,1629 1021,1632 1047,1579 1072,1547 1098,1492 1123,1485 1149,1469 1175,1466 1200,1479 1226,1483 1252,1478 1277,1475 1303,1463 1328,1424 1354,1399 1380,1385 1405,1372 1431,1353 1457,1347 1482,1327 1508,1314 1534,1298 1559,1296 1585,1293 1610,1289 1636,1288 1662,1287 1687,1286 1713,1283 1739,1277 1764,1273 1790,1268 1815,1265 1841,1261 1867,1259 1892,1256 1918,1257 1944,1232 1969,1230 1995,1230 2021,1231 2046,1227 2072,1221 2097,1220 2123,1221 2149,1217 2174,1217 2200,1218 2226,1220 2251,1213 2277,1210 2302,1210 2328,1209 2354,1209 2379,1209 2405,1209 2431,1209 2456,1209 2482,1209 2507,1209 2533,1209 2559,1206 2584,1199 2610,1199 2636,1199 2661,1199 2687,1199 2713,1199 2738,1199 2764,1199 2789,1199 2815,1199 2841,1199 2866,1199 2892,1199 2918,1199 2943,1199 2969,1199 2994,1199 3020,1199 3046,1199 3071,1199 3097,1199 3097,1651 Z M 560,1651 L 560,1360 585,1360 611,1360 636,1360 662,1360 688,1360 713,1360 739,1360 765,1360 790,1361 816,1359 841,1361 867,1359 893,1364 918,1356 944,1342 970,1324 995,1325 1021,1331 1047,1248 1072,1182 1098,1114 1123,1087 1149,1057 1175,1047 1200,1055 1226,1051 1252,1044 1277,1040 1303,1038 1328,994 1354,975 1380,960 1405,950 1431,927 1457,928 1482,909 1508,895 1534,879 1559,874 1585,874 1610,872 1636,872 1662,872 1687,872 1713,875 1739,868 1764,864 1790,857 1815,851 1841,850 1867,848 1892,847 1918,847 1944,834 1969,829 1995,829 2021,829 2046,828 2072,822 2097,825 2123,824 2149,822 2174,822 2200,822 2226,824 2251,812 2277,810 2302,810 2328,810 2354,810 2379,810 2405,810 2431,810 2456,810 2482,810 2507,810 2533,810 2559,810 2584,817 2610,817 2636,817 2661,817 2687,817 2713,817 2738,817 2764,817 2789,817 2815,817 2841,817 2866,817 2892,817 2918,817 2943,817 2969,817 2994,817 3020,817 3046,817 3071,817 3097,817 3097,1651 Z" fill="#FDC1C1" fill-rule="evenodd" stroke="none" olab:comment=""/>
		<polyline points="560,1648 585,1648 611,1648 636,1648 662,1648 688,1648 713,1648 739,1648 765,1648 790,1648 816,1646 841,1646 867,1649 893,1651 918,1640 944,1631 970,1613 995,1629 1021,1632 1047,1579 1072,1547 1098,1492 1123,1485 1149,1469 1175,1466 1200,1479 1226,1483 1252,1478 1277,1475 1303,1463 1328,1424 1354,1399 1380,1385 1405,1372 1431,1353 1457,1347 1482,1327 1508,1314 1534,1298 1559,1296 1585,1293 1610,1289 1636,1288 1662,1287 1687,1286 1713,1283 1739,1277 1764,1273 1790,1268 1815,1265 1841,1261 1867,1259 1892,1256 1918,1257 1944,1232 1969,1230 1995,1230 2021,1231 2046,1227 2072,1221 2097,1220 2123,1221 2149,1217 2174,1217 2200,1218 2226,1220 2251,1213 2277,1210 2302,1210 2328,1209 2354,1209 2379,1209 2405,1209 2431,1209 2456,1209 2482,1209 2507,1209 2533,1209 2559,1206 2584,1199 2610,1199 2636,1199 2661,1199 2687,1199 2713,1199 2738,1199 2764,1199 2789,1199 2815,1199 2841,1199 2866,1199 2892,1199 2918,1199 2943,1199 2969,1199 2994,1199 3020,1199 3046,1199 3071,1199 3097,1199" style="stroke: #FDC1C1;stroke-width: 2;stroke-linecap:round;stroke-linejoin:round" fill="none" olab:comment=""/>
		<polyline points="560,1504 585,1504 611,1504 636,1504 662,1504 688,1504 713,1504 739,1504 765,1504 790,1504 816,1502 841,1503 867,1504 893,1507 918,1498 944,1486 970,1468 995,1477 1021,1482 1047,1414 1072,1364 1098,1303 1123,1286 1149,1263 1175,1256 1200,1267 1226,1267 1252,1261 1277,1258 1303,1250 1328,1209 1354,1187 1380,1173 1405,1161 1431,1140 1457,1138 1482,1118 1508,1105 1534,1089 1559,1085 1585,1084 1610,1080 1636,1080 1662,1079 1687,1079 1713,1079 1739,1073 1764,1069 1790,1063 1815,1058 1841,1056 1867,1054 1892,1052 1918,1052 1944,1033 1969,1029 1995,1029 2021,1030 2046,1028 2072,1021 2097,1022 2123,1023 2149,1019 2174,1020 2200,1020 2226,1022 2251,1013 2277,1010 2302,1010 2328,1009 2354,1009 2379,1009 2405,1009 2431,1009 2456,1009 2482,1009 2507,1009 2533,1009 2559,1008 2584,1008 2610,1008 2636,1008 2661,1008 2687,1008 2713,1008 2738,1008 2764,1008 2789,1008 2815,1008 2841,1008 2866,1008 2892,1008 2918,1008 2943,1008 2969,1008 2994,1008 3020,1008 3046,1008 3071,1008 3097,1008" style="stroke: #F14040;stroke-width: 14;stroke-linecap:round;stroke-linejoin:round" fill="none" olab:comment=""/>
		<polyline points="560,1360 585,1360 611,1360 636,1360 662,1360 688,1360 713,1360 739,1360 765,1360 790,1361 816,1359 841,1361 867,1359 893,1364 918,1356 944,1342 970,1324 995,1325 1021,1331 1047,1248 1072,1182 1098,1114 1123,1087 1149,1057 1175,1047 1200,1055 1226,1051 1252,1044 1277,1040 1303,1038 1328,994 1354,975 1380,960 1405,950 1431,927 1457,928 1482,909 1508,895 1534,879 1559,874 1585,874 1610,872 1636,872 1662,872 1687,872 1713,875 1739,868 1764,864 1790,857 1815,851 1841,850 1867,848 1892,847 1918,847 1944,834 1969,829 1995,829 2021,829 2046,828 2072,822 2097,825 2123,824 2149,822 2174,822 2200,822 2226,824 2251,812 2277,810 2302,810 2328,810 2354,810 2379,810 2405,810 2431,810 2456,810 2482,810 2507,810 2533,810 2559,810 2584,817 2610,817 2636,817 2661,817 2687,817 2713,817 2738,817 2764,817 2789,817 2815,817 2841,817 2866,817 2892,817 2918,817 2943,817 2969,817 2994,817 3020,817 3046,817 3071,817 3097,817" style="stroke: #FDC1C1;stroke-width: 2;stroke-linecap:round;stroke-linejoin:round" fill="none" olab:comment=""/>
	</g>
	<polyline points="494,2130 3303,2130" style="stroke: black;stroke-width: 14;stroke-linecap:square;stroke-linejoin:round" fill="none" olab:comment=""/>
	<polyline points="728,2130 728,2111" style="stroke: black;stroke-width: 14;stroke-linecap:butt;stroke-linejoin:round" fill="none" olab:comment=""/>
	<polyline points="962,2130 962,2111" style="stroke: black;stroke-width: 14;stroke-linecap:butt;stroke-linejoin:round" fill="none" olab:comment=""/>
	<polyline points="1196,2130 1196,2111" style="stroke: black;stroke-width: 14;stroke-linecap:butt;stroke-linejoin:round" fill="none" olab:comment=""/>
	<polyline points="1430,2130 1430,2111" style="stroke: black;stroke-width: 14;stroke-linecap:butt;stroke-linejoin:round" fill="none" olab:comment=""/>
	<polyline points="1664,2130 1664,2111" style="stroke: black;stroke-width: 14;stroke-linecap:butt;stroke-linejoin:round" fill="none" olab:comment=""/>
	<polyline points="1899,2130 1899,2111" style="stroke: black;stroke-width: 14;stroke-linecap:butt;stroke-linejoin:round" fill="none" olab:comment=""/>
	<polyline points="2133,2130 2133,2111" style="stroke: black;stroke-width: 14;stroke-linecap:butt;stroke-linejoin:round" fill="none" olab:comment=""/>
	<polyline points="2601,2130 2601,2111" style="stroke: black;stroke-width: 14;stroke-linecap:butt;stroke-linejoin:round" fill="none" olab:comment=""/>
	<polyline points="2835,2130 2835,2111" style="stroke: black;stroke-width: 14;stroke-linecap:butt;stroke-linejoin:round" fill="none" olab:comment=""/>
	<polyline points="3069,2130 3069,2111" style="stroke: black;stroke-width: 14;stroke-linecap:butt;stroke-linejoin:round" fill="none" olab:comment=""/>
	<polyline points="3303,2130 3303,2111" style="stroke: black;stroke-width: 14;stroke-linecap:butt;stroke-linejoin:round" fill="none" olab:comment=""/>
	<polyline points="494,2130 494,2092" style="stroke: black;stroke-width: 14;stroke-linecap:butt;stroke-linejoin:round" fill="none" olab:comment=""/>
	<polyline points="2367,2130 2367,2092" style="stroke: black;stroke-width: 14;stroke-linecap:butt;stroke-linejoin:round" fill="none" olab:comment=""/>
	<polyline points="494,72 3303,72" style="stroke: black;stroke-width: 14;stroke-linecap:square;stroke-linejoin:round" fill="none" olab:comment=""/>
	<polyline points="728,72 728,91" style="stroke: black;stroke-width: 14;stroke-linecap:butt;stroke-linejoin:round" fill="none" olab:comment=""/>
	<polyline points="962,72 962,91" style="stroke: black;stroke-width: 14;stroke-linecap:butt;stroke-linejoin:round" fill="none" olab:comment=""/>
	<polyline points="1196,72 1196,91" style="stroke: black;stroke-width: 14;stroke-linecap:butt;stroke-linejoin:round" fill="none" olab:comment=""/>
	<polyline points="1430,72 1430,91" style="stroke: black;stroke-width: 14;stroke-linecap:butt;stroke-linejoin:round" fill="none" olab:comment=""/>
	<polyline points="1664,72 1664,91" style="stroke: black;stroke-width: 14;stroke-linecap:butt;stroke-linejoin:round" fill="none" olab:comment=""/>
	<polyline points="1899,72 1899,91" style="stroke: black;stroke-width: 14;stroke-linecap:butt;stroke-linejoin:round" fill="none" olab:comment=""/>
	<polyline points="2133,72 2133,91" style="stroke: black;stroke-width: 14;stroke-linecap:butt;stroke-linejoin:round" fill="none" olab:comment=""/>
	<polyline points="2601,72 2601,91" style="stroke: black;stroke-width: 14;stroke-linecap:butt;stroke-linejoin:round" fill="none" olab:comment=""/>
	<polyline points="2835,72 2835,91" style="stroke: black;stroke-width: 14;stroke-linecap:butt;stroke-linejoin:round" fill="none" olab:comment=""/>
	<polyline points="3069,72 3069,91" style="stroke: black;stroke-width: 14;stroke-linecap:butt;stroke-linejoin:round" fill="none" olab:comment=""/>
	<polyline points="3303,72 3303,91" style="stroke: black;stroke-width: 14;stroke-linecap:butt;stroke-linejoin:round" fill="none" olab:comment=""/>
	<polyline points="494,72 494,110" style="stroke: black;stroke-width: 14;stroke-linecap:butt;stroke-linejoin:round" fill="none" olab:comment=""/>
	<polyline points="2367,72 2367,110" style="stroke: black;stroke-width: 14;stroke-linecap:butt;stroke-linejoin:round" fill="none" olab:comment=""/>
	<polyline points="494,2130 494,72" style="stroke: black;stroke-width: 14;stroke-linecap:square;stroke-linejoin:round" fill="none" olab:comment=""/>
	<polyline points="494,1924 513,1924" style="stroke: black;stroke-width: 14;stroke-linecap:butt;stroke-linejoin:round" fill="none" olab:comment=""/>
	<polyline points="494,1718 513,1718" style="stroke: black;stroke-width: 14;stroke-linecap:butt;stroke-linejoin:round" fill="none" olab:comment=""/>
	<polyline points="494,1513 513,1513" style="stroke: black;stroke-width: 14;stroke-linecap:butt;stroke-linejoin:round" fill="none" olab:comment=""/>
	<polyline points="494,1101 513,1101" style="stroke: black;stroke-width: 14;stroke-linecap:butt;stroke-linejoin:round" fill="none" olab:comment=""/>
	<polyline points="494,895 513,895" style="stroke: black;stroke-width: 14;stroke-linecap:butt;stroke-linejoin:round" fill="none" olab:comment=""/>
	<polyline points="494,689 513,689" style="stroke: black;stroke-width: 14;stroke-linecap:butt;stroke-linejoin:round" fill="none" olab:comment=""/>
	<polyline points="494,278 513,278" style="stroke: black;stroke-width: 14;stroke-linecap:butt;stroke-linejoin:round" fill="none" olab:comment=""/>
	<polyline points="494,72 513,72" style="stroke: black;stroke-width: 14;stroke-linecap:butt;stroke-linejoin:round" fill="none" olab:comment=""/>
	<polyline points="494,2130 532,2130" style="stroke: black;stroke-width: 14;stroke-linecap:butt;stroke-linejoin:round" fill="none" olab:comment=""/>
	<polyline points="494,1307 532,1307" style="stroke: black;stroke-width: 14;stroke-linecap:butt;stroke-linejoin:round" fill="none" olab:comment=""/>
	<polyline points="494,484 532,484" style="stroke: black;stroke-width: 14;stroke-linecap:butt;stroke-linejoin:round" fill="none" olab:comment=""/>
	<polyline points="3303,2130 3303,72" style="stroke: black;stroke-width: 14;stroke-linecap:square;stroke-linejoin:round" fill="none" olab:comment=""/>
	<polyline points="3303,1924 3284,1924" style="stroke: black;stroke-width: 14;stroke-linecap:butt;stroke-linejoin:round" fill="none" olab:comment=""/>
	<polyline points="3303,1718 3284,1718" style="stroke: black;stroke-width: 14;stroke-linecap:butt;stroke-linejoin:round" fill="none" olab:comment=""/>
	<polyline points="3303,1513 3284,1513" style="stroke: black;stroke-width: 14;stroke-linecap:butt;stroke-linejoin:round" fill="none" olab:comment=""/>
	<polyline points="3303,1101 3284,1101" style="stroke: black;stroke-width: 14;stroke-linecap:butt;stroke-linejoin:round" fill="none" olab:comment=""/>
	<polyline points="3303,895 3284,895" style="stroke: black;stroke-width: 14;stroke-linecap:butt;stroke-linejoin:round" fill="none" olab:comment=""/>
	<polyline points="3303,689 3284,689" style="stroke: black;stroke-width: 14;stroke-linecap:butt;stroke-linejoin:round" fill="none" olab:comment=""/>
	<polyline points="3303,278 3284,278" style="stroke: black;stroke-width: 14;stroke-linecap:butt;stroke-linejoin:round" fill="none" olab:comment=""/>
	<polyline points="3303,72 3284,72" style="stroke: black;stroke-width: 14;stroke-linecap:butt;stroke-linejoin:round" fill="none" olab:comment=""/>
	<polyline points="3303,2130 3265,2130" style="stroke: black;stroke-width: 14;stroke-linecap:butt;stroke-linejoin:round" fill="none" olab:comment=""/>
	<polyline points="3303,1307 3265,1307" style="stroke: black;stroke-width: 14;stroke-linecap:butt;stroke-linejoin:round" fill="none" olab:comment=""/>
	<polyline points="3303,484 3265,484" style="stroke: black;stroke-width: 14;stroke-linecap:butt;stroke-linejoin:round" fill="none" olab:comment=""/>
	<text x="460" dominant-baseline="auto" y="2275" fill="black" font-family="Times New Roman,'MS PGothic',SimSun" font-size="137" font-weight="400" olab:comment="">
		<tspan x="460" style="font-kerning:none">0</tspan>
	</text>
	<text x="2264" dominant-baseline="auto" y="2275" fill="black" font-family="Times New Roman,'MS PGothic',SimSun" font-size="137" font-weight="400" olab:comment="">
		<tspan x="2264" style="font-kerning:none">400</tspan>
	</text>
	<text x="281" dominant-baseline="auto" y="2170" fill="black" font-family="Times New Roman,'MS PGothic',SimSun" font-size="137" font-weight="400" olab:comment="">
		<tspan x="281" style="font-kerning:none">0.0</tspan>
	</text>
	<text x="281" dominant-baseline="auto" y="1347" fill="black" font-family="Times New Roman,'MS PGothic',SimSun" font-size="137" font-weight="400" olab:comment="">
		<tspan x="281" style="font-kerning:none">0.2</tspan>
	</text>
	<text x="281" dominant-baseline="auto" y="524" fill="black" font-family="Times New Roman,'MS PGothic',SimSun" font-size="137" font-weight="400" olab:comment="">
		<tspan x="281" style="font-kerning:none">0.4</tspan>
	</text>
	<text x="0" dominant-baseline="auto" y="0" fill="black" font-family="Arial,'MS PGothic',SimSun" font-size="137" font-weight="400" transform="matrix(-1.83697e-16 -1 0.999999 -1.83697e-16 231 1295)" olab:comment="">
		<tspan x="0" style="font-kerning:none">BIO13</tspan>
	</text>
</svg>

