<?xml version="1.0" encoding="UTF-8"?>
<!DOCTYPE svg PUBLIC "-//W3C//DTD SVG 1.1//EN" "http://www.w3.org/Graphics/SVG/1.1/DTD/svg11.dtd">
<!--Generated by Origin-->
<svg xmlns="http://www.w3.org/2000/svg" xmlns:xlink="http://www.w3.org/1999/xlink" xmlns:olab="http://www.originlab.com/namespaces/olab" viewBox="96,66 3214,2250" width="10.720000in" height="7.500000in">
	<defs>
		<mask id="Cp_1">
			<rect x="494" y="72" width="2810" height="2059" fill="white"/>
		</mask>
	</defs>
	<g mask="url(#Cp_1)">
		<rect x="96" y="66" width="3214" height="2250" visibility="hidden" fill="none" opacity="0"/>
		<path d="M 610,1471 L 610,1449 636,1449 662,1449 688,1449 714,1449 739,1449 765,1449 791,1449 817,1446 843,1434 869,1431 895,1399 921,1395 947,1400 973,1411 999,1417 1024,1432 1050,1459 1076,1456 1102,1469 1128,1462 1154,1471 1180,1468 1206,1444 1232,1436 1258,1433 1283,1431 1309,1401 1335,1397 1361,1391 1387,1383 1413,1375 1439,1314 1465,1308 1491,1141 1517,1126 1543,1124 1568,1119 1594,1107 1620,1099 1646,1096 1672,1038 1698,1004 1724,1000 1750,999 1776,997 1802,994 1828,991 1853,990 1879,989 1905,989 1931,989 1957,989 1983,989 2009,989 2035,989 2061,989 2087,989 2113,989 2138,989 2164,989 2190,989 2216,989 2242,989 2268,989 2294,989 2320,989 2346,989 2372,989 2398,989 2423,989 2449,989 2475,989 2501,989 2527,989 2553,989 2579,989 2605,989 2631,989 2657,989 2683,989 2708,989 2734,989 2760,989 2786,989 2812,989 2838,989 2864,989 2890,989 2916,989 2942,989 2968,989 2993,989 3019,989 3045,989 3071,989 3097,989 3123,989 3149,989 3175,989 3175,1471 Z M 610,1471 L 610,1115 636,1115 662,1115 688,1115 714,1115 739,1115 765,1115 791,1115 817,1114 843,1090 869,1095 895,1067 921,1059 947,1060 973,1066 999,1082 1024,1039 1050,1031 1076,1036 1102,1044 1128,1045 1154,1044 1180,1040 1206,1037 1232,1024 1258,1027 1283,1018 1309,978 1335,967 1361,954 1387,935 1413,927 1439,848 1465,802 1491,717 1517,693 1543,681 1568,660 1594,647 1620,643 1646,635 1672,607 1698,588 1724,584 1750,584 1776,579 1802,575 1828,572 1853,572 1879,572 1905,572 1931,571 1957,571 1983,571 2009,571 2035,571 2061,571 2087,571 2113,571 2138,571 2164,571 2190,571 2216,571 2242,571 2268,571 2294,571 2320,571 2346,571 2372,571 2398,571 2423,571 2449,571 2475,571 2501,571 2527,571 2553,571 2579,571 2605,571 2631,571 2657,571 2683,571 2708,571 2734,571 2760,571 2786,571 2812,571 2838,571 2864,571 2890,571 2916,571 2942,571 2968,571 2993,571 3019,571 3045,571 3071,571 3097,571 3123,571 3149,571 3175,571 3175,1471 Z" fill="#FDC1C1" fill-rule="evenodd" stroke="none" olab:comment=""/>
		<polyline points="610,1449 636,1449 662,1449 688,1449 714,1449 739,1449 765,1449 791,1449 817,1446 843,1434 869,1431 895,1399 921,1395 947,1400 973,1411 999,1417 1024,1432 1050,1459 1076,1456 1102,1469 1128,1462 1154,1471 1180,1468 1206,1444 1232,1436 1258,1433 1283,1431 1309,1401 1335,1397 1361,1391 1387,1383 1413,1375 1439,1314 1465,1308 1491,1141 1517,1126 1543,1124 1568,1119 1594,1107 1620,1099 1646,1096 1672,1038 1698,1004 1724,1000 1750,999 1776,997 1802,994 1828,991 1853,990 1879,989 1905,989 1931,989 1957,989 1983,989 2009,989 2035,989 2061,989 2087,989 2113,989 2138,989 2164,989 2190,989 2216,989 2242,989 2268,989 2294,989 2320,989 2346,989 2372,989 2398,989 2423,989 2449,989 2475,989 2501,989 2527,989 2553,989 2579,989 2605,989 2631,989 2657,989 2683,989 2708,989 2734,989 2760,989 2786,989 2812,989 2838,989 2864,989 2890,989 2916,989 2942,989 2968,989 2993,989 3019,989 3045,989 3071,989 3097,989 3123,989 3149,989 3175,989" style="stroke: #FDC1C1;stroke-width: 2;stroke-linecap:round;stroke-linejoin:round" fill="none" olab:comment=""/>
		<polyline points="610,1282 636,1282 662,1282 688,1282 714,1282 739,1282 765,1282 791,1282 817,1280 843,1262 869,1263 895,1233 921,1227 947,1230 973,1238 999,1249 1024,1235 1050,1245 1076,1246 1102,1256 1128,1254 1154,1257 1180,1254 1206,1241 1232,1230 1258,1230 1283,1224 1309,1189 1335,1182 1361,1173 1387,1159 1413,1151 1439,1081 1465,1055 1491,929 1517,910 1543,902 1568,890 1594,877 1620,871 1646,865 1672,822 1698,796 1724,792 1750,791 1776,788 1802,784 1828,781 1853,781 1879,780 1905,780 1931,780 1957,780 1983,780 2009,780 2035,780 2061,780 2087,780 2113,780 2138,780 2164,780 2190,780 2216,780 2242,780 2268,780 2294,780 2320,780 2346,780 2372,780 2398,780 2423,780 2449,780 2475,780 2501,780 2527,780 2553,780 2579,780 2605,780 2631,780 2657,780 2683,780 2708,780 2734,780 2760,780 2786,780 2812,780 2838,780 2864,780 2890,780 2916,780 2942,780 2968,780 2993,780 3019,780 3045,780 3071,780 3097,780 3123,780 3149,780 3175,780" style="stroke: #F14040;stroke-width: 14;stroke-linecap:round;stroke-linejoin:round" fill="none" olab:comment=""/>
		<polyline points="610,1115 636,1115 662,1115 688,1115 714,1115 739,1115 765,1115 791,1115 817,1114 843,1090 869,1095 895,1067 921,1059 947,1060 973,1066 999,1082 1024,1039 1050,1031 1076,1036 1102,1044 1128,1045 1154,1044 1180,1040 1206,1037 1232,1024 1258,1027 1283,1018 1309,978 1335,967 1361,954 1387,935 1413,927 1439,848 1465,802 1491,717 1517,693 1543,681 1568,660 1594,647 1620,643 1646,635 1672,607 1698,588 1724,584 1750,584 1776,579 1802,575 1828,572 1853,572 1879,572 1905,572 1931,571 1957,571 1983,571 2009,571 2035,571 2061,571 2087,571 2113,571 2138,571 2164,571 2190,571 2216,571 2242,571 2268,571 2294,571 2320,571 2346,571 2372,571 2398,571 2423,571 2449,571 2475,571 2501,571 2527,571 2553,571 2579,571 2605,571 2631,571 2657,571 2683,571 2708,571 2734,571 2760,571 2786,571 2812,571 2838,571 2864,571 2890,571 2916,571 2942,571 2968,571 2993,571 3019,571 3045,571 3071,571 3097,571 3123,571 3149,571 3175,571" style="stroke: #FDC1C1;stroke-width: 2;stroke-linecap:round;stroke-linejoin:round" fill="none" olab:comment=""/>
	</g>
	<polyline points="494,2130 3303,2130" style="stroke: black;stroke-width: 14;stroke-linecap:square;stroke-linejoin:round" fill="none" olab:comment=""/>
	<polyline points="757,2130 757,2111" style="stroke: black;stroke-width: 14;stroke-linecap:butt;stroke-linejoin:round" fill="none" olab:comment=""/>
	<polyline points="933,2130 933,2111" style="stroke: black;stroke-width: 14;stroke-linecap:butt;stroke-linejoin:round" fill="none" olab:comment=""/>
	<polyline points="1108,2130 1108,2111" style="stroke: black;stroke-width: 14;stroke-linecap:butt;stroke-linejoin:round" fill="none" olab:comment=""/>
	<polyline points="1284,2130 1284,2111" style="stroke: black;stroke-width: 14;stroke-linecap:butt;stroke-linejoin:round" fill="none" olab:comment=""/>
	<polyline points="1460,2130 1460,2111" style="stroke: black;stroke-width: 14;stroke-linecap:butt;stroke-linejoin:round" fill="none" olab:comment=""/>
	<polyline points="1811,2130 1811,2111" style="stroke: black;stroke-width: 14;stroke-linecap:butt;stroke-linejoin:round" fill="none" olab:comment=""/>
	<polyline points="1986,2130 1986,2111" style="stroke: black;stroke-width: 14;stroke-linecap:butt;stroke-linejoin:round" fill="none" olab:comment=""/>
	<polyline points="2162,2130 2162,2111" style="stroke: black;stroke-width: 14;stroke-linecap:butt;stroke-linejoin:round" fill="none" olab:comment=""/>
	<polyline points="2337,2130 2337,2111" style="stroke: black;stroke-width: 14;stroke-linecap:butt;stroke-linejoin:round" fill="none" olab:comment=""/>
	<polyline points="2513,2130 2513,2111" style="stroke: black;stroke-width: 14;stroke-linecap:butt;stroke-linejoin:round" fill="none" olab:comment=""/>
	<polyline points="2864,2130 2864,2111" style="stroke: black;stroke-width: 14;stroke-linecap:butt;stroke-linejoin:round" fill="none" olab:comment=""/>
	<polyline points="3040,2130 3040,2111" style="stroke: black;stroke-width: 14;stroke-linecap:butt;stroke-linejoin:round" fill="none" olab:comment=""/>
	<polyline points="3215,2130 3215,2111" style="stroke: black;stroke-width: 14;stroke-linecap:butt;stroke-linejoin:round" fill="none" olab:comment=""/>
	<polyline points="582,2130 582,2092" style="stroke: black;stroke-width: 14;stroke-linecap:butt;stroke-linejoin:round" fill="none" olab:comment=""/>
	<polyline points="1635,2130 1635,2092" style="stroke: black;stroke-width: 14;stroke-linecap:butt;stroke-linejoin:round" fill="none" olab:comment=""/>
	<polyline points="2689,2130 2689,2092" style="stroke: black;stroke-width: 14;stroke-linecap:butt;stroke-linejoin:round" fill="none" olab:comment=""/>
	<polyline points="494,72 3303,72" style="stroke: black;stroke-width: 14;stroke-linecap:square;stroke-linejoin:round" fill="none" olab:comment=""/>
	<polyline points="757,72 757,91" style="stroke: black;stroke-width: 14;stroke-linecap:butt;stroke-linejoin:round" fill="none" olab:comment=""/>
	<polyline points="933,72 933,91" style="stroke: black;stroke-width: 14;stroke-linecap:butt;stroke-linejoin:round" fill="none" olab:comment=""/>
	<polyline points="1108,72 1108,91" style="stroke: black;stroke-width: 14;stroke-linecap:butt;stroke-linejoin:round" fill="none" olab:comment=""/>
	<polyline points="1284,72 1284,91" style="stroke: black;stroke-width: 14;stroke-linecap:butt;stroke-linejoin:round" fill="none" olab:comment=""/>
	<polyline points="1460,72 1460,91" style="stroke: black;stroke-width: 14;stroke-linecap:butt;stroke-linejoin:round" fill="none" olab:comment=""/>
	<polyline points="1811,72 1811,91" style="stroke: black;stroke-width: 14;stroke-linecap:butt;stroke-linejoin:round" fill="none" olab:comment=""/>
	<polyline points="1986,72 1986,91" style="stroke: black;stroke-width: 14;stroke-linecap:butt;stroke-linejoin:round" fill="none" olab:comment=""/>
	<polyline points="2162,72 2162,91" style="stroke: black;stroke-width: 14;stroke-linecap:butt;stroke-linejoin:round" fill="none" olab:comment=""/>
	<polyline points="2337,72 2337,91" style="stroke: black;stroke-width: 14;stroke-linecap:butt;stroke-linejoin:round" fill="none" olab:comment=""/>
	<polyline points="2513,72 2513,91" style="stroke: black;stroke-width: 14;stroke-linecap:butt;stroke-linejoin:round" fill="none" olab:comment=""/>
	<polyline points="2864,72 2864,91" style="stroke: black;stroke-width: 14;stroke-linecap:butt;stroke-linejoin:round" fill="none" olab:comment=""/>
	<polyline points="3040,72 3040,91" style="stroke: black;stroke-width: 14;stroke-linecap:butt;stroke-linejoin:round" fill="none" olab:comment=""/>
	<polyline points="3215,72 3215,91" style="stroke: black;stroke-width: 14;stroke-linecap:butt;stroke-linejoin:round" fill="none" olab:comment=""/>
	<polyline points="582,72 582,110" style="stroke: black;stroke-width: 14;stroke-linecap:butt;stroke-linejoin:round" fill="none" olab:comment=""/>
	<polyline points="1635,72 1635,110" style="stroke: black;stroke-width: 14;stroke-linecap:butt;stroke-linejoin:round" fill="none" olab:comment=""/>
	<polyline points="2689,72 2689,110" style="stroke: black;stroke-width: 14;stroke-linecap:butt;stroke-linejoin:round" fill="none" olab:comment=""/>
	<polyline points="494,2130 494,72" style="stroke: black;stroke-width: 14;stroke-linecap:square;stroke-linejoin:round" fill="none" olab:comment=""/>
	<polyline points="494,1924 513,1924" style="stroke: black;stroke-width: 14;stroke-linecap:butt;stroke-linejoin:round" fill="none" olab:comment=""/>
	<polyline points="494,1718 513,1718" style="stroke: black;stroke-width: 14;stroke-linecap:butt;stroke-linejoin:round" fill="none" olab:comment=""/>
	<polyline points="494,1513 513,1513" style="stroke: black;stroke-width: 14;stroke-linecap:butt;stroke-linejoin:round" fill="none" olab:comment=""/>
	<polyline points="494,1101 513,1101" style="stroke: black;stroke-width: 14;stroke-linecap:butt;stroke-linejoin:round" fill="none" olab:comment=""/>
	<polyline points="494,895 513,895" style="stroke: black;stroke-width: 14;stroke-linecap:butt;stroke-linejoin:round" fill="none" olab:comment=""/>
	<polyline points="494,689 513,689" style="stroke: black;stroke-width: 14;stroke-linecap:butt;stroke-linejoin:round" fill="none" olab:comment=""/>
	<polyline points="494,278 513,278" style="stroke: black;stroke-width: 14;stroke-linecap:butt;stroke-linejoin:round" fill="none" olab:comment=""/>
	<polyline points="494,72 513,72" style="stroke: black;stroke-width: 14;stroke-linecap:butt;stroke-linejoin:round" fill="none" olab:comment=""/>
	<polyline points="494,2130 532,2130" style="stroke: black;stroke-width: 14;stroke-linecap:butt;stroke-linejoin:round" fill="none" olab:comment=""/>
	<polyline points="494,1307 532,1307" style="stroke: black;stroke-width: 14;stroke-linecap:butt;stroke-linejoin:round" fill="none" olab:comment=""/>
	<polyline points="494,484 532,484" style="stroke: black;stroke-width: 14;stroke-linecap:butt;stroke-linejoin:round" fill="none" olab:comment=""/>
	<polyline points="3303,2130 3303,72" style="stroke: black;stroke-width: 14;stroke-linecap:square;stroke-linejoin:round" fill="none" olab:comment=""/>
	<polyline points="3303,1924 3284,1924" style="stroke: black;stroke-width: 14;stroke-linecap:butt;stroke-linejoin:round" fill="none" olab:comment=""/>
	<polyline points="3303,1718 3284,1718" style="stroke: black;stroke-width: 14;stroke-linecap:butt;stroke-linejoin:round" fill="none" olab:comment=""/>
	<polyline points="3303,1513 3284,1513" style="stroke: black;stroke-width: 14;stroke-linecap:butt;stroke-linejoin:round" fill="none" olab:comment=""/>
	<polyline points="3303,1101 3284,1101" style="stroke: black;stroke-width: 14;stroke-linecap:butt;stroke-linejoin:round" fill="none" olab:comment=""/>
	<polyline points="3303,895 3284,895" style="stroke: black;stroke-width: 14;stroke-linecap:butt;stroke-linejoin:round" fill="none" olab:comment=""/>
	<polyline points="3303,689 3284,689" style="stroke: black;stroke-width: 14;stroke-linecap:butt;stroke-linejoin:round" fill="none" olab:comment=""/>
	<polyline points="3303,278 3284,278" style="stroke: black;stroke-width: 14;stroke-linecap:butt;stroke-linejoin:round" fill="none" olab:comment=""/>
	<polyline points="3303,72 3284,72" style="stroke: black;stroke-width: 14;stroke-linecap:butt;stroke-linejoin:round" fill="none" olab:comment=""/>
	<polyline points="3303,2130 3265,2130" style="stroke: black;stroke-width: 14;stroke-linecap:butt;stroke-linejoin:round" fill="none" olab:comment=""/>
	<polyline points="3303,1307 3265,1307" style="stroke: black;stroke-width: 14;stroke-linecap:butt;stroke-linejoin:round" fill="none" olab:comment=""/>
	<polyline points="3303,484 3265,484" style="stroke: black;stroke-width: 14;stroke-linecap:butt;stroke-linejoin:round" fill="none" olab:comment=""/>
	<text x="548" dominant-baseline="auto" y="2275" fill="black" font-family="Times New Roman,'MS PGothic',SimSun" font-size="137" font-weight="400" olab:comment="">
		<tspan x="548" style="font-kerning:none">0</tspan>
	</text>
	<text x="1532" dominant-baseline="auto" y="2275" fill="black" font-family="Times New Roman,'MS PGothic',SimSun" font-size="137" font-weight="400" olab:comment="">
		<tspan x="1532" style="font-kerning:none">600</tspan>
	</text>
	<text x="2551" dominant-baseline="auto" y="2275" fill="black" font-family="Times New Roman,'MS PGothic',SimSun" font-size="137" font-weight="400" olab:comment="">
		<tspan x="2551" style="font-kerning:none">1200</tspan>
	</text>
	<text x="281" dominant-baseline="auto" y="2170" fill="black" font-family="Times New Roman,'MS PGothic',SimSun" font-size="137" font-weight="400" olab:comment="">
		<tspan x="281" style="font-kerning:none">0.0</tspan>
	</text>
	<text x="281" dominant-baseline="auto" y="1347" fill="black" font-family="Times New Roman,'MS PGothic',SimSun" font-size="137" font-weight="400" olab:comment="">
		<tspan x="281" style="font-kerning:none">0.2</tspan>
	</text>
	<text x="281" dominant-baseline="auto" y="524" fill="black" font-family="Times New Roman,'MS PGothic',SimSun" font-size="137" font-weight="400" olab:comment="">
		<tspan x="281" style="font-kerning:none">0.4</tspan>
	</text>
	<text x="0" dominant-baseline="auto" y="0" fill="black" font-family="Arial,'MS PGothic',SimSun" font-size="137" font-weight="400" transform="matrix(-1.83697e-16 -1 0.999999 -1.83697e-16 231 1295)" olab:comment="">
		<tspan x="0" style="font-kerning:none">BIO18</tspan>
	</text>
</svg>

