<?xml version="1.0" encoding="UTF-8"?>
<!DOCTYPE svg PUBLIC "-//W3C//DTD SVG 1.1//EN" "http://www.w3.org/Graphics/SVG/1.1/DTD/svg11.dtd">
<!--Generated by Origin-->
<svg xmlns="http://www.w3.org/2000/svg" xmlns:xlink="http://www.w3.org/1999/xlink" xmlns:olab="http://www.originlab.com/namespaces/olab" viewBox="96,66 3214,2250" width="10.720000in" height="7.500000in">
	<defs>
		<mask id="Cp_1">
			<rect x="494" y="72" width="2810" height="2059" fill="white"/>
		</mask>
	</defs>
	<g mask="url(#Cp_1)">
		<rect x="96" y="66" width="3214" height="2250" visibility="hidden" fill="none" opacity="0"/>
		<path d="M 553,1598 L 553,1188 580,1188 607,1188 634,1188 661,1184 688,1187 715,1191 742,1202 768,1198 795,1204 822,1199 849,1214 876,1217 903,1230 930,1239 957,1244 984,1311 1011,1333 1038,1337 1065,1345 1092,1383 1119,1420 1146,1449 1173,1461 1200,1473 1226,1511 1253,1513 1280,1528 1307,1543 1334,1552 1361,1555 1388,1563 1415,1564 1442,1566 1469,1570 1496,1571 1523,1572 1550,1576 1577,1577 1604,1579 1631,1579 1658,1583 1684,1583 1711,1583 1738,1580 1765,1581 1792,1582 1819,1584 1846,1585 1873,1585 1900,1585 1927,1580 1954,1581 1981,1583 2008,1582 2035,1582 2062,1582 2089,1582 2116,1582 2142,1583 2169,1583 2196,1583 2223,1583 2250,1583 2277,1583 2304,1585 2331,1587 2358,1590 2385,1597 2412,1598 2439,1598 2466,1598 2493,1598 2520,1598 2547,1598 2574,1598 2600,1598 2627,1597 2654,1597 2681,1597 2708,1597 2735,1596 2762,1596 2789,1596 2816,1596 2843,1596 2870,1596 2897,1596 2924,1596 2951,1596 2978,1596 3005,1596 3031,1596 3058,1596 3085,1596 3112,1596 3139,1596 3166,1596 3193,1596 3220,1596 3220,1598 Z M 553,1598 L 553,771 580,771 607,771 634,772 661,772 688,776 715,783 742,792 768,788 795,786 822,790 849,797 876,801 903,802 930,806 957,816 984,888 1011,928 1038,958 1065,960 1092,1007 1119,1019 1146,1032 1173,1048 1200,1058 1226,1089 1253,1101 1280,1132 1307,1152 1334,1175 1361,1181 1388,1189 1415,1191 1442,1192 1469,1193 1496,1194 1523,1197 1550,1199 1577,1201 1604,1206 1631,1207 1658,1209 1684,1209 1711,1210 1738,1211 1765,1211 1792,1212 1819,1214 1846,1214 1873,1215 1900,1215 1927,1216 1954,1216 1981,1215 2008,1214 2035,1214 2062,1213 2089,1213 2116,1212 2142,1213 2169,1213 2196,1213 2223,1213 2250,1213 2277,1212 2304,1215 2331,1215 2358,1217 2385,1220 2412,1219 2439,1219 2466,1219 2493,1219 2520,1219 2547,1219 2574,1219 2600,1219 2627,1222 2654,1222 2681,1222 2708,1222 2735,1224 2762,1224 2789,1224 2816,1224 2843,1224 2870,1224 2897,1224 2924,1224 2951,1224 2978,1224 3005,1224 3031,1224 3058,1224 3085,1224 3112,1224 3139,1224 3166,1224 3193,1224 3220,1224 3220,1598 Z" fill="#FDC1C1" fill-rule="evenodd" stroke="none" olab:comment=""/>
		<polyline points="553,1188 580,1188 607,1188 634,1188 661,1184 688,1187 715,1191 742,1202 768,1198 795,1204 822,1199 849,1214 876,1217 903,1230 930,1239 957,1244 984,1311 1011,1333 1038,1337 1065,1345 1092,1383 1119,1420 1146,1449 1173,1461 1200,1473 1226,1511 1253,1513 1280,1528 1307,1543 1334,1552 1361,1555 1388,1563 1415,1564 1442,1566 1469,1570 1496,1571 1523,1572 1550,1576 1577,1577 1604,1579 1631,1579 1658,1583 1684,1583 1711,1583 1738,1580 1765,1581 1792,1582 1819,1584 1846,1585 1873,1585 1900,1585 1927,1580 1954,1581 1981,1583 2008,1582 2035,1582 2062,1582 2089,1582 2116,1582 2142,1583 2169,1583 2196,1583 2223,1583 2250,1583 2277,1583 2304,1585 2331,1587 2358,1590 2385,1597 2412,1598 2439,1598 2466,1598 2493,1598 2520,1598 2547,1598 2574,1598 2600,1598 2627,1597 2654,1597 2681,1597 2708,1597 2735,1596 2762,1596 2789,1596 2816,1596 2843,1596 2870,1596 2897,1596 2924,1596 2951,1596 2978,1596 3005,1596 3031,1596 3058,1596 3085,1596 3112,1596 3139,1596 3166,1596 3193,1596 3220,1596" style="stroke: #FDC1C1;stroke-width: 2;stroke-linecap:round;stroke-linejoin:round" fill="none" olab:comment=""/>
		<polyline points="553,979 580,979 607,979 634,980 661,978 688,982 715,987 742,997 768,993 795,995 822,994 849,1005 876,1009 903,1016 930,1022 957,1030 984,1099 1011,1130 1038,1148 1065,1152 1092,1195 1119,1219 1146,1240 1173,1254 1200,1266 1226,1300 1253,1307 1280,1330 1307,1347 1334,1363 1361,1368 1388,1376 1415,1377 1442,1379 1469,1381 1496,1382 1523,1384 1550,1388 1577,1389 1604,1392 1631,1393 1658,1396 1684,1396 1711,1396 1738,1395 1765,1396 1792,1397 1819,1399 1846,1399 1873,1400 1900,1400 1927,1398 1954,1398 1981,1399 2008,1398 2035,1398 2062,1398 2089,1397 2116,1397 2142,1398 2169,1398 2196,1398 2223,1398 2250,1398 2277,1397 2304,1400 2331,1401 2358,1404 2385,1408 2412,1409 2439,1409 2466,1409 2493,1409 2520,1409 2547,1409 2574,1409 2600,1409 2627,1410 2654,1410 2681,1410 2708,1410 2735,1410 2762,1410 2789,1410 2816,1410 2843,1410 2870,1410 2897,1410 2924,1410 2951,1410 2978,1410 3005,1410 3031,1410 3058,1410 3085,1410 3112,1410 3139,1410 3166,1410 3193,1410 3220,1410" style="stroke: #F14040;stroke-width: 14;stroke-linecap:round;stroke-linejoin:round" fill="none" olab:comment=""/>
		<polyline points="553,771 580,771 607,771 634,772 661,772 688,776 715,783 742,792 768,788 795,786 822,790 849,797 876,801 903,802 930,806 957,816 984,888 1011,928 1038,958 1065,960 1092,1007 1119,1019 1146,1032 1173,1048 1200,1058 1226,1089 1253,1101 1280,1132 1307,1152 1334,1175 1361,1181 1388,1189 1415,1191 1442,1192 1469,1193 1496,1194 1523,1197 1550,1199 1577,1201 1604,1206 1631,1207 1658,1209 1684,1209 1711,1210 1738,1211 1765,1211 1792,1212 1819,1214 1846,1214 1873,1215 1900,1215 1927,1216 1954,1216 1981,1215 2008,1214 2035,1214 2062,1213 2089,1213 2116,1212 2142,1213 2169,1213 2196,1213 2223,1213 2250,1213 2277,1212 2304,1215 2331,1215 2358,1217 2385,1220 2412,1219 2439,1219 2466,1219 2493,1219 2520,1219 2547,1219 2574,1219 2600,1219 2627,1222 2654,1222 2681,1222 2708,1222 2735,1224 2762,1224 2789,1224 2816,1224 2843,1224 2870,1224 2897,1224 2924,1224 2951,1224 2978,1224 3005,1224 3031,1224 3058,1224 3085,1224 3112,1224 3139,1224 3166,1224 3193,1224 3220,1224" style="stroke: #FDC1C1;stroke-width: 2;stroke-linecap:round;stroke-linejoin:round" fill="none" olab:comment=""/>
	</g>
	<polyline points="494,2130 3303,2130" style="stroke: black;stroke-width: 14;stroke-linecap:square;stroke-linejoin:round" fill="none" olab:comment=""/>
	<polyline points="606,2130 606,2111" style="stroke: black;stroke-width: 14;stroke-linecap:butt;stroke-linejoin:round" fill="none" olab:comment=""/>
	<polyline points="831,2130 831,2111" style="stroke: black;stroke-width: 14;stroke-linecap:butt;stroke-linejoin:round" fill="none" olab:comment=""/>
	<polyline points="1056,2130 1056,2111" style="stroke: black;stroke-width: 14;stroke-linecap:butt;stroke-linejoin:round" fill="none" olab:comment=""/>
	<polyline points="1281,2130 1281,2111" style="stroke: black;stroke-width: 14;stroke-linecap:butt;stroke-linejoin:round" fill="none" olab:comment=""/>
	<polyline points="1505,2130 1505,2111" style="stroke: black;stroke-width: 14;stroke-linecap:butt;stroke-linejoin:round" fill="none" olab:comment=""/>
	<polyline points="1955,2130 1955,2111" style="stroke: black;stroke-width: 14;stroke-linecap:butt;stroke-linejoin:round" fill="none" olab:comment=""/>
	<polyline points="2179,2130 2179,2111" style="stroke: black;stroke-width: 14;stroke-linecap:butt;stroke-linejoin:round" fill="none" olab:comment=""/>
	<polyline points="2404,2130 2404,2111" style="stroke: black;stroke-width: 14;stroke-linecap:butt;stroke-linejoin:round" fill="none" olab:comment=""/>
	<polyline points="2629,2130 2629,2111" style="stroke: black;stroke-width: 14;stroke-linecap:butt;stroke-linejoin:round" fill="none" olab:comment=""/>
	<polyline points="2854,2130 2854,2111" style="stroke: black;stroke-width: 14;stroke-linecap:butt;stroke-linejoin:round" fill="none" olab:comment=""/>
	<polyline points="3303,2130 3303,2111" style="stroke: black;stroke-width: 14;stroke-linecap:butt;stroke-linejoin:round" fill="none" olab:comment=""/>
	<polyline points="1730,2130 1730,2092" style="stroke: black;stroke-width: 14;stroke-linecap:butt;stroke-linejoin:round" fill="none" olab:comment=""/>
	<polyline points="3078,2130 3078,2092" style="stroke: black;stroke-width: 14;stroke-linecap:butt;stroke-linejoin:round" fill="none" olab:comment=""/>
	<polyline points="494,72 3303,72" style="stroke: black;stroke-width: 14;stroke-linecap:square;stroke-linejoin:round" fill="none" olab:comment=""/>
	<polyline points="606,72 606,91" style="stroke: black;stroke-width: 14;stroke-linecap:butt;stroke-linejoin:round" fill="none" olab:comment=""/>
	<polyline points="831,72 831,91" style="stroke: black;stroke-width: 14;stroke-linecap:butt;stroke-linejoin:round" fill="none" olab:comment=""/>
	<polyline points="1056,72 1056,91" style="stroke: black;stroke-width: 14;stroke-linecap:butt;stroke-linejoin:round" fill="none" olab:comment=""/>
	<polyline points="1281,72 1281,91" style="stroke: black;stroke-width: 14;stroke-linecap:butt;stroke-linejoin:round" fill="none" olab:comment=""/>
	<polyline points="1505,72 1505,91" style="stroke: black;stroke-width: 14;stroke-linecap:butt;stroke-linejoin:round" fill="none" olab:comment=""/>
	<polyline points="1955,72 1955,91" style="stroke: black;stroke-width: 14;stroke-linecap:butt;stroke-linejoin:round" fill="none" olab:comment=""/>
	<polyline points="2179,72 2179,91" style="stroke: black;stroke-width: 14;stroke-linecap:butt;stroke-linejoin:round" fill="none" olab:comment=""/>
	<polyline points="2404,72 2404,91" style="stroke: black;stroke-width: 14;stroke-linecap:butt;stroke-linejoin:round" fill="none" olab:comment=""/>
	<polyline points="2629,72 2629,91" style="stroke: black;stroke-width: 14;stroke-linecap:butt;stroke-linejoin:round" fill="none" olab:comment=""/>
	<polyline points="2854,72 2854,91" style="stroke: black;stroke-width: 14;stroke-linecap:butt;stroke-linejoin:round" fill="none" olab:comment=""/>
	<polyline points="3303,72 3303,91" style="stroke: black;stroke-width: 14;stroke-linecap:butt;stroke-linejoin:round" fill="none" olab:comment=""/>
	<polyline points="1730,72 1730,110" style="stroke: black;stroke-width: 14;stroke-linecap:butt;stroke-linejoin:round" fill="none" olab:comment=""/>
	<polyline points="3078,72 3078,110" style="stroke: black;stroke-width: 14;stroke-linecap:butt;stroke-linejoin:round" fill="none" olab:comment=""/>
	<polyline points="494,2130 494,72" style="stroke: black;stroke-width: 14;stroke-linecap:square;stroke-linejoin:round" fill="none" olab:comment=""/>
	<polyline points="494,1924 513,1924" style="stroke: black;stroke-width: 14;stroke-linecap:butt;stroke-linejoin:round" fill="none" olab:comment=""/>
	<polyline points="494,1718 513,1718" style="stroke: black;stroke-width: 14;stroke-linecap:butt;stroke-linejoin:round" fill="none" olab:comment=""/>
	<polyline points="494,1513 513,1513" style="stroke: black;stroke-width: 14;stroke-linecap:butt;stroke-linejoin:round" fill="none" olab:comment=""/>
	<polyline points="494,1101 513,1101" style="stroke: black;stroke-width: 14;stroke-linecap:butt;stroke-linejoin:round" fill="none" olab:comment=""/>
	<polyline points="494,895 513,895" style="stroke: black;stroke-width: 14;stroke-linecap:butt;stroke-linejoin:round" fill="none" olab:comment=""/>
	<polyline points="494,689 513,689" style="stroke: black;stroke-width: 14;stroke-linecap:butt;stroke-linejoin:round" fill="none" olab:comment=""/>
	<polyline points="494,278 513,278" style="stroke: black;stroke-width: 14;stroke-linecap:butt;stroke-linejoin:round" fill="none" olab:comment=""/>
	<polyline points="494,72 513,72" style="stroke: black;stroke-width: 14;stroke-linecap:butt;stroke-linejoin:round" fill="none" olab:comment=""/>
	<polyline points="494,2130 532,2130" style="stroke: black;stroke-width: 14;stroke-linecap:butt;stroke-linejoin:round" fill="none" olab:comment=""/>
	<polyline points="494,1307 532,1307" style="stroke: black;stroke-width: 14;stroke-linecap:butt;stroke-linejoin:round" fill="none" olab:comment=""/>
	<polyline points="494,484 532,484" style="stroke: black;stroke-width: 14;stroke-linecap:butt;stroke-linejoin:round" fill="none" olab:comment=""/>
	<polyline points="3303,2130 3303,72" style="stroke: black;stroke-width: 14;stroke-linecap:square;stroke-linejoin:round" fill="none" olab:comment=""/>
	<polyline points="3303,1924 3284,1924" style="stroke: black;stroke-width: 14;stroke-linecap:butt;stroke-linejoin:round" fill="none" olab:comment=""/>
	<polyline points="3303,1718 3284,1718" style="stroke: black;stroke-width: 14;stroke-linecap:butt;stroke-linejoin:round" fill="none" olab:comment=""/>
	<polyline points="3303,1513 3284,1513" style="stroke: black;stroke-width: 14;stroke-linecap:butt;stroke-linejoin:round" fill="none" olab:comment=""/>
	<polyline points="3303,1101 3284,1101" style="stroke: black;stroke-width: 14;stroke-linecap:butt;stroke-linejoin:round" fill="none" olab:comment=""/>
	<polyline points="3303,895 3284,895" style="stroke: black;stroke-width: 14;stroke-linecap:butt;stroke-linejoin:round" fill="none" olab:comment=""/>
	<polyline points="3303,689 3284,689" style="stroke: black;stroke-width: 14;stroke-linecap:butt;stroke-linejoin:round" fill="none" olab:comment=""/>
	<polyline points="3303,278 3284,278" style="stroke: black;stroke-width: 14;stroke-linecap:butt;stroke-linejoin:round" fill="none" olab:comment=""/>
	<polyline points="3303,72 3284,72" style="stroke: black;stroke-width: 14;stroke-linecap:butt;stroke-linejoin:round" fill="none" olab:comment=""/>
	<polyline points="3303,2130 3265,2130" style="stroke: black;stroke-width: 14;stroke-linecap:butt;stroke-linejoin:round" fill="none" olab:comment=""/>
	<polyline points="3303,1307 3265,1307" style="stroke: black;stroke-width: 14;stroke-linecap:butt;stroke-linejoin:round" fill="none" olab:comment=""/>
	<polyline points="3303,484 3265,484" style="stroke: black;stroke-width: 14;stroke-linecap:butt;stroke-linejoin:round" fill="none" olab:comment=""/>
	<text x="1661" dominant-baseline="auto" y="2275" fill="black" font-family="Times New Roman,'MS PGothic',SimSun" font-size="137" font-weight="400" olab:comment="">
		<tspan x="1661" style="font-kerning:none">60</tspan>
	</text>
	<text x="2975" dominant-baseline="auto" y="2275" fill="black" font-family="Times New Roman,'MS PGothic',SimSun" font-size="137" font-weight="400" olab:comment="">
		<tspan x="2975" style="font-kerning:none">120</tspan>
	</text>
	<text x="281" dominant-baseline="auto" y="2170" fill="black" font-family="Times New Roman,'MS PGothic',SimSun" font-size="137" font-weight="400" olab:comment="">
		<tspan x="281" style="font-kerning:none">0.0</tspan>
	</text>
	<text x="281" dominant-baseline="auto" y="1347" fill="black" font-family="Times New Roman,'MS PGothic',SimSun" font-size="137" font-weight="400" olab:comment="">
		<tspan x="281" style="font-kerning:none">0.2</tspan>
	</text>
	<text x="281" dominant-baseline="auto" y="524" fill="black" font-family="Times New Roman,'MS PGothic',SimSun" font-size="137" font-weight="400" olab:comment="">
		<tspan x="281" style="font-kerning:none">0.4</tspan>
	</text>
	<text x="0" dominant-baseline="auto" y="0" fill="black" font-family="Arial,'MS PGothic',SimSun" font-size="137" font-weight="400" transform="matrix(-1.83697e-16 -1 0.999999 -1.83697e-16 231 1295)" olab:comment="">
		<tspan x="0" style="font-kerning:none">BIO15</tspan>
	</text>
</svg>

