<?xml version="1.0" encoding="UTF-8"?>
<!DOCTYPE svg PUBLIC "-//W3C//DTD SVG 1.1//EN" "http://www.w3.org/Graphics/SVG/1.1/DTD/svg11.dtd">
<!--Generated by Origin-->
<svg xmlns="http://www.w3.org/2000/svg" xmlns:xlink="http://www.w3.org/1999/xlink" xmlns:olab="http://www.originlab.com/namespaces/olab" viewBox="96,66 3214,2250" width="10.720000in" height="7.500000in">
	<defs>
		<mask id="Cp_1">
			<rect x="494" y="72" width="2810" height="2059" fill="white"/>
		</mask>
	</defs>
	<g mask="url(#Cp_1)">
		<rect x="96" y="66" width="3214" height="2250" visibility="hidden" fill="none" opacity="0"/>
		<path d="M 561,1858 L 561,1858 588,1858 615,1858 643,1858 670,1858 697,1858 724,1858 751,1858 779,1858 806,1857 833,1855 860,1841 887,1836 915,1831 942,1797 969,1691 996,1597 1023,1566 1051,1512 1078,1500 1105,1465 1132,1406 1159,1393 1187,1376 1214,1374 1241,1365 1268,1361 1295,1347 1323,1330 1350,1320 1377,1319 1404,1318 1431,1316 1459,1317 1486,1318 1513,1317 1540,1309 1567,1298 1595,1297 1622,1301 1649,1301 1676,1291 1703,1263 1731,1261 1758,1259 1785,1223 1812,1211 1839,1211 1867,1211 1894,1189 1921,1189 1948,1187 1975,1187 2003,1187 2030,1187 2057,1187 2084,1187 2111,1187 2139,1187 2166,1187 2193,1187 2220,1187 2247,1187 2275,1187 2302,1187 2329,1187 2356,1187 2383,1187 2411,1187 2438,1187 2465,1187 2492,1187 2519,1187 2547,1187 2574,1187 2601,1187 2628,1187 2655,1187 2683,1187 2710,1187 2737,1187 2764,1187 2791,1187 2819,1187 2846,1187 2873,1187 2900,1187 2927,1187 2955,1187 2982,1187 3009,1187 3036,1187 3063,1187 3091,1187 3118,1187 3145,1187 3172,1187 3199,1187 3227,1187 3254,1187 3254,1858 Z M 561,1858 L 561,1595 588,1595 615,1595 643,1595 670,1595 697,1595 724,1595 751,1595 779,1595 806,1594 833,1594 860,1578 887,1573 915,1566 942,1529 969,1331 996,1196 1023,1152 1051,1081 1078,1074 1105,1047 1132,1024 1159,1014 1187,977 1214,976 1241,970 1268,964 1295,940 1323,927 1350,909 1377,909 1404,907 1431,905 1459,906 1486,906 1513,898 1540,888 1567,884 1595,877 1622,873 1649,873 1676,870 1703,842 1731,840 1758,839 1785,819 1812,811 1839,811 1867,808 1894,799 1921,799 1948,798 1975,794 2003,794 2030,794 2057,794 2084,794 2111,794 2139,794 2166,794 2193,794 2220,794 2247,794 2275,794 2302,794 2329,794 2356,794 2383,794 2411,794 2438,794 2465,794 2492,794 2519,794 2547,794 2574,794 2601,794 2628,794 2655,794 2683,794 2710,794 2737,794 2764,794 2791,794 2819,794 2846,794 2873,794 2900,794 2927,794 2955,794 2982,794 3009,794 3036,794 3063,794 3091,794 3118,794 3145,794 3172,794 3199,794 3227,794 3254,794 3254,1858 Z" fill="#FDC1C1" fill-rule="evenodd" stroke="none" olab:comment=""/>
		<polyline points="561,1858 588,1858 615,1858 643,1858 670,1858 697,1858 724,1858 751,1858 779,1858 806,1857 833,1855 860,1841 887,1836 915,1831 942,1797 969,1691 996,1597 1023,1566 1051,1512 1078,1500 1105,1465 1132,1406 1159,1393 1187,1376 1214,1374 1241,1365 1268,1361 1295,1347 1323,1330 1350,1320 1377,1319 1404,1318 1431,1316 1459,1317 1486,1318 1513,1317 1540,1309 1567,1298 1595,1297 1622,1301 1649,1301 1676,1291 1703,1263 1731,1261 1758,1259 1785,1223 1812,1211 1839,1211 1867,1211 1894,1189 1921,1189 1948,1187 1975,1187 2003,1187 2030,1187 2057,1187 2084,1187 2111,1187 2139,1187 2166,1187 2193,1187 2220,1187 2247,1187 2275,1187 2302,1187 2329,1187 2356,1187 2383,1187 2411,1187 2438,1187 2465,1187 2492,1187 2519,1187 2547,1187 2574,1187 2601,1187 2628,1187 2655,1187 2683,1187 2710,1187 2737,1187 2764,1187 2791,1187 2819,1187 2846,1187 2873,1187 2900,1187 2927,1187 2955,1187 2982,1187 3009,1187 3036,1187 3063,1187 3091,1187 3118,1187 3145,1187 3172,1187 3199,1187 3227,1187 3254,1187" style="stroke: #FDC1C1;stroke-width: 2;stroke-linecap:round;stroke-linejoin:round" fill="none" olab:comment=""/>
		<polyline points="561,1727 588,1727 615,1727 643,1727 670,1727 697,1727 724,1727 751,1727 779,1727 806,1726 833,1725 860,1710 887,1705 915,1698 942,1663 969,1511 996,1397 1023,1359 1051,1297 1078,1287 1105,1256 1132,1215 1159,1203 1187,1176 1214,1175 1241,1168 1268,1163 1295,1144 1323,1129 1350,1114 1377,1114 1404,1113 1431,1111 1459,1111 1486,1112 1513,1108 1540,1098 1567,1091 1595,1087 1622,1087 1649,1087 1676,1080 1703,1053 1731,1051 1758,1049 1785,1021 1812,1011 1839,1011 1867,1009 1894,994 1921,994 1948,992 1975,990 2003,990 2030,990 2057,990 2084,990 2111,990 2139,990 2166,990 2193,990 2220,990 2247,990 2275,990 2302,990 2329,990 2356,990 2383,990 2411,990 2438,990 2465,990 2492,990 2519,990 2547,990 2574,990 2601,990 2628,990 2655,990 2683,990 2710,990 2737,990 2764,990 2791,990 2819,990 2846,990 2873,990 2900,990 2927,990 2955,990 2982,990 3009,990 3036,990 3063,990 3091,990 3118,990 3145,990 3172,990 3199,990 3227,990 3254,990" style="stroke: #F14040;stroke-width: 14;stroke-linecap:round;stroke-linejoin:round" fill="none" olab:comment=""/>
		<polyline points="561,1595 588,1595 615,1595 643,1595 670,1595 697,1595 724,1595 751,1595 779,1595 806,1594 833,1594 860,1578 887,1573 915,1566 942,1529 969,1331 996,1196 1023,1152 1051,1081 1078,1074 1105,1047 1132,1024 1159,1014 1187,977 1214,976 1241,970 1268,964 1295,940 1323,927 1350,909 1377,909 1404,907 1431,905 1459,906 1486,906 1513,898 1540,888 1567,884 1595,877 1622,873 1649,873 1676,870 1703,842 1731,840 1758,839 1785,819 1812,811 1839,811 1867,808 1894,799 1921,799 1948,798 1975,794 2003,794 2030,794 2057,794 2084,794 2111,794 2139,794 2166,794 2193,794 2220,794 2247,794 2275,794 2302,794 2329,794 2356,794 2383,794 2411,794 2438,794 2465,794 2492,794 2519,794 2547,794 2574,794 2601,794 2628,794 2655,794 2683,794 2710,794 2737,794 2764,794 2791,794 2819,794 2846,794 2873,794 2900,794 2927,794 2955,794 2982,794 3009,794 3036,794 3063,794 3091,794 3118,794 3145,794 3172,794 3199,794 3227,794 3254,794" style="stroke: #FDC1C1;stroke-width: 2;stroke-linecap:round;stroke-linejoin:round" fill="none" olab:comment=""/>
	</g>
	<polyline points="494,2130 3303,2130" style="stroke: black;stroke-width: 14;stroke-linecap:square;stroke-linejoin:round" fill="none" olab:comment=""/>
	<polyline points="1009,2130 1009,2111" style="stroke: black;stroke-width: 14;stroke-linecap:butt;stroke-linejoin:round" fill="none" olab:comment=""/>
	<polyline points="1945,2130 1945,2111" style="stroke: black;stroke-width: 14;stroke-linecap:butt;stroke-linejoin:round" fill="none" olab:comment=""/>
	<polyline points="2882,2130 2882,2111" style="stroke: black;stroke-width: 14;stroke-linecap:butt;stroke-linejoin:round" fill="none" olab:comment=""/>
	<polyline points="541,2130 541,2092" style="stroke: black;stroke-width: 14;stroke-linecap:butt;stroke-linejoin:round" fill="none" olab:comment=""/>
	<polyline points="1477,2130 1477,2092" style="stroke: black;stroke-width: 14;stroke-linecap:butt;stroke-linejoin:round" fill="none" olab:comment=""/>
	<polyline points="2413,2130 2413,2092" style="stroke: black;stroke-width: 14;stroke-linecap:butt;stroke-linejoin:round" fill="none" olab:comment=""/>
	<polyline points="494,72 3303,72" style="stroke: black;stroke-width: 14;stroke-linecap:square;stroke-linejoin:round" fill="none" olab:comment=""/>
	<polyline points="1009,72 1009,91" style="stroke: black;stroke-width: 14;stroke-linecap:butt;stroke-linejoin:round" fill="none" olab:comment=""/>
	<polyline points="1945,72 1945,91" style="stroke: black;stroke-width: 14;stroke-linecap:butt;stroke-linejoin:round" fill="none" olab:comment=""/>
	<polyline points="2882,72 2882,91" style="stroke: black;stroke-width: 14;stroke-linecap:butt;stroke-linejoin:round" fill="none" olab:comment=""/>
	<polyline points="541,72 541,110" style="stroke: black;stroke-width: 14;stroke-linecap:butt;stroke-linejoin:round" fill="none" olab:comment=""/>
	<polyline points="1477,72 1477,110" style="stroke: black;stroke-width: 14;stroke-linecap:butt;stroke-linejoin:round" fill="none" olab:comment=""/>
	<polyline points="2413,72 2413,110" style="stroke: black;stroke-width: 14;stroke-linecap:butt;stroke-linejoin:round" fill="none" olab:comment=""/>
	<polyline points="494,2130 494,72" style="stroke: black;stroke-width: 14;stroke-linecap:square;stroke-linejoin:round" fill="none" olab:comment=""/>
	<polyline points="494,1924 513,1924" style="stroke: black;stroke-width: 14;stroke-linecap:butt;stroke-linejoin:round" fill="none" olab:comment=""/>
	<polyline points="494,1718 513,1718" style="stroke: black;stroke-width: 14;stroke-linecap:butt;stroke-linejoin:round" fill="none" olab:comment=""/>
	<polyline points="494,1513 513,1513" style="stroke: black;stroke-width: 14;stroke-linecap:butt;stroke-linejoin:round" fill="none" olab:comment=""/>
	<polyline points="494,1101 513,1101" style="stroke: black;stroke-width: 14;stroke-linecap:butt;stroke-linejoin:round" fill="none" olab:comment=""/>
	<polyline points="494,895 513,895" style="stroke: black;stroke-width: 14;stroke-linecap:butt;stroke-linejoin:round" fill="none" olab:comment=""/>
	<polyline points="494,689 513,689" style="stroke: black;stroke-width: 14;stroke-linecap:butt;stroke-linejoin:round" fill="none" olab:comment=""/>
	<polyline points="494,278 513,278" style="stroke: black;stroke-width: 14;stroke-linecap:butt;stroke-linejoin:round" fill="none" olab:comment=""/>
	<polyline points="494,72 513,72" style="stroke: black;stroke-width: 14;stroke-linecap:butt;stroke-linejoin:round" fill="none" olab:comment=""/>
	<polyline points="494,2130 532,2130" style="stroke: black;stroke-width: 14;stroke-linecap:butt;stroke-linejoin:round" fill="none" olab:comment=""/>
	<polyline points="494,1307 532,1307" style="stroke: black;stroke-width: 14;stroke-linecap:butt;stroke-linejoin:round" fill="none" olab:comment=""/>
	<polyline points="494,484 532,484" style="stroke: black;stroke-width: 14;stroke-linecap:butt;stroke-linejoin:round" fill="none" olab:comment=""/>
	<polyline points="3303,2130 3303,72" style="stroke: black;stroke-width: 14;stroke-linecap:square;stroke-linejoin:round" fill="none" olab:comment=""/>
	<polyline points="3303,1924 3284,1924" style="stroke: black;stroke-width: 14;stroke-linecap:butt;stroke-linejoin:round" fill="none" olab:comment=""/>
	<polyline points="3303,1718 3284,1718" style="stroke: black;stroke-width: 14;stroke-linecap:butt;stroke-linejoin:round" fill="none" olab:comment=""/>
	<polyline points="3303,1513 3284,1513" style="stroke: black;stroke-width: 14;stroke-linecap:butt;stroke-linejoin:round" fill="none" olab:comment=""/>
	<polyline points="3303,1101 3284,1101" style="stroke: black;stroke-width: 14;stroke-linecap:butt;stroke-linejoin:round" fill="none" olab:comment=""/>
	<polyline points="3303,895 3284,895" style="stroke: black;stroke-width: 14;stroke-linecap:butt;stroke-linejoin:round" fill="none" olab:comment=""/>
	<polyline points="3303,689 3284,689" style="stroke: black;stroke-width: 14;stroke-linecap:butt;stroke-linejoin:round" fill="none" olab:comment=""/>
	<polyline points="3303,278 3284,278" style="stroke: black;stroke-width: 14;stroke-linecap:butt;stroke-linejoin:round" fill="none" olab:comment=""/>
	<polyline points="3303,72 3284,72" style="stroke: black;stroke-width: 14;stroke-linecap:butt;stroke-linejoin:round" fill="none" olab:comment=""/>
	<polyline points="3303,2130 3265,2130" style="stroke: black;stroke-width: 14;stroke-linecap:butt;stroke-linejoin:round" fill="none" olab:comment=""/>
	<polyline points="3303,1307 3265,1307" style="stroke: black;stroke-width: 14;stroke-linecap:butt;stroke-linejoin:round" fill="none" olab:comment=""/>
	<polyline points="3303,484 3265,484" style="stroke: black;stroke-width: 14;stroke-linecap:butt;stroke-linejoin:round" fill="none" olab:comment=""/>
	<text x="507" dominant-baseline="auto" y="2275" fill="black" font-family="Times New Roman,'MS PGothic',SimSun" font-size="137" font-weight="400" olab:comment="">
		<tspan x="507" style="font-kerning:none">0</tspan>
	</text>
	<text x="1339" dominant-baseline="auto" y="2275" fill="black" font-family="Times New Roman,'MS PGothic',SimSun" font-size="137" font-weight="400" olab:comment="">
		<tspan x="1339" style="font-kerning:none">2000</tspan>
	</text>
	<text x="2275" dominant-baseline="auto" y="2275" fill="black" font-family="Times New Roman,'MS PGothic',SimSun" font-size="137" font-weight="400" olab:comment="">
		<tspan x="2275" style="font-kerning:none">4000</tspan>
	</text>
	<text x="281" dominant-baseline="auto" y="2170" fill="black" font-family="Times New Roman,'MS PGothic',SimSun" font-size="137" font-weight="400" olab:comment="">
		<tspan x="281" style="font-kerning:none">0.0</tspan>
	</text>
	<text x="281" dominant-baseline="auto" y="1347" fill="black" font-family="Times New Roman,'MS PGothic',SimSun" font-size="137" font-weight="400" olab:comment="">
		<tspan x="281" style="font-kerning:none">0.2</tspan>
	</text>
	<text x="281" dominant-baseline="auto" y="524" fill="black" font-family="Times New Roman,'MS PGothic',SimSun" font-size="137" font-weight="400" olab:comment="">
		<tspan x="281" style="font-kerning:none">0.4</tspan>
	</text>
	<text x="0" dominant-baseline="auto" y="0" fill="black" font-family="Arial,'MS PGothic',SimSun" font-size="137" font-weight="400" transform="matrix(-1.83697e-16 -1 0.999999 -1.83697e-16 231 1295)" olab:comment="">
		<tspan x="0" style="font-kerning:none">BIO12</tspan>
	</text>
</svg>

