<?xml version="1.0" encoding="UTF-8"?>
<!DOCTYPE svg PUBLIC "-//W3C//DTD SVG 1.1//EN" "http://www.w3.org/Graphics/SVG/1.1/DTD/svg11.dtd">
<!--Generated by Origin-->
<svg xmlns="http://www.w3.org/2000/svg" xmlns:xlink="http://www.w3.org/1999/xlink" xmlns:olab="http://www.originlab.com/namespaces/olab" viewBox="96,66 3214,2250" width="10.720000in" height="7.500000in">
	<defs>
		<mask id="Cp_1">
			<rect x="494" y="72" width="2810" height="2059" fill="white"/>
		</mask>
	</defs>
	<g mask="url(#Cp_1)">
		<rect x="96" y="66" width="3214" height="2250" visibility="hidden" fill="none" opacity="0"/>
		<path d="M 650,1706 L 650,1515 675,1515 699,1515 724,1515 748,1515 773,1515 798,1515 822,1515 847,1515 871,1515 896,1515 920,1515 945,1515 970,1514 994,1514 1019,1514 1043,1514 1068,1514 1093,1514 1117,1514 1142,1514 1166,1514 1191,1501 1215,1498 1240,1494 1265,1495 1289,1494 1314,1491 1338,1487 1363,1487 1388,1484 1412,1485 1437,1484 1461,1484 1486,1482 1510,1482 1535,1481 1560,1485 1584,1484 1609,1490 1633,1490 1658,1495 1683,1493 1707,1488 1732,1487 1756,1487 1781,1491 1805,1488 1830,1482 1855,1478 1879,1474 1904,1472 1928,1465 1953,1464 1978,1468 2002,1469 2027,1467 2051,1471 2076,1466 2100,1458 2125,1451 2150,1448 2174,1463 2199,1485 2223,1507 2248,1509 2273,1552 2297,1581 2322,1669 2346,1693 2371,1696 2395,1700 2420,1704 2445,1705 2469,1705 2494,1705 2518,1705 2543,1706 2567,1705 2592,1705 2617,1705 2641,1705 2666,1705 2690,1705 2715,1705 2740,1705 2764,1705 2789,1705 2813,1705 2838,1705 2862,1705 2887,1705 2912,1705 2936,1705 2961,1705 2985,1705 3010,1705 3035,1705 3059,1705 3084,1705 3084,1706 Z M 650,1706 L 650,1098 675,1098 699,1098 724,1098 748,1098 773,1098 798,1098 822,1098 847,1098 871,1098 896,1098 920,1098 945,1098 970,1098 994,1097 1019,1097 1043,1097 1068,1097 1093,1097 1117,1097 1142,1097 1166,1097 1191,1092 1215,1085 1240,1083 1265,1083 1289,1080 1314,1095 1338,1096 1363,1087 1388,1086 1412,1089 1437,1085 1461,1080 1486,1075 1510,1075 1535,1071 1560,1065 1584,1064 1609,1074 1633,1072 1658,1069 1683,1068 1707,1070 1732,1065 1756,1062 1781,1059 1805,1060 1830,1062 1855,1057 1879,1054 1904,1049 1928,1048 1953,1046 1978,1049 2002,1045 2027,1043 2051,1043 2076,1041 2100,1036 2125,1027 2150,1027 2174,1051 2199,1110 2223,1127 2248,1132 2273,1172 2297,1198 2322,1340 2346,1385 2371,1387 2395,1392 2420,1396 2445,1398 2469,1398 2494,1398 2518,1398 2543,1400 2567,1401 2592,1401 2617,1401 2641,1401 2666,1401 2690,1401 2715,1401 2740,1401 2764,1401 2789,1401 2813,1401 2838,1401 2862,1401 2887,1401 2912,1401 2936,1401 2961,1401 2985,1401 3010,1401 3035,1401 3059,1401 3084,1401 3084,1706 Z" fill="#FDC1C1" fill-rule="evenodd" stroke="none" olab:comment=""/>
		<polyline points="650,1515 675,1515 699,1515 724,1515 748,1515 773,1515 798,1515 822,1515 847,1515 871,1515 896,1515 920,1515 945,1515 970,1514 994,1514 1019,1514 1043,1514 1068,1514 1093,1514 1117,1514 1142,1514 1166,1514 1191,1501 1215,1498 1240,1494 1265,1495 1289,1494 1314,1491 1338,1487 1363,1487 1388,1484 1412,1485 1437,1484 1461,1484 1486,1482 1510,1482 1535,1481 1560,1485 1584,1484 1609,1490 1633,1490 1658,1495 1683,1493 1707,1488 1732,1487 1756,1487 1781,1491 1805,1488 1830,1482 1855,1478 1879,1474 1904,1472 1928,1465 1953,1464 1978,1468 2002,1469 2027,1467 2051,1471 2076,1466 2100,1458 2125,1451 2150,1448 2174,1463 2199,1485 2223,1507 2248,1509 2273,1552 2297,1581 2322,1669 2346,1693 2371,1696 2395,1700 2420,1704 2445,1705 2469,1705 2494,1705 2518,1705 2543,1706 2567,1705 2592,1705 2617,1705 2641,1705 2666,1705 2690,1705 2715,1705 2740,1705 2764,1705 2789,1705 2813,1705 2838,1705 2862,1705 2887,1705 2912,1705 2936,1705 2961,1705 2985,1705 3010,1705 3035,1705 3059,1705 3084,1705" style="stroke: #FDC1C1;stroke-width: 2;stroke-linecap:round;stroke-linejoin:round" fill="none" olab:comment=""/>
		<polyline points="650,1306 675,1306 699,1306 724,1306 748,1306 773,1306 798,1306 822,1306 847,1306 871,1306 896,1306 920,1306 945,1306 970,1306 994,1305 1019,1305 1043,1305 1068,1305 1093,1305 1117,1305 1142,1305 1166,1305 1191,1297 1215,1291 1240,1288 1265,1289 1289,1287 1314,1293 1338,1291 1363,1287 1388,1285 1412,1287 1437,1284 1461,1282 1486,1279 1510,1279 1535,1276 1560,1275 1584,1274 1609,1282 1633,1281 1658,1282 1683,1281 1707,1279 1732,1276 1756,1274 1781,1275 1805,1274 1830,1272 1855,1267 1879,1264 1904,1260 1928,1256 1953,1255 1978,1258 2002,1257 2027,1255 2051,1257 2076,1253 2100,1247 2125,1239 2150,1237 2174,1257 2199,1298 2223,1317 2248,1321 2273,1362 2297,1390 2322,1505 2346,1539 2371,1541 2395,1546 2420,1550 2445,1552 2469,1552 2494,1552 2518,1552 2543,1553 2567,1553 2592,1553 2617,1553 2641,1553 2666,1553 2690,1553 2715,1553 2740,1553 2764,1553 2789,1553 2813,1553 2838,1553 2862,1553 2887,1553 2912,1553 2936,1553 2961,1553 2985,1553 3010,1553 3035,1553 3059,1553 3084,1553" style="stroke: #F14040;stroke-width: 14;stroke-linecap:round;stroke-linejoin:round" fill="none" olab:comment=""/>
		<polyline points="650,1098 675,1098 699,1098 724,1098 748,1098 773,1098 798,1098 822,1098 847,1098 871,1098 896,1098 920,1098 945,1098 970,1098 994,1097 1019,1097 1043,1097 1068,1097 1093,1097 1117,1097 1142,1097 1166,1097 1191,1092 1215,1085 1240,1083 1265,1083 1289,1080 1314,1095 1338,1096 1363,1087 1388,1086 1412,1089 1437,1085 1461,1080 1486,1075 1510,1075 1535,1071 1560,1065 1584,1064 1609,1074 1633,1072 1658,1069 1683,1068 1707,1070 1732,1065 1756,1062 1781,1059 1805,1060 1830,1062 1855,1057 1879,1054 1904,1049 1928,1048 1953,1046 1978,1049 2002,1045 2027,1043 2051,1043 2076,1041 2100,1036 2125,1027 2150,1027 2174,1051 2199,1110 2223,1127 2248,1132 2273,1172 2297,1198 2322,1340 2346,1385 2371,1387 2395,1392 2420,1396 2445,1398 2469,1398 2494,1398 2518,1398 2543,1400 2567,1401 2592,1401 2617,1401 2641,1401 2666,1401 2690,1401 2715,1401 2740,1401 2764,1401 2789,1401 2813,1401 2838,1401 2862,1401 2887,1401 2912,1401 2936,1401 2961,1401 2985,1401 3010,1401 3035,1401 3059,1401 3084,1401" style="stroke: #FDC1C1;stroke-width: 2;stroke-linecap:round;stroke-linejoin:round" fill="none" olab:comment=""/>
	</g>
	<polyline points="494,2130 3303,2130" style="stroke: black;stroke-width: 14;stroke-linecap:square;stroke-linejoin:round" fill="none" olab:comment=""/>
	<polyline points="650,2130 650,2111" style="stroke: black;stroke-width: 14;stroke-linecap:butt;stroke-linejoin:round" fill="none" olab:comment=""/>
	<polyline points="806,2130 806,2111" style="stroke: black;stroke-width: 14;stroke-linecap:butt;stroke-linejoin:round" fill="none" olab:comment=""/>
	<polyline points="962,2130 962,2111" style="stroke: black;stroke-width: 14;stroke-linecap:butt;stroke-linejoin:round" fill="none" olab:comment=""/>
	<polyline points="1118,2130 1118,2111" style="stroke: black;stroke-width: 14;stroke-linecap:butt;stroke-linejoin:round" fill="none" olab:comment=""/>
	<polyline points="1430,2130 1430,2111" style="stroke: black;stroke-width: 14;stroke-linecap:butt;stroke-linejoin:round" fill="none" olab:comment=""/>
	<polyline points="1586,2130 1586,2111" style="stroke: black;stroke-width: 14;stroke-linecap:butt;stroke-linejoin:round" fill="none" olab:comment=""/>
	<polyline points="1742,2130 1742,2111" style="stroke: black;stroke-width: 14;stroke-linecap:butt;stroke-linejoin:round" fill="none" olab:comment=""/>
	<polyline points="1899,2130 1899,2111" style="stroke: black;stroke-width: 14;stroke-linecap:butt;stroke-linejoin:round" fill="none" olab:comment=""/>
	<polyline points="2211,2130 2211,2111" style="stroke: black;stroke-width: 14;stroke-linecap:butt;stroke-linejoin:round" fill="none" olab:comment=""/>
	<polyline points="2367,2130 2367,2111" style="stroke: black;stroke-width: 14;stroke-linecap:butt;stroke-linejoin:round" fill="none" olab:comment=""/>
	<polyline points="2523,2130 2523,2111" style="stroke: black;stroke-width: 14;stroke-linecap:butt;stroke-linejoin:round" fill="none" olab:comment=""/>
	<polyline points="2679,2130 2679,2111" style="stroke: black;stroke-width: 14;stroke-linecap:butt;stroke-linejoin:round" fill="none" olab:comment=""/>
	<polyline points="2991,2130 2991,2111" style="stroke: black;stroke-width: 14;stroke-linecap:butt;stroke-linejoin:round" fill="none" olab:comment=""/>
	<polyline points="3147,2130 3147,2111" style="stroke: black;stroke-width: 14;stroke-linecap:butt;stroke-linejoin:round" fill="none" olab:comment=""/>
	<polyline points="3303,2130 3303,2111" style="stroke: black;stroke-width: 14;stroke-linecap:butt;stroke-linejoin:round" fill="none" olab:comment=""/>
	<polyline points="494,2130 494,2092" style="stroke: black;stroke-width: 14;stroke-linecap:butt;stroke-linejoin:round" fill="none" olab:comment=""/>
	<polyline points="1274,2130 1274,2092" style="stroke: black;stroke-width: 14;stroke-linecap:butt;stroke-linejoin:round" fill="none" olab:comment=""/>
	<polyline points="2055,2130 2055,2092" style="stroke: black;stroke-width: 14;stroke-linecap:butt;stroke-linejoin:round" fill="none" olab:comment=""/>
	<polyline points="2835,2130 2835,2092" style="stroke: black;stroke-width: 14;stroke-linecap:butt;stroke-linejoin:round" fill="none" olab:comment=""/>
	<polyline points="494,72 3303,72" style="stroke: black;stroke-width: 14;stroke-linecap:square;stroke-linejoin:round" fill="none" olab:comment=""/>
	<polyline points="650,72 650,91" style="stroke: black;stroke-width: 14;stroke-linecap:butt;stroke-linejoin:round" fill="none" olab:comment=""/>
	<polyline points="806,72 806,91" style="stroke: black;stroke-width: 14;stroke-linecap:butt;stroke-linejoin:round" fill="none" olab:comment=""/>
	<polyline points="962,72 962,91" style="stroke: black;stroke-width: 14;stroke-linecap:butt;stroke-linejoin:round" fill="none" olab:comment=""/>
	<polyline points="1118,72 1118,91" style="stroke: black;stroke-width: 14;stroke-linecap:butt;stroke-linejoin:round" fill="none" olab:comment=""/>
	<polyline points="1430,72 1430,91" style="stroke: black;stroke-width: 14;stroke-linecap:butt;stroke-linejoin:round" fill="none" olab:comment=""/>
	<polyline points="1586,72 1586,91" style="stroke: black;stroke-width: 14;stroke-linecap:butt;stroke-linejoin:round" fill="none" olab:comment=""/>
	<polyline points="1742,72 1742,91" style="stroke: black;stroke-width: 14;stroke-linecap:butt;stroke-linejoin:round" fill="none" olab:comment=""/>
	<polyline points="1899,72 1899,91" style="stroke: black;stroke-width: 14;stroke-linecap:butt;stroke-linejoin:round" fill="none" olab:comment=""/>
	<polyline points="2211,72 2211,91" style="stroke: black;stroke-width: 14;stroke-linecap:butt;stroke-linejoin:round" fill="none" olab:comment=""/>
	<polyline points="2367,72 2367,91" style="stroke: black;stroke-width: 14;stroke-linecap:butt;stroke-linejoin:round" fill="none" olab:comment=""/>
	<polyline points="2523,72 2523,91" style="stroke: black;stroke-width: 14;stroke-linecap:butt;stroke-linejoin:round" fill="none" olab:comment=""/>
	<polyline points="2679,72 2679,91" style="stroke: black;stroke-width: 14;stroke-linecap:butt;stroke-linejoin:round" fill="none" olab:comment=""/>
	<polyline points="2991,72 2991,91" style="stroke: black;stroke-width: 14;stroke-linecap:butt;stroke-linejoin:round" fill="none" olab:comment=""/>
	<polyline points="3147,72 3147,91" style="stroke: black;stroke-width: 14;stroke-linecap:butt;stroke-linejoin:round" fill="none" olab:comment=""/>
	<polyline points="3303,72 3303,91" style="stroke: black;stroke-width: 14;stroke-linecap:butt;stroke-linejoin:round" fill="none" olab:comment=""/>
	<polyline points="494,72 494,110" style="stroke: black;stroke-width: 14;stroke-linecap:butt;stroke-linejoin:round" fill="none" olab:comment=""/>
	<polyline points="1274,72 1274,110" style="stroke: black;stroke-width: 14;stroke-linecap:butt;stroke-linejoin:round" fill="none" olab:comment=""/>
	<polyline points="2055,72 2055,110" style="stroke: black;stroke-width: 14;stroke-linecap:butt;stroke-linejoin:round" fill="none" olab:comment=""/>
	<polyline points="2835,72 2835,110" style="stroke: black;stroke-width: 14;stroke-linecap:butt;stroke-linejoin:round" fill="none" olab:comment=""/>
	<polyline points="494,2130 494,72" style="stroke: black;stroke-width: 14;stroke-linecap:square;stroke-linejoin:round" fill="none" olab:comment=""/>
	<polyline points="494,1924 513,1924" style="stroke: black;stroke-width: 14;stroke-linecap:butt;stroke-linejoin:round" fill="none" olab:comment=""/>
	<polyline points="494,1718 513,1718" style="stroke: black;stroke-width: 14;stroke-linecap:butt;stroke-linejoin:round" fill="none" olab:comment=""/>
	<polyline points="494,1513 513,1513" style="stroke: black;stroke-width: 14;stroke-linecap:butt;stroke-linejoin:round" fill="none" olab:comment=""/>
	<polyline points="494,1101 513,1101" style="stroke: black;stroke-width: 14;stroke-linecap:butt;stroke-linejoin:round" fill="none" olab:comment=""/>
	<polyline points="494,895 513,895" style="stroke: black;stroke-width: 14;stroke-linecap:butt;stroke-linejoin:round" fill="none" olab:comment=""/>
	<polyline points="494,689 513,689" style="stroke: black;stroke-width: 14;stroke-linecap:butt;stroke-linejoin:round" fill="none" olab:comment=""/>
	<polyline points="494,278 513,278" style="stroke: black;stroke-width: 14;stroke-linecap:butt;stroke-linejoin:round" fill="none" olab:comment=""/>
	<polyline points="494,72 513,72" style="stroke: black;stroke-width: 14;stroke-linecap:butt;stroke-linejoin:round" fill="none" olab:comment=""/>
	<polyline points="494,2130 532,2130" style="stroke: black;stroke-width: 14;stroke-linecap:butt;stroke-linejoin:round" fill="none" olab:comment=""/>
	<polyline points="494,1307 532,1307" style="stroke: black;stroke-width: 14;stroke-linecap:butt;stroke-linejoin:round" fill="none" olab:comment=""/>
	<polyline points="494,484 532,484" style="stroke: black;stroke-width: 14;stroke-linecap:butt;stroke-linejoin:round" fill="none" olab:comment=""/>
	<polyline points="3303,2130 3303,72" style="stroke: black;stroke-width: 14;stroke-linecap:square;stroke-linejoin:round" fill="none" olab:comment=""/>
	<polyline points="3303,1924 3284,1924" style="stroke: black;stroke-width: 14;stroke-linecap:butt;stroke-linejoin:round" fill="none" olab:comment=""/>
	<polyline points="3303,1718 3284,1718" style="stroke: black;stroke-width: 14;stroke-linecap:butt;stroke-linejoin:round" fill="none" olab:comment=""/>
	<polyline points="3303,1513 3284,1513" style="stroke: black;stroke-width: 14;stroke-linecap:butt;stroke-linejoin:round" fill="none" olab:comment=""/>
	<polyline points="3303,1101 3284,1101" style="stroke: black;stroke-width: 14;stroke-linecap:butt;stroke-linejoin:round" fill="none" olab:comment=""/>
	<polyline points="3303,895 3284,895" style="stroke: black;stroke-width: 14;stroke-linecap:butt;stroke-linejoin:round" fill="none" olab:comment=""/>
	<polyline points="3303,689 3284,689" style="stroke: black;stroke-width: 14;stroke-linecap:butt;stroke-linejoin:round" fill="none" olab:comment=""/>
	<polyline points="3303,278 3284,278" style="stroke: black;stroke-width: 14;stroke-linecap:butt;stroke-linejoin:round" fill="none" olab:comment=""/>
	<polyline points="3303,72 3284,72" style="stroke: black;stroke-width: 14;stroke-linecap:butt;stroke-linejoin:round" fill="none" olab:comment=""/>
	<polyline points="3303,2130 3265,2130" style="stroke: black;stroke-width: 14;stroke-linecap:butt;stroke-linejoin:round" fill="none" olab:comment=""/>
	<polyline points="3303,1307 3265,1307" style="stroke: black;stroke-width: 14;stroke-linecap:butt;stroke-linejoin:round" fill="none" olab:comment=""/>
	<polyline points="3303,484 3265,484" style="stroke: black;stroke-width: 14;stroke-linecap:butt;stroke-linejoin:round" fill="none" olab:comment=""/>
	<text x="460" dominant-baseline="auto" y="2275" fill="black" font-family="Times New Roman,'MS PGothic',SimSun" font-size="137" font-weight="400" olab:comment="">
		<tspan x="460" style="font-kerning:none">0</tspan>
	</text>
	<text x="1240" dominant-baseline="auto" y="2275" fill="black" font-family="Times New Roman,'MS PGothic',SimSun" font-size="137" font-weight="400" olab:comment="">
		<tspan x="1240" style="font-kerning:none">5</tspan>
	</text>
	<text x="1986" dominant-baseline="auto" y="2275" fill="black" font-family="Times New Roman,'MS PGothic',SimSun" font-size="137" font-weight="400" olab:comment="">
		<tspan x="1986" style="font-kerning:none">10</tspan>
	</text>
	<text x="2766" dominant-baseline="auto" y="2275" fill="black" font-family="Times New Roman,'MS PGothic',SimSun" font-size="137" font-weight="400" olab:comment="">
		<tspan x="2766" style="font-kerning:none">15</tspan>
	</text>
	<text x="281" dominant-baseline="auto" y="2170" fill="black" font-family="Times New Roman,'MS PGothic',SimSun" font-size="137" font-weight="400" olab:comment="">
		<tspan x="281" style="font-kerning:none">0.0</tspan>
	</text>
	<text x="281" dominant-baseline="auto" y="1347" fill="black" font-family="Times New Roman,'MS PGothic',SimSun" font-size="137" font-weight="400" olab:comment="">
		<tspan x="281" style="font-kerning:none">0.2</tspan>
	</text>
	<text x="281" dominant-baseline="auto" y="524" fill="black" font-family="Times New Roman,'MS PGothic',SimSun" font-size="137" font-weight="400" olab:comment="">
		<tspan x="281" style="font-kerning:none">0.4</tspan>
	</text>
	<text x="0" dominant-baseline="auto" y="0" fill="black" font-family="Arial,'MS PGothic',SimSun" font-size="137" font-weight="400" transform="matrix(-1.83697e-16 -1 0.999999 -1.83697e-16 231 1257)" olab:comment="">
		<tspan x="0" style="font-kerning:none">BIO2</tspan>
	</text>
</svg>

