<?xml version="1.0" encoding="UTF-8"?>
<!DOCTYPE svg PUBLIC "-//W3C//DTD SVG 1.1//EN" "http://www.w3.org/Graphics/SVG/1.1/DTD/svg11.dtd">
<!--Generated by Origin-->
<svg xmlns="http://www.w3.org/2000/svg" xmlns:xlink="http://www.w3.org/1999/xlink" xmlns:olab="http://www.originlab.com/namespaces/olab" viewBox="96,66 3215,2250" width="10.720000in" height="7.500000in">
	<defs>
		<mask id="Cp_1">
			<rect x="494" y="72" width="2811" height="2059" fill="white"/>
		</mask>
	</defs>
	<g mask="url(#Cp_1)">
		<rect x="96" y="66" width="3215" height="2250" visibility="hidden" fill="none" opacity="0"/>
		<path d="M 522,1924 L 522,1924 549,1924 575,1924 602,1924 629,1924 655,1924 682,1924 708,1924 735,1924 762,1924 788,1924 815,1924 841,1924 868,1924 895,1924 921,1924 948,1924 974,1924 1001,1924 1028,1924 1054,1924 1081,1924 1108,1924 1134,1923 1161,1921 1187,1911 1214,1900 1241,1879 1267,1864 1294,1807 1320,1731 1347,1633 1374,1575 1400,1342 1427,1003 1453,883 1480,859 1507,836 1533,824 1560,802 1586,784 1613,768 1640,767 1666,767 1693,767 1719,767 1746,767 1773,767 1799,767 1826,767 1852,767 1879,767 1906,767 1932,767 1959,767 1985,767 2012,767 2039,767 2065,767 2092,767 2119,767 2145,767 2172,767 2198,767 2225,767 2252,767 2278,767 2305,767 2331,767 2358,767 2385,767 2411,767 2438,769 2464,769 2491,769 2518,769 2544,769 2571,769 2597,769 2624,769 2651,769 2677,769 2704,769 2730,769 2757,769 2784,769 2810,769 2837,769 2863,769 2890,769 2917,769 2943,769 2970,769 2996,769 3023,769 3050,793 3076,807 3103,807 3130,807 3156,807 3156,1924 Z M 522,1924 L 522,1809 549,1809 575,1809 602,1809 629,1809 655,1809 682,1809 708,1809 735,1809 762,1809 788,1809 815,1809 841,1809 868,1809 895,1809 921,1809 948,1809 974,1809 1001,1809 1028,1809 1054,1809 1081,1809 1108,1809 1134,1806 1161,1800 1187,1785 1214,1765 1241,1728 1267,1702 1294,1597 1320,1497 1347,1290 1374,1223 1400,1002 1427,787 1453,685 1480,669 1507,652 1533,638 1560,616 1586,606 1613,596 1640,595 1666,595 1693,595 1719,595 1746,595 1773,595 1799,595 1826,595 1852,595 1879,595 1906,595 1932,595 1959,595 1985,595 2012,595 2039,595 2065,595 2092,595 2119,595 2145,595 2172,595 2198,595 2225,595 2252,595 2278,595 2305,595 2331,595 2358,595 2385,595 2411,596 2438,597 2464,597 2491,597 2518,597 2544,597 2571,597 2597,597 2624,597 2651,597 2677,597 2704,597 2730,597 2757,597 2784,597 2810,597 2837,597 2863,597 2890,597 2917,597 2943,597 2970,597 2996,597 3023,597 3050,613 3076,631 3103,631 3130,631 3156,631 3156,1924 Z" fill="#FDC1C1" fill-rule="evenodd" stroke="none" olab:comment=""/>
		<polyline points="522,1924 549,1924 575,1924 602,1924 629,1924 655,1924 682,1924 708,1924 735,1924 762,1924 788,1924 815,1924 841,1924 868,1924 895,1924 921,1924 948,1924 974,1924 1001,1924 1028,1924 1054,1924 1081,1924 1108,1924 1134,1923 1161,1921 1187,1911 1214,1900 1241,1879 1267,1864 1294,1807 1320,1731 1347,1633 1374,1575 1400,1342 1427,1003 1453,883 1480,859 1507,836 1533,824 1560,802 1586,784 1613,768 1640,767 1666,767 1693,767 1719,767 1746,767 1773,767 1799,767 1826,767 1852,767 1879,767 1906,767 1932,767 1959,767 1985,767 2012,767 2039,767 2065,767 2092,767 2119,767 2145,767 2172,767 2198,767 2225,767 2252,767 2278,767 2305,767 2331,767 2358,767 2385,767 2411,767 2438,769 2464,769 2491,769 2518,769 2544,769 2571,769 2597,769 2624,769 2651,769 2677,769 2704,769 2730,769 2757,769 2784,769 2810,769 2837,769 2863,769 2890,769 2917,769 2943,769 2970,769 2996,769 3023,769 3050,793 3076,807 3103,807 3130,807 3156,807" style="stroke: #FDC1C1;stroke-width: 2;stroke-linecap:round;stroke-linejoin:round" fill="none" olab:comment=""/>
		<polyline points="522,1867 549,1867 575,1867 602,1867 629,1867 655,1867 682,1867 708,1867 735,1867 762,1867 788,1867 815,1867 841,1867 868,1867 895,1867 921,1867 948,1867 974,1867 1001,1867 1028,1867 1054,1867 1081,1867 1108,1867 1134,1865 1161,1860 1187,1848 1214,1832 1241,1804 1267,1783 1294,1702 1320,1614 1347,1462 1374,1399 1400,1172 1427,895 1453,784 1480,764 1507,744 1533,731 1560,709 1586,695 1613,682 1640,681 1666,681 1693,681 1719,681 1746,681 1773,681 1799,681 1826,681 1852,681 1879,681 1906,681 1932,681 1959,681 1985,681 2012,681 2039,681 2065,681 2092,681 2119,681 2145,681 2172,681 2198,681 2225,681 2252,681 2278,681 2305,681 2331,681 2358,681 2385,681 2411,682 2438,683 2464,683 2491,683 2518,683 2544,683 2571,683 2597,683 2624,683 2651,683 2677,683 2704,683 2730,683 2757,683 2784,683 2810,683 2837,683 2863,683 2890,683 2917,683 2943,683 2970,683 2996,683 3023,683 3050,703 3076,719 3103,719 3130,719 3156,719" style="stroke: #F14040;stroke-width: 14;stroke-linecap:round;stroke-linejoin:round" fill="none" olab:comment=""/>
		<polyline points="522,1809 549,1809 575,1809 602,1809 629,1809 655,1809 682,1809 708,1809 735,1809 762,1809 788,1809 815,1809 841,1809 868,1809 895,1809 921,1809 948,1809 974,1809 1001,1809 1028,1809 1054,1809 1081,1809 1108,1809 1134,1806 1161,1800 1187,1785 1214,1765 1241,1728 1267,1702 1294,1597 1320,1497 1347,1290 1374,1223 1400,1002 1427,787 1453,685 1480,669 1507,652 1533,638 1560,616 1586,606 1613,596 1640,595 1666,595 1693,595 1719,595 1746,595 1773,595 1799,595 1826,595 1852,595 1879,595 1906,595 1932,595 1959,595 1985,595 2012,595 2039,595 2065,595 2092,595 2119,595 2145,595 2172,595 2198,595 2225,595 2252,595 2278,595 2305,595 2331,595 2358,595 2385,595 2411,596 2438,597 2464,597 2491,597 2518,597 2544,597 2571,597 2597,597 2624,597 2651,597 2677,597 2704,597 2730,597 2757,597 2784,597 2810,597 2837,597 2863,597 2890,597 2917,597 2943,597 2970,597 2996,597 3023,597 3050,613 3076,631 3103,631 3130,631 3156,631" style="stroke: #FDC1C1;stroke-width: 2;stroke-linecap:round;stroke-linejoin:round" fill="none" olab:comment=""/>
	</g>
	<polyline points="494,2130 3304,2130" style="stroke: black;stroke-width: 14;stroke-linecap:square;stroke-linejoin:round" fill="none" olab:comment=""/>
	<polyline points="494,2130 494,2111" style="stroke: black;stroke-width: 14;stroke-linecap:butt;stroke-linejoin:round" fill="none" olab:comment=""/>
	<polyline points="790,2130 790,2111" style="stroke: black;stroke-width: 14;stroke-linecap:butt;stroke-linejoin:round" fill="none" olab:comment=""/>
	<polyline points="1381,2130 1381,2111" style="stroke: black;stroke-width: 14;stroke-linecap:butt;stroke-linejoin:round" fill="none" olab:comment=""/>
	<polyline points="1677,2130 1677,2111" style="stroke: black;stroke-width: 14;stroke-linecap:butt;stroke-linejoin:round" fill="none" olab:comment=""/>
	<polyline points="2269,2130 2269,2111" style="stroke: black;stroke-width: 14;stroke-linecap:butt;stroke-linejoin:round" fill="none" olab:comment=""/>
	<polyline points="2565,2130 2565,2111" style="stroke: black;stroke-width: 14;stroke-linecap:butt;stroke-linejoin:round" fill="none" olab:comment=""/>
	<polyline points="3156,2130 3156,2111" style="stroke: black;stroke-width: 14;stroke-linecap:butt;stroke-linejoin:round" fill="none" olab:comment=""/>
	<polyline points="1086,2130 1086,2092" style="stroke: black;stroke-width: 14;stroke-linecap:butt;stroke-linejoin:round" fill="none" olab:comment=""/>
	<polyline points="1973,2130 1973,2092" style="stroke: black;stroke-width: 14;stroke-linecap:butt;stroke-linejoin:round" fill="none" olab:comment=""/>
	<polyline points="2860,2130 2860,2092" style="stroke: black;stroke-width: 14;stroke-linecap:butt;stroke-linejoin:round" fill="none" olab:comment=""/>
	<polyline points="494,72 3304,72" style="stroke: black;stroke-width: 14;stroke-linecap:square;stroke-linejoin:round" fill="none" olab:comment=""/>
	<polyline points="494,72 494,91" style="stroke: black;stroke-width: 14;stroke-linecap:butt;stroke-linejoin:round" fill="none" olab:comment=""/>
	<polyline points="790,72 790,91" style="stroke: black;stroke-width: 14;stroke-linecap:butt;stroke-linejoin:round" fill="none" olab:comment=""/>
	<polyline points="1381,72 1381,91" style="stroke: black;stroke-width: 14;stroke-linecap:butt;stroke-linejoin:round" fill="none" olab:comment=""/>
	<polyline points="1677,72 1677,91" style="stroke: black;stroke-width: 14;stroke-linecap:butt;stroke-linejoin:round" fill="none" olab:comment=""/>
	<polyline points="2269,72 2269,91" style="stroke: black;stroke-width: 14;stroke-linecap:butt;stroke-linejoin:round" fill="none" olab:comment=""/>
	<polyline points="2565,72 2565,91" style="stroke: black;stroke-width: 14;stroke-linecap:butt;stroke-linejoin:round" fill="none" olab:comment=""/>
	<polyline points="3156,72 3156,91" style="stroke: black;stroke-width: 14;stroke-linecap:butt;stroke-linejoin:round" fill="none" olab:comment=""/>
	<polyline points="1086,72 1086,110" style="stroke: black;stroke-width: 14;stroke-linecap:butt;stroke-linejoin:round" fill="none" olab:comment=""/>
	<polyline points="1973,72 1973,110" style="stroke: black;stroke-width: 14;stroke-linecap:butt;stroke-linejoin:round" fill="none" olab:comment=""/>
	<polyline points="2860,72 2860,110" style="stroke: black;stroke-width: 14;stroke-linecap:butt;stroke-linejoin:round" fill="none" olab:comment=""/>
	<polyline points="494,2130 494,72" style="stroke: black;stroke-width: 14;stroke-linecap:square;stroke-linejoin:round" fill="none" olab:comment=""/>
	<polyline points="494,1924 513,1924" style="stroke: black;stroke-width: 14;stroke-linecap:butt;stroke-linejoin:round" fill="none" olab:comment=""/>
	<polyline points="494,1718 513,1718" style="stroke: black;stroke-width: 14;stroke-linecap:butt;stroke-linejoin:round" fill="none" olab:comment=""/>
	<polyline points="494,1307 513,1307" style="stroke: black;stroke-width: 14;stroke-linecap:butt;stroke-linejoin:round" fill="none" olab:comment=""/>
	<polyline points="494,1101 513,1101" style="stroke: black;stroke-width: 14;stroke-linecap:butt;stroke-linejoin:round" fill="none" olab:comment=""/>
	<polyline points="494,689 513,689" style="stroke: black;stroke-width: 14;stroke-linecap:butt;stroke-linejoin:round" fill="none" olab:comment=""/>
	<polyline points="494,484 513,484" style="stroke: black;stroke-width: 14;stroke-linecap:butt;stroke-linejoin:round" fill="none" olab:comment=""/>
	<polyline points="494,72 513,72" style="stroke: black;stroke-width: 14;stroke-linecap:butt;stroke-linejoin:round" fill="none" olab:comment=""/>
	<polyline points="494,2130 532,2130" style="stroke: black;stroke-width: 14;stroke-linecap:butt;stroke-linejoin:round" fill="none" olab:comment=""/>
	<polyline points="494,1513 532,1513" style="stroke: black;stroke-width: 14;stroke-linecap:butt;stroke-linejoin:round" fill="none" olab:comment=""/>
	<polyline points="494,895 532,895" style="stroke: black;stroke-width: 14;stroke-linecap:butt;stroke-linejoin:round" fill="none" olab:comment=""/>
	<polyline points="494,278 532,278" style="stroke: black;stroke-width: 14;stroke-linecap:butt;stroke-linejoin:round" fill="none" olab:comment=""/>
	<polyline points="3304,2130 3304,72" style="stroke: black;stroke-width: 14;stroke-linecap:square;stroke-linejoin:round" fill="none" olab:comment=""/>
	<polyline points="3304,1924 3285,1924" style="stroke: black;stroke-width: 14;stroke-linecap:butt;stroke-linejoin:round" fill="none" olab:comment=""/>
	<polyline points="3304,1718 3285,1718" style="stroke: black;stroke-width: 14;stroke-linecap:butt;stroke-linejoin:round" fill="none" olab:comment=""/>
	<polyline points="3304,1307 3285,1307" style="stroke: black;stroke-width: 14;stroke-linecap:butt;stroke-linejoin:round" fill="none" olab:comment=""/>
	<polyline points="3304,1101 3285,1101" style="stroke: black;stroke-width: 14;stroke-linecap:butt;stroke-linejoin:round" fill="none" olab:comment=""/>
	<polyline points="3304,689 3285,689" style="stroke: black;stroke-width: 14;stroke-linecap:butt;stroke-linejoin:round" fill="none" olab:comment=""/>
	<polyline points="3304,484 3285,484" style="stroke: black;stroke-width: 14;stroke-linecap:butt;stroke-linejoin:round" fill="none" olab:comment=""/>
	<polyline points="3304,72 3285,72" style="stroke: black;stroke-width: 14;stroke-linecap:butt;stroke-linejoin:round" fill="none" olab:comment=""/>
	<polyline points="3304,2130 3266,2130" style="stroke: black;stroke-width: 14;stroke-linecap:butt;stroke-linejoin:round" fill="none" olab:comment=""/>
	<polyline points="3304,1513 3266,1513" style="stroke: black;stroke-width: 14;stroke-linecap:butt;stroke-linejoin:round" fill="none" olab:comment=""/>
	<polyline points="3304,895 3266,895" style="stroke: black;stroke-width: 14;stroke-linecap:butt;stroke-linejoin:round" fill="none" olab:comment=""/>
	<polyline points="3304,278 3266,278" style="stroke: black;stroke-width: 14;stroke-linecap:butt;stroke-linejoin:round" fill="none" olab:comment=""/>
	<text x="1017" dominant-baseline="auto" y="2275" fill="black" font-family="Times New Roman,'MS PGothic',SimSun" font-size="137" font-weight="400" olab:comment="">
		<tspan x="1017" style="font-kerning:none">30</tspan>
	</text>
	<text x="1904" dominant-baseline="auto" y="2275" fill="black" font-family="Times New Roman,'MS PGothic',SimSun" font-size="137" font-weight="400" olab:comment="">
		<tspan x="1904" style="font-kerning:none">60</tspan>
	</text>
	<text x="2791" dominant-baseline="auto" y="2275" fill="black" font-family="Times New Roman,'MS PGothic',SimSun" font-size="137" font-weight="400" olab:comment="">
		<tspan x="2791" style="font-kerning:none">90</tspan>
	</text>
	<text x="281" dominant-baseline="auto" y="2170" fill="black" font-family="Times New Roman,'MS PGothic',SimSun" font-size="137" font-weight="400" olab:comment="">
		<tspan x="281" style="font-kerning:none">0.0</tspan>
	</text>
	<text x="281" dominant-baseline="auto" y="1553" fill="black" font-family="Times New Roman,'MS PGothic',SimSun" font-size="137" font-weight="400" olab:comment="">
		<tspan x="281" style="font-kerning:none">0.3</tspan>
	</text>
	<text x="281" dominant-baseline="auto" y="935" fill="black" font-family="Times New Roman,'MS PGothic',SimSun" font-size="137" font-weight="400" olab:comment="">
		<tspan x="281" style="font-kerning:none">0.6</tspan>
	</text>
	<text x="281" dominant-baseline="auto" y="318" fill="black" font-family="Times New Roman,'MS PGothic',SimSun" font-size="137" font-weight="400" olab:comment="">
		<tspan x="281" style="font-kerning:none">0.9</tspan>
	</text>
	<text x="0" dominant-baseline="auto" y="0" fill="black" font-family="Arial,'MS PGothic',SimSun" font-size="137" font-weight="400" transform="matrix(-1.83697e-16 -1 0.999999 -1.83697e-16 231 1257)" olab:comment="">
		<tspan x="0" style="font-kerning:none">BIO3</tspan>
	</text>
</svg>

