<?xml version="1.0" encoding="UTF-8"?>
<!DOCTYPE svg PUBLIC "-//W3C//DTD SVG 1.1//EN" "http://www.w3.org/Graphics/SVG/1.1/DTD/svg11.dtd">
<!--Generated by Origin-->
<svg xmlns="http://www.w3.org/2000/svg" xmlns:xlink="http://www.w3.org/1999/xlink" xmlns:olab="http://www.originlab.com/namespaces/olab" viewBox="96,66 3214,2250" width="10.720000in" height="7.500000in">
	<defs>
		<mask id="Cp_1">
			<rect x="494" y="72" width="2810" height="2059" fill="white"/>
		</mask>
	</defs>
	<g mask="url(#Cp_1)">
		<rect x="96" y="66" width="3214" height="2250" visibility="hidden" fill="none" opacity="0"/>
		<path d="M 602,1804 L 602,606 628,572 653,572 679,572 705,572 730,572 756,572 782,572 807,569 833,569 859,569 884,569 910,570 936,570 962,576 987,589 1013,645 1039,672 1064,935 1090,1351 1116,1530 1141,1623 1167,1712 1193,1742 1218,1753 1244,1756 1270,1760 1295,1767 1321,1778 1347,1783 1372,1789 1398,1792 1424,1793 1449,1796 1475,1797 1501,1800 1526,1802 1552,1803 1578,1804 1603,1803 1629,1803 1655,1803 1680,1804 1706,1804 1732,1804 1757,1804 1783,1804 1809,1804 1835,1804 1860,1804 1886,1804 1912,1804 1937,1804 1963,1804 1989,1804 2014,1804 2040,1804 2066,1804 2091,1804 2117,1804 2143,1804 2168,1804 2194,1804 2220,1804 2245,1804 2271,1804 2297,1804 2322,1804 2348,1804 2374,1804 2399,1804 2425,1804 2451,1804 2476,1804 2502,1804 2528,1804 2553,1804 2579,1804 2605,1804 2630,1804 2656,1804 2682,1804 2708,1804 2733,1804 2759,1804 2785,1804 2810,1804 2836,1804 2862,1804 2887,1804 2913,1804 2939,1804 2964,1804 2990,1804 3016,1804 3041,1804 3067,1804 3093,1804 3118,1804 3144,1804 3144,1804 Z M 602,1804 L 602,365 628,324 653,324 679,324 705,324 730,324 756,323 782,323 807,320 833,320 859,320 884,320 910,320 936,320 962,321 987,337 1013,361 1039,386 1064,562 1090,991 1116,1212 1141,1367 1167,1469 1193,1517 1218,1531 1244,1541 1270,1543 1295,1549 1321,1563 1347,1568 1372,1576 1398,1578 1424,1581 1449,1587 1475,1588 1501,1590 1526,1592 1552,1594 1578,1594 1603,1595 1629,1595 1655,1595 1680,1595 1706,1595 1732,1595 1757,1595 1783,1595 1809,1595 1835,1595 1860,1595 1886,1595 1912,1595 1937,1595 1963,1595 1989,1595 2014,1595 2040,1595 2066,1595 2091,1595 2117,1595 2143,1595 2168,1595 2194,1595 2220,1595 2245,1595 2271,1595 2297,1595 2322,1595 2348,1595 2374,1595 2399,1595 2425,1595 2451,1595 2476,1595 2502,1595 2528,1595 2553,1595 2579,1595 2605,1595 2630,1595 2656,1595 2682,1595 2708,1595 2733,1595 2759,1595 2785,1595 2810,1595 2836,1595 2862,1595 2887,1595 2913,1595 2939,1595 2964,1595 2990,1595 3016,1595 3041,1595 3067,1595 3093,1595 3118,1595 3144,1595 3144,1804 Z" fill="#FDC1C1" fill-rule="evenodd" stroke="none" olab:comment=""/>
		<polyline points="602,606 628,572 653,572 679,572 705,572 730,572 756,572 782,572 807,569 833,569 859,569 884,569 910,570 936,570 962,576 987,589 1013,645 1039,672 1064,935 1090,1351 1116,1530 1141,1623 1167,1712 1193,1742 1218,1753 1244,1756 1270,1760 1295,1767 1321,1778 1347,1783 1372,1789 1398,1792 1424,1793 1449,1796 1475,1797 1501,1800 1526,1802 1552,1803 1578,1804 1603,1803 1629,1803 1655,1803 1680,1804 1706,1804 1732,1804 1757,1804 1783,1804 1809,1804 1835,1804 1860,1804 1886,1804 1912,1804 1937,1804 1963,1804 1989,1804 2014,1804 2040,1804 2066,1804 2091,1804 2117,1804 2143,1804 2168,1804 2194,1804 2220,1804 2245,1804 2271,1804 2297,1804 2322,1804 2348,1804 2374,1804 2399,1804 2425,1804 2451,1804 2476,1804 2502,1804 2528,1804 2553,1804 2579,1804 2605,1804 2630,1804 2656,1804 2682,1804 2708,1804 2733,1804 2759,1804 2785,1804 2810,1804 2836,1804 2862,1804 2887,1804 2913,1804 2939,1804 2964,1804 2990,1804 3016,1804 3041,1804 3067,1804 3093,1804 3118,1804 3144,1804" style="stroke: #FDC1C1;stroke-width: 14;stroke-linecap:round;stroke-linejoin:round" fill="none" olab:comment=""/>
		<polyline points="602,485 628,448 653,448 679,448 705,448 730,448 756,448 782,447 807,444 833,444 859,444 884,444 910,445 936,445 962,448 987,463 1013,503 1039,529 1064,749 1090,1171 1116,1371 1141,1495 1167,1591 1193,1629 1218,1642 1244,1648 1270,1652 1295,1658 1321,1671 1347,1676 1372,1682 1398,1685 1424,1687 1449,1691 1475,1693 1501,1695 1526,1697 1552,1699 1578,1699 1603,1699 1629,1699 1655,1699 1680,1699 1706,1699 1732,1699 1757,1699 1783,1699 1809,1699 1835,1699 1860,1699 1886,1699 1912,1699 1937,1699 1963,1699 1989,1699 2014,1699 2040,1699 2066,1699 2091,1699 2117,1699 2143,1699 2168,1699 2194,1699 2220,1699 2245,1699 2271,1699 2297,1699 2322,1699 2348,1699 2374,1699 2399,1699 2425,1699 2451,1699 2476,1699 2502,1699 2528,1699 2553,1699 2579,1699 2605,1699 2630,1699 2656,1699 2682,1699 2708,1699 2733,1699 2759,1699 2785,1699 2810,1699 2836,1699 2862,1699 2887,1699 2913,1699 2939,1699 2964,1699 2990,1699 3016,1699 3041,1699 3067,1699 3093,1699 3118,1699 3144,1699" style="stroke: #F14040;stroke-width: 14;stroke-linecap:round;stroke-linejoin:round" fill="none" olab:comment=""/>
		<polyline points="602,365 628,324 653,324 679,324 705,324 730,324 756,323 782,323 807,320 833,320 859,320 884,320 910,320 936,320 962,321 987,337 1013,361 1039,386 1064,562 1090,991 1116,1212 1141,1367 1167,1469 1193,1517 1218,1531 1244,1541 1270,1543 1295,1549 1321,1563 1347,1568 1372,1576 1398,1578 1424,1581 1449,1587 1475,1588 1501,1590 1526,1592 1552,1594 1578,1594 1603,1595 1629,1595 1655,1595 1680,1595 1706,1595 1732,1595 1757,1595 1783,1595 1809,1595 1835,1595 1860,1595 1886,1595 1912,1595 1937,1595 1963,1595 1989,1595 2014,1595 2040,1595 2066,1595 2091,1595 2117,1595 2143,1595 2168,1595 2194,1595 2220,1595 2245,1595 2271,1595 2297,1595 2322,1595 2348,1595 2374,1595 2399,1595 2425,1595 2451,1595 2476,1595 2502,1595 2528,1595 2553,1595 2579,1595 2605,1595 2630,1595 2656,1595 2682,1595 2708,1595 2733,1595 2759,1595 2785,1595 2810,1595 2836,1595 2862,1595 2887,1595 2913,1595 2939,1595 2964,1595 2990,1595 3016,1595 3041,1595 3067,1595 3093,1595 3118,1595 3144,1595" style="stroke: #FDC1C1;stroke-width: 14;stroke-linecap:round;stroke-linejoin:round" fill="none" olab:comment=""/>
	</g>
	<polyline points="494,2130 3303,2130" style="stroke: black;stroke-width: 14;stroke-linecap:square;stroke-linejoin:round" fill="none" olab:comment=""/>
	<polyline points="494,2130 494,2111" style="stroke: black;stroke-width: 14;stroke-linecap:butt;stroke-linejoin:round" fill="none" olab:comment=""/>
	<polyline points="710,2130 710,2111" style="stroke: black;stroke-width: 14;stroke-linecap:butt;stroke-linejoin:round" fill="none" olab:comment=""/>
	<polyline points="818,2130 818,2111" style="stroke: black;stroke-width: 14;stroke-linecap:butt;stroke-linejoin:round" fill="none" olab:comment=""/>
	<polyline points="926,2130 926,2111" style="stroke: black;stroke-width: 14;stroke-linecap:butt;stroke-linejoin:round" fill="none" olab:comment=""/>
	<polyline points="1034,2130 1034,2111" style="stroke: black;stroke-width: 14;stroke-linecap:butt;stroke-linejoin:round" fill="none" olab:comment=""/>
	<polyline points="1142,2130 1142,2111" style="stroke: black;stroke-width: 14;stroke-linecap:butt;stroke-linejoin:round" fill="none" olab:comment=""/>
	<polyline points="1250,2130 1250,2111" style="stroke: black;stroke-width: 14;stroke-linecap:butt;stroke-linejoin:round" fill="none" olab:comment=""/>
	<polyline points="1358,2130 1358,2111" style="stroke: black;stroke-width: 14;stroke-linecap:butt;stroke-linejoin:round" fill="none" olab:comment=""/>
	<polyline points="1466,2130 1466,2111" style="stroke: black;stroke-width: 14;stroke-linecap:butt;stroke-linejoin:round" fill="none" olab:comment=""/>
	<polyline points="1574,2130 1574,2111" style="stroke: black;stroke-width: 14;stroke-linecap:butt;stroke-linejoin:round" fill="none" olab:comment=""/>
	<polyline points="1790,2130 1790,2111" style="stroke: black;stroke-width: 14;stroke-linecap:butt;stroke-linejoin:round" fill="none" olab:comment=""/>
	<polyline points="1899,2130 1899,2111" style="stroke: black;stroke-width: 14;stroke-linecap:butt;stroke-linejoin:round" fill="none" olab:comment=""/>
	<polyline points="2007,2130 2007,2111" style="stroke: black;stroke-width: 14;stroke-linecap:butt;stroke-linejoin:round" fill="none" olab:comment=""/>
	<polyline points="2115,2130 2115,2111" style="stroke: black;stroke-width: 14;stroke-linecap:butt;stroke-linejoin:round" fill="none" olab:comment=""/>
	<polyline points="2223,2130 2223,2111" style="stroke: black;stroke-width: 14;stroke-linecap:butt;stroke-linejoin:round" fill="none" olab:comment=""/>
	<polyline points="2331,2130 2331,2111" style="stroke: black;stroke-width: 14;stroke-linecap:butt;stroke-linejoin:round" fill="none" olab:comment=""/>
	<polyline points="2439,2130 2439,2111" style="stroke: black;stroke-width: 14;stroke-linecap:butt;stroke-linejoin:round" fill="none" olab:comment=""/>
	<polyline points="2547,2130 2547,2111" style="stroke: black;stroke-width: 14;stroke-linecap:butt;stroke-linejoin:round" fill="none" olab:comment=""/>
	<polyline points="2655,2130 2655,2111" style="stroke: black;stroke-width: 14;stroke-linecap:butt;stroke-linejoin:round" fill="none" olab:comment=""/>
	<polyline points="2871,2130 2871,2111" style="stroke: black;stroke-width: 14;stroke-linecap:butt;stroke-linejoin:round" fill="none" olab:comment=""/>
	<polyline points="2979,2130 2979,2111" style="stroke: black;stroke-width: 14;stroke-linecap:butt;stroke-linejoin:round" fill="none" olab:comment=""/>
	<polyline points="3087,2130 3087,2111" style="stroke: black;stroke-width: 14;stroke-linecap:butt;stroke-linejoin:round" fill="none" olab:comment=""/>
	<polyline points="3195,2130 3195,2111" style="stroke: black;stroke-width: 14;stroke-linecap:butt;stroke-linejoin:round" fill="none" olab:comment=""/>
	<polyline points="3303,2130 3303,2111" style="stroke: black;stroke-width: 14;stroke-linecap:butt;stroke-linejoin:round" fill="none" olab:comment=""/>
	<polyline points="602,2130 602,2092" style="stroke: black;stroke-width: 14;stroke-linecap:butt;stroke-linejoin:round" fill="none" olab:comment=""/>
	<polyline points="1682,2130 1682,2092" style="stroke: black;stroke-width: 14;stroke-linecap:butt;stroke-linejoin:round" fill="none" olab:comment=""/>
	<polyline points="2763,2130 2763,2092" style="stroke: black;stroke-width: 14;stroke-linecap:butt;stroke-linejoin:round" fill="none" olab:comment=""/>
	<polyline points="494,72 3303,72" style="stroke: black;stroke-width: 14;stroke-linecap:square;stroke-linejoin:round" fill="none" olab:comment=""/>
	<polyline points="494,72 494,91" style="stroke: black;stroke-width: 14;stroke-linecap:butt;stroke-linejoin:round" fill="none" olab:comment=""/>
	<polyline points="710,72 710,91" style="stroke: black;stroke-width: 14;stroke-linecap:butt;stroke-linejoin:round" fill="none" olab:comment=""/>
	<polyline points="818,72 818,91" style="stroke: black;stroke-width: 14;stroke-linecap:butt;stroke-linejoin:round" fill="none" olab:comment=""/>
	<polyline points="926,72 926,91" style="stroke: black;stroke-width: 14;stroke-linecap:butt;stroke-linejoin:round" fill="none" olab:comment=""/>
	<polyline points="1034,72 1034,91" style="stroke: black;stroke-width: 14;stroke-linecap:butt;stroke-linejoin:round" fill="none" olab:comment=""/>
	<polyline points="1142,72 1142,91" style="stroke: black;stroke-width: 14;stroke-linecap:butt;stroke-linejoin:round" fill="none" olab:comment=""/>
	<polyline points="1250,72 1250,91" style="stroke: black;stroke-width: 14;stroke-linecap:butt;stroke-linejoin:round" fill="none" olab:comment=""/>
	<polyline points="1358,72 1358,91" style="stroke: black;stroke-width: 14;stroke-linecap:butt;stroke-linejoin:round" fill="none" olab:comment=""/>
	<polyline points="1466,72 1466,91" style="stroke: black;stroke-width: 14;stroke-linecap:butt;stroke-linejoin:round" fill="none" olab:comment=""/>
	<polyline points="1574,72 1574,91" style="stroke: black;stroke-width: 14;stroke-linecap:butt;stroke-linejoin:round" fill="none" olab:comment=""/>
	<polyline points="1790,72 1790,91" style="stroke: black;stroke-width: 14;stroke-linecap:butt;stroke-linejoin:round" fill="none" olab:comment=""/>
	<polyline points="1899,72 1899,91" style="stroke: black;stroke-width: 14;stroke-linecap:butt;stroke-linejoin:round" fill="none" olab:comment=""/>
	<polyline points="2007,72 2007,91" style="stroke: black;stroke-width: 14;stroke-linecap:butt;stroke-linejoin:round" fill="none" olab:comment=""/>
	<polyline points="2115,72 2115,91" style="stroke: black;stroke-width: 14;stroke-linecap:butt;stroke-linejoin:round" fill="none" olab:comment=""/>
	<polyline points="2223,72 2223,91" style="stroke: black;stroke-width: 14;stroke-linecap:butt;stroke-linejoin:round" fill="none" olab:comment=""/>
	<polyline points="2331,72 2331,91" style="stroke: black;stroke-width: 14;stroke-linecap:butt;stroke-linejoin:round" fill="none" olab:comment=""/>
	<polyline points="2439,72 2439,91" style="stroke: black;stroke-width: 14;stroke-linecap:butt;stroke-linejoin:round" fill="none" olab:comment=""/>
	<polyline points="2547,72 2547,91" style="stroke: black;stroke-width: 14;stroke-linecap:butt;stroke-linejoin:round" fill="none" olab:comment=""/>
	<polyline points="2655,72 2655,91" style="stroke: black;stroke-width: 14;stroke-linecap:butt;stroke-linejoin:round" fill="none" olab:comment=""/>
	<polyline points="2871,72 2871,91" style="stroke: black;stroke-width: 14;stroke-linecap:butt;stroke-linejoin:round" fill="none" olab:comment=""/>
	<polyline points="2979,72 2979,91" style="stroke: black;stroke-width: 14;stroke-linecap:butt;stroke-linejoin:round" fill="none" olab:comment=""/>
	<polyline points="3087,72 3087,91" style="stroke: black;stroke-width: 14;stroke-linecap:butt;stroke-linejoin:round" fill="none" olab:comment=""/>
	<polyline points="3195,72 3195,91" style="stroke: black;stroke-width: 14;stroke-linecap:butt;stroke-linejoin:round" fill="none" olab:comment=""/>
	<polyline points="3303,72 3303,91" style="stroke: black;stroke-width: 14;stroke-linecap:butt;stroke-linejoin:round" fill="none" olab:comment=""/>
	<polyline points="602,72 602,110" style="stroke: black;stroke-width: 14;stroke-linecap:butt;stroke-linejoin:round" fill="none" olab:comment=""/>
	<polyline points="1682,72 1682,110" style="stroke: black;stroke-width: 14;stroke-linecap:butt;stroke-linejoin:round" fill="none" olab:comment=""/>
	<polyline points="2763,72 2763,110" style="stroke: black;stroke-width: 14;stroke-linecap:butt;stroke-linejoin:round" fill="none" olab:comment=""/>
	<polyline points="494,2130 494,72" style="stroke: black;stroke-width: 14;stroke-linecap:square;stroke-linejoin:round" fill="none" olab:comment=""/>
	<polyline points="494,1924 513,1924" style="stroke: black;stroke-width: 14;stroke-linecap:butt;stroke-linejoin:round" fill="none" olab:comment=""/>
	<polyline points="494,1718 513,1718" style="stroke: black;stroke-width: 14;stroke-linecap:butt;stroke-linejoin:round" fill="none" olab:comment=""/>
	<polyline points="494,1307 513,1307" style="stroke: black;stroke-width: 14;stroke-linecap:butt;stroke-linejoin:round" fill="none" olab:comment=""/>
	<polyline points="494,1101 513,1101" style="stroke: black;stroke-width: 14;stroke-linecap:butt;stroke-linejoin:round" fill="none" olab:comment=""/>
	<polyline points="494,689 513,689" style="stroke: black;stroke-width: 14;stroke-linecap:butt;stroke-linejoin:round" fill="none" olab:comment=""/>
	<polyline points="494,484 513,484" style="stroke: black;stroke-width: 14;stroke-linecap:butt;stroke-linejoin:round" fill="none" olab:comment=""/>
	<polyline points="494,72 513,72" style="stroke: black;stroke-width: 14;stroke-linecap:butt;stroke-linejoin:round" fill="none" olab:comment=""/>
	<polyline points="494,2130 532,2130" style="stroke: black;stroke-width: 14;stroke-linecap:butt;stroke-linejoin:round" fill="none" olab:comment=""/>
	<polyline points="494,1513 532,1513" style="stroke: black;stroke-width: 14;stroke-linecap:butt;stroke-linejoin:round" fill="none" olab:comment=""/>
	<polyline points="494,895 532,895" style="stroke: black;stroke-width: 14;stroke-linecap:butt;stroke-linejoin:round" fill="none" olab:comment=""/>
	<polyline points="494,278 532,278" style="stroke: black;stroke-width: 14;stroke-linecap:butt;stroke-linejoin:round" fill="none" olab:comment=""/>
	<polyline points="3303,2130 3303,72" style="stroke: black;stroke-width: 14;stroke-linecap:square;stroke-linejoin:round" fill="none" olab:comment=""/>
	<polyline points="3303,1924 3284,1924" style="stroke: black;stroke-width: 14;stroke-linecap:butt;stroke-linejoin:round" fill="none" olab:comment=""/>
	<polyline points="3303,1718 3284,1718" style="stroke: black;stroke-width: 14;stroke-linecap:butt;stroke-linejoin:round" fill="none" olab:comment=""/>
	<polyline points="3303,1307 3284,1307" style="stroke: black;stroke-width: 14;stroke-linecap:butt;stroke-linejoin:round" fill="none" olab:comment=""/>
	<polyline points="3303,1101 3284,1101" style="stroke: black;stroke-width: 14;stroke-linecap:butt;stroke-linejoin:round" fill="none" olab:comment=""/>
	<polyline points="3303,689 3284,689" style="stroke: black;stroke-width: 14;stroke-linecap:butt;stroke-linejoin:round" fill="none" olab:comment=""/>
	<polyline points="3303,484 3284,484" style="stroke: black;stroke-width: 14;stroke-linecap:butt;stroke-linejoin:round" fill="none" olab:comment=""/>
	<polyline points="3303,72 3284,72" style="stroke: black;stroke-width: 14;stroke-linecap:butt;stroke-linejoin:round" fill="none" olab:comment=""/>
	<polyline points="3303,2130 3265,2130" style="stroke: black;stroke-width: 14;stroke-linecap:butt;stroke-linejoin:round" fill="none" olab:comment=""/>
	<polyline points="3303,1513 3265,1513" style="stroke: black;stroke-width: 14;stroke-linecap:butt;stroke-linejoin:round" fill="none" olab:comment=""/>
	<polyline points="3303,895 3265,895" style="stroke: black;stroke-width: 14;stroke-linecap:butt;stroke-linejoin:round" fill="none" olab:comment=""/>
	<polyline points="3303,278 3265,278" style="stroke: black;stroke-width: 14;stroke-linecap:butt;stroke-linejoin:round" fill="none" olab:comment=""/>
	<text x="568" dominant-baseline="auto" y="2275" fill="black" font-family="Times New Roman,'MS PGothic',SimSun" font-size="137" font-weight="400" olab:comment="">
		<tspan x="568" style="font-kerning:none">0</tspan>
	</text>
	<text x="1544" dominant-baseline="auto" y="2275" fill="black" font-family="Times New Roman,'MS PGothic',SimSun" font-size="137" font-weight="400" olab:comment="">
		<tspan x="1544" style="font-kerning:none">1000</tspan>
	</text>
	<text x="2625" dominant-baseline="auto" y="2275" fill="black" font-family="Times New Roman,'MS PGothic',SimSun" font-size="137" font-weight="400" olab:comment="">
		<tspan x="2625" style="font-kerning:none">2000</tspan>
	</text>
	<text x="281" dominant-baseline="auto" y="2170" fill="black" font-family="Times New Roman,'MS PGothic',SimSun" font-size="137" font-weight="400" olab:comment="">
		<tspan x="281" style="font-kerning:none">0.0</tspan>
	</text>
	<text x="281" dominant-baseline="auto" y="1553" fill="black" font-family="Times New Roman,'MS PGothic',SimSun" font-size="137" font-weight="400" olab:comment="">
		<tspan x="281" style="font-kerning:none">0.3</tspan>
	</text>
	<text x="281" dominant-baseline="auto" y="935" fill="black" font-family="Times New Roman,'MS PGothic',SimSun" font-size="137" font-weight="400" olab:comment="">
		<tspan x="281" style="font-kerning:none">0.6</tspan>
	</text>
	<text x="281" dominant-baseline="auto" y="318" fill="black" font-family="Times New Roman,'MS PGothic',SimSun" font-size="137" font-weight="400" olab:comment="">
		<tspan x="281" style="font-kerning:none">0.9</tspan>
	</text>
	<text x="0" dominant-baseline="auto" y="0" fill="black" font-family="Arial,'MS PGothic',SimSun" font-size="137" font-weight="400" transform="matrix(-1.83697e-16 -1 0.999999 -1.83697e-16 231 1257)" olab:comment="">
		<tspan x="0" style="font-kerning:none">BIO4</tspan>
	</text>
</svg>

