<?xml version="1.0" encoding="UTF-8"?>
<!DOCTYPE svg PUBLIC "-//W3C//DTD SVG 1.1//EN" "http://www.w3.org/Graphics/SVG/1.1/DTD/svg11.dtd">
<!--Generated by Origin-->
<svg xmlns="http://www.w3.org/2000/svg" xmlns:xlink="http://www.w3.org/1999/xlink" xmlns:olab="http://www.originlab.com/namespaces/olab" viewBox="96,66 3214,2250" width="10.720000in" height="7.500000in">
	<defs>
		<mask id="Cp_1">
			<rect x="494" y="72" width="2810" height="2059" fill="white"/>
		</mask>
	</defs>
	<g mask="url(#Cp_1)">
		<rect x="96" y="66" width="3214" height="2250" visibility="hidden" fill="none" opacity="0"/>
		<path d="M 574,1682 L 574,1682 601,1682 628,1682 654,1682 681,1682 708,1682 734,1682 761,1682 788,1682 814,1682 841,1682 868,1682 895,1682 921,1682 948,1682 975,1682 1001,1682 1028,1682 1055,1682 1082,1682 1108,1682 1135,1682 1162,1682 1188,1682 1215,1682 1242,1682 1269,1682 1295,1682 1322,1682 1349,1682 1375,1682 1402,1681 1429,1681 1455,1681 1482,1681 1509,1681 1536,1679 1562,1679 1589,1678 1616,1677 1642,1677 1669,1677 1696,1677 1723,1677 1749,1677 1776,1677 1803,1677 1829,1677 1856,1676 1883,1675 1909,1671 1936,1670 1963,1667 1990,1666 2016,1665 2043,1659 2070,1580 2096,1555 2123,1555 2150,1551 2177,1570 2203,1522 2230,1508 2257,1498 2283,1489 2310,1476 2337,1451 2363,1438 2390,1440 2417,1443 2444,1443 2470,1446 2497,1449 2524,1450 2550,1448 2577,1443 2604,1440 2631,1435 2657,1435 2684,1444 2711,1449 2737,1447 2764,1445 2791,1446 2818,1446 2844,1445 2871,1445 2898,1444 2924,1444 2951,1444 2978,1445 3004,1445 3031,1445 3058,1444 3085,1445 3111,1445 3138,1445 3165,1445 3191,1445 3218,1445 3218,1682 Z M 574,1682 L 574,1351 601,1351 628,1351 654,1351 681,1351 708,1351 734,1351 761,1351 788,1351 814,1351 841,1351 868,1351 895,1351 921,1351 948,1351 975,1351 1001,1351 1028,1351 1055,1351 1082,1351 1108,1351 1135,1351 1162,1351 1188,1351 1215,1351 1242,1351 1269,1351 1295,1351 1322,1351 1349,1351 1375,1351 1402,1350 1429,1350 1455,1349 1482,1349 1509,1349 1536,1346 1562,1346 1589,1345 1616,1343 1642,1342 1669,1342 1696,1342 1723,1342 1749,1342 1776,1342 1803,1342 1829,1341 1856,1341 1883,1339 1909,1336 1936,1327 1963,1326 1990,1315 2016,1293 2043,1288 2070,1227 2096,1201 2123,1182 2150,1183 2177,1170 2203,1123 2230,1097 2257,1092 2283,1080 2310,1064 2337,1033 2363,1021 2390,1021 2417,1022 2444,1029 2470,1032 2497,1038 2524,1036 2550,1030 2577,1011 2604,1011 2631,1020 2657,1027 2684,1034 2711,1038 2737,1036 2764,1035 2791,1036 2818,1037 2844,1037 2871,1037 2898,1038 2924,1038 2951,1038 2978,1038 3004,1038 3031,1038 3058,1038 3085,1038 3111,1038 3138,1038 3165,1038 3191,1038 3218,1038 3218,1682 Z" fill="#FDC1C1" fill-rule="evenodd" stroke="none" olab:comment=""/>
		<polyline points="574,1682 601,1682 628,1682 654,1682 681,1682 708,1682 734,1682 761,1682 788,1682 814,1682 841,1682 868,1682 895,1682 921,1682 948,1682 975,1682 1001,1682 1028,1682 1055,1682 1082,1682 1108,1682 1135,1682 1162,1682 1188,1682 1215,1682 1242,1682 1269,1682 1295,1682 1322,1682 1349,1682 1375,1682 1402,1681 1429,1681 1455,1681 1482,1681 1509,1681 1536,1679 1562,1679 1589,1678 1616,1677 1642,1677 1669,1677 1696,1677 1723,1677 1749,1677 1776,1677 1803,1677 1829,1677 1856,1676 1883,1675 1909,1671 1936,1670 1963,1667 1990,1666 2016,1665 2043,1659 2070,1580 2096,1555 2123,1555 2150,1551 2177,1570 2203,1522 2230,1508 2257,1498 2283,1489 2310,1476 2337,1451 2363,1438 2390,1440 2417,1443 2444,1443 2470,1446 2497,1449 2524,1450 2550,1448 2577,1443 2604,1440 2631,1435 2657,1435 2684,1444 2711,1449 2737,1447 2764,1445 2791,1446 2818,1446 2844,1445 2871,1445 2898,1444 2924,1444 2951,1444 2978,1445 3004,1445 3031,1445 3058,1444 3085,1445 3111,1445 3138,1445 3165,1445 3191,1445 3218,1445" style="stroke: #FDC1C1;stroke-width: 2;stroke-linecap:round;stroke-linejoin:round" fill="none" olab:comment=""/>
		<polyline points="574,1516 601,1516 628,1516 654,1516 681,1516 708,1516 734,1516 761,1516 788,1516 814,1516 841,1516 868,1516 895,1516 921,1516 948,1516 975,1516 1001,1516 1028,1516 1055,1516 1082,1516 1108,1516 1135,1516 1162,1516 1188,1516 1215,1516 1242,1516 1269,1516 1295,1516 1322,1516 1349,1516 1375,1516 1402,1516 1429,1516 1455,1515 1482,1515 1509,1515 1536,1513 1562,1513 1589,1512 1616,1510 1642,1510 1669,1510 1696,1510 1723,1510 1749,1510 1776,1510 1803,1510 1829,1509 1856,1508 1883,1507 1909,1504 1936,1499 1963,1497 1990,1490 2016,1479 2043,1473 2070,1404 2096,1378 2123,1369 2150,1367 2177,1370 2203,1322 2230,1302 2257,1295 2283,1284 2310,1270 2337,1242 2363,1230 2390,1231 2417,1233 2444,1236 2470,1239 2497,1244 2524,1243 2550,1239 2577,1227 2604,1226 2631,1227 2657,1231 2684,1239 2711,1244 2737,1241 2764,1240 2791,1241 2818,1241 2844,1241 2871,1241 2898,1241 2924,1241 2951,1241 2978,1241 3004,1241 3031,1241 3058,1241 3085,1241 3111,1241 3138,1241 3165,1241 3191,1241 3218,1241" style="stroke: #F14040;stroke-width: 14;stroke-linecap:round;stroke-linejoin:round" fill="none" olab:comment=""/>
		<polyline points="574,1351 601,1351 628,1351 654,1351 681,1351 708,1351 734,1351 761,1351 788,1351 814,1351 841,1351 868,1351 895,1351 921,1351 948,1351 975,1351 1001,1351 1028,1351 1055,1351 1082,1351 1108,1351 1135,1351 1162,1351 1188,1351 1215,1351 1242,1351 1269,1351 1295,1351 1322,1351 1349,1351 1375,1351 1402,1350 1429,1350 1455,1349 1482,1349 1509,1349 1536,1346 1562,1346 1589,1345 1616,1343 1642,1342 1669,1342 1696,1342 1723,1342 1749,1342 1776,1342 1803,1342 1829,1341 1856,1341 1883,1339 1909,1336 1936,1327 1963,1326 1990,1315 2016,1293 2043,1288 2070,1227 2096,1201 2123,1182 2150,1183 2177,1170 2203,1123 2230,1097 2257,1092 2283,1080 2310,1064 2337,1033 2363,1021 2390,1021 2417,1022 2444,1029 2470,1032 2497,1038 2524,1036 2550,1030 2577,1011 2604,1011 2631,1020 2657,1027 2684,1034 2711,1038 2737,1036 2764,1035 2791,1036 2818,1037 2844,1037 2871,1037 2898,1038 2924,1038 2951,1038 2978,1038 3004,1038 3031,1038 3058,1038 3085,1038 3111,1038 3138,1038 3165,1038 3191,1038 3218,1038" style="stroke: #FDC1C1;stroke-width: 2;stroke-linecap:round;stroke-linejoin:round" fill="none" olab:comment=""/>
	</g>
	<polyline points="494,2130 3303,2130" style="stroke: black;stroke-width: 14;stroke-linecap:square;stroke-linejoin:round" fill="none" olab:comment=""/>
	<polyline points="494,2130 494,2111" style="stroke: black;stroke-width: 14;stroke-linecap:butt;stroke-linejoin:round" fill="none" olab:comment=""/>
	<polyline points="799,2130 799,2111" style="stroke: black;stroke-width: 14;stroke-linecap:butt;stroke-linejoin:round" fill="none" olab:comment=""/>
	<polyline points="1410,2130 1410,2111" style="stroke: black;stroke-width: 14;stroke-linecap:butt;stroke-linejoin:round" fill="none" olab:comment=""/>
	<polyline points="1715,2130 1715,2111" style="stroke: black;stroke-width: 14;stroke-linecap:butt;stroke-linejoin:round" fill="none" olab:comment=""/>
	<polyline points="2021,2130 2021,2111" style="stroke: black;stroke-width: 14;stroke-linecap:butt;stroke-linejoin:round" fill="none" olab:comment=""/>
	<polyline points="2631,2130 2631,2111" style="stroke: black;stroke-width: 14;stroke-linecap:butt;stroke-linejoin:round" fill="none" olab:comment=""/>
	<polyline points="2937,2130 2937,2111" style="stroke: black;stroke-width: 14;stroke-linecap:butt;stroke-linejoin:round" fill="none" olab:comment=""/>
	<polyline points="3242,2130 3242,2111" style="stroke: black;stroke-width: 14;stroke-linecap:butt;stroke-linejoin:round" fill="none" olab:comment=""/>
	<polyline points="1105,2130 1105,2092" style="stroke: black;stroke-width: 14;stroke-linecap:butt;stroke-linejoin:round" fill="none" olab:comment=""/>
	<polyline points="2326,2130 2326,2092" style="stroke: black;stroke-width: 14;stroke-linecap:butt;stroke-linejoin:round" fill="none" olab:comment=""/>
	<polyline points="494,72 3303,72" style="stroke: black;stroke-width: 14;stroke-linecap:square;stroke-linejoin:round" fill="none" olab:comment=""/>
	<polyline points="494,72 494,91" style="stroke: black;stroke-width: 14;stroke-linecap:butt;stroke-linejoin:round" fill="none" olab:comment=""/>
	<polyline points="799,72 799,91" style="stroke: black;stroke-width: 14;stroke-linecap:butt;stroke-linejoin:round" fill="none" olab:comment=""/>
	<polyline points="1410,72 1410,91" style="stroke: black;stroke-width: 14;stroke-linecap:butt;stroke-linejoin:round" fill="none" olab:comment=""/>
	<polyline points="1715,72 1715,91" style="stroke: black;stroke-width: 14;stroke-linecap:butt;stroke-linejoin:round" fill="none" olab:comment=""/>
	<polyline points="2021,72 2021,91" style="stroke: black;stroke-width: 14;stroke-linecap:butt;stroke-linejoin:round" fill="none" olab:comment=""/>
	<polyline points="2631,72 2631,91" style="stroke: black;stroke-width: 14;stroke-linecap:butt;stroke-linejoin:round" fill="none" olab:comment=""/>
	<polyline points="2937,72 2937,91" style="stroke: black;stroke-width: 14;stroke-linecap:butt;stroke-linejoin:round" fill="none" olab:comment=""/>
	<polyline points="3242,72 3242,91" style="stroke: black;stroke-width: 14;stroke-linecap:butt;stroke-linejoin:round" fill="none" olab:comment=""/>
	<polyline points="1105,72 1105,110" style="stroke: black;stroke-width: 14;stroke-linecap:butt;stroke-linejoin:round" fill="none" olab:comment=""/>
	<polyline points="2326,72 2326,110" style="stroke: black;stroke-width: 14;stroke-linecap:butt;stroke-linejoin:round" fill="none" olab:comment=""/>
	<polyline points="494,2130 494,72" style="stroke: black;stroke-width: 14;stroke-linecap:square;stroke-linejoin:round" fill="none" olab:comment=""/>
	<polyline points="494,1924 513,1924" style="stroke: black;stroke-width: 14;stroke-linecap:butt;stroke-linejoin:round" fill="none" olab:comment=""/>
	<polyline points="494,1718 513,1718" style="stroke: black;stroke-width: 14;stroke-linecap:butt;stroke-linejoin:round" fill="none" olab:comment=""/>
	<polyline points="494,1513 513,1513" style="stroke: black;stroke-width: 14;stroke-linecap:butt;stroke-linejoin:round" fill="none" olab:comment=""/>
	<polyline points="494,1101 513,1101" style="stroke: black;stroke-width: 14;stroke-linecap:butt;stroke-linejoin:round" fill="none" olab:comment=""/>
	<polyline points="494,895 513,895" style="stroke: black;stroke-width: 14;stroke-linecap:butt;stroke-linejoin:round" fill="none" olab:comment=""/>
	<polyline points="494,689 513,689" style="stroke: black;stroke-width: 14;stroke-linecap:butt;stroke-linejoin:round" fill="none" olab:comment=""/>
	<polyline points="494,278 513,278" style="stroke: black;stroke-width: 14;stroke-linecap:butt;stroke-linejoin:round" fill="none" olab:comment=""/>
	<polyline points="494,72 513,72" style="stroke: black;stroke-width: 14;stroke-linecap:butt;stroke-linejoin:round" fill="none" olab:comment=""/>
	<polyline points="494,2130 532,2130" style="stroke: black;stroke-width: 14;stroke-linecap:butt;stroke-linejoin:round" fill="none" olab:comment=""/>
	<polyline points="494,1307 532,1307" style="stroke: black;stroke-width: 14;stroke-linecap:butt;stroke-linejoin:round" fill="none" olab:comment=""/>
	<polyline points="494,484 532,484" style="stroke: black;stroke-width: 14;stroke-linecap:butt;stroke-linejoin:round" fill="none" olab:comment=""/>
	<polyline points="3303,2130 3303,72" style="stroke: black;stroke-width: 14;stroke-linecap:square;stroke-linejoin:round" fill="none" olab:comment=""/>
	<polyline points="3303,1924 3284,1924" style="stroke: black;stroke-width: 14;stroke-linecap:butt;stroke-linejoin:round" fill="none" olab:comment=""/>
	<polyline points="3303,1718 3284,1718" style="stroke: black;stroke-width: 14;stroke-linecap:butt;stroke-linejoin:round" fill="none" olab:comment=""/>
	<polyline points="3303,1513 3284,1513" style="stroke: black;stroke-width: 14;stroke-linecap:butt;stroke-linejoin:round" fill="none" olab:comment=""/>
	<polyline points="3303,1101 3284,1101" style="stroke: black;stroke-width: 14;stroke-linecap:butt;stroke-linejoin:round" fill="none" olab:comment=""/>
	<polyline points="3303,895 3284,895" style="stroke: black;stroke-width: 14;stroke-linecap:butt;stroke-linejoin:round" fill="none" olab:comment=""/>
	<polyline points="3303,689 3284,689" style="stroke: black;stroke-width: 14;stroke-linecap:butt;stroke-linejoin:round" fill="none" olab:comment=""/>
	<polyline points="3303,278 3284,278" style="stroke: black;stroke-width: 14;stroke-linecap:butt;stroke-linejoin:round" fill="none" olab:comment=""/>
	<polyline points="3303,72 3284,72" style="stroke: black;stroke-width: 14;stroke-linecap:butt;stroke-linejoin:round" fill="none" olab:comment=""/>
	<polyline points="3303,2130 3265,2130" style="stroke: black;stroke-width: 14;stroke-linecap:butt;stroke-linejoin:round" fill="none" olab:comment=""/>
	<polyline points="3303,1307 3265,1307" style="stroke: black;stroke-width: 14;stroke-linecap:butt;stroke-linejoin:round" fill="none" olab:comment=""/>
	<polyline points="3303,484 3265,484" style="stroke: black;stroke-width: 14;stroke-linecap:butt;stroke-linejoin:round" fill="none" olab:comment=""/>
	<text x="1071" dominant-baseline="auto" y="2275" fill="black" font-family="Times New Roman,'MS PGothic',SimSun" font-size="137" font-weight="400" olab:comment="">
		<tspan x="1071" style="font-kerning:none">0</tspan>
	</text>
	<text x="2257" dominant-baseline="auto" y="2275" fill="black" font-family="Times New Roman,'MS PGothic',SimSun" font-size="137" font-weight="400" olab:comment="">
		<tspan x="2257" style="font-kerning:none">20</tspan>
	</text>
	<text x="281" dominant-baseline="auto" y="2170" fill="black" font-family="Times New Roman,'MS PGothic',SimSun" font-size="137" font-weight="400" olab:comment="">
		<tspan x="281" style="font-kerning:none">0.0</tspan>
	</text>
	<text x="281" dominant-baseline="auto" y="1347" fill="black" font-family="Times New Roman,'MS PGothic',SimSun" font-size="137" font-weight="400" olab:comment="">
		<tspan x="281" style="font-kerning:none">0.2</tspan>
	</text>
	<text x="281" dominant-baseline="auto" y="524" fill="black" font-family="Times New Roman,'MS PGothic',SimSun" font-size="137" font-weight="400" olab:comment="">
		<tspan x="281" style="font-kerning:none">0.4</tspan>
	</text>
	<text x="0" dominant-baseline="auto" y="0" fill="black" font-family="Arial,'MS PGothic',SimSun" font-size="137" font-weight="400" transform="matrix(-1.83697e-16 -1 0.999999 -1.83697e-16 231 1257)" olab:comment="">
		<tspan x="0" style="font-kerning:none">BIO5</tspan>
	</text>
</svg>

