<?xml version="1.0" encoding="UTF-8"?>
<!DOCTYPE svg PUBLIC "-//W3C//DTD SVG 1.1//EN" "http://www.w3.org/Graphics/SVG/1.1/DTD/svg11.dtd">
<!--Generated by Origin-->
<svg xmlns="http://www.w3.org/2000/svg" xmlns:xlink="http://www.w3.org/1999/xlink" xmlns:olab="http://www.originlab.com/namespaces/olab" viewBox="96,66 3214,2250" width="10.720000in" height="7.500000in">
	<defs>
		<mask id="Cp_1">
			<rect x="494" y="72" width="2810" height="2059" fill="white"/>
		</mask>
	</defs>
	<g mask="url(#Cp_1)">
		<rect x="96" y="66" width="3214" height="2250" visibility="hidden" fill="none" opacity="0"/>
		<path d="M 556,1805 L 556,1805 582,1805 607,1805 633,1805 659,1805 684,1805 710,1805 735,1805 761,1805 786,1805 812,1805 838,1805 863,1805 889,1805 914,1805 940,1805 966,1805 991,1805 1017,1805 1042,1805 1068,1805 1093,1805 1119,1805 1145,1805 1170,1805 1196,1805 1221,1805 1247,1805 1273,1805 1298,1805 1324,1805 1349,1805 1375,1805 1400,1805 1426,1805 1452,1805 1477,1805 1503,1805 1528,1805 1554,1805 1579,1805 1605,1805 1631,1805 1656,1804 1682,1804 1707,1804 1733,1803 1759,1802 1784,1802 1810,1801 1835,1799 1861,1798 1886,1796 1912,1793 1938,1790 1963,1783 1989,1772 2014,1761 2040,1749 2066,1735 2091,1719 2117,1520 2142,1402 2168,1270 2193,1170 2219,1096 2245,993 2270,940 2296,937 2321,935 2347,927 2373,912 2398,904 2424,902 2449,898 2475,898 2500,898 2526,898 2552,898 2577,898 2603,898 2628,898 2654,898 2680,898 2705,898 2731,898 2756,898 2782,898 2807,898 2833,898 2859,898 2884,898 2910,898 2935,898 2961,898 2986,898 3012,898 3038,898 3063,898 3089,898 3089,1805 Z M 556,1805 L 556,1599 582,1599 607,1599 633,1599 659,1599 684,1599 710,1599 735,1599 761,1599 786,1599 812,1599 838,1599 863,1599 889,1599 914,1599 940,1599 966,1599 991,1599 1017,1599 1042,1599 1068,1599 1093,1599 1119,1599 1145,1599 1170,1599 1196,1599 1221,1599 1247,1599 1273,1599 1298,1599 1324,1599 1349,1599 1375,1599 1400,1599 1426,1599 1452,1599 1477,1599 1503,1599 1528,1599 1554,1598 1579,1598 1605,1598 1631,1598 1656,1598 1682,1598 1707,1597 1733,1597 1759,1595 1784,1593 1810,1591 1835,1590 1861,1588 1886,1585 1912,1583 1938,1575 1963,1564 1989,1555 2014,1544 2040,1523 2066,1506 2091,1477 2117,1260 2142,1134 2168,996 2193,900 2219,806 2245,730 2270,682 2296,678 2321,677 2347,674 2373,671 2398,651 2424,648 2449,641 2475,641 2500,641 2526,640 2552,640 2577,640 2603,640 2628,640 2654,640 2680,640 2705,640 2731,640 2756,640 2782,640 2807,640 2833,640 2859,640 2884,640 2910,640 2935,640 2961,640 2986,640 3012,640 3038,640 3063,640 3089,640 3089,1805 Z" fill="#FDC1C1" fill-rule="evenodd" stroke="none" olab:comment=""/>
		<polyline points="556,1805 582,1805 607,1805 633,1805 659,1805 684,1805 710,1805 735,1805 761,1805 786,1805 812,1805 838,1805 863,1805 889,1805 914,1805 940,1805 966,1805 991,1805 1017,1805 1042,1805 1068,1805 1093,1805 1119,1805 1145,1805 1170,1805 1196,1805 1221,1805 1247,1805 1273,1805 1298,1805 1324,1805 1349,1805 1375,1805 1400,1805 1426,1805 1452,1805 1477,1805 1503,1805 1528,1805 1554,1805 1579,1805 1605,1805 1631,1805 1656,1804 1682,1804 1707,1804 1733,1803 1759,1802 1784,1802 1810,1801 1835,1799 1861,1798 1886,1796 1912,1793 1938,1790 1963,1783 1989,1772 2014,1761 2040,1749 2066,1735 2091,1719 2117,1520 2142,1402 2168,1270 2193,1170 2219,1096 2245,993 2270,940 2296,937 2321,935 2347,927 2373,912 2398,904 2424,902 2449,898 2475,898 2500,898 2526,898 2552,898 2577,898 2603,898 2628,898 2654,898 2680,898 2705,898 2731,898 2756,898 2782,898 2807,898 2833,898 2859,898 2884,898 2910,898 2935,898 2961,898 2986,898 3012,898 3038,898 3063,898 3089,898" style="stroke: #FDC1C1;stroke-width: 2;stroke-linecap:round;stroke-linejoin:round" fill="none" olab:comment=""/>
		<polyline points="556,1702 582,1702 607,1702 633,1702 659,1702 684,1702 710,1702 735,1702 761,1702 786,1702 812,1702 838,1702 863,1702 889,1702 914,1702 940,1702 966,1702 991,1702 1017,1702 1042,1702 1068,1702 1093,1702 1119,1702 1145,1702 1170,1702 1196,1702 1221,1702 1247,1702 1273,1702 1298,1702 1324,1702 1349,1702 1375,1702 1400,1702 1426,1702 1452,1702 1477,1702 1503,1702 1528,1702 1554,1702 1579,1702 1605,1701 1631,1701 1656,1701 1682,1701 1707,1700 1733,1700 1759,1699 1784,1698 1810,1696 1835,1694 1861,1693 1886,1690 1912,1688 1938,1683 1963,1674 1989,1664 2014,1653 2040,1636 2066,1620 2091,1598 2117,1390 2142,1268 2168,1133 2193,1035 2219,951 2245,862 2270,811 2296,807 2321,806 2347,800 2373,792 2398,777 2424,775 2449,769 2475,769 2500,769 2526,769 2552,769 2577,769 2603,769 2628,769 2654,769 2680,769 2705,769 2731,769 2756,769 2782,769 2807,769 2833,769 2859,769 2884,769 2910,769 2935,769 2961,769 2986,769 3012,769 3038,769 3063,769 3089,769" style="stroke: #F14040;stroke-width: 14;stroke-linecap:round;stroke-linejoin:round" fill="none" olab:comment=""/>
		<polyline points="556,1599 582,1599 607,1599 633,1599 659,1599 684,1599 710,1599 735,1599 761,1599 786,1599 812,1599 838,1599 863,1599 889,1599 914,1599 940,1599 966,1599 991,1599 1017,1599 1042,1599 1068,1599 1093,1599 1119,1599 1145,1599 1170,1599 1196,1599 1221,1599 1247,1599 1273,1599 1298,1599 1324,1599 1349,1599 1375,1599 1400,1599 1426,1599 1452,1599 1477,1599 1503,1599 1528,1599 1554,1598 1579,1598 1605,1598 1631,1598 1656,1598 1682,1598 1707,1597 1733,1597 1759,1595 1784,1593 1810,1591 1835,1590 1861,1588 1886,1585 1912,1583 1938,1575 1963,1564 1989,1555 2014,1544 2040,1523 2066,1506 2091,1477 2117,1260 2142,1134 2168,996 2193,900 2219,806 2245,730 2270,682 2296,678 2321,677 2347,674 2373,671 2398,651 2424,648 2449,641 2475,641 2500,641 2526,640 2552,640 2577,640 2603,640 2628,640 2654,640 2680,640 2705,640 2731,640 2756,640 2782,640 2807,640 2833,640 2859,640 2884,640 2910,640 2935,640 2961,640 2986,640 3012,640 3038,640 3063,640 3089,640" style="stroke: #FDC1C1;stroke-width: 2;stroke-linecap:round;stroke-linejoin:round" fill="none" olab:comment=""/>
	</g>
	<polyline points="494,2130 3303,2130" style="stroke: black;stroke-width: 14;stroke-linecap:square;stroke-linejoin:round" fill="none" olab:comment=""/>
	<polyline points="494,2130 494,2111" style="stroke: black;stroke-width: 14;stroke-linecap:butt;stroke-linejoin:round" fill="none" olab:comment=""/>
	<polyline points="1196,2130 1196,2111" style="stroke: black;stroke-width: 14;stroke-linecap:butt;stroke-linejoin:round" fill="none" olab:comment=""/>
	<polyline points="1547,2130 1547,2111" style="stroke: black;stroke-width: 14;stroke-linecap:butt;stroke-linejoin:round" fill="none" olab:comment=""/>
	<polyline points="1899,2130 1899,2111" style="stroke: black;stroke-width: 14;stroke-linecap:butt;stroke-linejoin:round" fill="none" olab:comment=""/>
	<polyline points="2601,2130 2601,2111" style="stroke: black;stroke-width: 14;stroke-linecap:butt;stroke-linejoin:round" fill="none" olab:comment=""/>
	<polyline points="2952,2130 2952,2111" style="stroke: black;stroke-width: 14;stroke-linecap:butt;stroke-linejoin:round" fill="none" olab:comment=""/>
	<polyline points="3303,2130 3303,2111" style="stroke: black;stroke-width: 14;stroke-linecap:butt;stroke-linejoin:round" fill="none" olab:comment=""/>
	<polyline points="845,2130 845,2092" style="stroke: black;stroke-width: 14;stroke-linecap:butt;stroke-linejoin:round" fill="none" olab:comment=""/>
	<polyline points="2250,2130 2250,2092" style="stroke: black;stroke-width: 14;stroke-linecap:butt;stroke-linejoin:round" fill="none" olab:comment=""/>
	<polyline points="494,72 3303,72" style="stroke: black;stroke-width: 14;stroke-linecap:square;stroke-linejoin:round" fill="none" olab:comment=""/>
	<polyline points="494,72 494,91" style="stroke: black;stroke-width: 14;stroke-linecap:butt;stroke-linejoin:round" fill="none" olab:comment=""/>
	<polyline points="1196,72 1196,91" style="stroke: black;stroke-width: 14;stroke-linecap:butt;stroke-linejoin:round" fill="none" olab:comment=""/>
	<polyline points="1547,72 1547,91" style="stroke: black;stroke-width: 14;stroke-linecap:butt;stroke-linejoin:round" fill="none" olab:comment=""/>
	<polyline points="1899,72 1899,91" style="stroke: black;stroke-width: 14;stroke-linecap:butt;stroke-linejoin:round" fill="none" olab:comment=""/>
	<polyline points="2601,72 2601,91" style="stroke: black;stroke-width: 14;stroke-linecap:butt;stroke-linejoin:round" fill="none" olab:comment=""/>
	<polyline points="2952,72 2952,91" style="stroke: black;stroke-width: 14;stroke-linecap:butt;stroke-linejoin:round" fill="none" olab:comment=""/>
	<polyline points="3303,72 3303,91" style="stroke: black;stroke-width: 14;stroke-linecap:butt;stroke-linejoin:round" fill="none" olab:comment=""/>
	<polyline points="845,72 845,110" style="stroke: black;stroke-width: 14;stroke-linecap:butt;stroke-linejoin:round" fill="none" olab:comment=""/>
	<polyline points="2250,72 2250,110" style="stroke: black;stroke-width: 14;stroke-linecap:butt;stroke-linejoin:round" fill="none" olab:comment=""/>
	<polyline points="494,2130 494,72" style="stroke: black;stroke-width: 14;stroke-linecap:square;stroke-linejoin:round" fill="none" olab:comment=""/>
	<polyline points="494,1924 513,1924" style="stroke: black;stroke-width: 14;stroke-linecap:butt;stroke-linejoin:round" fill="none" olab:comment=""/>
	<polyline points="494,1718 513,1718" style="stroke: black;stroke-width: 14;stroke-linecap:butt;stroke-linejoin:round" fill="none" olab:comment=""/>
	<polyline points="494,1307 513,1307" style="stroke: black;stroke-width: 14;stroke-linecap:butt;stroke-linejoin:round" fill="none" olab:comment=""/>
	<polyline points="494,1101 513,1101" style="stroke: black;stroke-width: 14;stroke-linecap:butt;stroke-linejoin:round" fill="none" olab:comment=""/>
	<polyline points="494,689 513,689" style="stroke: black;stroke-width: 14;stroke-linecap:butt;stroke-linejoin:round" fill="none" olab:comment=""/>
	<polyline points="494,484 513,484" style="stroke: black;stroke-width: 14;stroke-linecap:butt;stroke-linejoin:round" fill="none" olab:comment=""/>
	<polyline points="494,72 513,72" style="stroke: black;stroke-width: 14;stroke-linecap:butt;stroke-linejoin:round" fill="none" olab:comment=""/>
	<polyline points="494,2130 532,2130" style="stroke: black;stroke-width: 14;stroke-linecap:butt;stroke-linejoin:round" fill="none" olab:comment=""/>
	<polyline points="494,1513 532,1513" style="stroke: black;stroke-width: 14;stroke-linecap:butt;stroke-linejoin:round" fill="none" olab:comment=""/>
	<polyline points="494,895 532,895" style="stroke: black;stroke-width: 14;stroke-linecap:butt;stroke-linejoin:round" fill="none" olab:comment=""/>
	<polyline points="494,278 532,278" style="stroke: black;stroke-width: 14;stroke-linecap:butt;stroke-linejoin:round" fill="none" olab:comment=""/>
	<polyline points="3303,2130 3303,72" style="stroke: black;stroke-width: 14;stroke-linecap:square;stroke-linejoin:round" fill="none" olab:comment=""/>
	<polyline points="3303,1924 3284,1924" style="stroke: black;stroke-width: 14;stroke-linecap:butt;stroke-linejoin:round" fill="none" olab:comment=""/>
	<polyline points="3303,1718 3284,1718" style="stroke: black;stroke-width: 14;stroke-linecap:butt;stroke-linejoin:round" fill="none" olab:comment=""/>
	<polyline points="3303,1307 3284,1307" style="stroke: black;stroke-width: 14;stroke-linecap:butt;stroke-linejoin:round" fill="none" olab:comment=""/>
	<polyline points="3303,1101 3284,1101" style="stroke: black;stroke-width: 14;stroke-linecap:butt;stroke-linejoin:round" fill="none" olab:comment=""/>
	<polyline points="3303,689 3284,689" style="stroke: black;stroke-width: 14;stroke-linecap:butt;stroke-linejoin:round" fill="none" olab:comment=""/>
	<polyline points="3303,484 3284,484" style="stroke: black;stroke-width: 14;stroke-linecap:butt;stroke-linejoin:round" fill="none" olab:comment=""/>
	<polyline points="3303,72 3284,72" style="stroke: black;stroke-width: 14;stroke-linecap:butt;stroke-linejoin:round" fill="none" olab:comment=""/>
	<polyline points="3303,2130 3265,2130" style="stroke: black;stroke-width: 14;stroke-linecap:butt;stroke-linejoin:round" fill="none" olab:comment=""/>
	<polyline points="3303,1513 3265,1513" style="stroke: black;stroke-width: 14;stroke-linecap:butt;stroke-linejoin:round" fill="none" olab:comment=""/>
	<polyline points="3303,895 3265,895" style="stroke: black;stroke-width: 14;stroke-linecap:butt;stroke-linejoin:round" fill="none" olab:comment=""/>
	<polyline points="3303,278 3265,278" style="stroke: black;stroke-width: 14;stroke-linecap:butt;stroke-linejoin:round" fill="none" olab:comment=""/>
	<text x="738" dominant-baseline="auto" y="2275" fill="black" font-family="Times New Roman,'MS PGothic',SimSun" font-size="137" font-weight="400" olab:comment="">
		<tspan x="738" style="font-kerning:none">−40</tspan>
	</text>
	<text x="2216" dominant-baseline="auto" y="2275" fill="black" font-family="Times New Roman,'MS PGothic',SimSun" font-size="137" font-weight="400" olab:comment="">
		<tspan x="2216" style="font-kerning:none">0</tspan>
	</text>
	<text x="281" dominant-baseline="auto" y="2170" fill="black" font-family="Times New Roman,'MS PGothic',SimSun" font-size="137" font-weight="400" olab:comment="">
		<tspan x="281" style="font-kerning:none">0.0</tspan>
	</text>
	<text x="281" dominant-baseline="auto" y="1553" fill="black" font-family="Times New Roman,'MS PGothic',SimSun" font-size="137" font-weight="400" olab:comment="">
		<tspan x="281" style="font-kerning:none">0.3</tspan>
	</text>
	<text x="281" dominant-baseline="auto" y="935" fill="black" font-family="Times New Roman,'MS PGothic',SimSun" font-size="137" font-weight="400" olab:comment="">
		<tspan x="281" style="font-kerning:none">0.6</tspan>
	</text>
	<text x="281" dominant-baseline="auto" y="318" fill="black" font-family="Times New Roman,'MS PGothic',SimSun" font-size="137" font-weight="400" olab:comment="">
		<tspan x="281" style="font-kerning:none">0.9</tspan>
	</text>
	<text x="0" dominant-baseline="auto" y="0" fill="black" font-family="Arial,'MS PGothic',SimSun" font-size="137" font-weight="400" transform="matrix(-1.83697e-16 -1 0.999999 -1.83697e-16 231 1257)" olab:comment="">
		<tspan x="0" style="font-kerning:none">BIO6</tspan>
	</text>
</svg>

