<?xml version="1.0" encoding="UTF-8"?>
<!DOCTYPE svg PUBLIC "-//W3C//DTD SVG 1.1//EN" "http://www.w3.org/Graphics/SVG/1.1/DTD/svg11.dtd">
<!--Generated by Origin-->
<svg xmlns="http://www.w3.org/2000/svg" xmlns:xlink="http://www.w3.org/1999/xlink" xmlns:olab="http://www.originlab.com/namespaces/olab" viewBox="96,66 3214,2250" width="10.720000in" height="7.500000in">
	<defs>
		<mask id="Cp_1">
			<rect x="494" y="72" width="2810" height="2059" fill="white"/>
		</mask>
	</defs>
	<g mask="url(#Cp_1)">
		<rect x="96" y="66" width="3214" height="2250" visibility="hidden" fill="none" opacity="0"/>
		<path d="M 612,1816 L 612,1816 639,1816 665,1816 691,1816 717,1816 743,1816 769,1816 795,1816 821,1816 848,1816 874,1816 900,1816 926,1816 952,1816 978,1816 1004,1816 1031,1816 1057,1816 1083,1816 1109,1816 1135,1816 1161,1816 1187,1816 1213,1816 1240,1816 1266,1816 1292,1816 1318,1816 1344,1816 1370,1816 1396,1816 1422,1816 1449,1816 1475,1816 1501,1816 1527,1816 1553,1816 1579,1816 1605,1816 1632,1815 1658,1815 1684,1816 1710,1816 1736,1816 1762,1816 1788,1815 1814,1815 1841,1815 1867,1815 1893,1815 1919,1815 1945,1815 1971,1815 1997,1815 2023,1815 2050,1815 2076,1815 2102,1813 2128,1808 2154,1804 2180,1798 2206,1783 2233,1766 2259,1637 2285,1518 2311,1482 2337,1478 2363,1475 2389,1475 2415,1470 2442,1473 2468,1471 2494,1468 2520,1465 2546,1474 2572,1493 2598,1499 2624,1543 2651,1565 2677,1632 2703,1645 2729,1646 2755,1649 2781,1652 2807,1648 2834,1648 2860,1643 2886,1629 2912,1625 2938,1614 2964,1610 2990,1607 3016,1591 3043,1576 3069,1575 3095,1575 3121,1575 3147,1575 3173,1575 3199,1575 3199,1816 Z M 612,1816 L 612,1513 639,1513 665,1513 691,1513 717,1513 743,1513 769,1513 795,1513 821,1513 848,1513 874,1513 900,1513 926,1513 952,1513 978,1513 1004,1513 1031,1513 1057,1513 1083,1513 1109,1513 1135,1513 1161,1513 1187,1513 1213,1513 1240,1513 1266,1513 1292,1513 1318,1513 1344,1513 1370,1513 1396,1513 1422,1513 1449,1513 1475,1513 1501,1513 1527,1513 1553,1513 1579,1513 1605,1513 1632,1512 1658,1512 1684,1511 1710,1511 1736,1511 1762,1510 1788,1509 1814,1509 1841,1509 1867,1509 1893,1509 1919,1509 1945,1509 1971,1509 1997,1509 2023,1509 2050,1509 2076,1506 2102,1501 2128,1497 2154,1492 2180,1486 2206,1448 2233,1406 2259,1222 2285,1101 2311,1052 2337,1044 2363,1045 2389,1044 2415,1042 2442,1046 2468,1044 2494,1047 2520,1039 2546,1038 2572,1042 2598,1055 2624,1109 2651,1146 2677,1213 2703,1243 2729,1252 2755,1256 2781,1262 2807,1260 2834,1261 2860,1249 2886,1238 2912,1231 2938,1224 2964,1221 2990,1219 3016,1210 3043,1196 3069,1196 3095,1196 3121,1196 3147,1196 3173,1196 3199,1196 3199,1816 Z" fill="#FDC1C1" fill-rule="evenodd" stroke="none" olab:comment=""/>
		<polyline points="612,1816 639,1816 665,1816 691,1816 717,1816 743,1816 769,1816 795,1816 821,1816 848,1816 874,1816 900,1816 926,1816 952,1816 978,1816 1004,1816 1031,1816 1057,1816 1083,1816 1109,1816 1135,1816 1161,1816 1187,1816 1213,1816 1240,1816 1266,1816 1292,1816 1318,1816 1344,1816 1370,1816 1396,1816 1422,1816 1449,1816 1475,1816 1501,1816 1527,1816 1553,1816 1579,1816 1605,1816 1632,1815 1658,1815 1684,1816 1710,1816 1736,1816 1762,1816 1788,1815 1814,1815 1841,1815 1867,1815 1893,1815 1919,1815 1945,1815 1971,1815 1997,1815 2023,1815 2050,1815 2076,1815 2102,1813 2128,1808 2154,1804 2180,1798 2206,1783 2233,1766 2259,1637 2285,1518 2311,1482 2337,1478 2363,1475 2389,1475 2415,1470 2442,1473 2468,1471 2494,1468 2520,1465 2546,1474 2572,1493 2598,1499 2624,1543 2651,1565 2677,1632 2703,1645 2729,1646 2755,1649 2781,1652 2807,1648 2834,1648 2860,1643 2886,1629 2912,1625 2938,1614 2964,1610 2990,1607 3016,1591 3043,1576 3069,1575 3095,1575 3121,1575 3147,1575 3173,1575 3199,1575" style="stroke: #FDC1C1;stroke-width: 2;stroke-linecap:round;stroke-linejoin:round" fill="none" olab:comment=""/>
		<polyline points="612,1664 639,1664 665,1664 691,1664 717,1664 743,1664 769,1664 795,1664 821,1664 848,1664 874,1664 900,1664 926,1664 952,1664 978,1664 1004,1664 1031,1664 1057,1664 1083,1664 1109,1664 1135,1664 1161,1664 1187,1664 1213,1664 1240,1664 1266,1664 1292,1664 1318,1664 1344,1664 1370,1664 1396,1664 1422,1664 1449,1664 1475,1664 1501,1664 1527,1664 1553,1664 1579,1664 1605,1664 1632,1664 1658,1664 1684,1663 1710,1663 1736,1663 1762,1663 1788,1662 1814,1662 1841,1662 1867,1662 1893,1662 1919,1662 1945,1662 1971,1662 1997,1662 2023,1662 2050,1662 2076,1660 2102,1657 2128,1653 2154,1648 2180,1642 2206,1616 2233,1586 2259,1429 2285,1310 2311,1267 2337,1261 2363,1260 2389,1259 2415,1256 2442,1259 2468,1258 2494,1257 2520,1252 2546,1256 2572,1268 2598,1277 2624,1326 2651,1355 2677,1423 2703,1444 2729,1449 2755,1452 2781,1457 2807,1454 2834,1454 2860,1446 2886,1434 2912,1428 2938,1419 2964,1415 2990,1413 3016,1400 3043,1386 3069,1386 3095,1386 3121,1386 3147,1386 3173,1386 3199,1386" style="stroke: #F14040;stroke-width: 14;stroke-linecap:round;stroke-linejoin:round" fill="none" olab:comment=""/>
		<polyline points="612,1513 639,1513 665,1513 691,1513 717,1513 743,1513 769,1513 795,1513 821,1513 848,1513 874,1513 900,1513 926,1513 952,1513 978,1513 1004,1513 1031,1513 1057,1513 1083,1513 1109,1513 1135,1513 1161,1513 1187,1513 1213,1513 1240,1513 1266,1513 1292,1513 1318,1513 1344,1513 1370,1513 1396,1513 1422,1513 1449,1513 1475,1513 1501,1513 1527,1513 1553,1513 1579,1513 1605,1513 1632,1512 1658,1512 1684,1511 1710,1511 1736,1511 1762,1510 1788,1509 1814,1509 1841,1509 1867,1509 1893,1509 1919,1509 1945,1509 1971,1509 1997,1509 2023,1509 2050,1509 2076,1506 2102,1501 2128,1497 2154,1492 2180,1486 2206,1448 2233,1406 2259,1222 2285,1101 2311,1052 2337,1044 2363,1045 2389,1044 2415,1042 2442,1046 2468,1044 2494,1047 2520,1039 2546,1038 2572,1042 2598,1055 2624,1109 2651,1146 2677,1213 2703,1243 2729,1252 2755,1256 2781,1262 2807,1260 2834,1261 2860,1249 2886,1238 2912,1231 2938,1224 2964,1221 2990,1219 3016,1210 3043,1196 3069,1196 3095,1196 3121,1196 3147,1196 3173,1196 3199,1196" style="stroke: #FDC1C1;stroke-width: 2;stroke-linecap:round;stroke-linejoin:round" fill="none" olab:comment=""/>
	</g>
	<polyline points="494,2130 3303,2130" style="stroke: black;stroke-width: 14;stroke-linecap:square;stroke-linejoin:round" fill="none" olab:comment=""/>
	<polyline points="695,2130 695,2111" style="stroke: black;stroke-width: 14;stroke-linecap:butt;stroke-linejoin:round" fill="none" olab:comment=""/>
	<polyline points="895,2130 895,2111" style="stroke: black;stroke-width: 14;stroke-linecap:butt;stroke-linejoin:round" fill="none" olab:comment=""/>
	<polyline points="1096,2130 1096,2111" style="stroke: black;stroke-width: 14;stroke-linecap:butt;stroke-linejoin:round" fill="none" olab:comment=""/>
	<polyline points="1497,2130 1497,2111" style="stroke: black;stroke-width: 14;stroke-linecap:butt;stroke-linejoin:round" fill="none" olab:comment=""/>
	<polyline points="1698,2130 1698,2111" style="stroke: black;stroke-width: 14;stroke-linecap:butt;stroke-linejoin:round" fill="none" olab:comment=""/>
	<polyline points="1898,2130 1898,2111" style="stroke: black;stroke-width: 14;stroke-linecap:butt;stroke-linejoin:round" fill="none" olab:comment=""/>
	<polyline points="2300,2130 2300,2111" style="stroke: black;stroke-width: 14;stroke-linecap:butt;stroke-linejoin:round" fill="none" olab:comment=""/>
	<polyline points="2500,2130 2500,2111" style="stroke: black;stroke-width: 14;stroke-linecap:butt;stroke-linejoin:round" fill="none" olab:comment=""/>
	<polyline points="2701,2130 2701,2111" style="stroke: black;stroke-width: 14;stroke-linecap:butt;stroke-linejoin:round" fill="none" olab:comment=""/>
	<polyline points="3102,2130 3102,2111" style="stroke: black;stroke-width: 14;stroke-linecap:butt;stroke-linejoin:round" fill="none" olab:comment=""/>
	<polyline points="3303,2130 3303,2111" style="stroke: black;stroke-width: 14;stroke-linecap:butt;stroke-linejoin:round" fill="none" olab:comment=""/>
	<polyline points="494,2130 494,2092" style="stroke: black;stroke-width: 14;stroke-linecap:butt;stroke-linejoin:round" fill="none" olab:comment=""/>
	<polyline points="1297,2130 1297,2092" style="stroke: black;stroke-width: 14;stroke-linecap:butt;stroke-linejoin:round" fill="none" olab:comment=""/>
	<polyline points="2099,2130 2099,2092" style="stroke: black;stroke-width: 14;stroke-linecap:butt;stroke-linejoin:round" fill="none" olab:comment=""/>
	<polyline points="2902,2130 2902,2092" style="stroke: black;stroke-width: 14;stroke-linecap:butt;stroke-linejoin:round" fill="none" olab:comment=""/>
	<polyline points="494,72 3303,72" style="stroke: black;stroke-width: 14;stroke-linecap:square;stroke-linejoin:round" fill="none" olab:comment=""/>
	<polyline points="695,72 695,91" style="stroke: black;stroke-width: 14;stroke-linecap:butt;stroke-linejoin:round" fill="none" olab:comment=""/>
	<polyline points="895,72 895,91" style="stroke: black;stroke-width: 14;stroke-linecap:butt;stroke-linejoin:round" fill="none" olab:comment=""/>
	<polyline points="1096,72 1096,91" style="stroke: black;stroke-width: 14;stroke-linecap:butt;stroke-linejoin:round" fill="none" olab:comment=""/>
	<polyline points="1497,72 1497,91" style="stroke: black;stroke-width: 14;stroke-linecap:butt;stroke-linejoin:round" fill="none" olab:comment=""/>
	<polyline points="1698,72 1698,91" style="stroke: black;stroke-width: 14;stroke-linecap:butt;stroke-linejoin:round" fill="none" olab:comment=""/>
	<polyline points="1898,72 1898,91" style="stroke: black;stroke-width: 14;stroke-linecap:butt;stroke-linejoin:round" fill="none" olab:comment=""/>
	<polyline points="2300,72 2300,91" style="stroke: black;stroke-width: 14;stroke-linecap:butt;stroke-linejoin:round" fill="none" olab:comment=""/>
	<polyline points="2500,72 2500,91" style="stroke: black;stroke-width: 14;stroke-linecap:butt;stroke-linejoin:round" fill="none" olab:comment=""/>
	<polyline points="2701,72 2701,91" style="stroke: black;stroke-width: 14;stroke-linecap:butt;stroke-linejoin:round" fill="none" olab:comment=""/>
	<polyline points="3102,72 3102,91" style="stroke: black;stroke-width: 14;stroke-linecap:butt;stroke-linejoin:round" fill="none" olab:comment=""/>
	<polyline points="3303,72 3303,91" style="stroke: black;stroke-width: 14;stroke-linecap:butt;stroke-linejoin:round" fill="none" olab:comment=""/>
	<polyline points="494,72 494,110" style="stroke: black;stroke-width: 14;stroke-linecap:butt;stroke-linejoin:round" fill="none" olab:comment=""/>
	<polyline points="1297,72 1297,110" style="stroke: black;stroke-width: 14;stroke-linecap:butt;stroke-linejoin:round" fill="none" olab:comment=""/>
	<polyline points="2099,72 2099,110" style="stroke: black;stroke-width: 14;stroke-linecap:butt;stroke-linejoin:round" fill="none" olab:comment=""/>
	<polyline points="2902,72 2902,110" style="stroke: black;stroke-width: 14;stroke-linecap:butt;stroke-linejoin:round" fill="none" olab:comment=""/>
	<polyline points="494,2130 494,72" style="stroke: black;stroke-width: 14;stroke-linecap:square;stroke-linejoin:round" fill="none" olab:comment=""/>
	<polyline points="494,1924 513,1924" style="stroke: black;stroke-width: 14;stroke-linecap:butt;stroke-linejoin:round" fill="none" olab:comment=""/>
	<polyline points="494,1718 513,1718" style="stroke: black;stroke-width: 14;stroke-linecap:butt;stroke-linejoin:round" fill="none" olab:comment=""/>
	<polyline points="494,1513 513,1513" style="stroke: black;stroke-width: 14;stroke-linecap:butt;stroke-linejoin:round" fill="none" olab:comment=""/>
	<polyline points="494,1101 513,1101" style="stroke: black;stroke-width: 14;stroke-linecap:butt;stroke-linejoin:round" fill="none" olab:comment=""/>
	<polyline points="494,895 513,895" style="stroke: black;stroke-width: 14;stroke-linecap:butt;stroke-linejoin:round" fill="none" olab:comment=""/>
	<polyline points="494,689 513,689" style="stroke: black;stroke-width: 14;stroke-linecap:butt;stroke-linejoin:round" fill="none" olab:comment=""/>
	<polyline points="494,278 513,278" style="stroke: black;stroke-width: 14;stroke-linecap:butt;stroke-linejoin:round" fill="none" olab:comment=""/>
	<polyline points="494,72 513,72" style="stroke: black;stroke-width: 14;stroke-linecap:butt;stroke-linejoin:round" fill="none" olab:comment=""/>
	<polyline points="494,2130 532,2130" style="stroke: black;stroke-width: 14;stroke-linecap:butt;stroke-linejoin:round" fill="none" olab:comment=""/>
	<polyline points="494,1307 532,1307" style="stroke: black;stroke-width: 14;stroke-linecap:butt;stroke-linejoin:round" fill="none" olab:comment=""/>
	<polyline points="494,484 532,484" style="stroke: black;stroke-width: 14;stroke-linecap:butt;stroke-linejoin:round" fill="none" olab:comment=""/>
	<polyline points="3303,2130 3303,72" style="stroke: black;stroke-width: 14;stroke-linecap:square;stroke-linejoin:round" fill="none" olab:comment=""/>
	<polyline points="3303,1924 3284,1924" style="stroke: black;stroke-width: 14;stroke-linecap:butt;stroke-linejoin:round" fill="none" olab:comment=""/>
	<polyline points="3303,1718 3284,1718" style="stroke: black;stroke-width: 14;stroke-linecap:butt;stroke-linejoin:round" fill="none" olab:comment=""/>
	<polyline points="3303,1513 3284,1513" style="stroke: black;stroke-width: 14;stroke-linecap:butt;stroke-linejoin:round" fill="none" olab:comment=""/>
	<polyline points="3303,1101 3284,1101" style="stroke: black;stroke-width: 14;stroke-linecap:butt;stroke-linejoin:round" fill="none" olab:comment=""/>
	<polyline points="3303,895 3284,895" style="stroke: black;stroke-width: 14;stroke-linecap:butt;stroke-linejoin:round" fill="none" olab:comment=""/>
	<polyline points="3303,689 3284,689" style="stroke: black;stroke-width: 14;stroke-linecap:butt;stroke-linejoin:round" fill="none" olab:comment=""/>
	<polyline points="3303,278 3284,278" style="stroke: black;stroke-width: 14;stroke-linecap:butt;stroke-linejoin:round" fill="none" olab:comment=""/>
	<polyline points="3303,72 3284,72" style="stroke: black;stroke-width: 14;stroke-linecap:butt;stroke-linejoin:round" fill="none" olab:comment=""/>
	<polyline points="3303,2130 3265,2130" style="stroke: black;stroke-width: 14;stroke-linecap:butt;stroke-linejoin:round" fill="none" olab:comment=""/>
	<polyline points="3303,1307 3265,1307" style="stroke: black;stroke-width: 14;stroke-linecap:butt;stroke-linejoin:round" fill="none" olab:comment=""/>
	<polyline points="3303,484 3265,484" style="stroke: black;stroke-width: 14;stroke-linecap:butt;stroke-linejoin:round" fill="none" olab:comment=""/>
	<text x="387" dominant-baseline="auto" y="2275" fill="black" font-family="Times New Roman,'MS PGothic',SimSun" font-size="137" font-weight="400" olab:comment="">
		<tspan x="387" style="font-kerning:none">−40</tspan>
	</text>
	<text x="1190" dominant-baseline="auto" y="2275" fill="black" font-family="Times New Roman,'MS PGothic',SimSun" font-size="137" font-weight="400" olab:comment="">
		<tspan x="1190" style="font-kerning:none">−20</tspan>
	</text>
	<text x="2065" dominant-baseline="auto" y="2275" fill="black" font-family="Times New Roman,'MS PGothic',SimSun" font-size="137" font-weight="400" olab:comment="">
		<tspan x="2065" style="font-kerning:none">0</tspan>
	</text>
	<text x="2833" dominant-baseline="auto" y="2275" fill="black" font-family="Times New Roman,'MS PGothic',SimSun" font-size="137" font-weight="400" olab:comment="">
		<tspan x="2833" style="font-kerning:none">20</tspan>
	</text>
	<text x="281" dominant-baseline="auto" y="2170" fill="black" font-family="Times New Roman,'MS PGothic',SimSun" font-size="137" font-weight="400" olab:comment="">
		<tspan x="281" style="font-kerning:none">0.0</tspan>
	</text>
	<text x="281" dominant-baseline="auto" y="1347" fill="black" font-family="Times New Roman,'MS PGothic',SimSun" font-size="137" font-weight="400" olab:comment="">
		<tspan x="281" style="font-kerning:none">0.2</tspan>
	</text>
	<text x="281" dominant-baseline="auto" y="524" fill="black" font-family="Times New Roman,'MS PGothic',SimSun" font-size="137" font-weight="400" olab:comment="">
		<tspan x="281" style="font-kerning:none">0.4</tspan>
	</text>
	<text x="0" dominant-baseline="auto" y="0" fill="black" font-family="Arial,'MS PGothic',SimSun" font-size="137" font-weight="400" transform="matrix(-1.83697e-16 -1 0.999999 -1.83697e-16 231 1257)" olab:comment="">
		<tspan x="0" style="font-kerning:none">BIO8</tspan>
	</text>
</svg>

