<?xml version="1.0" encoding="UTF-8"?>
<!DOCTYPE svg PUBLIC "-//W3C//DTD SVG 1.1//EN" "http://www.w3.org/Graphics/SVG/1.1/DTD/svg11.dtd">
<!--Generated by Origin-->
<svg xmlns="http://www.w3.org/2000/svg" xmlns:xlink="http://www.w3.org/1999/xlink" xmlns:olab="http://www.originlab.com/namespaces/olab" viewBox="96,66 3214,2250" width="10.720000in" height="7.500000in">
	<defs>
		<mask id="Cp_1">
			<rect x="494" y="72" width="2810" height="2059" fill="white"/>
		</mask>
	</defs>
	<g mask="url(#Cp_1)">
		<rect x="96" y="66" width="3214" height="2250" visibility="hidden" fill="none" opacity="0"/>
		<path d="M 634,1696 L 634,1696 659,1696 683,1696 707,1696 732,1696 756,1696 780,1696 805,1696 829,1696 853,1696 878,1696 902,1696 926,1696 950,1696 975,1696 999,1696 1023,1696 1048,1696 1072,1696 1096,1693 1121,1687 1145,1675 1169,1659 1194,1641 1218,1493 1242,1426 1266,1355 1291,1284 1315,1257 1339,1176 1364,1094 1388,1040 1412,991 1437,976 1461,962 1485,947 1509,899 1534,887 1558,873 1582,863 1607,844 1631,838 1655,833 1680,820 1704,812 1728,809 1753,807 1777,807 1801,808 1825,808 1850,808 1874,807 1898,805 1923,805 1947,804 1971,803 1996,802 2020,801 2044,801 2069,800 2093,800 2117,799 2141,799 2166,799 2190,799 2214,799 2239,799 2263,799 2287,799 2312,800 2336,800 2360,800 2385,800 2409,800 2433,800 2457,800 2482,801 2506,804 2530,807 2555,808 2579,808 2603,808 2628,808 2652,808 2676,808 2701,808 2725,808 2749,808 2773,808 2798,808 2822,808 2846,808 2871,808 2895,808 2919,808 2944,808 2968,808 2992,808 3017,808 3041,808 3041,1696 Z M 634,1696 L 634,1572 659,1572 683,1572 707,1572 732,1572 756,1572 780,1572 805,1572 829,1572 853,1572 878,1572 902,1572 926,1572 950,1572 975,1572 999,1572 1023,1572 1048,1572 1072,1571 1096,1569 1121,1564 1145,1550 1169,1529 1194,1502 1218,1311 1242,1229 1266,1151 1291,1073 1315,1041 1339,952 1364,884 1388,844 1412,811 1437,800 1461,786 1485,771 1509,723 1534,707 1558,695 1582,685 1607,671 1631,666 1655,657 1680,648 1704,643 1728,638 1753,638 1777,639 1801,640 1825,639 1850,639 1874,636 1898,632 1923,632 1947,633 1971,633 1996,633 2020,633 2044,632 2069,632 2093,632 2117,631 2141,631 2166,631 2190,631 2214,631 2239,632 2263,632 2287,632 2312,633 2336,632 2360,632 2385,632 2409,632 2433,632 2457,632 2482,634 2506,635 2530,636 2555,642 2579,642 2603,642 2628,642 2652,642 2676,642 2701,642 2725,642 2749,642 2773,642 2798,642 2822,642 2846,642 2871,642 2895,642 2919,642 2944,642 2968,642 2992,642 3017,642 3041,642 3041,1696 Z" fill="#FDC1C1" fill-rule="evenodd" stroke="none" olab:comment=""/>
		<polyline points="634,1696 659,1696 683,1696 707,1696 732,1696 756,1696 780,1696 805,1696 829,1696 853,1696 878,1696 902,1696 926,1696 950,1696 975,1696 999,1696 1023,1696 1048,1696 1072,1696 1096,1693 1121,1687 1145,1675 1169,1659 1194,1641 1218,1493 1242,1426 1266,1355 1291,1284 1315,1257 1339,1176 1364,1094 1388,1040 1412,991 1437,976 1461,962 1485,947 1509,899 1534,887 1558,873 1582,863 1607,844 1631,838 1655,833 1680,820 1704,812 1728,809 1753,807 1777,807 1801,808 1825,808 1850,808 1874,807 1898,805 1923,805 1947,804 1971,803 1996,802 2020,801 2044,801 2069,800 2093,800 2117,799 2141,799 2166,799 2190,799 2214,799 2239,799 2263,799 2287,799 2312,800 2336,800 2360,800 2385,800 2409,800 2433,800 2457,800 2482,801 2506,804 2530,807 2555,808 2579,808 2603,808 2628,808 2652,808 2676,808 2701,808 2725,808 2749,808 2773,808 2798,808 2822,808 2846,808 2871,808 2895,808 2919,808 2944,808 2968,808 2992,808 3017,808 3041,808" style="stroke: #FDC1C1;stroke-width: 2;stroke-linecap:round;stroke-linejoin:round" fill="none" olab:comment=""/>
		<polyline points="634,1634 659,1634 683,1634 707,1634 732,1634 756,1634 780,1634 805,1634 829,1634 853,1634 878,1634 902,1634 926,1634 950,1634 975,1634 999,1634 1023,1634 1048,1634 1072,1634 1096,1631 1121,1626 1145,1613 1169,1594 1194,1571 1218,1402 1242,1328 1266,1253 1291,1178 1315,1149 1339,1064 1364,989 1388,942 1412,901 1437,888 1461,874 1485,859 1509,811 1534,797 1558,784 1582,774 1607,757 1631,752 1655,745 1680,734 1704,728 1728,723 1753,722 1777,723 1801,724 1825,723 1850,723 1874,722 1898,719 1923,718 1947,718 1971,718 1996,717 2020,717 2044,717 2069,716 2093,716 2117,715 2141,715 2166,715 2190,715 2214,715 2239,715 2263,716 2287,716 2312,716 2336,716 2360,716 2385,716 2409,716 2433,716 2457,716 2482,717 2506,720 2530,721 2555,725 2579,725 2603,725 2628,725 2652,725 2676,725 2701,725 2725,725 2749,725 2773,725 2798,725 2822,725 2846,725 2871,725 2895,725 2919,725 2944,725 2968,725 2992,725 3017,725 3041,725" style="stroke: #F14040;stroke-width: 14;stroke-linecap:round;stroke-linejoin:round" fill="none" olab:comment=""/>
		<polyline points="634,1572 659,1572 683,1572 707,1572 732,1572 756,1572 780,1572 805,1572 829,1572 853,1572 878,1572 902,1572 926,1572 950,1572 975,1572 999,1572 1023,1572 1048,1572 1072,1571 1096,1569 1121,1564 1145,1550 1169,1529 1194,1502 1218,1311 1242,1229 1266,1151 1291,1073 1315,1041 1339,952 1364,884 1388,844 1412,811 1437,800 1461,786 1485,771 1509,723 1534,707 1558,695 1582,685 1607,671 1631,666 1655,657 1680,648 1704,643 1728,638 1753,638 1777,639 1801,640 1825,639 1850,639 1874,636 1898,632 1923,632 1947,633 1971,633 1996,633 2020,633 2044,632 2069,632 2093,632 2117,631 2141,631 2166,631 2190,631 2214,631 2239,632 2263,632 2287,632 2312,633 2336,632 2360,632 2385,632 2409,632 2433,632 2457,632 2482,634 2506,635 2530,636 2555,642 2579,642 2603,642 2628,642 2652,642 2676,642 2701,642 2725,642 2749,642 2773,642 2798,642 2822,642 2846,642 2871,642 2895,642 2919,642 2944,642 2968,642 2992,642 3017,642 3041,642" style="stroke: #FDC1C1;stroke-width: 2;stroke-linecap:round;stroke-linejoin:round" fill="none" olab:comment=""/>
	</g>
	<polyline points="494,2130 3303,2130" style="stroke: black;stroke-width: 14;stroke-linecap:square;stroke-linejoin:round" fill="none" olab:comment=""/>
	<polyline points="728,2130 728,2111" style="stroke: black;stroke-width: 14;stroke-linecap:butt;stroke-linejoin:round" fill="none" olab:comment=""/>
	<polyline points="962,2130 962,2111" style="stroke: black;stroke-width: 14;stroke-linecap:butt;stroke-linejoin:round" fill="none" olab:comment=""/>
	<polyline points="1196,2130 1196,2111" style="stroke: black;stroke-width: 14;stroke-linecap:butt;stroke-linejoin:round" fill="none" olab:comment=""/>
	<polyline points="1430,2130 1430,2111" style="stroke: black;stroke-width: 14;stroke-linecap:butt;stroke-linejoin:round" fill="none" olab:comment=""/>
	<polyline points="1899,2130 1899,2111" style="stroke: black;stroke-width: 14;stroke-linecap:butt;stroke-linejoin:round" fill="none" olab:comment=""/>
	<polyline points="2133,2130 2133,2111" style="stroke: black;stroke-width: 14;stroke-linecap:butt;stroke-linejoin:round" fill="none" olab:comment=""/>
	<polyline points="2367,2130 2367,2111" style="stroke: black;stroke-width: 14;stroke-linecap:butt;stroke-linejoin:round" fill="none" olab:comment=""/>
	<polyline points="2601,2130 2601,2111" style="stroke: black;stroke-width: 14;stroke-linecap:butt;stroke-linejoin:round" fill="none" olab:comment=""/>
	<polyline points="3069,2130 3069,2111" style="stroke: black;stroke-width: 14;stroke-linecap:butt;stroke-linejoin:round" fill="none" olab:comment=""/>
	<polyline points="3303,2130 3303,2111" style="stroke: black;stroke-width: 14;stroke-linecap:butt;stroke-linejoin:round" fill="none" olab:comment=""/>
	<polyline points="494,2130 494,2092" style="stroke: black;stroke-width: 14;stroke-linecap:butt;stroke-linejoin:round" fill="none" olab:comment=""/>
	<polyline points="1664,2130 1664,2092" style="stroke: black;stroke-width: 14;stroke-linecap:butt;stroke-linejoin:round" fill="none" olab:comment=""/>
	<polyline points="2835,2130 2835,2092" style="stroke: black;stroke-width: 14;stroke-linecap:butt;stroke-linejoin:round" fill="none" olab:comment=""/>
	<polyline points="494,72 3303,72" style="stroke: black;stroke-width: 14;stroke-linecap:square;stroke-linejoin:round" fill="none" olab:comment=""/>
	<polyline points="728,72 728,91" style="stroke: black;stroke-width: 14;stroke-linecap:butt;stroke-linejoin:round" fill="none" olab:comment=""/>
	<polyline points="962,72 962,91" style="stroke: black;stroke-width: 14;stroke-linecap:butt;stroke-linejoin:round" fill="none" olab:comment=""/>
	<polyline points="1196,72 1196,91" style="stroke: black;stroke-width: 14;stroke-linecap:butt;stroke-linejoin:round" fill="none" olab:comment=""/>
	<polyline points="1430,72 1430,91" style="stroke: black;stroke-width: 14;stroke-linecap:butt;stroke-linejoin:round" fill="none" olab:comment=""/>
	<polyline points="1899,72 1899,91" style="stroke: black;stroke-width: 14;stroke-linecap:butt;stroke-linejoin:round" fill="none" olab:comment=""/>
	<polyline points="2133,72 2133,91" style="stroke: black;stroke-width: 14;stroke-linecap:butt;stroke-linejoin:round" fill="none" olab:comment=""/>
	<polyline points="2367,72 2367,91" style="stroke: black;stroke-width: 14;stroke-linecap:butt;stroke-linejoin:round" fill="none" olab:comment=""/>
	<polyline points="2601,72 2601,91" style="stroke: black;stroke-width: 14;stroke-linecap:butt;stroke-linejoin:round" fill="none" olab:comment=""/>
	<polyline points="3069,72 3069,91" style="stroke: black;stroke-width: 14;stroke-linecap:butt;stroke-linejoin:round" fill="none" olab:comment=""/>
	<polyline points="3303,72 3303,91" style="stroke: black;stroke-width: 14;stroke-linecap:butt;stroke-linejoin:round" fill="none" olab:comment=""/>
	<polyline points="494,72 494,110" style="stroke: black;stroke-width: 14;stroke-linecap:butt;stroke-linejoin:round" fill="none" olab:comment=""/>
	<polyline points="1664,72 1664,110" style="stroke: black;stroke-width: 14;stroke-linecap:butt;stroke-linejoin:round" fill="none" olab:comment=""/>
	<polyline points="2835,72 2835,110" style="stroke: black;stroke-width: 14;stroke-linecap:butt;stroke-linejoin:round" fill="none" olab:comment=""/>
	<polyline points="494,2130 494,72" style="stroke: black;stroke-width: 14;stroke-linecap:square;stroke-linejoin:round" fill="none" olab:comment=""/>
	<polyline points="494,1924 513,1924" style="stroke: black;stroke-width: 14;stroke-linecap:butt;stroke-linejoin:round" fill="none" olab:comment=""/>
	<polyline points="494,1718 513,1718" style="stroke: black;stroke-width: 14;stroke-linecap:butt;stroke-linejoin:round" fill="none" olab:comment=""/>
	<polyline points="494,1307 513,1307" style="stroke: black;stroke-width: 14;stroke-linecap:butt;stroke-linejoin:round" fill="none" olab:comment=""/>
	<polyline points="494,1101 513,1101" style="stroke: black;stroke-width: 14;stroke-linecap:butt;stroke-linejoin:round" fill="none" olab:comment=""/>
	<polyline points="494,689 513,689" style="stroke: black;stroke-width: 14;stroke-linecap:butt;stroke-linejoin:round" fill="none" olab:comment=""/>
	<polyline points="494,484 513,484" style="stroke: black;stroke-width: 14;stroke-linecap:butt;stroke-linejoin:round" fill="none" olab:comment=""/>
	<polyline points="494,72 513,72" style="stroke: black;stroke-width: 14;stroke-linecap:butt;stroke-linejoin:round" fill="none" olab:comment=""/>
	<polyline points="494,2130 532,2130" style="stroke: black;stroke-width: 14;stroke-linecap:butt;stroke-linejoin:round" fill="none" olab:comment=""/>
	<polyline points="494,1513 532,1513" style="stroke: black;stroke-width: 14;stroke-linecap:butt;stroke-linejoin:round" fill="none" olab:comment=""/>
	<polyline points="494,895 532,895" style="stroke: black;stroke-width: 14;stroke-linecap:butt;stroke-linejoin:round" fill="none" olab:comment=""/>
	<polyline points="494,278 532,278" style="stroke: black;stroke-width: 14;stroke-linecap:butt;stroke-linejoin:round" fill="none" olab:comment=""/>
	<polyline points="3303,2130 3303,72" style="stroke: black;stroke-width: 14;stroke-linecap:square;stroke-linejoin:round" fill="none" olab:comment=""/>
	<polyline points="3303,1924 3284,1924" style="stroke: black;stroke-width: 14;stroke-linecap:butt;stroke-linejoin:round" fill="none" olab:comment=""/>
	<polyline points="3303,1718 3284,1718" style="stroke: black;stroke-width: 14;stroke-linecap:butt;stroke-linejoin:round" fill="none" olab:comment=""/>
	<polyline points="3303,1307 3284,1307" style="stroke: black;stroke-width: 14;stroke-linecap:butt;stroke-linejoin:round" fill="none" olab:comment=""/>
	<polyline points="3303,1101 3284,1101" style="stroke: black;stroke-width: 14;stroke-linecap:butt;stroke-linejoin:round" fill="none" olab:comment=""/>
	<polyline points="3303,689 3284,689" style="stroke: black;stroke-width: 14;stroke-linecap:butt;stroke-linejoin:round" fill="none" olab:comment=""/>
	<polyline points="3303,484 3284,484" style="stroke: black;stroke-width: 14;stroke-linecap:butt;stroke-linejoin:round" fill="none" olab:comment=""/>
	<polyline points="3303,72 3284,72" style="stroke: black;stroke-width: 14;stroke-linecap:butt;stroke-linejoin:round" fill="none" olab:comment=""/>
	<polyline points="3303,2130 3265,2130" style="stroke: black;stroke-width: 14;stroke-linecap:butt;stroke-linejoin:round" fill="none" olab:comment=""/>
	<polyline points="3303,1513 3265,1513" style="stroke: black;stroke-width: 14;stroke-linecap:butt;stroke-linejoin:round" fill="none" olab:comment=""/>
	<polyline points="3303,895 3265,895" style="stroke: black;stroke-width: 14;stroke-linecap:butt;stroke-linejoin:round" fill="none" olab:comment=""/>
	<polyline points="3303,278 3265,278" style="stroke: black;stroke-width: 14;stroke-linecap:butt;stroke-linejoin:round" fill="none" olab:comment=""/>
	<text x="460" dominant-baseline="auto" y="2275" fill="black" font-family="Times New Roman,'MS PGothic',SimSun" font-size="137" font-weight="400" olab:comment="">
		<tspan x="460" style="font-kerning:none">0</tspan>
	</text>
	<text x="1561" dominant-baseline="auto" y="2275" fill="black" font-family="Times New Roman,'MS PGothic',SimSun" font-size="137" font-weight="400" olab:comment="">
		<tspan x="1561" style="font-kerning:none">250</tspan>
	</text>
	<text x="2732" dominant-baseline="auto" y="2275" fill="black" font-family="Times New Roman,'MS PGothic',SimSun" font-size="137" font-weight="400" olab:comment="">
		<tspan x="2732" style="font-kerning:none">500</tspan>
	</text>
	<text x="281" dominant-baseline="auto" y="2170" fill="black" font-family="Times New Roman,'MS PGothic',SimSun" font-size="137" font-weight="400" olab:comment="">
		<tspan x="281" style="font-kerning:none">0.0</tspan>
	</text>
	<text x="281" dominant-baseline="auto" y="1553" fill="black" font-family="Times New Roman,'MS PGothic',SimSun" font-size="137" font-weight="400" olab:comment="">
		<tspan x="281" style="font-kerning:none">0.3</tspan>
	</text>
	<text x="281" dominant-baseline="auto" y="935" fill="black" font-family="Times New Roman,'MS PGothic',SimSun" font-size="137" font-weight="400" olab:comment="">
		<tspan x="281" style="font-kerning:none">0.6</tspan>
	</text>
	<text x="281" dominant-baseline="auto" y="318" fill="black" font-family="Times New Roman,'MS PGothic',SimSun" font-size="137" font-weight="400" olab:comment="">
		<tspan x="281" style="font-kerning:none">0.9</tspan>
	</text>
	<text x="0" dominant-baseline="auto" y="0" fill="black" font-family="Arial,'MS PGothic',SimSun" font-size="137" font-weight="400" transform="matrix(-1.83697e-16 -1 0.999999 -1.83697e-16 231 1295)" olab:comment="">
		<tspan x="0" style="font-kerning:none">BIO18</tspan>
	</text>
</svg>

