<?xml version="1.0" encoding="UTF-8"?>
<!DOCTYPE svg PUBLIC "-//W3C//DTD SVG 1.1//EN" "http://www.w3.org/Graphics/SVG/1.1/DTD/svg11.dtd">
<!--Generated by Origin-->
<svg xmlns="http://www.w3.org/2000/svg" xmlns:xlink="http://www.w3.org/1999/xlink" xmlns:olab="http://www.originlab.com/namespaces/olab" viewBox="96,66 3214,2250" width="10.720000in" height="7.500000in">
	<defs>
		<mask id="Cp_1">
			<rect x="494" y="72" width="2810" height="2059" fill="white"/>
		</mask>
	</defs>
	<g mask="url(#Cp_1)">
		<rect x="96" y="66" width="3214" height="2250" visibility="hidden" fill="none" opacity="0"/>
		<path d="M 615,1503 L 615,940 641,980 667,998 693,1020 719,1027 745,1037 771,1080 797,1118 823,1188 849,1246 875,1267 901,1295 927,1301 953,1322 980,1377 1006,1388 1032,1392 1058,1353 1084,1354 1110,1355 1136,1350 1162,1360 1188,1362 1214,1368 1240,1390 1266,1412 1292,1427 1318,1445 1344,1470 1370,1474 1397,1477 1423,1478 1449,1478 1475,1475 1501,1481 1527,1482 1553,1483 1579,1483 1605,1487 1631,1490 1657,1493 1683,1494 1709,1495 1735,1496 1761,1496 1787,1499 1814,1499 1840,1498 1866,1499 1892,1499 1918,1499 1944,1500 1970,1501 1996,1501 2022,1501 2048,1501 2074,1501 2100,1501 2126,1501 2152,1501 2178,1501 2204,1501 2231,1501 2257,1502 2283,1502 2309,1502 2335,1502 2361,1502 2387,1502 2413,1503 2439,1503 2465,1503 2491,1503 2517,1503 2543,1503 2569,1503 2595,1503 2621,1503 2648,1503 2674,1503 2700,1503 2726,1503 2752,1503 2778,1503 2804,1503 2830,1503 2856,1503 2882,1503 2908,1503 2934,1503 2960,1503 2986,1503 3012,1503 3038,1503 3064,1503 3091,1503 3117,1503 3143,1503 3169,1503 3195,1503 3195,1503 Z M 615,1503 L 615,781 641,820 667,832 693,854 719,862 745,872 771,906 797,936 823,988 849,1039 875,1063 901,1091 927,1095 953,1116 980,1156 1006,1166 1032,1158 1058,1125 1084,1128 1110,1131 1136,1130 1162,1139 1188,1146 1214,1156 1240,1192 1266,1223 1292,1248 1318,1268 1344,1299 1370,1309 1397,1311 1423,1313 1449,1313 1475,1311 1501,1318 1527,1320 1553,1321 1579,1321 1605,1326 1631,1327 1657,1329 1683,1329 1709,1330 1735,1332 1761,1332 1787,1334 1814,1334 1840,1335 1866,1336 1892,1336 1918,1336 1944,1336 1970,1337 1996,1337 2022,1337 2048,1337 2074,1337 2100,1337 2126,1337 2152,1337 2178,1337 2204,1338 2231,1338 2257,1340 2283,1340 2309,1340 2335,1340 2361,1340 2387,1340 2413,1340 2439,1340 2465,1340 2491,1340 2517,1340 2543,1340 2569,1340 2595,1340 2621,1340 2648,1340 2674,1340 2700,1340 2726,1340 2752,1340 2778,1340 2804,1340 2830,1340 2856,1340 2882,1340 2908,1340 2934,1340 2960,1340 2986,1340 3012,1340 3038,1340 3064,1340 3091,1340 3117,1340 3143,1340 3169,1340 3195,1340 3195,1503 Z" fill="#FDC1C1" fill-rule="evenodd" stroke="none" olab:comment=""/>
		<polyline points="615,940 641,980 667,998 693,1020 719,1027 745,1037 771,1080 797,1118 823,1188 849,1246 875,1267 901,1295 927,1301 953,1322 980,1377 1006,1388 1032,1392 1058,1353 1084,1354 1110,1355 1136,1350 1162,1360 1188,1362 1214,1368 1240,1390 1266,1412 1292,1427 1318,1445 1344,1470 1370,1474 1397,1477 1423,1478 1449,1478 1475,1475 1501,1481 1527,1482 1553,1483 1579,1483 1605,1487 1631,1490 1657,1493 1683,1494 1709,1495 1735,1496 1761,1496 1787,1499 1814,1499 1840,1498 1866,1499 1892,1499 1918,1499 1944,1500 1970,1501 1996,1501 2022,1501 2048,1501 2074,1501 2100,1501 2126,1501 2152,1501 2178,1501 2204,1501 2231,1501 2257,1502 2283,1502 2309,1502 2335,1502 2361,1502 2387,1502 2413,1503 2439,1503 2465,1503 2491,1503 2517,1503 2543,1503 2569,1503 2595,1503 2621,1503 2648,1503 2674,1503 2700,1503 2726,1503 2752,1503 2778,1503 2804,1503 2830,1503 2856,1503 2882,1503 2908,1503 2934,1503 2960,1503 2986,1503 3012,1503 3038,1503 3064,1503 3091,1503 3117,1503 3143,1503 3169,1503 3195,1503" style="stroke: #FDC1C1;stroke-width: 2;stroke-linecap:round;stroke-linejoin:round" fill="none" olab:comment=""/>
		<polyline points="615,861 641,900 667,915 693,937 719,945 745,955 771,993 797,1027 823,1088 849,1142 875,1165 901,1193 927,1198 953,1219 980,1267 1006,1277 1032,1275 1058,1239 1084,1241 1110,1243 1136,1240 1162,1249 1188,1254 1214,1262 1240,1291 1266,1317 1292,1337 1318,1357 1344,1384 1370,1391 1397,1394 1423,1395 1449,1395 1475,1393 1501,1399 1527,1401 1553,1402 1579,1402 1605,1407 1631,1408 1657,1411 1683,1412 1709,1413 1735,1414 1761,1414 1787,1416 1814,1416 1840,1417 1866,1418 1892,1418 1918,1418 1944,1418 1970,1419 1996,1419 2022,1419 2048,1419 2074,1419 2100,1419 2126,1419 2152,1419 2178,1419 2204,1419 2231,1420 2257,1421 2283,1421 2309,1421 2335,1421 2361,1421 2387,1421 2413,1422 2439,1422 2465,1422 2491,1422 2517,1422 2543,1422 2569,1422 2595,1422 2621,1422 2648,1422 2674,1422 2700,1422 2726,1422 2752,1422 2778,1422 2804,1422 2830,1422 2856,1422 2882,1422 2908,1422 2934,1422 2960,1422 2986,1422 3012,1422 3038,1422 3064,1422 3091,1422 3117,1422 3143,1422 3169,1422 3195,1422" style="stroke: #F14040;stroke-width: 14;stroke-linecap:round;stroke-linejoin:round" fill="none" olab:comment=""/>
		<polyline points="615,781 641,820 667,832 693,854 719,862 745,872 771,906 797,936 823,988 849,1039 875,1063 901,1091 927,1095 953,1116 980,1156 1006,1166 1032,1158 1058,1125 1084,1128 1110,1131 1136,1130 1162,1139 1188,1146 1214,1156 1240,1192 1266,1223 1292,1248 1318,1268 1344,1299 1370,1309 1397,1311 1423,1313 1449,1313 1475,1311 1501,1318 1527,1320 1553,1321 1579,1321 1605,1326 1631,1327 1657,1329 1683,1329 1709,1330 1735,1332 1761,1332 1787,1334 1814,1334 1840,1335 1866,1336 1892,1336 1918,1336 1944,1336 1970,1337 1996,1337 2022,1337 2048,1337 2074,1337 2100,1337 2126,1337 2152,1337 2178,1337 2204,1338 2231,1338 2257,1340 2283,1340 2309,1340 2335,1340 2361,1340 2387,1340 2413,1340 2439,1340 2465,1340 2491,1340 2517,1340 2543,1340 2569,1340 2595,1340 2621,1340 2648,1340 2674,1340 2700,1340 2726,1340 2752,1340 2778,1340 2804,1340 2830,1340 2856,1340 2882,1340 2908,1340 2934,1340 2960,1340 2986,1340 3012,1340 3038,1340 3064,1340 3091,1340 3117,1340 3143,1340 3169,1340 3195,1340" style="stroke: #FDC1C1;stroke-width: 2;stroke-linecap:round;stroke-linejoin:round" fill="none" olab:comment=""/>
	</g>
	<polyline points="494,2130 3303,2130" style="stroke: black;stroke-width: 14;stroke-linecap:square;stroke-linejoin:round" fill="none" olab:comment=""/>
	<polyline points="806,2130 806,2111" style="stroke: black;stroke-width: 14;stroke-linecap:butt;stroke-linejoin:round" fill="none" olab:comment=""/>
	<polyline points="1014,2130 1014,2111" style="stroke: black;stroke-width: 14;stroke-linecap:butt;stroke-linejoin:round" fill="none" olab:comment=""/>
	<polyline points="1222,2130 1222,2111" style="stroke: black;stroke-width: 14;stroke-linecap:butt;stroke-linejoin:round" fill="none" olab:comment=""/>
	<polyline points="1430,2130 1430,2111" style="stroke: black;stroke-width: 14;stroke-linecap:butt;stroke-linejoin:round" fill="none" olab:comment=""/>
	<polyline points="1638,2130 1638,2111" style="stroke: black;stroke-width: 14;stroke-linecap:butt;stroke-linejoin:round" fill="none" olab:comment=""/>
	<polyline points="2055,2130 2055,2111" style="stroke: black;stroke-width: 14;stroke-linecap:butt;stroke-linejoin:round" fill="none" olab:comment=""/>
	<polyline points="2263,2130 2263,2111" style="stroke: black;stroke-width: 14;stroke-linecap:butt;stroke-linejoin:round" fill="none" olab:comment=""/>
	<polyline points="2471,2130 2471,2111" style="stroke: black;stroke-width: 14;stroke-linecap:butt;stroke-linejoin:round" fill="none" olab:comment=""/>
	<polyline points="2679,2130 2679,2111" style="stroke: black;stroke-width: 14;stroke-linecap:butt;stroke-linejoin:round" fill="none" olab:comment=""/>
	<polyline points="2887,2130 2887,2111" style="stroke: black;stroke-width: 14;stroke-linecap:butt;stroke-linejoin:round" fill="none" olab:comment=""/>
	<polyline points="3303,2130 3303,2111" style="stroke: black;stroke-width: 14;stroke-linecap:butt;stroke-linejoin:round" fill="none" olab:comment=""/>
	<polyline points="598,2130 598,2092" style="stroke: black;stroke-width: 14;stroke-linecap:butt;stroke-linejoin:round" fill="none" olab:comment=""/>
	<polyline points="1846,2130 1846,2092" style="stroke: black;stroke-width: 14;stroke-linecap:butt;stroke-linejoin:round" fill="none" olab:comment=""/>
	<polyline points="3095,2130 3095,2092" style="stroke: black;stroke-width: 14;stroke-linecap:butt;stroke-linejoin:round" fill="none" olab:comment=""/>
	<polyline points="494,72 3303,72" style="stroke: black;stroke-width: 14;stroke-linecap:square;stroke-linejoin:round" fill="none" olab:comment=""/>
	<polyline points="806,72 806,91" style="stroke: black;stroke-width: 14;stroke-linecap:butt;stroke-linejoin:round" fill="none" olab:comment=""/>
	<polyline points="1014,72 1014,91" style="stroke: black;stroke-width: 14;stroke-linecap:butt;stroke-linejoin:round" fill="none" olab:comment=""/>
	<polyline points="1222,72 1222,91" style="stroke: black;stroke-width: 14;stroke-linecap:butt;stroke-linejoin:round" fill="none" olab:comment=""/>
	<polyline points="1430,72 1430,91" style="stroke: black;stroke-width: 14;stroke-linecap:butt;stroke-linejoin:round" fill="none" olab:comment=""/>
	<polyline points="1638,72 1638,91" style="stroke: black;stroke-width: 14;stroke-linecap:butt;stroke-linejoin:round" fill="none" olab:comment=""/>
	<polyline points="2055,72 2055,91" style="stroke: black;stroke-width: 14;stroke-linecap:butt;stroke-linejoin:round" fill="none" olab:comment=""/>
	<polyline points="2263,72 2263,91" style="stroke: black;stroke-width: 14;stroke-linecap:butt;stroke-linejoin:round" fill="none" olab:comment=""/>
	<polyline points="2471,72 2471,91" style="stroke: black;stroke-width: 14;stroke-linecap:butt;stroke-linejoin:round" fill="none" olab:comment=""/>
	<polyline points="2679,72 2679,91" style="stroke: black;stroke-width: 14;stroke-linecap:butt;stroke-linejoin:round" fill="none" olab:comment=""/>
	<polyline points="2887,72 2887,91" style="stroke: black;stroke-width: 14;stroke-linecap:butt;stroke-linejoin:round" fill="none" olab:comment=""/>
	<polyline points="3303,72 3303,91" style="stroke: black;stroke-width: 14;stroke-linecap:butt;stroke-linejoin:round" fill="none" olab:comment=""/>
	<polyline points="598,72 598,110" style="stroke: black;stroke-width: 14;stroke-linecap:butt;stroke-linejoin:round" fill="none" olab:comment=""/>
	<polyline points="1846,72 1846,110" style="stroke: black;stroke-width: 14;stroke-linecap:butt;stroke-linejoin:round" fill="none" olab:comment=""/>
	<polyline points="3095,72 3095,110" style="stroke: black;stroke-width: 14;stroke-linecap:butt;stroke-linejoin:round" fill="none" olab:comment=""/>
	<polyline points="494,2130 494,72" style="stroke: black;stroke-width: 14;stroke-linecap:square;stroke-linejoin:round" fill="none" olab:comment=""/>
	<polyline points="494,1924 513,1924" style="stroke: black;stroke-width: 14;stroke-linecap:butt;stroke-linejoin:round" fill="none" olab:comment=""/>
	<polyline points="494,1718 513,1718" style="stroke: black;stroke-width: 14;stroke-linecap:butt;stroke-linejoin:round" fill="none" olab:comment=""/>
	<polyline points="494,1307 513,1307" style="stroke: black;stroke-width: 14;stroke-linecap:butt;stroke-linejoin:round" fill="none" olab:comment=""/>
	<polyline points="494,1101 513,1101" style="stroke: black;stroke-width: 14;stroke-linecap:butt;stroke-linejoin:round" fill="none" olab:comment=""/>
	<polyline points="494,689 513,689" style="stroke: black;stroke-width: 14;stroke-linecap:butt;stroke-linejoin:round" fill="none" olab:comment=""/>
	<polyline points="494,484 513,484" style="stroke: black;stroke-width: 14;stroke-linecap:butt;stroke-linejoin:round" fill="none" olab:comment=""/>
	<polyline points="494,72 513,72" style="stroke: black;stroke-width: 14;stroke-linecap:butt;stroke-linejoin:round" fill="none" olab:comment=""/>
	<polyline points="494,2130 532,2130" style="stroke: black;stroke-width: 14;stroke-linecap:butt;stroke-linejoin:round" fill="none" olab:comment=""/>
	<polyline points="494,1513 532,1513" style="stroke: black;stroke-width: 14;stroke-linecap:butt;stroke-linejoin:round" fill="none" olab:comment=""/>
	<polyline points="494,895 532,895" style="stroke: black;stroke-width: 14;stroke-linecap:butt;stroke-linejoin:round" fill="none" olab:comment=""/>
	<polyline points="494,278 532,278" style="stroke: black;stroke-width: 14;stroke-linecap:butt;stroke-linejoin:round" fill="none" olab:comment=""/>
	<polyline points="3303,2130 3303,72" style="stroke: black;stroke-width: 14;stroke-linecap:square;stroke-linejoin:round" fill="none" olab:comment=""/>
	<polyline points="3303,1924 3284,1924" style="stroke: black;stroke-width: 14;stroke-linecap:butt;stroke-linejoin:round" fill="none" olab:comment=""/>
	<polyline points="3303,1718 3284,1718" style="stroke: black;stroke-width: 14;stroke-linecap:butt;stroke-linejoin:round" fill="none" olab:comment=""/>
	<polyline points="3303,1307 3284,1307" style="stroke: black;stroke-width: 14;stroke-linecap:butt;stroke-linejoin:round" fill="none" olab:comment=""/>
	<polyline points="3303,1101 3284,1101" style="stroke: black;stroke-width: 14;stroke-linecap:butt;stroke-linejoin:round" fill="none" olab:comment=""/>
	<polyline points="3303,689 3284,689" style="stroke: black;stroke-width: 14;stroke-linecap:butt;stroke-linejoin:round" fill="none" olab:comment=""/>
	<polyline points="3303,484 3284,484" style="stroke: black;stroke-width: 14;stroke-linecap:butt;stroke-linejoin:round" fill="none" olab:comment=""/>
	<polyline points="3303,72 3284,72" style="stroke: black;stroke-width: 14;stroke-linecap:butt;stroke-linejoin:round" fill="none" olab:comment=""/>
	<polyline points="3303,2130 3265,2130" style="stroke: black;stroke-width: 14;stroke-linecap:butt;stroke-linejoin:round" fill="none" olab:comment=""/>
	<polyline points="3303,1513 3265,1513" style="stroke: black;stroke-width: 14;stroke-linecap:butt;stroke-linejoin:round" fill="none" olab:comment=""/>
	<polyline points="3303,895 3265,895" style="stroke: black;stroke-width: 14;stroke-linecap:butt;stroke-linejoin:round" fill="none" olab:comment=""/>
	<polyline points="3303,278 3265,278" style="stroke: black;stroke-width: 14;stroke-linecap:butt;stroke-linejoin:round" fill="none" olab:comment=""/>
	<text x="564" dominant-baseline="auto" y="2275" fill="black" font-family="Times New Roman,'MS PGothic',SimSun" font-size="137" font-weight="400" olab:comment="">
		<tspan x="564" style="font-kerning:none">0</tspan>
	</text>
	<text x="1743" dominant-baseline="auto" y="2275" fill="black" font-family="Times New Roman,'MS PGothic',SimSun" font-size="137" font-weight="400" olab:comment="">
		<tspan x="1743" style="font-kerning:none">300</tspan>
	</text>
	<text x="2992" dominant-baseline="auto" y="2275" fill="black" font-family="Times New Roman,'MS PGothic',SimSun" font-size="137" font-weight="400" olab:comment="">
		<tspan x="2992" style="font-kerning:none">600</tspan>
	</text>
	<text x="281" dominant-baseline="auto" y="2170" fill="black" font-family="Times New Roman,'MS PGothic',SimSun" font-size="137" font-weight="400" olab:comment="">
		<tspan x="281" style="font-kerning:none">0.0</tspan>
	</text>
	<text x="281" dominant-baseline="auto" y="1553" fill="black" font-family="Times New Roman,'MS PGothic',SimSun" font-size="137" font-weight="400" olab:comment="">
		<tspan x="281" style="font-kerning:none">0.3</tspan>
	</text>
	<text x="281" dominant-baseline="auto" y="935" fill="black" font-family="Times New Roman,'MS PGothic',SimSun" font-size="137" font-weight="400" olab:comment="">
		<tspan x="281" style="font-kerning:none">0.6</tspan>
	</text>
	<text x="281" dominant-baseline="auto" y="318" fill="black" font-family="Times New Roman,'MS PGothic',SimSun" font-size="137" font-weight="400" olab:comment="">
		<tspan x="281" style="font-kerning:none">0.9</tspan>
	</text>
	<text x="0" dominant-baseline="auto" y="0" fill="black" font-family="Arial,'MS PGothic',SimSun" font-size="137" font-weight="400" transform="matrix(-1.83697e-16 -1 0.999999 -1.83697e-16 231 1295)" olab:comment="">
		<tspan x="0" style="font-kerning:none">BIO18</tspan>
	</text>
</svg>

