<?xml version="1.0" encoding="UTF-8"?>
<!DOCTYPE svg PUBLIC "-//W3C//DTD SVG 1.1//EN" "http://www.w3.org/Graphics/SVG/1.1/DTD/svg11.dtd">
<!--Generated by Origin-->
<svg xmlns="http://www.w3.org/2000/svg" xmlns:xlink="http://www.w3.org/1999/xlink" xmlns:olab="http://www.originlab.com/namespaces/olab" viewBox="96,66 3214,2250" width="10.720000in" height="7.500000in">
	<defs>
		<mask id="Cp_1">
			<rect x="494" y="72" width="2810" height="2059" fill="white"/>
		</mask>
	</defs>
	<g mask="url(#Cp_1)">
		<rect x="96" y="66" width="3214" height="2250" visibility="hidden" fill="none" opacity="0"/>
		<path d="M 584,1381 L 584,1381 610,1381 637,1381 663,1381 689,1381 715,1381 741,1380 767,1379 793,1374 819,1368 846,1369 872,1365 898,1354 924,1315 950,1288 976,1282 1002,1282 1028,1280 1054,1277 1081,1285 1107,1282 1133,1281 1159,1285 1185,1193 1211,1160 1237,1150 1263,1143 1290,1142 1316,1140 1342,1139 1368,1138 1394,1139 1420,1141 1446,1140 1472,1138 1498,1134 1525,1138 1551,1138 1577,1138 1603,1141 1629,1141 1655,1142 1681,1147 1707,1166 1733,1168 1760,1173 1786,1174 1812,1176 1838,1179 1864,1181 1890,1182 1916,1182 1942,1182 1969,1182 1995,1182 2021,1182 2047,1182 2073,1182 2099,1182 2125,1183 2151,1183 2177,1184 2204,1184 2230,1184 2256,1184 2282,1185 2308,1185 2334,1185 2360,1185 2386,1185 2413,1185 2439,1186 2465,1186 2491,1186 2517,1186 2543,1186 2569,1186 2595,1186 2621,1186 2648,1186 2674,1186 2700,1186 2726,1186 2752,1186 2778,1186 2804,1186 2830,1186 2856,1186 2883,1186 2909,1186 2935,1186 2961,1186 2987,1186 3013,1186 3039,1186 3065,1186 3092,1186 3118,1186 3144,1186 3170,1186 3170,1381 Z M 584,1381 L 584,1211 610,1211 637,1211 663,1211 689,1211 715,1211 741,1210 767,1210 793,1204 819,1200 846,1192 872,1185 898,1168 924,1114 950,1087 976,1074 1002,1077 1028,1072 1054,1065 1081,1056 1107,1057 1133,1048 1159,1046 1185,972 1211,946 1237,941 1263,934 1290,934 1316,932 1342,934 1368,934 1394,941 1420,944 1446,946 1472,944 1498,947 1525,952 1551,959 1577,958 1603,961 1629,960 1655,962 1681,968 1707,984 1733,988 1760,996 1786,996 1812,1001 1838,1005 1864,1007 1890,1008 1916,1009 1942,1009 1969,1009 1995,1009 2021,1009 2047,1009 2073,1009 2099,1009 2125,1009 2151,1009 2177,1010 2204,1010 2230,1010 2256,1010 2282,1011 2308,1011 2334,1011 2360,1011 2386,1011 2413,1011 2439,1013 2465,1013 2491,1014 2517,1014 2543,1014 2569,1014 2595,1014 2621,1014 2648,1014 2674,1014 2700,1014 2726,1014 2752,1014 2778,1014 2804,1014 2830,1014 2856,1014 2883,1014 2909,1014 2935,1014 2961,1014 2987,1014 3013,1014 3039,1014 3065,1014 3092,1014 3118,1014 3144,1014 3170,1014 3170,1381 Z" fill="#FDC1C1" fill-rule="evenodd" stroke="none" olab:comment=""/>
		<polyline points="584,1381 610,1381 637,1381 663,1381 689,1381 715,1381 741,1380 767,1379 793,1374 819,1368 846,1369 872,1365 898,1354 924,1315 950,1288 976,1282 1002,1282 1028,1280 1054,1277 1081,1285 1107,1282 1133,1281 1159,1285 1185,1193 1211,1160 1237,1150 1263,1143 1290,1142 1316,1140 1342,1139 1368,1138 1394,1139 1420,1141 1446,1140 1472,1138 1498,1134 1525,1138 1551,1138 1577,1138 1603,1141 1629,1141 1655,1142 1681,1147 1707,1166 1733,1168 1760,1173 1786,1174 1812,1176 1838,1179 1864,1181 1890,1182 1916,1182 1942,1182 1969,1182 1995,1182 2021,1182 2047,1182 2073,1182 2099,1182 2125,1183 2151,1183 2177,1184 2204,1184 2230,1184 2256,1184 2282,1185 2308,1185 2334,1185 2360,1185 2386,1185 2413,1185 2439,1186 2465,1186 2491,1186 2517,1186 2543,1186 2569,1186 2595,1186 2621,1186 2648,1186 2674,1186 2700,1186 2726,1186 2752,1186 2778,1186 2804,1186 2830,1186 2856,1186 2883,1186 2909,1186 2935,1186 2961,1186 2987,1186 3013,1186 3039,1186 3065,1186 3092,1186 3118,1186 3144,1186 3170,1186" style="stroke: #FDC1C1;stroke-width: 2;stroke-linecap:round;stroke-linejoin:round" fill="none" olab:comment=""/>
		<polyline points="584,1296 610,1296 637,1296 663,1296 689,1296 715,1296 741,1295 767,1295 793,1289 819,1284 846,1281 872,1275 898,1261 924,1215 950,1188 976,1178 1002,1180 1028,1176 1054,1171 1081,1171 1107,1170 1133,1165 1159,1165 1185,1082 1211,1053 1237,1046 1263,1039 1290,1038 1316,1036 1342,1037 1368,1036 1394,1040 1420,1043 1446,1043 1472,1041 1498,1041 1525,1045 1551,1049 1577,1048 1603,1051 1629,1051 1655,1052 1681,1057 1707,1075 1733,1078 1760,1085 1786,1085 1812,1088 1838,1092 1864,1094 1890,1095 1916,1095 1942,1096 1969,1096 1995,1096 2021,1096 2047,1096 2073,1096 2099,1096 2125,1096 2151,1096 2177,1097 2204,1097 2230,1097 2256,1097 2282,1098 2308,1098 2334,1098 2360,1098 2386,1098 2413,1098 2439,1100 2465,1100 2491,1100 2517,1100 2543,1100 2569,1100 2595,1100 2621,1100 2648,1100 2674,1100 2700,1100 2726,1100 2752,1100 2778,1100 2804,1100 2830,1100 2856,1100 2883,1100 2909,1100 2935,1100 2961,1100 2987,1100 3013,1100 3039,1100 3065,1100 3092,1100 3118,1100 3144,1100 3170,1100" style="stroke: #F14040;stroke-width: 14;stroke-linecap:round;stroke-linejoin:round" fill="none" olab:comment=""/>
		<polyline points="584,1211 610,1211 637,1211 663,1211 689,1211 715,1211 741,1210 767,1210 793,1204 819,1200 846,1192 872,1185 898,1168 924,1114 950,1087 976,1074 1002,1077 1028,1072 1054,1065 1081,1056 1107,1057 1133,1048 1159,1046 1185,972 1211,946 1237,941 1263,934 1290,934 1316,932 1342,934 1368,934 1394,941 1420,944 1446,946 1472,944 1498,947 1525,952 1551,959 1577,958 1603,961 1629,960 1655,962 1681,968 1707,984 1733,988 1760,996 1786,996 1812,1001 1838,1005 1864,1007 1890,1008 1916,1009 1942,1009 1969,1009 1995,1009 2021,1009 2047,1009 2073,1009 2099,1009 2125,1009 2151,1009 2177,1010 2204,1010 2230,1010 2256,1010 2282,1011 2308,1011 2334,1011 2360,1011 2386,1011 2413,1011 2439,1013 2465,1013 2491,1014 2517,1014 2543,1014 2569,1014 2595,1014 2621,1014 2648,1014 2674,1014 2700,1014 2726,1014 2752,1014 2778,1014 2804,1014 2830,1014 2856,1014 2883,1014 2909,1014 2935,1014 2961,1014 2987,1014 3013,1014 3039,1014 3065,1014 3092,1014 3118,1014 3144,1014 3170,1014" style="stroke: #FDC1C1;stroke-width: 2;stroke-linecap:round;stroke-linejoin:round" fill="none" olab:comment=""/>
	</g>
	<polyline points="494,2130 3303,2130" style="stroke: black;stroke-width: 14;stroke-linecap:square;stroke-linejoin:round" fill="none" olab:comment=""/>
	<polyline points="616,2130 616,2111" style="stroke: black;stroke-width: 14;stroke-linecap:butt;stroke-linejoin:round" fill="none" olab:comment=""/>
	<polyline points="738,2130 738,2111" style="stroke: black;stroke-width: 14;stroke-linecap:butt;stroke-linejoin:round" fill="none" olab:comment=""/>
	<polyline points="860,2130 860,2111" style="stroke: black;stroke-width: 14;stroke-linecap:butt;stroke-linejoin:round" fill="none" olab:comment=""/>
	<polyline points="983,2130 983,2111" style="stroke: black;stroke-width: 14;stroke-linecap:butt;stroke-linejoin:round" fill="none" olab:comment=""/>
	<polyline points="1105,2130 1105,2111" style="stroke: black;stroke-width: 14;stroke-linecap:butt;stroke-linejoin:round" fill="none" olab:comment=""/>
	<polyline points="1227,2130 1227,2111" style="stroke: black;stroke-width: 14;stroke-linecap:butt;stroke-linejoin:round" fill="none" olab:comment=""/>
	<polyline points="1349,2130 1349,2111" style="stroke: black;stroke-width: 14;stroke-linecap:butt;stroke-linejoin:round" fill="none" olab:comment=""/>
	<polyline points="1471,2130 1471,2111" style="stroke: black;stroke-width: 14;stroke-linecap:butt;stroke-linejoin:round" fill="none" olab:comment=""/>
	<polyline points="1593,2130 1593,2111" style="stroke: black;stroke-width: 14;stroke-linecap:butt;stroke-linejoin:round" fill="none" olab:comment=""/>
	<polyline points="1837,2130 1837,2111" style="stroke: black;stroke-width: 14;stroke-linecap:butt;stroke-linejoin:round" fill="none" olab:comment=""/>
	<polyline points="1960,2130 1960,2111" style="stroke: black;stroke-width: 14;stroke-linecap:butt;stroke-linejoin:round" fill="none" olab:comment=""/>
	<polyline points="2082,2130 2082,2111" style="stroke: black;stroke-width: 14;stroke-linecap:butt;stroke-linejoin:round" fill="none" olab:comment=""/>
	<polyline points="2204,2130 2204,2111" style="stroke: black;stroke-width: 14;stroke-linecap:butt;stroke-linejoin:round" fill="none" olab:comment=""/>
	<polyline points="2326,2130 2326,2111" style="stroke: black;stroke-width: 14;stroke-linecap:butt;stroke-linejoin:round" fill="none" olab:comment=""/>
	<polyline points="2448,2130 2448,2111" style="stroke: black;stroke-width: 14;stroke-linecap:butt;stroke-linejoin:round" fill="none" olab:comment=""/>
	<polyline points="2570,2130 2570,2111" style="stroke: black;stroke-width: 14;stroke-linecap:butt;stroke-linejoin:round" fill="none" olab:comment=""/>
	<polyline points="2692,2130 2692,2111" style="stroke: black;stroke-width: 14;stroke-linecap:butt;stroke-linejoin:round" fill="none" olab:comment=""/>
	<polyline points="2814,2130 2814,2111" style="stroke: black;stroke-width: 14;stroke-linecap:butt;stroke-linejoin:round" fill="none" olab:comment=""/>
	<polyline points="3059,2130 3059,2111" style="stroke: black;stroke-width: 14;stroke-linecap:butt;stroke-linejoin:round" fill="none" olab:comment=""/>
	<polyline points="3181,2130 3181,2111" style="stroke: black;stroke-width: 14;stroke-linecap:butt;stroke-linejoin:round" fill="none" olab:comment=""/>
	<polyline points="3303,2130 3303,2111" style="stroke: black;stroke-width: 14;stroke-linecap:butt;stroke-linejoin:round" fill="none" olab:comment=""/>
	<polyline points="494,2130 494,2092" style="stroke: black;stroke-width: 14;stroke-linecap:butt;stroke-linejoin:round" fill="none" olab:comment=""/>
	<polyline points="1715,2130 1715,2092" style="stroke: black;stroke-width: 14;stroke-linecap:butt;stroke-linejoin:round" fill="none" olab:comment=""/>
	<polyline points="2937,2130 2937,2092" style="stroke: black;stroke-width: 14;stroke-linecap:butt;stroke-linejoin:round" fill="none" olab:comment=""/>
	<polyline points="494,72 3303,72" style="stroke: black;stroke-width: 14;stroke-linecap:square;stroke-linejoin:round" fill="none" olab:comment=""/>
	<polyline points="616,72 616,91" style="stroke: black;stroke-width: 14;stroke-linecap:butt;stroke-linejoin:round" fill="none" olab:comment=""/>
	<polyline points="738,72 738,91" style="stroke: black;stroke-width: 14;stroke-linecap:butt;stroke-linejoin:round" fill="none" olab:comment=""/>
	<polyline points="860,72 860,91" style="stroke: black;stroke-width: 14;stroke-linecap:butt;stroke-linejoin:round" fill="none" olab:comment=""/>
	<polyline points="983,72 983,91" style="stroke: black;stroke-width: 14;stroke-linecap:butt;stroke-linejoin:round" fill="none" olab:comment=""/>
	<polyline points="1105,72 1105,91" style="stroke: black;stroke-width: 14;stroke-linecap:butt;stroke-linejoin:round" fill="none" olab:comment=""/>
	<polyline points="1227,72 1227,91" style="stroke: black;stroke-width: 14;stroke-linecap:butt;stroke-linejoin:round" fill="none" olab:comment=""/>
	<polyline points="1349,72 1349,91" style="stroke: black;stroke-width: 14;stroke-linecap:butt;stroke-linejoin:round" fill="none" olab:comment=""/>
	<polyline points="1471,72 1471,91" style="stroke: black;stroke-width: 14;stroke-linecap:butt;stroke-linejoin:round" fill="none" olab:comment=""/>
	<polyline points="1593,72 1593,91" style="stroke: black;stroke-width: 14;stroke-linecap:butt;stroke-linejoin:round" fill="none" olab:comment=""/>
	<polyline points="1837,72 1837,91" style="stroke: black;stroke-width: 14;stroke-linecap:butt;stroke-linejoin:round" fill="none" olab:comment=""/>
	<polyline points="1960,72 1960,91" style="stroke: black;stroke-width: 14;stroke-linecap:butt;stroke-linejoin:round" fill="none" olab:comment=""/>
	<polyline points="2082,72 2082,91" style="stroke: black;stroke-width: 14;stroke-linecap:butt;stroke-linejoin:round" fill="none" olab:comment=""/>
	<polyline points="2204,72 2204,91" style="stroke: black;stroke-width: 14;stroke-linecap:butt;stroke-linejoin:round" fill="none" olab:comment=""/>
	<polyline points="2326,72 2326,91" style="stroke: black;stroke-width: 14;stroke-linecap:butt;stroke-linejoin:round" fill="none" olab:comment=""/>
	<polyline points="2448,72 2448,91" style="stroke: black;stroke-width: 14;stroke-linecap:butt;stroke-linejoin:round" fill="none" olab:comment=""/>
	<polyline points="2570,72 2570,91" style="stroke: black;stroke-width: 14;stroke-linecap:butt;stroke-linejoin:round" fill="none" olab:comment=""/>
	<polyline points="2692,72 2692,91" style="stroke: black;stroke-width: 14;stroke-linecap:butt;stroke-linejoin:round" fill="none" olab:comment=""/>
	<polyline points="2814,72 2814,91" style="stroke: black;stroke-width: 14;stroke-linecap:butt;stroke-linejoin:round" fill="none" olab:comment=""/>
	<polyline points="3059,72 3059,91" style="stroke: black;stroke-width: 14;stroke-linecap:butt;stroke-linejoin:round" fill="none" olab:comment=""/>
	<polyline points="3181,72 3181,91" style="stroke: black;stroke-width: 14;stroke-linecap:butt;stroke-linejoin:round" fill="none" olab:comment=""/>
	<polyline points="3303,72 3303,91" style="stroke: black;stroke-width: 14;stroke-linecap:butt;stroke-linejoin:round" fill="none" olab:comment=""/>
	<polyline points="494,72 494,110" style="stroke: black;stroke-width: 14;stroke-linecap:butt;stroke-linejoin:round" fill="none" olab:comment=""/>
	<polyline points="1715,72 1715,110" style="stroke: black;stroke-width: 14;stroke-linecap:butt;stroke-linejoin:round" fill="none" olab:comment=""/>
	<polyline points="2937,72 2937,110" style="stroke: black;stroke-width: 14;stroke-linecap:butt;stroke-linejoin:round" fill="none" olab:comment=""/>
	<polyline points="494,2130 494,72" style="stroke: black;stroke-width: 14;stroke-linecap:square;stroke-linejoin:round" fill="none" olab:comment=""/>
	<polyline points="494,1924 513,1924" style="stroke: black;stroke-width: 14;stroke-linecap:butt;stroke-linejoin:round" fill="none" olab:comment=""/>
	<polyline points="494,1718 513,1718" style="stroke: black;stroke-width: 14;stroke-linecap:butt;stroke-linejoin:round" fill="none" olab:comment=""/>
	<polyline points="494,1307 513,1307" style="stroke: black;stroke-width: 14;stroke-linecap:butt;stroke-linejoin:round" fill="none" olab:comment=""/>
	<polyline points="494,1101 513,1101" style="stroke: black;stroke-width: 14;stroke-linecap:butt;stroke-linejoin:round" fill="none" olab:comment=""/>
	<polyline points="494,689 513,689" style="stroke: black;stroke-width: 14;stroke-linecap:butt;stroke-linejoin:round" fill="none" olab:comment=""/>
	<polyline points="494,484 513,484" style="stroke: black;stroke-width: 14;stroke-linecap:butt;stroke-linejoin:round" fill="none" olab:comment=""/>
	<polyline points="494,72 513,72" style="stroke: black;stroke-width: 14;stroke-linecap:butt;stroke-linejoin:round" fill="none" olab:comment=""/>
	<polyline points="494,2130 532,2130" style="stroke: black;stroke-width: 14;stroke-linecap:butt;stroke-linejoin:round" fill="none" olab:comment=""/>
	<polyline points="494,1513 532,1513" style="stroke: black;stroke-width: 14;stroke-linecap:butt;stroke-linejoin:round" fill="none" olab:comment=""/>
	<polyline points="494,895 532,895" style="stroke: black;stroke-width: 14;stroke-linecap:butt;stroke-linejoin:round" fill="none" olab:comment=""/>
	<polyline points="494,278 532,278" style="stroke: black;stroke-width: 14;stroke-linecap:butt;stroke-linejoin:round" fill="none" olab:comment=""/>
	<polyline points="3303,2130 3303,72" style="stroke: black;stroke-width: 14;stroke-linecap:square;stroke-linejoin:round" fill="none" olab:comment=""/>
	<polyline points="3303,1924 3284,1924" style="stroke: black;stroke-width: 14;stroke-linecap:butt;stroke-linejoin:round" fill="none" olab:comment=""/>
	<polyline points="3303,1718 3284,1718" style="stroke: black;stroke-width: 14;stroke-linecap:butt;stroke-linejoin:round" fill="none" olab:comment=""/>
	<polyline points="3303,1307 3284,1307" style="stroke: black;stroke-width: 14;stroke-linecap:butt;stroke-linejoin:round" fill="none" olab:comment=""/>
	<polyline points="3303,1101 3284,1101" style="stroke: black;stroke-width: 14;stroke-linecap:butt;stroke-linejoin:round" fill="none" olab:comment=""/>
	<polyline points="3303,689 3284,689" style="stroke: black;stroke-width: 14;stroke-linecap:butt;stroke-linejoin:round" fill="none" olab:comment=""/>
	<polyline points="3303,484 3284,484" style="stroke: black;stroke-width: 14;stroke-linecap:butt;stroke-linejoin:round" fill="none" olab:comment=""/>
	<polyline points="3303,72 3284,72" style="stroke: black;stroke-width: 14;stroke-linecap:butt;stroke-linejoin:round" fill="none" olab:comment=""/>
	<polyline points="3303,2130 3265,2130" style="stroke: black;stroke-width: 14;stroke-linecap:butt;stroke-linejoin:round" fill="none" olab:comment=""/>
	<polyline points="3303,1513 3265,1513" style="stroke: black;stroke-width: 14;stroke-linecap:butt;stroke-linejoin:round" fill="none" olab:comment=""/>
	<polyline points="3303,895 3265,895" style="stroke: black;stroke-width: 14;stroke-linecap:butt;stroke-linejoin:round" fill="none" olab:comment=""/>
	<polyline points="3303,278 3265,278" style="stroke: black;stroke-width: 14;stroke-linecap:butt;stroke-linejoin:round" fill="none" olab:comment=""/>
	<text x="460" dominant-baseline="auto" y="2275" fill="black" font-family="Times New Roman,'MS PGothic',SimSun" font-size="137" font-weight="400" olab:comment="">
		<tspan x="460" style="font-kerning:none">0</tspan>
	</text>
	<text x="1577" dominant-baseline="auto" y="2275" fill="black" font-family="Times New Roman,'MS PGothic',SimSun" font-size="137" font-weight="400" olab:comment="">
		<tspan x="1577" style="font-kerning:none">1000</tspan>
	</text>
	<text x="2799" dominant-baseline="auto" y="2275" fill="black" font-family="Times New Roman,'MS PGothic',SimSun" font-size="137" font-weight="400" olab:comment="">
		<tspan x="2799" style="font-kerning:none">2000</tspan>
	</text>
	<text x="281" dominant-baseline="auto" y="2170" fill="black" font-family="Times New Roman,'MS PGothic',SimSun" font-size="137" font-weight="400" olab:comment="">
		<tspan x="281" style="font-kerning:none">0.0</tspan>
	</text>
	<text x="281" dominant-baseline="auto" y="1553" fill="black" font-family="Times New Roman,'MS PGothic',SimSun" font-size="137" font-weight="400" olab:comment="">
		<tspan x="281" style="font-kerning:none">0.3</tspan>
	</text>
	<text x="281" dominant-baseline="auto" y="935" fill="black" font-family="Times New Roman,'MS PGothic',SimSun" font-size="137" font-weight="400" olab:comment="">
		<tspan x="281" style="font-kerning:none">0.6</tspan>
	</text>
	<text x="281" dominant-baseline="auto" y="318" fill="black" font-family="Times New Roman,'MS PGothic',SimSun" font-size="137" font-weight="400" olab:comment="">
		<tspan x="281" style="font-kerning:none">0.9</tspan>
	</text>
	<text x="0" dominant-baseline="auto" y="0" fill="black" font-family="Arial,'MS PGothic',SimSun" font-size="137" font-weight="400" transform="matrix(-1.83697e-16 -1 0.999999 -1.83697e-16 231 1295)" olab:comment="">
		<tspan x="0" style="font-kerning:none">BIO12</tspan>
	</text>
</svg>

