<?xml version="1.0" encoding="UTF-8"?>
<!DOCTYPE svg PUBLIC "-//W3C//DTD SVG 1.1//EN" "http://www.w3.org/Graphics/SVG/1.1/DTD/svg11.dtd">
<!--Generated by Origin-->
<svg xmlns="http://www.w3.org/2000/svg" xmlns:xlink="http://www.w3.org/1999/xlink" xmlns:olab="http://www.originlab.com/namespaces/olab" viewBox="96,66 3214,2250" width="10.720000in" height="7.500000in">
	<defs>
		<mask id="Cp_1">
			<rect x="494" y="72" width="2810" height="2059" fill="white"/>
		</mask>
	</defs>
	<g mask="url(#Cp_1)">
		<rect x="96" y="66" width="3214" height="2250" visibility="hidden" fill="none" opacity="0"/>
		<path d="M 659,1611 L 659,1609 684,1609 709,1609 735,1609 760,1609 785,1609 811,1609 836,1609 861,1609 886,1609 912,1609 937,1609 962,1609 988,1609 1013,1609 1038,1609 1063,1609 1089,1609 1114,1608 1139,1608 1165,1610 1190,1611 1215,1611 1240,1611 1266,1610 1291,1602 1316,1593 1342,1590 1367,1586 1392,1578 1417,1572 1443,1568 1468,1543 1493,1529 1519,1517 1544,1487 1569,1478 1595,1464 1620,1412 1645,1354 1670,1348 1696,1322 1721,1301 1746,1296 1772,1281 1797,1284 1822,1285 1847,1230 1873,1125 1898,1089 1923,1058 1949,1035 1974,1017 1999,1006 2024,1002 2050,993 2075,987 2100,963 2126,948 2151,932 2176,920 2201,899 2227,897 2252,892 2277,884 2303,872 2328,863 2353,857 2378,855 2404,853 2429,850 2454,848 2480,847 2505,847 2530,846 2555,846 2581,846 2606,846 2631,846 2657,846 2682,846 2707,846 2733,846 2758,846 2783,846 2808,846 2834,846 2859,846 2884,846 2910,846 2935,846 2960,846 2985,846 3011,846 3036,846 3061,846 3087,846 3112,846 3137,846 3162,846 3162,1611 Z M 659,1611 L 659,1470 684,1470 709,1470 735,1470 760,1470 785,1470 811,1470 836,1470 861,1470 886,1470 912,1470 937,1470 962,1470 988,1470 1013,1470 1038,1469 1063,1469 1089,1469 1114,1469 1139,1468 1165,1471 1190,1472 1215,1472 1240,1472 1266,1472 1291,1464 1316,1456 1342,1451 1367,1448 1392,1434 1417,1426 1443,1418 1468,1392 1493,1372 1519,1357 1544,1322 1569,1307 1595,1289 1620,1229 1645,1165 1670,1151 1696,1120 1721,1098 1746,1088 1772,1074 1797,1074 1822,1069 1847,1018 1873,935 1898,899 1923,874 1949,852 1974,838 1999,833 2024,829 2050,817 2075,810 2100,788 2126,765 2151,749 2176,737 2201,710 2227,709 2252,701 2277,694 2303,684 2328,675 2353,668 2378,667 2404,667 2429,665 2454,663 2480,662 2505,662 2530,661 2555,661 2581,661 2606,661 2631,661 2657,661 2682,661 2707,661 2733,661 2758,661 2783,661 2808,661 2834,661 2859,661 2884,661 2910,661 2935,661 2960,661 2985,661 3011,661 3036,661 3061,661 3087,661 3112,661 3137,661 3162,661 3162,1611 Z" fill="#FDC1C1" fill-rule="evenodd" stroke="none" olab:comment=""/>
		<polyline points="659,1609 684,1609 709,1609 735,1609 760,1609 785,1609 811,1609 836,1609 861,1609 886,1609 912,1609 937,1609 962,1609 988,1609 1013,1609 1038,1609 1063,1609 1089,1609 1114,1608 1139,1608 1165,1610 1190,1611 1215,1611 1240,1611 1266,1610 1291,1602 1316,1593 1342,1590 1367,1586 1392,1578 1417,1572 1443,1568 1468,1543 1493,1529 1519,1517 1544,1487 1569,1478 1595,1464 1620,1412 1645,1354 1670,1348 1696,1322 1721,1301 1746,1296 1772,1281 1797,1284 1822,1285 1847,1230 1873,1125 1898,1089 1923,1058 1949,1035 1974,1017 1999,1006 2024,1002 2050,993 2075,987 2100,963 2126,948 2151,932 2176,920 2201,899 2227,897 2252,892 2277,884 2303,872 2328,863 2353,857 2378,855 2404,853 2429,850 2454,848 2480,847 2505,847 2530,846 2555,846 2581,846 2606,846 2631,846 2657,846 2682,846 2707,846 2733,846 2758,846 2783,846 2808,846 2834,846 2859,846 2884,846 2910,846 2935,846 2960,846 2985,846 3011,846 3036,846 3061,846 3087,846 3112,846 3137,846 3162,846" style="stroke: #FDC1C1;stroke-width: 2;stroke-linecap:round;stroke-linejoin:round" fill="none" olab:comment=""/>
		<polyline points="659,1540 684,1540 709,1540 735,1540 760,1540 785,1540 811,1540 836,1540 861,1540 886,1540 912,1540 937,1540 962,1540 988,1540 1013,1540 1038,1539 1063,1539 1089,1539 1114,1538 1139,1538 1165,1540 1190,1541 1215,1542 1240,1542 1266,1541 1291,1533 1316,1525 1342,1521 1367,1517 1392,1506 1417,1499 1443,1493 1468,1468 1493,1451 1519,1437 1544,1405 1569,1393 1595,1377 1620,1321 1645,1260 1670,1249 1696,1221 1721,1200 1746,1192 1772,1178 1797,1179 1822,1177 1847,1124 1873,1030 1898,994 1923,966 1949,944 1974,928 1999,920 2024,916 2050,905 2075,898 2100,876 2126,857 2151,840 2176,828 2201,804 2227,803 2252,797 2277,789 2303,778 2328,769 2353,763 2378,761 2404,760 2429,758 2454,755 2480,754 2505,754 2530,754 2555,753 2581,753 2606,753 2631,753 2657,753 2682,753 2707,753 2733,753 2758,753 2783,753 2808,753 2834,753 2859,753 2884,753 2910,753 2935,753 2960,753 2985,753 3011,753 3036,753 3061,753 3087,753 3112,753 3137,753 3162,753" style="stroke: #F14040;stroke-width: 14;stroke-linecap:round;stroke-linejoin:round" fill="none" olab:comment=""/>
		<polyline points="659,1470 684,1470 709,1470 735,1470 760,1470 785,1470 811,1470 836,1470 861,1470 886,1470 912,1470 937,1470 962,1470 988,1470 1013,1470 1038,1469 1063,1469 1089,1469 1114,1469 1139,1468 1165,1471 1190,1472 1215,1472 1240,1472 1266,1472 1291,1464 1316,1456 1342,1451 1367,1448 1392,1434 1417,1426 1443,1418 1468,1392 1493,1372 1519,1357 1544,1322 1569,1307 1595,1289 1620,1229 1645,1165 1670,1151 1696,1120 1721,1098 1746,1088 1772,1074 1797,1074 1822,1069 1847,1018 1873,935 1898,899 1923,874 1949,852 1974,838 1999,833 2024,829 2050,817 2075,810 2100,788 2126,765 2151,749 2176,737 2201,710 2227,709 2252,701 2277,694 2303,684 2328,675 2353,668 2378,667 2404,667 2429,665 2454,663 2480,662 2505,662 2530,661 2555,661 2581,661 2606,661 2631,661 2657,661 2682,661 2707,661 2733,661 2758,661 2783,661 2808,661 2834,661 2859,661 2884,661 2910,661 2935,661 2960,661 2985,661 3011,661 3036,661 3061,661 3087,661 3112,661 3137,661 3162,661" style="stroke: #FDC1C1;stroke-width: 2;stroke-linecap:round;stroke-linejoin:round" fill="none" olab:comment=""/>
	</g>
	<polyline points="494,2130 3303,2130" style="stroke: black;stroke-width: 14;stroke-linecap:square;stroke-linejoin:round" fill="none" olab:comment=""/>
	<polyline points="494,2130 494,2111" style="stroke: black;stroke-width: 14;stroke-linecap:butt;stroke-linejoin:round" fill="none" olab:comment=""/>
	<polyline points="659,2130 659,2111" style="stroke: black;stroke-width: 14;stroke-linecap:butt;stroke-linejoin:round" fill="none" olab:comment=""/>
	<polyline points="824,2130 824,2111" style="stroke: black;stroke-width: 14;stroke-linecap:butt;stroke-linejoin:round" fill="none" olab:comment=""/>
	<polyline points="990,2130 990,2111" style="stroke: black;stroke-width: 14;stroke-linecap:butt;stroke-linejoin:round" fill="none" olab:comment=""/>
	<polyline points="1320,2130 1320,2111" style="stroke: black;stroke-width: 14;stroke-linecap:butt;stroke-linejoin:round" fill="none" olab:comment=""/>
	<polyline points="1485,2130 1485,2111" style="stroke: black;stroke-width: 14;stroke-linecap:butt;stroke-linejoin:round" fill="none" olab:comment=""/>
	<polyline points="1651,2130 1651,2111" style="stroke: black;stroke-width: 14;stroke-linecap:butt;stroke-linejoin:round" fill="none" olab:comment=""/>
	<polyline points="1816,2130 1816,2111" style="stroke: black;stroke-width: 14;stroke-linecap:butt;stroke-linejoin:round" fill="none" olab:comment=""/>
	<polyline points="2146,2130 2146,2111" style="stroke: black;stroke-width: 14;stroke-linecap:butt;stroke-linejoin:round" fill="none" olab:comment=""/>
	<polyline points="2312,2130 2312,2111" style="stroke: black;stroke-width: 14;stroke-linecap:butt;stroke-linejoin:round" fill="none" olab:comment=""/>
	<polyline points="2477,2130 2477,2111" style="stroke: black;stroke-width: 14;stroke-linecap:butt;stroke-linejoin:round" fill="none" olab:comment=""/>
	<polyline points="2642,2130 2642,2111" style="stroke: black;stroke-width: 14;stroke-linecap:butt;stroke-linejoin:round" fill="none" olab:comment=""/>
	<polyline points="2973,2130 2973,2111" style="stroke: black;stroke-width: 14;stroke-linecap:butt;stroke-linejoin:round" fill="none" olab:comment=""/>
	<polyline points="3138,2130 3138,2111" style="stroke: black;stroke-width: 14;stroke-linecap:butt;stroke-linejoin:round" fill="none" olab:comment=""/>
	<polyline points="3303,2130 3303,2111" style="stroke: black;stroke-width: 14;stroke-linecap:butt;stroke-linejoin:round" fill="none" olab:comment=""/>
	<polyline points="1155,2130 1155,2092" style="stroke: black;stroke-width: 14;stroke-linecap:butt;stroke-linejoin:round" fill="none" olab:comment=""/>
	<polyline points="1981,2130 1981,2092" style="stroke: black;stroke-width: 14;stroke-linecap:butt;stroke-linejoin:round" fill="none" olab:comment=""/>
	<polyline points="2807,2130 2807,2092" style="stroke: black;stroke-width: 14;stroke-linecap:butt;stroke-linejoin:round" fill="none" olab:comment=""/>
	<polyline points="494,72 3303,72" style="stroke: black;stroke-width: 14;stroke-linecap:square;stroke-linejoin:round" fill="none" olab:comment=""/>
	<polyline points="494,72 494,91" style="stroke: black;stroke-width: 14;stroke-linecap:butt;stroke-linejoin:round" fill="none" olab:comment=""/>
	<polyline points="659,72 659,91" style="stroke: black;stroke-width: 14;stroke-linecap:butt;stroke-linejoin:round" fill="none" olab:comment=""/>
	<polyline points="824,72 824,91" style="stroke: black;stroke-width: 14;stroke-linecap:butt;stroke-linejoin:round" fill="none" olab:comment=""/>
	<polyline points="990,72 990,91" style="stroke: black;stroke-width: 14;stroke-linecap:butt;stroke-linejoin:round" fill="none" olab:comment=""/>
	<polyline points="1320,72 1320,91" style="stroke: black;stroke-width: 14;stroke-linecap:butt;stroke-linejoin:round" fill="none" olab:comment=""/>
	<polyline points="1485,72 1485,91" style="stroke: black;stroke-width: 14;stroke-linecap:butt;stroke-linejoin:round" fill="none" olab:comment=""/>
	<polyline points="1651,72 1651,91" style="stroke: black;stroke-width: 14;stroke-linecap:butt;stroke-linejoin:round" fill="none" olab:comment=""/>
	<polyline points="1816,72 1816,91" style="stroke: black;stroke-width: 14;stroke-linecap:butt;stroke-linejoin:round" fill="none" olab:comment=""/>
	<polyline points="2146,72 2146,91" style="stroke: black;stroke-width: 14;stroke-linecap:butt;stroke-linejoin:round" fill="none" olab:comment=""/>
	<polyline points="2312,72 2312,91" style="stroke: black;stroke-width: 14;stroke-linecap:butt;stroke-linejoin:round" fill="none" olab:comment=""/>
	<polyline points="2477,72 2477,91" style="stroke: black;stroke-width: 14;stroke-linecap:butt;stroke-linejoin:round" fill="none" olab:comment=""/>
	<polyline points="2642,72 2642,91" style="stroke: black;stroke-width: 14;stroke-linecap:butt;stroke-linejoin:round" fill="none" olab:comment=""/>
	<polyline points="2973,72 2973,91" style="stroke: black;stroke-width: 14;stroke-linecap:butt;stroke-linejoin:round" fill="none" olab:comment=""/>
	<polyline points="3138,72 3138,91" style="stroke: black;stroke-width: 14;stroke-linecap:butt;stroke-linejoin:round" fill="none" olab:comment=""/>
	<polyline points="3303,72 3303,91" style="stroke: black;stroke-width: 14;stroke-linecap:butt;stroke-linejoin:round" fill="none" olab:comment=""/>
	<polyline points="1155,72 1155,110" style="stroke: black;stroke-width: 14;stroke-linecap:butt;stroke-linejoin:round" fill="none" olab:comment=""/>
	<polyline points="1981,72 1981,110" style="stroke: black;stroke-width: 14;stroke-linecap:butt;stroke-linejoin:round" fill="none" olab:comment=""/>
	<polyline points="2807,72 2807,110" style="stroke: black;stroke-width: 14;stroke-linecap:butt;stroke-linejoin:round" fill="none" olab:comment=""/>
	<polyline points="494,2130 494,72" style="stroke: black;stroke-width: 14;stroke-linecap:square;stroke-linejoin:round" fill="none" olab:comment=""/>
	<polyline points="494,1924 513,1924" style="stroke: black;stroke-width: 14;stroke-linecap:butt;stroke-linejoin:round" fill="none" olab:comment=""/>
	<polyline points="494,1718 513,1718" style="stroke: black;stroke-width: 14;stroke-linecap:butt;stroke-linejoin:round" fill="none" olab:comment=""/>
	<polyline points="494,1307 513,1307" style="stroke: black;stroke-width: 14;stroke-linecap:butt;stroke-linejoin:round" fill="none" olab:comment=""/>
	<polyline points="494,1101 513,1101" style="stroke: black;stroke-width: 14;stroke-linecap:butt;stroke-linejoin:round" fill="none" olab:comment=""/>
	<polyline points="494,689 513,689" style="stroke: black;stroke-width: 14;stroke-linecap:butt;stroke-linejoin:round" fill="none" olab:comment=""/>
	<polyline points="494,484 513,484" style="stroke: black;stroke-width: 14;stroke-linecap:butt;stroke-linejoin:round" fill="none" olab:comment=""/>
	<polyline points="494,72 513,72" style="stroke: black;stroke-width: 14;stroke-linecap:butt;stroke-linejoin:round" fill="none" olab:comment=""/>
	<polyline points="494,2130 532,2130" style="stroke: black;stroke-width: 14;stroke-linecap:butt;stroke-linejoin:round" fill="none" olab:comment=""/>
	<polyline points="494,1513 532,1513" style="stroke: black;stroke-width: 14;stroke-linecap:butt;stroke-linejoin:round" fill="none" olab:comment=""/>
	<polyline points="494,895 532,895" style="stroke: black;stroke-width: 14;stroke-linecap:butt;stroke-linejoin:round" fill="none" olab:comment=""/>
	<polyline points="494,278 532,278" style="stroke: black;stroke-width: 14;stroke-linecap:butt;stroke-linejoin:round" fill="none" olab:comment=""/>
	<polyline points="3303,2130 3303,72" style="stroke: black;stroke-width: 14;stroke-linecap:square;stroke-linejoin:round" fill="none" olab:comment=""/>
	<polyline points="3303,1924 3284,1924" style="stroke: black;stroke-width: 14;stroke-linecap:butt;stroke-linejoin:round" fill="none" olab:comment=""/>
	<polyline points="3303,1718 3284,1718" style="stroke: black;stroke-width: 14;stroke-linecap:butt;stroke-linejoin:round" fill="none" olab:comment=""/>
	<polyline points="3303,1307 3284,1307" style="stroke: black;stroke-width: 14;stroke-linecap:butt;stroke-linejoin:round" fill="none" olab:comment=""/>
	<polyline points="3303,1101 3284,1101" style="stroke: black;stroke-width: 14;stroke-linecap:butt;stroke-linejoin:round" fill="none" olab:comment=""/>
	<polyline points="3303,689 3284,689" style="stroke: black;stroke-width: 14;stroke-linecap:butt;stroke-linejoin:round" fill="none" olab:comment=""/>
	<polyline points="3303,484 3284,484" style="stroke: black;stroke-width: 14;stroke-linecap:butt;stroke-linejoin:round" fill="none" olab:comment=""/>
	<polyline points="3303,72 3284,72" style="stroke: black;stroke-width: 14;stroke-linecap:butt;stroke-linejoin:round" fill="none" olab:comment=""/>
	<polyline points="3303,2130 3265,2130" style="stroke: black;stroke-width: 14;stroke-linecap:butt;stroke-linejoin:round" fill="none" olab:comment=""/>
	<polyline points="3303,1513 3265,1513" style="stroke: black;stroke-width: 14;stroke-linecap:butt;stroke-linejoin:round" fill="none" olab:comment=""/>
	<polyline points="3303,895 3265,895" style="stroke: black;stroke-width: 14;stroke-linecap:butt;stroke-linejoin:round" fill="none" olab:comment=""/>
	<polyline points="3303,278 3265,278" style="stroke: black;stroke-width: 14;stroke-linecap:butt;stroke-linejoin:round" fill="none" olab:comment=""/>
	<text x="1121" dominant-baseline="auto" y="2275" fill="black" font-family="Times New Roman,'MS PGothic',SimSun" font-size="137" font-weight="400" olab:comment="">
		<tspan x="1121" style="font-kerning:none">5</tspan>
	</text>
	<text x="1912" dominant-baseline="auto" y="2275" fill="black" font-family="Times New Roman,'MS PGothic',SimSun" font-size="137" font-weight="400" olab:comment="">
		<tspan x="1912" style="font-kerning:none">10</tspan>
	</text>
	<text x="2738" dominant-baseline="auto" y="2275" fill="black" font-family="Times New Roman,'MS PGothic',SimSun" font-size="137" font-weight="400" olab:comment="">
		<tspan x="2738" style="font-kerning:none">15</tspan>
	</text>
	<text x="281" dominant-baseline="auto" y="2170" fill="black" font-family="Times New Roman,'MS PGothic',SimSun" font-size="137" font-weight="400" olab:comment="">
		<tspan x="281" style="font-kerning:none">0.0</tspan>
	</text>
	<text x="281" dominant-baseline="auto" y="1553" fill="black" font-family="Times New Roman,'MS PGothic',SimSun" font-size="137" font-weight="400" olab:comment="">
		<tspan x="281" style="font-kerning:none">0.3</tspan>
	</text>
	<text x="281" dominant-baseline="auto" y="935" fill="black" font-family="Times New Roman,'MS PGothic',SimSun" font-size="137" font-weight="400" olab:comment="">
		<tspan x="281" style="font-kerning:none">0.6</tspan>
	</text>
	<text x="281" dominant-baseline="auto" y="318" fill="black" font-family="Times New Roman,'MS PGothic',SimSun" font-size="137" font-weight="400" olab:comment="">
		<tspan x="281" style="font-kerning:none">0.9</tspan>
	</text>
	<text x="0" dominant-baseline="auto" y="0" fill="black" font-family="Arial,'MS PGothic',SimSun" font-size="137" font-weight="400" transform="matrix(-1.83697e-16 -1 0.999999 -1.83697e-16 231 1257)" olab:comment="">
		<tspan x="0" style="font-kerning:none">BIO2</tspan>
	</text>
</svg>

