<?xml version="1.0" encoding="UTF-8"?>
<!DOCTYPE svg PUBLIC "-//W3C//DTD SVG 1.1//EN" "http://www.w3.org/Graphics/SVG/1.1/DTD/svg11.dtd">
<!--Generated by Origin-->
<svg xmlns="http://www.w3.org/2000/svg" xmlns:xlink="http://www.w3.org/1999/xlink" xmlns:olab="http://www.originlab.com/namespaces/olab" viewBox="96,66 3215,2250" width="10.720000in" height="7.500000in">
	<defs>
		<mask id="Cp_1">
			<rect x="494" y="72" width="2811" height="2059" fill="white"/>
		</mask>
	</defs>
	<g mask="url(#Cp_1)">
		<rect x="96" y="66" width="3215" height="2250" visibility="hidden" fill="none" opacity="0"/>
		<path d="M 660,1500 L 660,1489 685,1489 709,1489 733,1489 758,1489 782,1489 806,1489 831,1489 855,1489 880,1489 904,1489 928,1489 953,1489 977,1489 1001,1489 1026,1489 1050,1489 1075,1489 1099,1489 1123,1489 1148,1489 1172,1489 1196,1489 1221,1486 1245,1484 1270,1489 1294,1500 1318,1496 1343,1489 1367,1481 1391,1474 1416,1445 1440,1429 1464,1354 1489,1314 1513,1308 1538,1305 1562,1295 1586,1291 1611,1283 1635,1283 1659,1196 1684,1136 1708,1104 1733,1087 1757,1077 1781,1069 1806,1055 1830,1046 1854,1032 1879,1021 1903,1010 1928,991 1952,987 1976,981 2001,969 2025,942 2049,926 2074,892 2098,855 2123,846 2147,837 2171,824 2196,812 2220,805 2244,800 2269,795 2293,788 2318,780 2342,771 2366,763 2391,759 2415,759 2439,759 2464,760 2488,766 2512,766 2537,766 2561,765 2586,764 2610,765 2634,766 2659,766 2683,766 2707,765 2732,764 2756,763 2781,763 2805,763 2829,763 2854,763 2878,763 2902,763 2927,763 2951,763 2976,763 3000,763 3024,763 3049,763 3073,763 3073,1500 Z M 660,1500 L 660,1362 685,1362 709,1362 733,1362 758,1362 782,1362 806,1362 831,1362 855,1362 880,1362 904,1362 928,1362 953,1362 977,1362 1001,1362 1026,1362 1050,1362 1075,1362 1099,1362 1123,1362 1148,1362 1172,1361 1196,1360 1221,1355 1245,1353 1270,1349 1294,1356 1318,1353 1343,1345 1367,1323 1391,1313 1416,1271 1440,1249 1464,1167 1489,1125 1513,1118 1538,1111 1562,1100 1586,1089 1611,1078 1635,1072 1659,1013 1684,971 1708,947 1733,932 1757,919 1781,911 1806,902 1830,894 1854,883 1879,873 1903,865 1928,848 1952,843 1976,834 2001,821 2025,801 2049,786 2074,747 2098,707 2123,698 2147,690 2171,675 2196,663 2220,657 2244,652 2269,645 2293,640 2318,633 2342,623 2366,614 2391,611 2415,612 2439,613 2464,615 2488,620 2512,619 2537,619 2561,619 2586,618 2610,619 2634,620 2659,620 2683,620 2707,619 2732,617 2756,617 2781,617 2805,616 2829,616 2854,616 2878,616 2902,616 2927,616 2951,616 2976,616 3000,616 3024,616 3049,616 3073,616 3073,1500 Z" fill="#FDC1C1" fill-rule="evenodd" stroke="none" olab:comment=""/>
		<polyline points="660,1489 685,1489 709,1489 733,1489 758,1489 782,1489 806,1489 831,1489 855,1489 880,1489 904,1489 928,1489 953,1489 977,1489 1001,1489 1026,1489 1050,1489 1075,1489 1099,1489 1123,1489 1148,1489 1172,1489 1196,1489 1221,1486 1245,1484 1270,1489 1294,1500 1318,1496 1343,1489 1367,1481 1391,1474 1416,1445 1440,1429 1464,1354 1489,1314 1513,1308 1538,1305 1562,1295 1586,1291 1611,1283 1635,1283 1659,1196 1684,1136 1708,1104 1733,1087 1757,1077 1781,1069 1806,1055 1830,1046 1854,1032 1879,1021 1903,1010 1928,991 1952,987 1976,981 2001,969 2025,942 2049,926 2074,892 2098,855 2123,846 2147,837 2171,824 2196,812 2220,805 2244,800 2269,795 2293,788 2318,780 2342,771 2366,763 2391,759 2415,759 2439,759 2464,760 2488,766 2512,766 2537,766 2561,765 2586,764 2610,765 2634,766 2659,766 2683,766 2707,765 2732,764 2756,763 2781,763 2805,763 2829,763 2854,763 2878,763 2902,763 2927,763 2951,763 2976,763 3000,763 3024,763 3049,763 3073,763" style="stroke: #FDC1C1;stroke-width: 2;stroke-linecap:round;stroke-linejoin:round" fill="none" olab:comment=""/>
		<polyline points="660,1426 685,1426 709,1426 733,1426 758,1426 782,1426 806,1426 831,1426 855,1426 880,1426 904,1426 928,1426 953,1426 977,1426 1001,1426 1026,1426 1050,1426 1075,1426 1099,1426 1123,1426 1148,1426 1172,1425 1196,1424 1221,1420 1245,1419 1270,1419 1294,1428 1318,1424 1343,1417 1367,1402 1391,1394 1416,1358 1440,1339 1464,1260 1489,1219 1513,1213 1538,1208 1562,1198 1586,1190 1611,1181 1635,1178 1659,1105 1684,1054 1708,1026 1733,1009 1757,998 1781,990 1806,978 1830,970 1854,958 1879,947 1903,937 1928,920 1952,915 1976,908 2001,895 2025,872 2049,856 2074,819 2098,781 2123,772 2147,764 2171,750 2196,738 2220,731 2244,726 2269,720 2293,714 2318,707 2342,697 2366,689 2391,685 2415,686 2439,686 2464,687 2488,693 2512,693 2537,693 2561,692 2586,691 2610,692 2634,693 2659,693 2683,693 2707,692 2732,690 2756,690 2781,690 2805,689 2829,689 2854,689 2878,689 2902,689 2927,689 2951,689 2976,689 3000,689 3024,689 3049,689 3073,689" style="stroke: #F14040;stroke-width: 14;stroke-linecap:round;stroke-linejoin:round" fill="none" olab:comment=""/>
		<polyline points="660,1362 685,1362 709,1362 733,1362 758,1362 782,1362 806,1362 831,1362 855,1362 880,1362 904,1362 928,1362 953,1362 977,1362 1001,1362 1026,1362 1050,1362 1075,1362 1099,1362 1123,1362 1148,1362 1172,1361 1196,1360 1221,1355 1245,1353 1270,1349 1294,1356 1318,1353 1343,1345 1367,1323 1391,1313 1416,1271 1440,1249 1464,1167 1489,1125 1513,1118 1538,1111 1562,1100 1586,1089 1611,1078 1635,1072 1659,1013 1684,971 1708,947 1733,932 1757,919 1781,911 1806,902 1830,894 1854,883 1879,873 1903,865 1928,848 1952,843 1976,834 2001,821 2025,801 2049,786 2074,747 2098,707 2123,698 2147,690 2171,675 2196,663 2220,657 2244,652 2269,645 2293,640 2318,633 2342,623 2366,614 2391,611 2415,612 2439,613 2464,615 2488,620 2512,619 2537,619 2561,619 2586,618 2610,619 2634,620 2659,620 2683,620 2707,619 2732,617 2756,617 2781,617 2805,616 2829,616 2854,616 2878,616 2902,616 2927,616 2951,616 2976,616 3000,616 3024,616 3049,616 3073,616" style="stroke: #FDC1C1;stroke-width: 2;stroke-linecap:round;stroke-linejoin:round" fill="none" olab:comment=""/>
	</g>
	<polyline points="494,2130 3304,2130" style="stroke: black;stroke-width: 14;stroke-linecap:square;stroke-linejoin:round" fill="none" olab:comment=""/>
	<polyline points="494,2130 494,2111" style="stroke: black;stroke-width: 14;stroke-linecap:butt;stroke-linejoin:round" fill="none" olab:comment=""/>
	<polyline points="1618,2130 1618,2111" style="stroke: black;stroke-width: 14;stroke-linecap:butt;stroke-linejoin:round" fill="none" olab:comment=""/>
	<polyline points="2180,2130 2180,2111" style="stroke: black;stroke-width: 14;stroke-linecap:butt;stroke-linejoin:round" fill="none" olab:comment=""/>
	<polyline points="3304,2130 3304,2111" style="stroke: black;stroke-width: 14;stroke-linecap:butt;stroke-linejoin:round" fill="none" olab:comment=""/>
	<polyline points="1056,2130 1056,2092" style="stroke: black;stroke-width: 14;stroke-linecap:butt;stroke-linejoin:round" fill="none" olab:comment=""/>
	<polyline points="2742,2130 2742,2092" style="stroke: black;stroke-width: 14;stroke-linecap:butt;stroke-linejoin:round" fill="none" olab:comment=""/>
	<polyline points="494,72 3304,72" style="stroke: black;stroke-width: 14;stroke-linecap:square;stroke-linejoin:round" fill="none" olab:comment=""/>
	<polyline points="494,72 494,91" style="stroke: black;stroke-width: 14;stroke-linecap:butt;stroke-linejoin:round" fill="none" olab:comment=""/>
	<polyline points="1618,72 1618,91" style="stroke: black;stroke-width: 14;stroke-linecap:butt;stroke-linejoin:round" fill="none" olab:comment=""/>
	<polyline points="2180,72 2180,91" style="stroke: black;stroke-width: 14;stroke-linecap:butt;stroke-linejoin:round" fill="none" olab:comment=""/>
	<polyline points="3304,72 3304,91" style="stroke: black;stroke-width: 14;stroke-linecap:butt;stroke-linejoin:round" fill="none" olab:comment=""/>
	<polyline points="1056,72 1056,110" style="stroke: black;stroke-width: 14;stroke-linecap:butt;stroke-linejoin:round" fill="none" olab:comment=""/>
	<polyline points="2742,72 2742,110" style="stroke: black;stroke-width: 14;stroke-linecap:butt;stroke-linejoin:round" fill="none" olab:comment=""/>
	<polyline points="494,2130 494,72" style="stroke: black;stroke-width: 14;stroke-linecap:square;stroke-linejoin:round" fill="none" olab:comment=""/>
	<polyline points="494,1924 513,1924" style="stroke: black;stroke-width: 14;stroke-linecap:butt;stroke-linejoin:round" fill="none" olab:comment=""/>
	<polyline points="494,1718 513,1718" style="stroke: black;stroke-width: 14;stroke-linecap:butt;stroke-linejoin:round" fill="none" olab:comment=""/>
	<polyline points="494,1307 513,1307" style="stroke: black;stroke-width: 14;stroke-linecap:butt;stroke-linejoin:round" fill="none" olab:comment=""/>
	<polyline points="494,1101 513,1101" style="stroke: black;stroke-width: 14;stroke-linecap:butt;stroke-linejoin:round" fill="none" olab:comment=""/>
	<polyline points="494,689 513,689" style="stroke: black;stroke-width: 14;stroke-linecap:butt;stroke-linejoin:round" fill="none" olab:comment=""/>
	<polyline points="494,484 513,484" style="stroke: black;stroke-width: 14;stroke-linecap:butt;stroke-linejoin:round" fill="none" olab:comment=""/>
	<polyline points="494,72 513,72" style="stroke: black;stroke-width: 14;stroke-linecap:butt;stroke-linejoin:round" fill="none" olab:comment=""/>
	<polyline points="494,2130 532,2130" style="stroke: black;stroke-width: 14;stroke-linecap:butt;stroke-linejoin:round" fill="none" olab:comment=""/>
	<polyline points="494,1513 532,1513" style="stroke: black;stroke-width: 14;stroke-linecap:butt;stroke-linejoin:round" fill="none" olab:comment=""/>
	<polyline points="494,895 532,895" style="stroke: black;stroke-width: 14;stroke-linecap:butt;stroke-linejoin:round" fill="none" olab:comment=""/>
	<polyline points="494,278 532,278" style="stroke: black;stroke-width: 14;stroke-linecap:butt;stroke-linejoin:round" fill="none" olab:comment=""/>
	<polyline points="3304,2130 3304,72" style="stroke: black;stroke-width: 14;stroke-linecap:square;stroke-linejoin:round" fill="none" olab:comment=""/>
	<polyline points="3304,1924 3285,1924" style="stroke: black;stroke-width: 14;stroke-linecap:butt;stroke-linejoin:round" fill="none" olab:comment=""/>
	<polyline points="3304,1718 3285,1718" style="stroke: black;stroke-width: 14;stroke-linecap:butt;stroke-linejoin:round" fill="none" olab:comment=""/>
	<polyline points="3304,1307 3285,1307" style="stroke: black;stroke-width: 14;stroke-linecap:butt;stroke-linejoin:round" fill="none" olab:comment=""/>
	<polyline points="3304,1101 3285,1101" style="stroke: black;stroke-width: 14;stroke-linecap:butt;stroke-linejoin:round" fill="none" olab:comment=""/>
	<polyline points="3304,689 3285,689" style="stroke: black;stroke-width: 14;stroke-linecap:butt;stroke-linejoin:round" fill="none" olab:comment=""/>
	<polyline points="3304,484 3285,484" style="stroke: black;stroke-width: 14;stroke-linecap:butt;stroke-linejoin:round" fill="none" olab:comment=""/>
	<polyline points="3304,72 3285,72" style="stroke: black;stroke-width: 14;stroke-linecap:butt;stroke-linejoin:round" fill="none" olab:comment=""/>
	<polyline points="3304,2130 3266,2130" style="stroke: black;stroke-width: 14;stroke-linecap:butt;stroke-linejoin:round" fill="none" olab:comment=""/>
	<polyline points="3304,1513 3266,1513" style="stroke: black;stroke-width: 14;stroke-linecap:butt;stroke-linejoin:round" fill="none" olab:comment=""/>
	<polyline points="3304,895 3266,895" style="stroke: black;stroke-width: 14;stroke-linecap:butt;stroke-linejoin:round" fill="none" olab:comment=""/>
	<polyline points="3304,278 3266,278" style="stroke: black;stroke-width: 14;stroke-linecap:butt;stroke-linejoin:round" fill="none" olab:comment=""/>
	<text x="987" dominant-baseline="auto" y="2275" fill="black" font-family="Times New Roman,'MS PGothic',SimSun" font-size="137" font-weight="400" olab:comment="">
		<tspan x="987" style="font-kerning:none">15</tspan>
	</text>
	<text x="2673" dominant-baseline="auto" y="2275" fill="black" font-family="Times New Roman,'MS PGothic',SimSun" font-size="137" font-weight="400" olab:comment="">
		<tspan x="2673" style="font-kerning:none">30</tspan>
	</text>
	<text x="281" dominant-baseline="auto" y="2170" fill="black" font-family="Times New Roman,'MS PGothic',SimSun" font-size="137" font-weight="400" olab:comment="">
		<tspan x="281" style="font-kerning:none">0.0</tspan>
	</text>
	<text x="281" dominant-baseline="auto" y="1553" fill="black" font-family="Times New Roman,'MS PGothic',SimSun" font-size="137" font-weight="400" olab:comment="">
		<tspan x="281" style="font-kerning:none">0.3</tspan>
	</text>
	<text x="281" dominant-baseline="auto" y="935" fill="black" font-family="Times New Roman,'MS PGothic',SimSun" font-size="137" font-weight="400" olab:comment="">
		<tspan x="281" style="font-kerning:none">0.6</tspan>
	</text>
	<text x="281" dominant-baseline="auto" y="318" fill="black" font-family="Times New Roman,'MS PGothic',SimSun" font-size="137" font-weight="400" olab:comment="">
		<tspan x="281" style="font-kerning:none">0.9</tspan>
	</text>
	<text x="0" dominant-baseline="auto" y="0" fill="black" font-family="Arial,'MS PGothic',SimSun" font-size="137" font-weight="400" transform="matrix(-1.83697e-16 -1 0.999999 -1.83697e-16 231 1257)" olab:comment="">
		<tspan x="0" style="font-kerning:none">BIO3</tspan>
	</text>
</svg>

