<?xml version="1.0" encoding="UTF-8"?>
<!DOCTYPE svg PUBLIC "-//W3C//DTD SVG 1.1//EN" "http://www.w3.org/Graphics/SVG/1.1/DTD/svg11.dtd">
<!--Generated by Origin-->
<svg xmlns="http://www.w3.org/2000/svg" xmlns:xlink="http://www.w3.org/1999/xlink" xmlns:olab="http://www.originlab.com/namespaces/olab" viewBox="96,66 3214,2250" width="10.720000in" height="7.500000in">
	<defs>
		<mask id="Cp_1">
			<rect x="494" y="72" width="2810" height="2059" fill="white"/>
		</mask>
	</defs>
	<g mask="url(#Cp_1)">
		<rect x="96" y="66" width="3214" height="2250" visibility="hidden" fill="none" opacity="0"/>
		<path d="M 585,1331 L 585,1301 611,1301 637,1301 662,1301 688,1301 714,1301 740,1301 766,1301 792,1301 818,1301 844,1301 870,1301 896,1301 921,1301 947,1301 973,1300 999,1300 1025,1297 1051,1294 1077,1291 1103,1287 1129,1283 1155,1275 1180,1271 1206,1270 1232,1274 1258,1269 1284,1248 1310,1251 1336,1243 1362,1236 1388,1239 1414,1242 1439,1245 1465,1249 1491,1256 1517,1262 1543,1265 1569,1267 1595,1273 1621,1275 1647,1276 1673,1288 1699,1302 1724,1311 1750,1329 1776,1329 1802,1329 1828,1294 1854,1277 1880,1280 1906,1281 1932,1284 1958,1285 1983,1285 2009,1289 2035,1283 2061,1280 2087,1264 2113,1254 2139,1257 2165,1274 2191,1284 2217,1288 2242,1298 2268,1300 2294,1298 2320,1298 2346,1296 2372,1296 2398,1305 2424,1311 2450,1311 2476,1312 2501,1313 2527,1315 2553,1316 2579,1320 2605,1323 2631,1327 2657,1328 2683,1328 2709,1330 2735,1330 2760,1330 2786,1331 2812,1331 2838,1331 2864,1331 2890,1331 2916,1331 2942,1331 2968,1331 2994,1331 3019,1331 3045,1331 3071,1331 3097,1331 3123,1331 3149,1331 3149,1331 Z M 585,1331 L 585,1142 611,1142 637,1142 662,1142 688,1142 714,1142 740,1142 766,1142 792,1142 818,1142 844,1142 870,1142 896,1142 921,1142 947,1142 973,1141 999,1139 1025,1137 1051,1135 1077,1133 1103,1125 1129,1121 1155,1113 1180,1109 1206,1108 1232,1110 1258,1102 1284,1080 1310,1076 1336,1063 1362,1050 1388,1048 1414,1047 1439,1049 1465,1051 1491,1059 1517,1062 1543,1064 1569,1067 1595,1073 1621,1076 1647,1071 1673,1082 1699,1089 1724,1096 1750,1109 1776,1102 1802,1103 1828,1073 1854,1061 1880,1070 1906,1071 1932,1077 1958,1077 1983,1081 2009,1090 2035,1084 2061,1080 2087,1076 2113,1064 2139,1070 2165,1095 2191,1111 2217,1122 2242,1129 2268,1132 2294,1132 2320,1134 2346,1137 2372,1138 2398,1140 2424,1146 2450,1145 2476,1148 2501,1150 2527,1150 2553,1153 2579,1156 2605,1159 2631,1162 2657,1163 2683,1164 2709,1165 2735,1165 2760,1166 2786,1166 2812,1166 2838,1166 2864,1166 2890,1166 2916,1166 2942,1166 2968,1166 2994,1166 3019,1166 3045,1166 3071,1166 3097,1166 3123,1166 3149,1166 3149,1331 Z" fill="#FDC1C1" fill-rule="evenodd" stroke="none" olab:comment=""/>
		<polyline points="585,1301 611,1301 637,1301 662,1301 688,1301 714,1301 740,1301 766,1301 792,1301 818,1301 844,1301 870,1301 896,1301 921,1301 947,1301 973,1300 999,1300 1025,1297 1051,1294 1077,1291 1103,1287 1129,1283 1155,1275 1180,1271 1206,1270 1232,1274 1258,1269 1284,1248 1310,1251 1336,1243 1362,1236 1388,1239 1414,1242 1439,1245 1465,1249 1491,1256 1517,1262 1543,1265 1569,1267 1595,1273 1621,1275 1647,1276 1673,1288 1699,1302 1724,1311 1750,1329 1776,1329 1802,1329 1828,1294 1854,1277 1880,1280 1906,1281 1932,1284 1958,1285 1983,1285 2009,1289 2035,1283 2061,1280 2087,1264 2113,1254 2139,1257 2165,1274 2191,1284 2217,1288 2242,1298 2268,1300 2294,1298 2320,1298 2346,1296 2372,1296 2398,1305 2424,1311 2450,1311 2476,1312 2501,1313 2527,1315 2553,1316 2579,1320 2605,1323 2631,1327 2657,1328 2683,1328 2709,1330 2735,1330 2760,1330 2786,1331 2812,1331 2838,1331 2864,1331 2890,1331 2916,1331 2942,1331 2968,1331 2994,1331 3019,1331 3045,1331 3071,1331 3097,1331 3123,1331 3149,1331" style="stroke: #FDC1C1;stroke-width: 14;stroke-linecap:round;stroke-linejoin:round" fill="none" olab:comment=""/>
		<polyline points="585,1222 611,1222 637,1222 662,1222 688,1222 714,1222 740,1222 766,1222 792,1222 818,1222 844,1222 870,1222 896,1222 921,1222 947,1222 973,1220 999,1220 1025,1217 1051,1215 1077,1212 1103,1206 1129,1202 1155,1194 1180,1190 1206,1189 1232,1192 1258,1185 1284,1164 1310,1164 1336,1153 1362,1143 1388,1144 1414,1145 1439,1147 1465,1150 1491,1157 1517,1162 1543,1165 1569,1167 1595,1173 1621,1175 1647,1173 1673,1185 1699,1196 1724,1203 1750,1219 1776,1215 1802,1216 1828,1183 1854,1169 1880,1175 1906,1176 1932,1180 1958,1181 1983,1183 2009,1190 2035,1184 2061,1180 2087,1170 2113,1159 2139,1163 2165,1184 2191,1198 2217,1205 2242,1214 2268,1216 2294,1215 2320,1216 2346,1216 2372,1217 2398,1223 2424,1228 2450,1228 2476,1230 2501,1231 2527,1232 2553,1235 2579,1238 2605,1241 2631,1244 2657,1245 2683,1246 2709,1248 2735,1248 2760,1248 2786,1248 2812,1248 2838,1248 2864,1248 2890,1248 2916,1248 2942,1248 2968,1248 2994,1248 3019,1248 3045,1248 3071,1248 3097,1248 3123,1248 3149,1248" style="stroke: #F14040;stroke-width: 14;stroke-linecap:round;stroke-linejoin:round" fill="none" olab:comment=""/>
		<polyline points="585,1142 611,1142 637,1142 662,1142 688,1142 714,1142 740,1142 766,1142 792,1142 818,1142 844,1142 870,1142 896,1142 921,1142 947,1142 973,1141 999,1139 1025,1137 1051,1135 1077,1133 1103,1125 1129,1121 1155,1113 1180,1109 1206,1108 1232,1110 1258,1102 1284,1080 1310,1076 1336,1063 1362,1050 1388,1048 1414,1047 1439,1049 1465,1051 1491,1059 1517,1062 1543,1064 1569,1067 1595,1073 1621,1076 1647,1071 1673,1082 1699,1089 1724,1096 1750,1109 1776,1102 1802,1103 1828,1073 1854,1061 1880,1070 1906,1071 1932,1077 1958,1077 1983,1081 2009,1090 2035,1084 2061,1080 2087,1076 2113,1064 2139,1070 2165,1095 2191,1111 2217,1122 2242,1129 2268,1132 2294,1132 2320,1134 2346,1137 2372,1138 2398,1140 2424,1146 2450,1145 2476,1148 2501,1150 2527,1150 2553,1153 2579,1156 2605,1159 2631,1162 2657,1163 2683,1164 2709,1165 2735,1165 2760,1166 2786,1166 2812,1166 2838,1166 2864,1166 2890,1166 2916,1166 2942,1166 2968,1166 2994,1166 3019,1166 3045,1166 3071,1166 3097,1166 3123,1166 3149,1166" style="stroke: #FDC1C1;stroke-width: 14;stroke-linecap:round;stroke-linejoin:round" fill="none" olab:comment=""/>
	</g>
	<polyline points="494,2130 3303,2130" style="stroke: black;stroke-width: 14;stroke-linecap:square;stroke-linejoin:round" fill="none" olab:comment=""/>
	<polyline points="494,2130 494,2111" style="stroke: black;stroke-width: 14;stroke-linecap:butt;stroke-linejoin:round" fill="none" olab:comment=""/>
	<polyline points="622,2130 622,2111" style="stroke: black;stroke-width: 14;stroke-linecap:butt;stroke-linejoin:round" fill="none" olab:comment=""/>
	<polyline points="749,2130 749,2111" style="stroke: black;stroke-width: 14;stroke-linecap:butt;stroke-linejoin:round" fill="none" olab:comment=""/>
	<polyline points="877,2130 877,2111" style="stroke: black;stroke-width: 14;stroke-linecap:butt;stroke-linejoin:round" fill="none" olab:comment=""/>
	<polyline points="1005,2130 1005,2111" style="stroke: black;stroke-width: 14;stroke-linecap:butt;stroke-linejoin:round" fill="none" olab:comment=""/>
	<polyline points="1132,2130 1132,2111" style="stroke: black;stroke-width: 14;stroke-linecap:butt;stroke-linejoin:round" fill="none" olab:comment=""/>
	<polyline points="1260,2130 1260,2111" style="stroke: black;stroke-width: 14;stroke-linecap:butt;stroke-linejoin:round" fill="none" olab:comment=""/>
	<polyline points="1388,2130 1388,2111" style="stroke: black;stroke-width: 14;stroke-linecap:butt;stroke-linejoin:round" fill="none" olab:comment=""/>
	<polyline points="1643,2130 1643,2111" style="stroke: black;stroke-width: 14;stroke-linecap:butt;stroke-linejoin:round" fill="none" olab:comment=""/>
	<polyline points="1771,2130 1771,2111" style="stroke: black;stroke-width: 14;stroke-linecap:butt;stroke-linejoin:round" fill="none" olab:comment=""/>
	<polyline points="1899,2130 1899,2111" style="stroke: black;stroke-width: 14;stroke-linecap:butt;stroke-linejoin:round" fill="none" olab:comment=""/>
	<polyline points="2026,2130 2026,2111" style="stroke: black;stroke-width: 14;stroke-linecap:butt;stroke-linejoin:round" fill="none" olab:comment=""/>
	<polyline points="2154,2130 2154,2111" style="stroke: black;stroke-width: 14;stroke-linecap:butt;stroke-linejoin:round" fill="none" olab:comment=""/>
	<polyline points="2282,2130 2282,2111" style="stroke: black;stroke-width: 14;stroke-linecap:butt;stroke-linejoin:round" fill="none" olab:comment=""/>
	<polyline points="2409,2130 2409,2111" style="stroke: black;stroke-width: 14;stroke-linecap:butt;stroke-linejoin:round" fill="none" olab:comment=""/>
	<polyline points="2537,2130 2537,2111" style="stroke: black;stroke-width: 14;stroke-linecap:butt;stroke-linejoin:round" fill="none" olab:comment=""/>
	<polyline points="2665,2130 2665,2111" style="stroke: black;stroke-width: 14;stroke-linecap:butt;stroke-linejoin:round" fill="none" olab:comment=""/>
	<polyline points="2920,2130 2920,2111" style="stroke: black;stroke-width: 14;stroke-linecap:butt;stroke-linejoin:round" fill="none" olab:comment=""/>
	<polyline points="3048,2130 3048,2111" style="stroke: black;stroke-width: 14;stroke-linecap:butt;stroke-linejoin:round" fill="none" olab:comment=""/>
	<polyline points="3175,2130 3175,2111" style="stroke: black;stroke-width: 14;stroke-linecap:butt;stroke-linejoin:round" fill="none" olab:comment=""/>
	<polyline points="3303,2130 3303,2111" style="stroke: black;stroke-width: 14;stroke-linecap:butt;stroke-linejoin:round" fill="none" olab:comment=""/>
	<polyline points="1515,2130 1515,2092" style="stroke: black;stroke-width: 14;stroke-linecap:butt;stroke-linejoin:round" fill="none" olab:comment=""/>
	<polyline points="2792,2130 2792,2092" style="stroke: black;stroke-width: 14;stroke-linecap:butt;stroke-linejoin:round" fill="none" olab:comment=""/>
	<polyline points="494,72 3303,72" style="stroke: black;stroke-width: 14;stroke-linecap:square;stroke-linejoin:round" fill="none" olab:comment=""/>
	<polyline points="494,72 494,91" style="stroke: black;stroke-width: 14;stroke-linecap:butt;stroke-linejoin:round" fill="none" olab:comment=""/>
	<polyline points="622,72 622,91" style="stroke: black;stroke-width: 14;stroke-linecap:butt;stroke-linejoin:round" fill="none" olab:comment=""/>
	<polyline points="749,72 749,91" style="stroke: black;stroke-width: 14;stroke-linecap:butt;stroke-linejoin:round" fill="none" olab:comment=""/>
	<polyline points="877,72 877,91" style="stroke: black;stroke-width: 14;stroke-linecap:butt;stroke-linejoin:round" fill="none" olab:comment=""/>
	<polyline points="1005,72 1005,91" style="stroke: black;stroke-width: 14;stroke-linecap:butt;stroke-linejoin:round" fill="none" olab:comment=""/>
	<polyline points="1132,72 1132,91" style="stroke: black;stroke-width: 14;stroke-linecap:butt;stroke-linejoin:round" fill="none" olab:comment=""/>
	<polyline points="1260,72 1260,91" style="stroke: black;stroke-width: 14;stroke-linecap:butt;stroke-linejoin:round" fill="none" olab:comment=""/>
	<polyline points="1388,72 1388,91" style="stroke: black;stroke-width: 14;stroke-linecap:butt;stroke-linejoin:round" fill="none" olab:comment=""/>
	<polyline points="1643,72 1643,91" style="stroke: black;stroke-width: 14;stroke-linecap:butt;stroke-linejoin:round" fill="none" olab:comment=""/>
	<polyline points="1771,72 1771,91" style="stroke: black;stroke-width: 14;stroke-linecap:butt;stroke-linejoin:round" fill="none" olab:comment=""/>
	<polyline points="1899,72 1899,91" style="stroke: black;stroke-width: 14;stroke-linecap:butt;stroke-linejoin:round" fill="none" olab:comment=""/>
	<polyline points="2026,72 2026,91" style="stroke: black;stroke-width: 14;stroke-linecap:butt;stroke-linejoin:round" fill="none" olab:comment=""/>
	<polyline points="2154,72 2154,91" style="stroke: black;stroke-width: 14;stroke-linecap:butt;stroke-linejoin:round" fill="none" olab:comment=""/>
	<polyline points="2282,72 2282,91" style="stroke: black;stroke-width: 14;stroke-linecap:butt;stroke-linejoin:round" fill="none" olab:comment=""/>
	<polyline points="2409,72 2409,91" style="stroke: black;stroke-width: 14;stroke-linecap:butt;stroke-linejoin:round" fill="none" olab:comment=""/>
	<polyline points="2537,72 2537,91" style="stroke: black;stroke-width: 14;stroke-linecap:butt;stroke-linejoin:round" fill="none" olab:comment=""/>
	<polyline points="2665,72 2665,91" style="stroke: black;stroke-width: 14;stroke-linecap:butt;stroke-linejoin:round" fill="none" olab:comment=""/>
	<polyline points="2920,72 2920,91" style="stroke: black;stroke-width: 14;stroke-linecap:butt;stroke-linejoin:round" fill="none" olab:comment=""/>
	<polyline points="3048,72 3048,91" style="stroke: black;stroke-width: 14;stroke-linecap:butt;stroke-linejoin:round" fill="none" olab:comment=""/>
	<polyline points="3175,72 3175,91" style="stroke: black;stroke-width: 14;stroke-linecap:butt;stroke-linejoin:round" fill="none" olab:comment=""/>
	<polyline points="3303,72 3303,91" style="stroke: black;stroke-width: 14;stroke-linecap:butt;stroke-linejoin:round" fill="none" olab:comment=""/>
	<polyline points="1515,72 1515,110" style="stroke: black;stroke-width: 14;stroke-linecap:butt;stroke-linejoin:round" fill="none" olab:comment=""/>
	<polyline points="2792,72 2792,110" style="stroke: black;stroke-width: 14;stroke-linecap:butt;stroke-linejoin:round" fill="none" olab:comment=""/>
	<polyline points="494,2130 494,72" style="stroke: black;stroke-width: 14;stroke-linecap:square;stroke-linejoin:round" fill="none" olab:comment=""/>
	<polyline points="494,1924 513,1924" style="stroke: black;stroke-width: 14;stroke-linecap:butt;stroke-linejoin:round" fill="none" olab:comment=""/>
	<polyline points="494,1718 513,1718" style="stroke: black;stroke-width: 14;stroke-linecap:butt;stroke-linejoin:round" fill="none" olab:comment=""/>
	<polyline points="494,1307 513,1307" style="stroke: black;stroke-width: 14;stroke-linecap:butt;stroke-linejoin:round" fill="none" olab:comment=""/>
	<polyline points="494,1101 513,1101" style="stroke: black;stroke-width: 14;stroke-linecap:butt;stroke-linejoin:round" fill="none" olab:comment=""/>
	<polyline points="494,689 513,689" style="stroke: black;stroke-width: 14;stroke-linecap:butt;stroke-linejoin:round" fill="none" olab:comment=""/>
	<polyline points="494,484 513,484" style="stroke: black;stroke-width: 14;stroke-linecap:butt;stroke-linejoin:round" fill="none" olab:comment=""/>
	<polyline points="494,72 513,72" style="stroke: black;stroke-width: 14;stroke-linecap:butt;stroke-linejoin:round" fill="none" olab:comment=""/>
	<polyline points="494,2130 532,2130" style="stroke: black;stroke-width: 14;stroke-linecap:butt;stroke-linejoin:round" fill="none" olab:comment=""/>
	<polyline points="494,1513 532,1513" style="stroke: black;stroke-width: 14;stroke-linecap:butt;stroke-linejoin:round" fill="none" olab:comment=""/>
	<polyline points="494,895 532,895" style="stroke: black;stroke-width: 14;stroke-linecap:butt;stroke-linejoin:round" fill="none" olab:comment=""/>
	<polyline points="494,278 532,278" style="stroke: black;stroke-width: 14;stroke-linecap:butt;stroke-linejoin:round" fill="none" olab:comment=""/>
	<polyline points="3303,2130 3303,72" style="stroke: black;stroke-width: 14;stroke-linecap:square;stroke-linejoin:round" fill="none" olab:comment=""/>
	<polyline points="3303,1924 3284,1924" style="stroke: black;stroke-width: 14;stroke-linecap:butt;stroke-linejoin:round" fill="none" olab:comment=""/>
	<polyline points="3303,1718 3284,1718" style="stroke: black;stroke-width: 14;stroke-linecap:butt;stroke-linejoin:round" fill="none" olab:comment=""/>
	<polyline points="3303,1307 3284,1307" style="stroke: black;stroke-width: 14;stroke-linecap:butt;stroke-linejoin:round" fill="none" olab:comment=""/>
	<polyline points="3303,1101 3284,1101" style="stroke: black;stroke-width: 14;stroke-linecap:butt;stroke-linejoin:round" fill="none" olab:comment=""/>
	<polyline points="3303,689 3284,689" style="stroke: black;stroke-width: 14;stroke-linecap:butt;stroke-linejoin:round" fill="none" olab:comment=""/>
	<polyline points="3303,484 3284,484" style="stroke: black;stroke-width: 14;stroke-linecap:butt;stroke-linejoin:round" fill="none" olab:comment=""/>
	<polyline points="3303,72 3284,72" style="stroke: black;stroke-width: 14;stroke-linecap:butt;stroke-linejoin:round" fill="none" olab:comment=""/>
	<polyline points="3303,2130 3265,2130" style="stroke: black;stroke-width: 14;stroke-linecap:butt;stroke-linejoin:round" fill="none" olab:comment=""/>
	<polyline points="3303,1513 3265,1513" style="stroke: black;stroke-width: 14;stroke-linecap:butt;stroke-linejoin:round" fill="none" olab:comment=""/>
	<polyline points="3303,895 3265,895" style="stroke: black;stroke-width: 14;stroke-linecap:butt;stroke-linejoin:round" fill="none" olab:comment=""/>
	<polyline points="3303,278 3265,278" style="stroke: black;stroke-width: 14;stroke-linecap:butt;stroke-linejoin:round" fill="none" olab:comment=""/>
	<text x="1377" dominant-baseline="auto" y="2275" fill="black" font-family="Times New Roman,'MS PGothic',SimSun" font-size="137" font-weight="400" olab:comment="">
		<tspan x="1377" style="font-kerning:none">1000</tspan>
	</text>
	<text x="2654" dominant-baseline="auto" y="2275" fill="black" font-family="Times New Roman,'MS PGothic',SimSun" font-size="137" font-weight="400" olab:comment="">
		<tspan x="2654" style="font-kerning:none">2000</tspan>
	</text>
	<text x="281" dominant-baseline="auto" y="2170" fill="black" font-family="Times New Roman,'MS PGothic',SimSun" font-size="137" font-weight="400" olab:comment="">
		<tspan x="281" style="font-kerning:none">0.0</tspan>
	</text>
	<text x="281" dominant-baseline="auto" y="1553" fill="black" font-family="Times New Roman,'MS PGothic',SimSun" font-size="137" font-weight="400" olab:comment="">
		<tspan x="281" style="font-kerning:none">0.3</tspan>
	</text>
	<text x="281" dominant-baseline="auto" y="935" fill="black" font-family="Times New Roman,'MS PGothic',SimSun" font-size="137" font-weight="400" olab:comment="">
		<tspan x="281" style="font-kerning:none">0.6</tspan>
	</text>
	<text x="281" dominant-baseline="auto" y="318" fill="black" font-family="Times New Roman,'MS PGothic',SimSun" font-size="137" font-weight="400" olab:comment="">
		<tspan x="281" style="font-kerning:none">0.9</tspan>
	</text>
	<text x="0" dominant-baseline="auto" y="0" fill="black" font-family="Arial,'MS PGothic',SimSun" font-size="137" font-weight="400" transform="matrix(-1.83697e-16 -1 0.999999 -1.83697e-16 231 1257)" olab:comment="">
		<tspan x="0" style="font-kerning:none">BIO4</tspan>
	</text>
</svg>

