<?xml version="1.0" encoding="UTF-8"?>
<!DOCTYPE svg PUBLIC "-//W3C//DTD SVG 1.1//EN" "http://www.w3.org/Graphics/SVG/1.1/DTD/svg11.dtd">
<!--Generated by Origin-->
<svg xmlns="http://www.w3.org/2000/svg" xmlns:xlink="http://www.w3.org/1999/xlink" xmlns:olab="http://www.originlab.com/namespaces/olab" viewBox="96,66 3214,2250" width="10.720000in" height="7.500000in">
	<defs>
		<mask id="Cp_1">
			<rect x="494" y="72" width="2810" height="2059" fill="white"/>
		</mask>
	</defs>
	<g mask="url(#Cp_1)">
		<rect x="96" y="66" width="3214" height="2250" visibility="hidden" fill="none" opacity="0"/>
		<path d="M 585,1461 L 585,1461 610,1461 635,1461 660,1461 686,1461 711,1461 736,1461 761,1461 786,1461 811,1461 836,1461 861,1461 886,1461 911,1461 936,1461 961,1461 986,1461 1011,1461 1036,1461 1062,1461 1087,1461 1112,1461 1137,1461 1162,1461 1187,1461 1212,1461 1237,1461 1262,1461 1287,1461 1312,1461 1337,1461 1362,1460 1387,1460 1412,1460 1437,1459 1463,1459 1488,1459 1513,1458 1538,1458 1563,1455 1588,1450 1613,1445 1638,1440 1663,1431 1688,1425 1713,1414 1738,1408 1763,1393 1788,1390 1813,1386 1839,1383 1864,1379 1889,1375 1914,1373 1939,1364 1964,1360 1989,1360 2014,1356 2039,1344 2064,1314 2089,1311 2114,1310 2139,1301 2164,1300 2189,1291 2214,1287 2240,1290 2265,1289 2290,1260 2315,1240 2340,1224 2365,1188 2390,1173 2415,1142 2440,1090 2465,1072 2490,1036 2515,1018 2540,995 2565,917 2590,836 2616,808 2641,742 2666,700 2691,684 2716,676 2741,669 2766,650 2791,640 2816,632 2841,630 2866,629 2891,629 2916,629 2941,629 2966,629 2991,629 3017,629 3042,629 3067,629 3067,1461 Z M 585,1461 L 585,1294 610,1294 635,1294 660,1294 686,1294 711,1294 736,1294 761,1294 786,1294 811,1294 836,1294 861,1294 886,1294 911,1294 936,1294 961,1294 986,1294 1011,1294 1036,1294 1062,1294 1087,1294 1112,1294 1137,1294 1162,1294 1187,1294 1212,1294 1237,1294 1262,1294 1287,1294 1312,1294 1337,1293 1362,1293 1387,1292 1412,1291 1437,1291 1463,1291 1488,1290 1513,1289 1538,1289 1563,1284 1588,1281 1613,1274 1638,1265 1663,1253 1688,1247 1713,1229 1738,1223 1763,1205 1788,1202 1813,1197 1839,1193 1864,1187 1889,1181 1914,1179 1939,1165 1964,1161 1989,1162 2014,1157 2039,1148 2064,1106 2089,1102 2114,1102 2139,1091 2164,1093 2189,1082 2214,1078 2240,1079 2265,1077 2290,1056 2315,1030 2340,1007 2365,974 2390,952 2415,910 2440,848 2465,825 2490,782 2515,752 2540,721 2565,653 2590,577 2616,552 2641,497 2666,466 2691,455 2716,447 2741,442 2766,431 2791,422 2816,415 2841,415 2866,415 2891,415 2916,415 2941,415 2966,415 2991,415 3017,415 3042,415 3067,415 3067,1461 Z" fill="#FDC1C1" fill-rule="evenodd" stroke="none" olab:comment=""/>
		<polyline points="585,1461 610,1461 635,1461 660,1461 686,1461 711,1461 736,1461 761,1461 786,1461 811,1461 836,1461 861,1461 886,1461 911,1461 936,1461 961,1461 986,1461 1011,1461 1036,1461 1062,1461 1087,1461 1112,1461 1137,1461 1162,1461 1187,1461 1212,1461 1237,1461 1262,1461 1287,1461 1312,1461 1337,1461 1362,1460 1387,1460 1412,1460 1437,1459 1463,1459 1488,1459 1513,1458 1538,1458 1563,1455 1588,1450 1613,1445 1638,1440 1663,1431 1688,1425 1713,1414 1738,1408 1763,1393 1788,1390 1813,1386 1839,1383 1864,1379 1889,1375 1914,1373 1939,1364 1964,1360 1989,1360 2014,1356 2039,1344 2064,1314 2089,1311 2114,1310 2139,1301 2164,1300 2189,1291 2214,1287 2240,1290 2265,1289 2290,1260 2315,1240 2340,1224 2365,1188 2390,1173 2415,1142 2440,1090 2465,1072 2490,1036 2515,1018 2540,995 2565,917 2590,836 2616,808 2641,742 2666,700 2691,684 2716,676 2741,669 2766,650 2791,640 2816,632 2841,630 2866,629 2891,629 2916,629 2941,629 2966,629 2991,629 3017,629 3042,629 3067,629" style="stroke: #FDC1C1;stroke-width: 2;stroke-linecap:round;stroke-linejoin:round" fill="none" olab:comment=""/>
		<polyline points="585,1377 610,1377 635,1377 660,1377 686,1377 711,1377 736,1377 761,1377 786,1377 811,1377 836,1377 861,1377 886,1377 911,1377 936,1377 961,1377 986,1377 1011,1377 1036,1377 1062,1377 1087,1377 1112,1377 1137,1377 1162,1377 1187,1377 1212,1377 1237,1377 1262,1377 1287,1377 1312,1377 1337,1377 1362,1377 1387,1376 1412,1376 1437,1375 1463,1375 1488,1374 1513,1374 1538,1373 1563,1369 1588,1365 1613,1359 1638,1352 1663,1342 1688,1336 1713,1321 1738,1316 1763,1299 1788,1296 1813,1292 1839,1288 1864,1283 1889,1278 1914,1276 1939,1265 1964,1261 1989,1261 2014,1257 2039,1246 2064,1210 2089,1207 2114,1206 2139,1196 2164,1196 2189,1186 2214,1182 2240,1184 2265,1183 2290,1158 2315,1135 2340,1116 2365,1081 2390,1062 2415,1026 2440,969 2465,948 2490,909 2515,885 2540,858 2565,785 2590,706 2616,680 2641,620 2666,583 2691,569 2716,561 2741,556 2766,541 2791,531 2816,523 2841,522 2866,522 2891,522 2916,522 2941,522 2966,522 2991,522 3017,522 3042,522 3067,522" style="stroke: #F14040;stroke-width: 14;stroke-linecap:round;stroke-linejoin:round" fill="none" olab:comment=""/>
		<polyline points="585,1294 610,1294 635,1294 660,1294 686,1294 711,1294 736,1294 761,1294 786,1294 811,1294 836,1294 861,1294 886,1294 911,1294 936,1294 961,1294 986,1294 1011,1294 1036,1294 1062,1294 1087,1294 1112,1294 1137,1294 1162,1294 1187,1294 1212,1294 1237,1294 1262,1294 1287,1294 1312,1294 1337,1293 1362,1293 1387,1292 1412,1291 1437,1291 1463,1291 1488,1290 1513,1289 1538,1289 1563,1284 1588,1281 1613,1274 1638,1265 1663,1253 1688,1247 1713,1229 1738,1223 1763,1205 1788,1202 1813,1197 1839,1193 1864,1187 1889,1181 1914,1179 1939,1165 1964,1161 1989,1162 2014,1157 2039,1148 2064,1106 2089,1102 2114,1102 2139,1091 2164,1093 2189,1082 2214,1078 2240,1079 2265,1077 2290,1056 2315,1030 2340,1007 2365,974 2390,952 2415,910 2440,848 2465,825 2490,782 2515,752 2540,721 2565,653 2590,577 2616,552 2641,497 2666,466 2691,455 2716,447 2741,442 2766,431 2791,422 2816,415 2841,415 2866,415 2891,415 2916,415 2941,415 2966,415 2991,415 3017,415 3042,415 3067,415" style="stroke: #FDC1C1;stroke-width: 2;stroke-linecap:round;stroke-linejoin:round" fill="none" olab:comment=""/>
	</g>
	<polyline points="494,2130 3303,2130" style="stroke: black;stroke-width: 14;stroke-linecap:square;stroke-linejoin:round" fill="none" olab:comment=""/>
	<polyline points="494,2130 494,2111" style="stroke: black;stroke-width: 14;stroke-linecap:butt;stroke-linejoin:round" fill="none" olab:comment=""/>
	<polyline points="845,2130 845,2111" style="stroke: black;stroke-width: 14;stroke-linecap:butt;stroke-linejoin:round" fill="none" olab:comment=""/>
	<polyline points="1547,2130 1547,2111" style="stroke: black;stroke-width: 14;stroke-linecap:butt;stroke-linejoin:round" fill="none" olab:comment=""/>
	<polyline points="1899,2130 1899,2111" style="stroke: black;stroke-width: 14;stroke-linecap:butt;stroke-linejoin:round" fill="none" olab:comment=""/>
	<polyline points="2250,2130 2250,2111" style="stroke: black;stroke-width: 14;stroke-linecap:butt;stroke-linejoin:round" fill="none" olab:comment=""/>
	<polyline points="2952,2130 2952,2111" style="stroke: black;stroke-width: 14;stroke-linecap:butt;stroke-linejoin:round" fill="none" olab:comment=""/>
	<polyline points="3303,2130 3303,2111" style="stroke: black;stroke-width: 14;stroke-linecap:butt;stroke-linejoin:round" fill="none" olab:comment=""/>
	<polyline points="1196,2130 1196,2092" style="stroke: black;stroke-width: 14;stroke-linecap:butt;stroke-linejoin:round" fill="none" olab:comment=""/>
	<polyline points="2601,2130 2601,2092" style="stroke: black;stroke-width: 14;stroke-linecap:butt;stroke-linejoin:round" fill="none" olab:comment=""/>
	<polyline points="494,72 3303,72" style="stroke: black;stroke-width: 14;stroke-linecap:square;stroke-linejoin:round" fill="none" olab:comment=""/>
	<polyline points="494,72 494,91" style="stroke: black;stroke-width: 14;stroke-linecap:butt;stroke-linejoin:round" fill="none" olab:comment=""/>
	<polyline points="845,72 845,91" style="stroke: black;stroke-width: 14;stroke-linecap:butt;stroke-linejoin:round" fill="none" olab:comment=""/>
	<polyline points="1547,72 1547,91" style="stroke: black;stroke-width: 14;stroke-linecap:butt;stroke-linejoin:round" fill="none" olab:comment=""/>
	<polyline points="1899,72 1899,91" style="stroke: black;stroke-width: 14;stroke-linecap:butt;stroke-linejoin:round" fill="none" olab:comment=""/>
	<polyline points="2250,72 2250,91" style="stroke: black;stroke-width: 14;stroke-linecap:butt;stroke-linejoin:round" fill="none" olab:comment=""/>
	<polyline points="2952,72 2952,91" style="stroke: black;stroke-width: 14;stroke-linecap:butt;stroke-linejoin:round" fill="none" olab:comment=""/>
	<polyline points="3303,72 3303,91" style="stroke: black;stroke-width: 14;stroke-linecap:butt;stroke-linejoin:round" fill="none" olab:comment=""/>
	<polyline points="1196,72 1196,110" style="stroke: black;stroke-width: 14;stroke-linecap:butt;stroke-linejoin:round" fill="none" olab:comment=""/>
	<polyline points="2601,72 2601,110" style="stroke: black;stroke-width: 14;stroke-linecap:butt;stroke-linejoin:round" fill="none" olab:comment=""/>
	<polyline points="494,2130 494,72" style="stroke: black;stroke-width: 14;stroke-linecap:square;stroke-linejoin:round" fill="none" olab:comment=""/>
	<polyline points="494,1924 513,1924" style="stroke: black;stroke-width: 14;stroke-linecap:butt;stroke-linejoin:round" fill="none" olab:comment=""/>
	<polyline points="494,1718 513,1718" style="stroke: black;stroke-width: 14;stroke-linecap:butt;stroke-linejoin:round" fill="none" olab:comment=""/>
	<polyline points="494,1307 513,1307" style="stroke: black;stroke-width: 14;stroke-linecap:butt;stroke-linejoin:round" fill="none" olab:comment=""/>
	<polyline points="494,1101 513,1101" style="stroke: black;stroke-width: 14;stroke-linecap:butt;stroke-linejoin:round" fill="none" olab:comment=""/>
	<polyline points="494,689 513,689" style="stroke: black;stroke-width: 14;stroke-linecap:butt;stroke-linejoin:round" fill="none" olab:comment=""/>
	<polyline points="494,484 513,484" style="stroke: black;stroke-width: 14;stroke-linecap:butt;stroke-linejoin:round" fill="none" olab:comment=""/>
	<polyline points="494,72 513,72" style="stroke: black;stroke-width: 14;stroke-linecap:butt;stroke-linejoin:round" fill="none" olab:comment=""/>
	<polyline points="494,2130 532,2130" style="stroke: black;stroke-width: 14;stroke-linecap:butt;stroke-linejoin:round" fill="none" olab:comment=""/>
	<polyline points="494,1513 532,1513" style="stroke: black;stroke-width: 14;stroke-linecap:butt;stroke-linejoin:round" fill="none" olab:comment=""/>
	<polyline points="494,895 532,895" style="stroke: black;stroke-width: 14;stroke-linecap:butt;stroke-linejoin:round" fill="none" olab:comment=""/>
	<polyline points="494,278 532,278" style="stroke: black;stroke-width: 14;stroke-linecap:butt;stroke-linejoin:round" fill="none" olab:comment=""/>
	<polyline points="3303,2130 3303,72" style="stroke: black;stroke-width: 14;stroke-linecap:square;stroke-linejoin:round" fill="none" olab:comment=""/>
	<polyline points="3303,1924 3284,1924" style="stroke: black;stroke-width: 14;stroke-linecap:butt;stroke-linejoin:round" fill="none" olab:comment=""/>
	<polyline points="3303,1718 3284,1718" style="stroke: black;stroke-width: 14;stroke-linecap:butt;stroke-linejoin:round" fill="none" olab:comment=""/>
	<polyline points="3303,1307 3284,1307" style="stroke: black;stroke-width: 14;stroke-linecap:butt;stroke-linejoin:round" fill="none" olab:comment=""/>
	<polyline points="3303,1101 3284,1101" style="stroke: black;stroke-width: 14;stroke-linecap:butt;stroke-linejoin:round" fill="none" olab:comment=""/>
	<polyline points="3303,689 3284,689" style="stroke: black;stroke-width: 14;stroke-linecap:butt;stroke-linejoin:round" fill="none" olab:comment=""/>
	<polyline points="3303,484 3284,484" style="stroke: black;stroke-width: 14;stroke-linecap:butt;stroke-linejoin:round" fill="none" olab:comment=""/>
	<polyline points="3303,72 3284,72" style="stroke: black;stroke-width: 14;stroke-linecap:butt;stroke-linejoin:round" fill="none" olab:comment=""/>
	<polyline points="3303,2130 3265,2130" style="stroke: black;stroke-width: 14;stroke-linecap:butt;stroke-linejoin:round" fill="none" olab:comment=""/>
	<polyline points="3303,1513 3265,1513" style="stroke: black;stroke-width: 14;stroke-linecap:butt;stroke-linejoin:round" fill="none" olab:comment=""/>
	<polyline points="3303,895 3265,895" style="stroke: black;stroke-width: 14;stroke-linecap:butt;stroke-linejoin:round" fill="none" olab:comment=""/>
	<polyline points="3303,278 3265,278" style="stroke: black;stroke-width: 14;stroke-linecap:butt;stroke-linejoin:round" fill="none" olab:comment=""/>
	<text x="1162" dominant-baseline="auto" y="2275" fill="black" font-family="Times New Roman,'MS PGothic',SimSun" font-size="137" font-weight="400" olab:comment="">
		<tspan x="1162" style="font-kerning:none">0</tspan>
	</text>
	<text x="2532" dominant-baseline="auto" y="2275" fill="black" font-family="Times New Roman,'MS PGothic',SimSun" font-size="137" font-weight="400" olab:comment="">
		<tspan x="2532" style="font-kerning:none">20</tspan>
	</text>
	<text x="281" dominant-baseline="auto" y="2170" fill="black" font-family="Times New Roman,'MS PGothic',SimSun" font-size="137" font-weight="400" olab:comment="">
		<tspan x="281" style="font-kerning:none">0.0</tspan>
	</text>
	<text x="281" dominant-baseline="auto" y="1553" fill="black" font-family="Times New Roman,'MS PGothic',SimSun" font-size="137" font-weight="400" olab:comment="">
		<tspan x="281" style="font-kerning:none">0.3</tspan>
	</text>
	<text x="281" dominant-baseline="auto" y="935" fill="black" font-family="Times New Roman,'MS PGothic',SimSun" font-size="137" font-weight="400" olab:comment="">
		<tspan x="281" style="font-kerning:none">0.6</tspan>
	</text>
	<text x="281" dominant-baseline="auto" y="318" fill="black" font-family="Times New Roman,'MS PGothic',SimSun" font-size="137" font-weight="400" olab:comment="">
		<tspan x="281" style="font-kerning:none">0.9</tspan>
	</text>
	<text x="0" dominant-baseline="auto" y="0" fill="black" font-family="Arial,'MS PGothic',SimSun" font-size="137" font-weight="400" transform="matrix(-1.83697e-16 -1 0.999999 -1.83697e-16 231 1257)" olab:comment="">
		<tspan x="0" style="font-kerning:none">BIO5</tspan>
	</text>
</svg>

