<?xml version="1.0" encoding="UTF-8"?>
<!DOCTYPE svg PUBLIC "-//W3C//DTD SVG 1.1//EN" "http://www.w3.org/Graphics/SVG/1.1/DTD/svg11.dtd">
<!--Generated by Origin-->
<svg xmlns="http://www.w3.org/2000/svg" xmlns:xlink="http://www.w3.org/1999/xlink" xmlns:olab="http://www.originlab.com/namespaces/olab" viewBox="96,66 3214,2250" width="10.720000in" height="7.500000in">
	<defs>
		<mask id="Cp_1">
			<rect x="494" y="72" width="2810" height="2059" fill="white"/>
		</mask>
	</defs>
	<g mask="url(#Cp_1)">
		<rect x="96" y="66" width="3214" height="2250" visibility="hidden" fill="none" opacity="0"/>
		<path d="M 591,1596 L 591,1596 616,1596 640,1596 665,1596 690,1596 714,1596 739,1596 764,1596 788,1596 813,1596 837,1596 862,1596 887,1596 911,1596 936,1595 960,1589 985,1581 1010,1580 1034,1576 1059,1574 1084,1571 1108,1567 1133,1564 1157,1556 1182,1556 1207,1554 1231,1529 1256,1514 1281,1492 1305,1473 1330,1432 1354,1424 1379,1421 1404,1417 1428,1401 1453,1374 1477,1357 1502,1348 1527,1324 1551,1319 1576,1312 1601,1268 1625,1264 1650,1258 1674,1257 1699,1258 1724,1260 1748,1250 1773,1172 1797,1153 1822,1142 1847,1129 1871,1116 1896,1114 1921,1108 1945,1088 1970,1067 1994,1038 2019,1032 2044,1025 2068,1017 2093,1010 2118,1005 2142,1001 2167,999 2191,997 2216,994 2241,987 2265,985 2290,984 2314,983 2339,982 2364,980 2388,979 2413,980 2438,980 2462,979 2487,979 2511,983 2536,983 2561,983 2585,983 2610,982 2634,982 2659,982 2684,982 2708,983 2733,986 2758,986 2782,991 2807,992 2831,992 2856,993 2881,993 2905,997 2930,999 2954,999 2979,999 3004,999 3028,999 3028,1596 Z M 591,1596 L 591,1472 616,1472 640,1472 665,1472 690,1472 714,1472 739,1472 764,1472 788,1472 813,1472 837,1472 862,1472 887,1472 911,1471 936,1471 960,1460 985,1449 1010,1448 1034,1445 1059,1441 1084,1439 1108,1435 1133,1428 1157,1417 1182,1415 1207,1412 1231,1387 1256,1367 1281,1346 1305,1323 1330,1275 1354,1265 1379,1262 1404,1255 1428,1237 1453,1214 1477,1201 1502,1191 1527,1157 1551,1124 1576,1114 1601,1056 1625,1045 1650,1036 1674,1035 1699,1032 1724,1032 1748,1029 1773,972 1797,955 1822,948 1847,936 1871,924 1896,920 1921,914 1945,899 1970,882 1994,853 2019,850 2044,844 2068,836 2093,828 2118,825 2142,823 2167,821 2191,819 2216,816 2241,811 2265,808 2290,808 2314,808 2339,807 2364,806 2388,805 2413,805 2438,807 2462,807 2487,807 2511,812 2536,811 2561,811 2585,810 2610,811 2634,810 2659,810 2684,811 2708,813 2733,819 2758,818 2782,824 2807,828 2831,828 2856,829 2881,830 2905,834 2930,835 2954,835 2979,835 3004,835 3028,835 3028,1596 Z" fill="#FDC1C1" fill-rule="evenodd" stroke="none" olab:comment=""/>
		<polyline points="591,1596 616,1596 640,1596 665,1596 690,1596 714,1596 739,1596 764,1596 788,1596 813,1596 837,1596 862,1596 887,1596 911,1596 936,1595 960,1589 985,1581 1010,1580 1034,1576 1059,1574 1084,1571 1108,1567 1133,1564 1157,1556 1182,1556 1207,1554 1231,1529 1256,1514 1281,1492 1305,1473 1330,1432 1354,1424 1379,1421 1404,1417 1428,1401 1453,1374 1477,1357 1502,1348 1527,1324 1551,1319 1576,1312 1601,1268 1625,1264 1650,1258 1674,1257 1699,1258 1724,1260 1748,1250 1773,1172 1797,1153 1822,1142 1847,1129 1871,1116 1896,1114 1921,1108 1945,1088 1970,1067 1994,1038 2019,1032 2044,1025 2068,1017 2093,1010 2118,1005 2142,1001 2167,999 2191,997 2216,994 2241,987 2265,985 2290,984 2314,983 2339,982 2364,980 2388,979 2413,980 2438,980 2462,979 2487,979 2511,983 2536,983 2561,983 2585,983 2610,982 2634,982 2659,982 2684,982 2708,983 2733,986 2758,986 2782,991 2807,992 2831,992 2856,993 2881,993 2905,997 2930,999 2954,999 2979,999 3004,999 3028,999" style="stroke: #FDC1C1;stroke-width: 2;stroke-linecap:round;stroke-linejoin:round" fill="none" olab:comment=""/>
		<polyline points="591,1534 616,1534 640,1534 665,1534 690,1534 714,1534 739,1534 764,1534 788,1534 813,1534 837,1534 862,1534 887,1534 911,1533 936,1533 960,1525 985,1515 1010,1514 1034,1510 1059,1507 1084,1505 1108,1501 1133,1496 1157,1487 1182,1485 1207,1483 1231,1458 1256,1441 1281,1419 1305,1398 1330,1353 1354,1344 1379,1342 1404,1336 1428,1319 1453,1294 1477,1279 1502,1269 1527,1241 1551,1221 1576,1213 1601,1162 1625,1154 1650,1147 1674,1146 1699,1145 1724,1146 1748,1140 1773,1072 1797,1054 1822,1045 1847,1032 1871,1020 1896,1017 1921,1011 1945,994 1970,974 1994,946 2019,941 2044,935 2068,926 2093,919 2118,915 2142,912 2167,910 2191,908 2216,905 2241,899 2265,897 2290,896 2314,895 2339,895 2364,893 2388,892 2413,892 2438,893 2462,893 2487,893 2511,898 2536,897 2561,897 2585,897 2610,896 2634,896 2659,896 2684,897 2708,898 2733,903 2758,902 2782,908 2807,910 2831,910 2856,911 2881,912 2905,916 2930,917 2954,917 2979,917 3004,917 3028,917" style="stroke: #F14040;stroke-width: 14;stroke-linecap:round;stroke-linejoin:round" fill="none" olab:comment=""/>
		<polyline points="591,1472 616,1472 640,1472 665,1472 690,1472 714,1472 739,1472 764,1472 788,1472 813,1472 837,1472 862,1472 887,1472 911,1471 936,1471 960,1460 985,1449 1010,1448 1034,1445 1059,1441 1084,1439 1108,1435 1133,1428 1157,1417 1182,1415 1207,1412 1231,1387 1256,1367 1281,1346 1305,1323 1330,1275 1354,1265 1379,1262 1404,1255 1428,1237 1453,1214 1477,1201 1502,1191 1527,1157 1551,1124 1576,1114 1601,1056 1625,1045 1650,1036 1674,1035 1699,1032 1724,1032 1748,1029 1773,972 1797,955 1822,948 1847,936 1871,924 1896,920 1921,914 1945,899 1970,882 1994,853 2019,850 2044,844 2068,836 2093,828 2118,825 2142,823 2167,821 2191,819 2216,816 2241,811 2265,808 2290,808 2314,808 2339,807 2364,806 2388,805 2413,805 2438,807 2462,807 2487,807 2511,812 2536,811 2561,811 2585,810 2610,811 2634,810 2659,810 2684,811 2708,813 2733,819 2758,818 2782,824 2807,828 2831,828 2856,829 2881,830 2905,834 2930,835 2954,835 2979,835 3004,835 3028,835" style="stroke: #FDC1C1;stroke-width: 2;stroke-linecap:round;stroke-linejoin:round" fill="none" olab:comment=""/>
	</g>
	<polyline points="494,2130 3303,2130" style="stroke: black;stroke-width: 14;stroke-linecap:square;stroke-linejoin:round" fill="none" olab:comment=""/>
	<polyline points="494,2130 494,2111" style="stroke: black;stroke-width: 14;stroke-linecap:butt;stroke-linejoin:round" fill="none" olab:comment=""/>
	<polyline points="749,2130 749,2111" style="stroke: black;stroke-width: 14;stroke-linecap:butt;stroke-linejoin:round" fill="none" olab:comment=""/>
	<polyline points="1260,2130 1260,2111" style="stroke: black;stroke-width: 14;stroke-linecap:butt;stroke-linejoin:round" fill="none" olab:comment=""/>
	<polyline points="1515,2130 1515,2111" style="stroke: black;stroke-width: 14;stroke-linecap:butt;stroke-linejoin:round" fill="none" olab:comment=""/>
	<polyline points="1771,2130 1771,2111" style="stroke: black;stroke-width: 14;stroke-linecap:butt;stroke-linejoin:round" fill="none" olab:comment=""/>
	<polyline points="2282,2130 2282,2111" style="stroke: black;stroke-width: 14;stroke-linecap:butt;stroke-linejoin:round" fill="none" olab:comment=""/>
	<polyline points="2537,2130 2537,2111" style="stroke: black;stroke-width: 14;stroke-linecap:butt;stroke-linejoin:round" fill="none" olab:comment=""/>
	<polyline points="2792,2130 2792,2111" style="stroke: black;stroke-width: 14;stroke-linecap:butt;stroke-linejoin:round" fill="none" olab:comment=""/>
	<polyline points="3303,2130 3303,2111" style="stroke: black;stroke-width: 14;stroke-linecap:butt;stroke-linejoin:round" fill="none" olab:comment=""/>
	<polyline points="1005,2130 1005,2092" style="stroke: black;stroke-width: 14;stroke-linecap:butt;stroke-linejoin:round" fill="none" olab:comment=""/>
	<polyline points="2026,2130 2026,2092" style="stroke: black;stroke-width: 14;stroke-linecap:butt;stroke-linejoin:round" fill="none" olab:comment=""/>
	<polyline points="3048,2130 3048,2092" style="stroke: black;stroke-width: 14;stroke-linecap:butt;stroke-linejoin:round" fill="none" olab:comment=""/>
	<polyline points="494,72 3303,72" style="stroke: black;stroke-width: 14;stroke-linecap:square;stroke-linejoin:round" fill="none" olab:comment=""/>
	<polyline points="494,72 494,91" style="stroke: black;stroke-width: 14;stroke-linecap:butt;stroke-linejoin:round" fill="none" olab:comment=""/>
	<polyline points="749,72 749,91" style="stroke: black;stroke-width: 14;stroke-linecap:butt;stroke-linejoin:round" fill="none" olab:comment=""/>
	<polyline points="1260,72 1260,91" style="stroke: black;stroke-width: 14;stroke-linecap:butt;stroke-linejoin:round" fill="none" olab:comment=""/>
	<polyline points="1515,72 1515,91" style="stroke: black;stroke-width: 14;stroke-linecap:butt;stroke-linejoin:round" fill="none" olab:comment=""/>
	<polyline points="1771,72 1771,91" style="stroke: black;stroke-width: 14;stroke-linecap:butt;stroke-linejoin:round" fill="none" olab:comment=""/>
	<polyline points="2282,72 2282,91" style="stroke: black;stroke-width: 14;stroke-linecap:butt;stroke-linejoin:round" fill="none" olab:comment=""/>
	<polyline points="2537,72 2537,91" style="stroke: black;stroke-width: 14;stroke-linecap:butt;stroke-linejoin:round" fill="none" olab:comment=""/>
	<polyline points="2792,72 2792,91" style="stroke: black;stroke-width: 14;stroke-linecap:butt;stroke-linejoin:round" fill="none" olab:comment=""/>
	<polyline points="3303,72 3303,91" style="stroke: black;stroke-width: 14;stroke-linecap:butt;stroke-linejoin:round" fill="none" olab:comment=""/>
	<polyline points="1005,72 1005,110" style="stroke: black;stroke-width: 14;stroke-linecap:butt;stroke-linejoin:round" fill="none" olab:comment=""/>
	<polyline points="2026,72 2026,110" style="stroke: black;stroke-width: 14;stroke-linecap:butt;stroke-linejoin:round" fill="none" olab:comment=""/>
	<polyline points="3048,72 3048,110" style="stroke: black;stroke-width: 14;stroke-linecap:butt;stroke-linejoin:round" fill="none" olab:comment=""/>
	<polyline points="494,2130 494,72" style="stroke: black;stroke-width: 14;stroke-linecap:square;stroke-linejoin:round" fill="none" olab:comment=""/>
	<polyline points="494,1924 513,1924" style="stroke: black;stroke-width: 14;stroke-linecap:butt;stroke-linejoin:round" fill="none" olab:comment=""/>
	<polyline points="494,1718 513,1718" style="stroke: black;stroke-width: 14;stroke-linecap:butt;stroke-linejoin:round" fill="none" olab:comment=""/>
	<polyline points="494,1307 513,1307" style="stroke: black;stroke-width: 14;stroke-linecap:butt;stroke-linejoin:round" fill="none" olab:comment=""/>
	<polyline points="494,1101 513,1101" style="stroke: black;stroke-width: 14;stroke-linecap:butt;stroke-linejoin:round" fill="none" olab:comment=""/>
	<polyline points="494,689 513,689" style="stroke: black;stroke-width: 14;stroke-linecap:butt;stroke-linejoin:round" fill="none" olab:comment=""/>
	<polyline points="494,484 513,484" style="stroke: black;stroke-width: 14;stroke-linecap:butt;stroke-linejoin:round" fill="none" olab:comment=""/>
	<polyline points="494,72 513,72" style="stroke: black;stroke-width: 14;stroke-linecap:butt;stroke-linejoin:round" fill="none" olab:comment=""/>
	<polyline points="494,2130 532,2130" style="stroke: black;stroke-width: 14;stroke-linecap:butt;stroke-linejoin:round" fill="none" olab:comment=""/>
	<polyline points="494,1513 532,1513" style="stroke: black;stroke-width: 14;stroke-linecap:butt;stroke-linejoin:round" fill="none" olab:comment=""/>
	<polyline points="494,895 532,895" style="stroke: black;stroke-width: 14;stroke-linecap:butt;stroke-linejoin:round" fill="none" olab:comment=""/>
	<polyline points="494,278 532,278" style="stroke: black;stroke-width: 14;stroke-linecap:butt;stroke-linejoin:round" fill="none" olab:comment=""/>
	<polyline points="3303,2130 3303,72" style="stroke: black;stroke-width: 14;stroke-linecap:square;stroke-linejoin:round" fill="none" olab:comment=""/>
	<polyline points="3303,1924 3284,1924" style="stroke: black;stroke-width: 14;stroke-linecap:butt;stroke-linejoin:round" fill="none" olab:comment=""/>
	<polyline points="3303,1718 3284,1718" style="stroke: black;stroke-width: 14;stroke-linecap:butt;stroke-linejoin:round" fill="none" olab:comment=""/>
	<polyline points="3303,1307 3284,1307" style="stroke: black;stroke-width: 14;stroke-linecap:butt;stroke-linejoin:round" fill="none" olab:comment=""/>
	<polyline points="3303,1101 3284,1101" style="stroke: black;stroke-width: 14;stroke-linecap:butt;stroke-linejoin:round" fill="none" olab:comment=""/>
	<polyline points="3303,689 3284,689" style="stroke: black;stroke-width: 14;stroke-linecap:butt;stroke-linejoin:round" fill="none" olab:comment=""/>
	<polyline points="3303,484 3284,484" style="stroke: black;stroke-width: 14;stroke-linecap:butt;stroke-linejoin:round" fill="none" olab:comment=""/>
	<polyline points="3303,72 3284,72" style="stroke: black;stroke-width: 14;stroke-linecap:butt;stroke-linejoin:round" fill="none" olab:comment=""/>
	<polyline points="3303,2130 3265,2130" style="stroke: black;stroke-width: 14;stroke-linecap:butt;stroke-linejoin:round" fill="none" olab:comment=""/>
	<polyline points="3303,1513 3265,1513" style="stroke: black;stroke-width: 14;stroke-linecap:butt;stroke-linejoin:round" fill="none" olab:comment=""/>
	<polyline points="3303,895 3265,895" style="stroke: black;stroke-width: 14;stroke-linecap:butt;stroke-linejoin:round" fill="none" olab:comment=""/>
	<polyline points="3303,278 3265,278" style="stroke: black;stroke-width: 14;stroke-linecap:butt;stroke-linejoin:round" fill="none" olab:comment=""/>
	<text x="898" dominant-baseline="auto" y="2275" fill="black" font-family="Times New Roman,'MS PGothic',SimSun" font-size="137" font-weight="400" olab:comment="">
		<tspan x="898" style="font-kerning:none">−40</tspan>
	</text>
	<text x="1919" dominant-baseline="auto" y="2275" fill="black" font-family="Times New Roman,'MS PGothic',SimSun" font-size="137" font-weight="400" olab:comment="">
		<tspan x="1919" style="font-kerning:none">−20</tspan>
	</text>
	<text x="3014" dominant-baseline="auto" y="2275" fill="black" font-family="Times New Roman,'MS PGothic',SimSun" font-size="137" font-weight="400" olab:comment="">
		<tspan x="3014" style="font-kerning:none">0</tspan>
	</text>
	<text x="281" dominant-baseline="auto" y="2170" fill="black" font-family="Times New Roman,'MS PGothic',SimSun" font-size="137" font-weight="400" olab:comment="">
		<tspan x="281" style="font-kerning:none">0.0</tspan>
	</text>
	<text x="281" dominant-baseline="auto" y="1553" fill="black" font-family="Times New Roman,'MS PGothic',SimSun" font-size="137" font-weight="400" olab:comment="">
		<tspan x="281" style="font-kerning:none">0.3</tspan>
	</text>
	<text x="281" dominant-baseline="auto" y="935" fill="black" font-family="Times New Roman,'MS PGothic',SimSun" font-size="137" font-weight="400" olab:comment="">
		<tspan x="281" style="font-kerning:none">0.6</tspan>
	</text>
	<text x="281" dominant-baseline="auto" y="318" fill="black" font-family="Times New Roman,'MS PGothic',SimSun" font-size="137" font-weight="400" olab:comment="">
		<tspan x="281" style="font-kerning:none">0.9</tspan>
	</text>
	<text x="0" dominant-baseline="auto" y="0" fill="black" font-family="Arial,'MS PGothic',SimSun" font-size="137" font-weight="400" transform="matrix(-1.83697e-16 -1 0.999999 -1.83697e-16 231 1257)" olab:comment="">
		<tspan x="0" style="font-kerning:none">BIO6</tspan>
	</text>
</svg>

