<?xml version="1.0" encoding="UTF-8"?>
<!DOCTYPE svg PUBLIC "-//W3C//DTD SVG 1.1//EN" "http://www.w3.org/Graphics/SVG/1.1/DTD/svg11.dtd">
<!--Generated by Origin-->
<svg xmlns="http://www.w3.org/2000/svg" xmlns:xlink="http://www.w3.org/1999/xlink" xmlns:olab="http://www.originlab.com/namespaces/olab" viewBox="96,66 3214,2250" width="10.720000in" height="7.500000in">
	<defs>
		<mask id="Cp_1">
			<rect x="494" y="72" width="2810" height="2059" fill="white"/>
		</mask>
	</defs>
	<g mask="url(#Cp_1)">
		<rect x="96" y="66" width="3214" height="2250" visibility="hidden" fill="none" opacity="0"/>
		<path d="M 603,1418 L 603,1418 627,1418 652,1418 677,1418 702,1418 726,1418 751,1418 776,1418 800,1418 825,1418 850,1418 874,1418 899,1418 924,1418 948,1418 973,1418 998,1418 1022,1418 1047,1418 1072,1418 1097,1418 1121,1418 1146,1418 1171,1418 1195,1418 1220,1418 1245,1418 1269,1418 1294,1418 1319,1418 1343,1418 1368,1418 1393,1418 1417,1418 1442,1418 1467,1418 1492,1418 1516,1418 1541,1418 1566,1418 1590,1418 1615,1418 1640,1418 1664,1417 1689,1417 1714,1417 1738,1417 1763,1416 1788,1415 1812,1415 1837,1414 1862,1414 1887,1413 1911,1413 1936,1413 1961,1413 1985,1412 2010,1410 2035,1404 2059,1404 2084,1404 2109,1404 2133,1404 2158,1402 2183,1394 2207,1391 2232,1388 2257,1379 2282,1368 2306,1360 2331,1352 2356,1336 2380,1320 2405,1317 2430,1309 2454,1308 2479,1290 2504,1280 2528,1258 2553,1237 2578,1236 2602,1234 2627,1216 2652,1115 2677,917 2701,431 2726,362 2751,355 2775,351 2800,348 2825,347 2849,347 2874,347 2899,347 2923,347 2948,347 2973,347 2997,347 3022,347 3047,347 3047,1418 Z M 603,1418 L 603,1259 627,1259 652,1259 677,1259 702,1259 726,1259 751,1259 776,1259 800,1259 825,1259 850,1259 874,1259 899,1259 924,1259 948,1259 973,1259 998,1259 1022,1259 1047,1259 1072,1259 1097,1259 1121,1259 1146,1259 1171,1259 1195,1259 1220,1259 1245,1259 1269,1259 1294,1259 1319,1259 1343,1259 1368,1259 1393,1259 1417,1259 1442,1259 1467,1259 1492,1259 1516,1259 1541,1259 1566,1258 1590,1257 1615,1257 1640,1256 1664,1256 1689,1254 1714,1253 1738,1252 1763,1251 1788,1249 1812,1248 1837,1247 1862,1247 1887,1247 1911,1247 1936,1246 1961,1246 1985,1245 2010,1243 2035,1237 2059,1236 2084,1237 2109,1237 2133,1238 2158,1238 2183,1230 2207,1223 2232,1220 2257,1205 2282,1192 2306,1183 2331,1173 2356,1152 2380,1135 2405,1126 2430,1113 2454,1108 2479,1083 2504,1070 2528,1039 2553,1016 2578,1010 2602,1001 2627,982 2652,886 2677,679 2701,278 2726,229 2751,224 2775,221 2800,220 2825,219 2849,218 2874,217 2899,217 2923,217 2948,217 2973,217 2997,217 3022,217 3047,217 3047,1418 Z" fill="#FDC1C1" fill-rule="evenodd" stroke="none" olab:comment=""/>
		<polyline points="603,1418 627,1418 652,1418 677,1418 702,1418 726,1418 751,1418 776,1418 800,1418 825,1418 850,1418 874,1418 899,1418 924,1418 948,1418 973,1418 998,1418 1022,1418 1047,1418 1072,1418 1097,1418 1121,1418 1146,1418 1171,1418 1195,1418 1220,1418 1245,1418 1269,1418 1294,1418 1319,1418 1343,1418 1368,1418 1393,1418 1417,1418 1442,1418 1467,1418 1492,1418 1516,1418 1541,1418 1566,1418 1590,1418 1615,1418 1640,1418 1664,1417 1689,1417 1714,1417 1738,1417 1763,1416 1788,1415 1812,1415 1837,1414 1862,1414 1887,1413 1911,1413 1936,1413 1961,1413 1985,1412 2010,1410 2035,1404 2059,1404 2084,1404 2109,1404 2133,1404 2158,1402 2183,1394 2207,1391 2232,1388 2257,1379 2282,1368 2306,1360 2331,1352 2356,1336 2380,1320 2405,1317 2430,1309 2454,1308 2479,1290 2504,1280 2528,1258 2553,1237 2578,1236 2602,1234 2627,1216 2652,1115 2677,917 2701,431 2726,362 2751,355 2775,351 2800,348 2825,347 2849,347 2874,347 2899,347 2923,347 2948,347 2973,347 2997,347 3022,347 3047,347" style="stroke: #FDC1C1;stroke-width: 2;stroke-linecap:round;stroke-linejoin:round" fill="none" olab:comment=""/>
		<polyline points="603,1339 627,1339 652,1339 677,1339 702,1339 726,1339 751,1339 776,1339 800,1339 825,1339 850,1339 874,1339 899,1339 924,1339 948,1339 973,1339 998,1339 1022,1339 1047,1339 1072,1339 1097,1339 1121,1339 1146,1339 1171,1339 1195,1339 1220,1339 1245,1339 1269,1339 1294,1339 1319,1339 1343,1339 1368,1339 1393,1339 1417,1339 1442,1339 1467,1339 1492,1339 1516,1339 1541,1338 1566,1338 1590,1338 1615,1338 1640,1337 1664,1337 1689,1336 1714,1335 1738,1335 1763,1333 1788,1332 1812,1332 1837,1331 1862,1330 1887,1330 1911,1330 1936,1330 1961,1330 1985,1329 2010,1327 2035,1321 2059,1320 2084,1321 2109,1321 2133,1321 2158,1320 2183,1312 2207,1307 2232,1304 2257,1292 2282,1280 2306,1272 2331,1262 2356,1244 2380,1228 2405,1221 2430,1211 2454,1208 2479,1186 2504,1175 2528,1149 2553,1127 2578,1123 2602,1117 2627,1099 2652,1001 2677,798 2701,355 2726,295 2751,290 2775,286 2800,284 2825,283 2849,283 2874,282 2899,282 2923,282 2948,282 2973,282 2997,282 3022,282 3047,282" style="stroke: #F14040;stroke-width: 14;stroke-linecap:round;stroke-linejoin:round" fill="none" olab:comment=""/>
		<polyline points="603,1259 627,1259 652,1259 677,1259 702,1259 726,1259 751,1259 776,1259 800,1259 825,1259 850,1259 874,1259 899,1259 924,1259 948,1259 973,1259 998,1259 1022,1259 1047,1259 1072,1259 1097,1259 1121,1259 1146,1259 1171,1259 1195,1259 1220,1259 1245,1259 1269,1259 1294,1259 1319,1259 1343,1259 1368,1259 1393,1259 1417,1259 1442,1259 1467,1259 1492,1259 1516,1259 1541,1259 1566,1258 1590,1257 1615,1257 1640,1256 1664,1256 1689,1254 1714,1253 1738,1252 1763,1251 1788,1249 1812,1248 1837,1247 1862,1247 1887,1247 1911,1247 1936,1246 1961,1246 1985,1245 2010,1243 2035,1237 2059,1236 2084,1237 2109,1237 2133,1238 2158,1238 2183,1230 2207,1223 2232,1220 2257,1205 2282,1192 2306,1183 2331,1173 2356,1152 2380,1135 2405,1126 2430,1113 2454,1108 2479,1083 2504,1070 2528,1039 2553,1016 2578,1010 2602,1001 2627,982 2652,886 2677,679 2701,278 2726,229 2751,224 2775,221 2800,220 2825,219 2849,218 2874,217 2899,217 2923,217 2948,217 2973,217 2997,217 3022,217 3047,217" style="stroke: #FDC1C1;stroke-width: 2;stroke-linecap:round;stroke-linejoin:round" fill="none" olab:comment=""/>
	</g>
	<polyline points="494,2130 3303,2130" style="stroke: black;stroke-width: 14;stroke-linecap:square;stroke-linejoin:round" fill="none" olab:comment=""/>
	<polyline points="710,2130 710,2111" style="stroke: black;stroke-width: 14;stroke-linecap:butt;stroke-linejoin:round" fill="none" olab:comment=""/>
	<polyline points="926,2130 926,2111" style="stroke: black;stroke-width: 14;stroke-linecap:butt;stroke-linejoin:round" fill="none" olab:comment=""/>
	<polyline points="1142,2130 1142,2111" style="stroke: black;stroke-width: 14;stroke-linecap:butt;stroke-linejoin:round" fill="none" olab:comment=""/>
	<polyline points="1574,2130 1574,2111" style="stroke: black;stroke-width: 14;stroke-linecap:butt;stroke-linejoin:round" fill="none" olab:comment=""/>
	<polyline points="1790,2130 1790,2111" style="stroke: black;stroke-width: 14;stroke-linecap:butt;stroke-linejoin:round" fill="none" olab:comment=""/>
	<polyline points="2007,2130 2007,2111" style="stroke: black;stroke-width: 14;stroke-linecap:butt;stroke-linejoin:round" fill="none" olab:comment=""/>
	<polyline points="2439,2130 2439,2111" style="stroke: black;stroke-width: 14;stroke-linecap:butt;stroke-linejoin:round" fill="none" olab:comment=""/>
	<polyline points="2655,2130 2655,2111" style="stroke: black;stroke-width: 14;stroke-linecap:butt;stroke-linejoin:round" fill="none" olab:comment=""/>
	<polyline points="2871,2130 2871,2111" style="stroke: black;stroke-width: 14;stroke-linecap:butt;stroke-linejoin:round" fill="none" olab:comment=""/>
	<polyline points="3303,2130 3303,2111" style="stroke: black;stroke-width: 14;stroke-linecap:butt;stroke-linejoin:round" fill="none" olab:comment=""/>
	<polyline points="494,2130 494,2092" style="stroke: black;stroke-width: 14;stroke-linecap:butt;stroke-linejoin:round" fill="none" olab:comment=""/>
	<polyline points="1358,2130 1358,2092" style="stroke: black;stroke-width: 14;stroke-linecap:butt;stroke-linejoin:round" fill="none" olab:comment=""/>
	<polyline points="2223,2130 2223,2092" style="stroke: black;stroke-width: 14;stroke-linecap:butt;stroke-linejoin:round" fill="none" olab:comment=""/>
	<polyline points="3087,2130 3087,2092" style="stroke: black;stroke-width: 14;stroke-linecap:butt;stroke-linejoin:round" fill="none" olab:comment=""/>
	<polyline points="494,72 3303,72" style="stroke: black;stroke-width: 14;stroke-linecap:square;stroke-linejoin:round" fill="none" olab:comment=""/>
	<polyline points="710,72 710,91" style="stroke: black;stroke-width: 14;stroke-linecap:butt;stroke-linejoin:round" fill="none" olab:comment=""/>
	<polyline points="926,72 926,91" style="stroke: black;stroke-width: 14;stroke-linecap:butt;stroke-linejoin:round" fill="none" olab:comment=""/>
	<polyline points="1142,72 1142,91" style="stroke: black;stroke-width: 14;stroke-linecap:butt;stroke-linejoin:round" fill="none" olab:comment=""/>
	<polyline points="1574,72 1574,91" style="stroke: black;stroke-width: 14;stroke-linecap:butt;stroke-linejoin:round" fill="none" olab:comment=""/>
	<polyline points="1790,72 1790,91" style="stroke: black;stroke-width: 14;stroke-linecap:butt;stroke-linejoin:round" fill="none" olab:comment=""/>
	<polyline points="2007,72 2007,91" style="stroke: black;stroke-width: 14;stroke-linecap:butt;stroke-linejoin:round" fill="none" olab:comment=""/>
	<polyline points="2439,72 2439,91" style="stroke: black;stroke-width: 14;stroke-linecap:butt;stroke-linejoin:round" fill="none" olab:comment=""/>
	<polyline points="2655,72 2655,91" style="stroke: black;stroke-width: 14;stroke-linecap:butt;stroke-linejoin:round" fill="none" olab:comment=""/>
	<polyline points="2871,72 2871,91" style="stroke: black;stroke-width: 14;stroke-linecap:butt;stroke-linejoin:round" fill="none" olab:comment=""/>
	<polyline points="3303,72 3303,91" style="stroke: black;stroke-width: 14;stroke-linecap:butt;stroke-linejoin:round" fill="none" olab:comment=""/>
	<polyline points="494,72 494,110" style="stroke: black;stroke-width: 14;stroke-linecap:butt;stroke-linejoin:round" fill="none" olab:comment=""/>
	<polyline points="1358,72 1358,110" style="stroke: black;stroke-width: 14;stroke-linecap:butt;stroke-linejoin:round" fill="none" olab:comment=""/>
	<polyline points="2223,72 2223,110" style="stroke: black;stroke-width: 14;stroke-linecap:butt;stroke-linejoin:round" fill="none" olab:comment=""/>
	<polyline points="3087,72 3087,110" style="stroke: black;stroke-width: 14;stroke-linecap:butt;stroke-linejoin:round" fill="none" olab:comment=""/>
	<polyline points="494,2130 494,72" style="stroke: black;stroke-width: 14;stroke-linecap:square;stroke-linejoin:round" fill="none" olab:comment=""/>
	<polyline points="494,1924 513,1924" style="stroke: black;stroke-width: 14;stroke-linecap:butt;stroke-linejoin:round" fill="none" olab:comment=""/>
	<polyline points="494,1718 513,1718" style="stroke: black;stroke-width: 14;stroke-linecap:butt;stroke-linejoin:round" fill="none" olab:comment=""/>
	<polyline points="494,1307 513,1307" style="stroke: black;stroke-width: 14;stroke-linecap:butt;stroke-linejoin:round" fill="none" olab:comment=""/>
	<polyline points="494,1101 513,1101" style="stroke: black;stroke-width: 14;stroke-linecap:butt;stroke-linejoin:round" fill="none" olab:comment=""/>
	<polyline points="494,689 513,689" style="stroke: black;stroke-width: 14;stroke-linecap:butt;stroke-linejoin:round" fill="none" olab:comment=""/>
	<polyline points="494,484 513,484" style="stroke: black;stroke-width: 14;stroke-linecap:butt;stroke-linejoin:round" fill="none" olab:comment=""/>
	<polyline points="494,72 513,72" style="stroke: black;stroke-width: 14;stroke-linecap:butt;stroke-linejoin:round" fill="none" olab:comment=""/>
	<polyline points="494,2130 532,2130" style="stroke: black;stroke-width: 14;stroke-linecap:butt;stroke-linejoin:round" fill="none" olab:comment=""/>
	<polyline points="494,1513 532,1513" style="stroke: black;stroke-width: 14;stroke-linecap:butt;stroke-linejoin:round" fill="none" olab:comment=""/>
	<polyline points="494,895 532,895" style="stroke: black;stroke-width: 14;stroke-linecap:butt;stroke-linejoin:round" fill="none" olab:comment=""/>
	<polyline points="494,278 532,278" style="stroke: black;stroke-width: 14;stroke-linecap:butt;stroke-linejoin:round" fill="none" olab:comment=""/>
	<polyline points="3303,2130 3303,72" style="stroke: black;stroke-width: 14;stroke-linecap:square;stroke-linejoin:round" fill="none" olab:comment=""/>
	<polyline points="3303,1924 3284,1924" style="stroke: black;stroke-width: 14;stroke-linecap:butt;stroke-linejoin:round" fill="none" olab:comment=""/>
	<polyline points="3303,1718 3284,1718" style="stroke: black;stroke-width: 14;stroke-linecap:butt;stroke-linejoin:round" fill="none" olab:comment=""/>
	<polyline points="3303,1307 3284,1307" style="stroke: black;stroke-width: 14;stroke-linecap:butt;stroke-linejoin:round" fill="none" olab:comment=""/>
	<polyline points="3303,1101 3284,1101" style="stroke: black;stroke-width: 14;stroke-linecap:butt;stroke-linejoin:round" fill="none" olab:comment=""/>
	<polyline points="3303,689 3284,689" style="stroke: black;stroke-width: 14;stroke-linecap:butt;stroke-linejoin:round" fill="none" olab:comment=""/>
	<polyline points="3303,484 3284,484" style="stroke: black;stroke-width: 14;stroke-linecap:butt;stroke-linejoin:round" fill="none" olab:comment=""/>
	<polyline points="3303,72 3284,72" style="stroke: black;stroke-width: 14;stroke-linecap:butt;stroke-linejoin:round" fill="none" olab:comment=""/>
	<polyline points="3303,2130 3265,2130" style="stroke: black;stroke-width: 14;stroke-linecap:butt;stroke-linejoin:round" fill="none" olab:comment=""/>
	<polyline points="3303,1513 3265,1513" style="stroke: black;stroke-width: 14;stroke-linecap:butt;stroke-linejoin:round" fill="none" olab:comment=""/>
	<polyline points="3303,895 3265,895" style="stroke: black;stroke-width: 14;stroke-linecap:butt;stroke-linejoin:round" fill="none" olab:comment=""/>
	<polyline points="3303,278 3265,278" style="stroke: black;stroke-width: 14;stroke-linecap:butt;stroke-linejoin:round" fill="none" olab:comment=""/>
	<text x="387" dominant-baseline="auto" y="2275" fill="black" font-family="Times New Roman,'MS PGothic',SimSun" font-size="137" font-weight="400" olab:comment="">
		<tspan x="387" style="font-kerning:none">−40</tspan>
	</text>
	<text x="1251" dominant-baseline="auto" y="2275" fill="black" font-family="Times New Roman,'MS PGothic',SimSun" font-size="137" font-weight="400" olab:comment="">
		<tspan x="1251" style="font-kerning:none">−20</tspan>
	</text>
	<text x="2189" dominant-baseline="auto" y="2275" fill="black" font-family="Times New Roman,'MS PGothic',SimSun" font-size="137" font-weight="400" olab:comment="">
		<tspan x="2189" style="font-kerning:none">0</tspan>
	</text>
	<text x="3018" dominant-baseline="auto" y="2275" fill="black" font-family="Times New Roman,'MS PGothic',SimSun" font-size="137" font-weight="400" olab:comment="">
		<tspan x="3018" style="font-kerning:none">20</tspan>
	</text>
	<text x="281" dominant-baseline="auto" y="2170" fill="black" font-family="Times New Roman,'MS PGothic',SimSun" font-size="137" font-weight="400" olab:comment="">
		<tspan x="281" style="font-kerning:none">0.0</tspan>
	</text>
	<text x="281" dominant-baseline="auto" y="1553" fill="black" font-family="Times New Roman,'MS PGothic',SimSun" font-size="137" font-weight="400" olab:comment="">
		<tspan x="281" style="font-kerning:none">0.3</tspan>
	</text>
	<text x="281" dominant-baseline="auto" y="935" fill="black" font-family="Times New Roman,'MS PGothic',SimSun" font-size="137" font-weight="400" olab:comment="">
		<tspan x="281" style="font-kerning:none">0.6</tspan>
	</text>
	<text x="281" dominant-baseline="auto" y="318" fill="black" font-family="Times New Roman,'MS PGothic',SimSun" font-size="137" font-weight="400" olab:comment="">
		<tspan x="281" style="font-kerning:none">0.9</tspan>
	</text>
	<text x="0" dominant-baseline="auto" y="0" fill="black" font-family="Arial,'MS PGothic',SimSun" font-size="137" font-weight="400" transform="matrix(-1.83697e-16 -1 0.999999 -1.83697e-16 231 1257)" olab:comment="">
		<tspan x="0" style="font-kerning:none">BIO8</tspan>
	</text>
</svg>

